<svg version="1.1" xmlns="http://www.w3.org/2000/svg" xmlns:xlink="http://www.w3.org/1999/xlink" width="964" height="1020"><defs/><g><g transform="translate(-94,-46) scale(1,1)"><rect fill="#C0C0C0" stroke="none" x="231" y="63" width="824" height="1000" opacity="0.2"/></g><g transform="translate(-94,-46) scale(1,1)"><rect fill="#ffff91" stroke="none" x="224" y="56" width="824" height="1000"/></g><g transform="translate(-94,-46) scale(1,1)"><path fill="none" stroke="#000000" d="M 224 56 L 1048 56 L 1048 1056 L 224 1056 L 224 56 Z Z" stroke-miterlimit="10"/></g><g transform="translate(-94,-46) scale(1,1)"><g><path fill="none" stroke="none"/><text fill="#000000" stroke="none" font-family="Arial" font-size="13px" font-style="normal" font-weight="bold" text-decoration="none" x="595.17822265625" y="75.5">Smart Garden</text></g></g><g transform="translate(-94,-46) scale(1,1)"><path fill="#ffffff" stroke="none" d="M 130.15935031960228 377.68 C 130.15935031960228 372.886167936 134.04519264454774 369 138.838623046875 369 C 143.63205344920226 369 147.51789577414772 372.886167936 147.51789577414772 377.68 C 147.51789577414772 382.473832064 143.63205344920226 386.36 138.838623046875 386.36 C 134.04519264454774 386.36 130.15935031960228 382.473832064 130.15935031960228 377.68 Z"/></g><g transform="translate(-94,-46) scale(1,1)"><path fill="none" stroke="#000000" d="M 130.15935031960228 377.68 C 130.15935031960228 372.886167936 134.04519264454774 369 138.838623046875 369 C 143.63205344920226 369 147.51789577414772 372.886167936 147.51789577414772 377.68 C 147.51789577414772 382.473832064 143.63205344920226 386.36 138.838623046875 386.36 C 134.04519264454774 386.36 130.15935031960228 382.473832064 130.15935031960228 377.68 Z" stroke-miterlimit="10"/></g><g transform="translate(-94,-46) scale(1,1)"><path fill="none" stroke="#000000" d="M 138.838623046875 386.36 L 138.838623046875 403.64" stroke-miterlimit="10"/></g><g transform="translate(-94,-46) scale(1,1)"><path fill="none" stroke="#000000" d="M 129.64880486505683 392.84 L 148.02844122869317 392.84" stroke-miterlimit="10"/></g><g transform="translate(-94,-46) scale(1,1)"><path fill="none" stroke="#000000" d="M 138.838623046875 403.64 L 126.07498668323865 421" stroke-miterlimit="10"/></g><g transform="translate(-94,-46) scale(1,1)"><path fill="none" stroke="#000000" d="M 138.838623046875 403.64 L 151.60225941051135 421" stroke-miterlimit="10"/></g><g transform="translate(-94,-46) scale(1,1)"><g><path fill="none" stroke="none"/><text fill="#000000" stroke="none" font-family="Arial" font-size="13px" font-style="normal" font-weight="bold" text-decoration="none" x="125.114990234375" y="441.5">User</text></g></g><g transform="translate(-94,-46) scale(1,1)"><path fill="#C0C0C0" stroke="none" d="M 423 427 C 423 407.1177472 464.6375136 391 516 391 C 567.3624864 391 609 407.1177472 609 427 C 609 446.8822528 567.3624864 463 516 463 C 464.6375136 463 423 446.8822528 423 427 Z" opacity="0.2"/></g><g transform="translate(-94,-46) scale(1,1)"><path fill="#ffffff" stroke="none" d="M 416 420 C 416 400.1177472 457.6375136 384 509 384 C 560.3624864 384 602 400.1177472 602 420 C 602 439.8822528 560.3624864 456 509 456 C 457.6375136 456 416 439.8822528 416 420 Z"/></g><g transform="translate(-94,-46) scale(1,1)"><path fill="none" stroke="#000000" d="M 416 420 C 416 400.1177472 457.6375136 384 509 384 C 560.3624864 384 602 400.1177472 602 420 C 602 439.8822528 560.3624864 456 509 456 C 457.6375136 456 416 439.8822528 416 420 Z" stroke-miterlimit="10"/></g><g transform="translate(-94,-46) scale(1,1)"><g><path fill="none" stroke="none"/><text fill="#000000" stroke="none" font-family="Arial" font-size="13px" font-style="normal" font-weight="bold" text-decoration="none" x="451.201416015625" y="427">View System Status</text></g></g><g transform="translate(-94,-46) scale(1,1)"><path fill="#C0C0C0" stroke="none" d="M 343 275 C 343 255.1177472 382.3989376 239 431 239 C 479.6010624 239 519 255.1177472 519 275 C 519 294.8822528 479.6010624 311 431 311 C 382.3989376 311 343 294.8822528 343 275 Z" opacity="0.2"/></g><g transform="translate(-94,-46) scale(1,1)"><path fill="#ffffff" stroke="none" d="M 336 268 C 336 248.1177472 375.3989376 232 424 232 C 472.6010624 232 512 248.1177472 512 268 C 512 287.8822528 472.6010624 304 424 304 C 375.3989376 304 336 287.8822528 336 268 Z"/></g><g transform="translate(-94,-46) scale(1,1)"><path fill="none" stroke="#000000" d="M 336 268 C 336 248.1177472 375.3989376 232 424 232 C 472.6010624 232 512 248.1177472 512 268 C 512 287.8822528 472.6010624 304 424 304 C 375.3989376 304 336 287.8822528 336 268 Z" stroke-miterlimit="10"/></g><g transform="translate(-94,-46) scale(1,1)"><g><path fill="none" stroke="none"/><text fill="#000000" stroke="none" font-family="Arial" font-size="13px" font-style="normal" font-weight="bold" text-decoration="none" x="381.365966796875" y="275">Update Library</text></g></g><g transform="translate(-94,-46) scale(1,1)"><path fill="#C0C0C0" stroke="none" d="M 407 163 C 407 147.5360256 433.862912 135 467 135 C 500.137088 135 527 147.5360256 527 163 C 527 178.4639744 500.137088 191 467 191 C 433.862912 191 407 178.4639744 407 163 Z" opacity="0.2"/></g><g transform="translate(-94,-46) scale(1,1)"><path fill="#ffffff" stroke="none" d="M 400 156 C 400 140.5360256 426.862912 128 460 128 C 493.137088 128 520 140.5360256 520 156 C 520 171.4639744 493.137088 184 460 184 C 426.862912 184 400 171.4639744 400 156 Z"/></g><g transform="translate(-94,-46) scale(1,1)"><path fill="none" stroke="#000000" d="M 400 156 C 400 140.5360256 426.862912 128 460 128 C 493.137088 128 520 140.5360256 520 156 C 520 171.4639744 493.137088 184 460 184 C 426.862912 184 400 171.4639744 400 156 Z" stroke-miterlimit="10"/></g><g transform="translate(-94,-46) scale(1,1)"><g><path fill="none" stroke="none"/><text fill="#000000" stroke="none" font-family="Arial" font-size="13px" font-style="normal" font-weight="bold" text-decoration="none" x="444.095947265625" y="163">Login</text></g></g><g transform="translate(-94,-46) scale(1,1)"><path fill="none" stroke="#000000" d="M 175 408 L 415 417" stroke-miterlimit="10"/></g><g transform="translate(-94,-46) scale(1,1)"><path fill="none" stroke="#000000" d="M 404.68671720591584 420.8257284285803 L 415 417 L 405.00220928518127 412.41260631483584" stroke-miterlimit="10"/></g><g transform="translate(-94,-46) scale(1,1)"><path fill="none" stroke="#000000" d="M 175 389 L 348 305" stroke-miterlimit="10"/></g><g transform="translate(-94,-46) scale(1,1)"><path fill="none" stroke="#000000" d="M 340.69664673359745 313.22563256328215 L 348 305 L 337.0193488148802 305.65214994497154" stroke-miterlimit="10"/></g><g transform="translate(-94,-46) scale(1,1)"><path fill="#C0C0C0" stroke="none" d="M 527 626.5 C 527 593.6390544 582.2928272 567 650.5 567 C 718.7071728 567 774 593.6390544 774 626.5 C 774 659.3609456 718.7071728 686 650.5 686 C 582.2928272 686 527 659.3609456 527 626.5 Z" opacity="0.2"/></g><g transform="translate(-94,-46) scale(1,1)"><path fill="#ffffff" stroke="none" d="M 520 619.5 C 520 586.6390544 575.2928272 560 643.5 560 C 711.7071728 560 767 586.6390544 767 619.5 C 767 652.3609456 711.7071728 679 643.5 679 C 575.2928272 679 520 652.3609456 520 619.5 Z"/></g><g transform="translate(-94,-46) scale(1,1)"><path fill="none" stroke="#000000" d="M 520 619.5 C 520 586.6390544 575.2928272 560 643.5 560 C 711.7071728 560 767 586.6390544 767 619.5 C 767 652.3609456 711.7071728 679 643.5 679 C 575.2928272 679 520 652.3609456 520 619.5 Z" stroke-miterlimit="10"/></g><g transform="translate(-94,-46) scale(1,1)"><g><path fill="none" stroke="none"/><text fill="#000000" stroke="none" font-family="Arial" font-size="13px" font-style="normal" font-weight="bold" text-decoration="none" x="575.583251953125" y="626.5">Control Garden System</text></g></g><g transform="translate(-94,-46) scale(1,1)"><path fill="#ffffff" stroke="none" d="M 136.40935031960228 121.68 C 136.40935031960228 116.886167936 140.29519264454774 113 145.088623046875 113 C 149.88205344920226 113 153.76789577414772 116.886167936 153.76789577414772 121.68 C 153.76789577414772 126.473832064 149.88205344920226 130.36 145.088623046875 130.36 C 140.29519264454774 130.36 136.40935031960228 126.473832064 136.40935031960228 121.68 Z"/></g><g transform="translate(-94,-46) scale(1,1)"><path fill="none" stroke="#000000" d="M 136.40935031960228 121.68 C 136.40935031960228 116.886167936 140.29519264454774 113 145.088623046875 113 C 149.88205344920226 113 153.76789577414772 116.886167936 153.76789577414772 121.68 C 153.76789577414772 126.473832064 149.88205344920226 130.36 145.088623046875 130.36 C 140.29519264454774 130.36 136.40935031960228 126.473832064 136.40935031960228 121.68 Z" stroke-miterlimit="10"/></g><g transform="translate(-94,-46) scale(1,1)"><path fill="none" stroke="#000000" d="M 145.088623046875 130.36 L 145.088623046875 147.64" stroke-miterlimit="10"/></g><g transform="translate(-94,-46) scale(1,1)"><path fill="none" stroke="#000000" d="M 135.89880486505683 136.84 L 154.27844122869317 136.84" stroke-miterlimit="10"/></g><g transform="translate(-94,-46) scale(1,1)"><path fill="none" stroke="#000000" d="M 145.088623046875 147.64 L 132.32498668323865 165" stroke-miterlimit="10"/></g><g transform="translate(-94,-46) scale(1,1)"><path fill="none" stroke="#000000" d="M 145.088623046875 147.64 L 157.85225941051135 165" stroke-miterlimit="10"/></g><g transform="translate(-94,-46) scale(1,1)"><g><path fill="none" stroke="none"/><text fill="#000000" stroke="none" font-family="Arial" font-size="13px" font-style="normal" font-weight="bold" text-decoration="none" x="126.302734375" y="185.5">Guess</text></g></g><g transform="translate(-94,-46) scale(1,1)"><path fill="none" stroke="#000000" d="M 171 151 L 399 155" stroke-miterlimit="10"/></g><g transform="translate(-94,-46) scale(1,1)"><path fill="none" stroke="#000000" d="M 388.76504892499577 159.03060497844544 L 399 155 L 388.9127285772089 150.61286480229498" stroke-miterlimit="10"/></g><g transform="translate(-94,-46) scale(1,1)"><path fill="#C0C0C0" stroke="none" d="M 303 978.5 C 303 958.8938896 335.0116368 943 374.5 943 C 413.9883632 943 446 958.8938896 446 978.5 C 446 998.1061104 413.9883632 1014 374.5 1014 C 335.0116368 1014 303 998.1061104 303 978.5 Z" opacity="0.2"/></g><g transform="translate(-94,-46) scale(1,1)"><path fill="#ffffff" stroke="none" d="M 296 971.5 C 296 951.8938896 328.0116368 936 367.5 936 C 406.9883632 936 439 951.8938896 439 971.5 C 439 991.1061104 406.9883632 1007 367.5 1007 C 328.0116368 1007 296 991.1061104 296 971.5 Z"/></g><g transform="translate(-94,-46) scale(1,1)"><path fill="none" stroke="#000000" d="M 296 971.5 C 296 951.8938896 328.0116368 936 367.5 936 C 406.9883632 936 439 951.8938896 439 971.5 C 439 991.1061104 406.9883632 1007 367.5 1007 C 328.0116368 1007 296 991.1061104 296 971.5 Z" stroke-miterlimit="10"/></g><g transform="translate(-94,-46) scale(1,1)"><g><path fill="none" stroke="none"/><text fill="#000000" stroke="none" font-family="Arial" font-size="13px" font-style="normal" font-weight="bold" text-decoration="none" x="347.619140625" y="978.5">Logout</text></g></g><g transform="translate(-94,-46) scale(1,1)"><path fill="none" stroke="#000000" d="M 155 448 L 352 935" stroke-miterlimit="10"/></g><g transform="translate(-94,-46) scale(1,1)"><path fill="none" stroke="#000000" d="M 344.2866861310211 927.1575010896643 L 352 935 L 352.0913476187713 924.0003792968782" stroke-miterlimit="10"/></g><g transform="translate(-94,-46) scale(1,1)"><path fill="#C0C0C0" stroke="none" d="M 271 622.5 C 271 600.6847504 313.0852288 583 365 583 C 416.9147712 583 459 600.6847504 459 622.5 C 459 644.3152496 416.9147712 662 365 662 C 313.0852288 662 271 644.3152496 271 622.5 Z" opacity="0.2"/></g><g transform="translate(-94,-46) scale(1,1)"><path fill="#ffffff" stroke="none" d="M 264 615.5 C 264 593.6847504 306.0852288 576 358 576 C 409.9147712 576 452 593.6847504 452 615.5 C 452 637.3152496 409.9147712 655 358 655 C 306.0852288 655 264 637.3152496 264 615.5 Z"/></g><g transform="translate(-94,-46) scale(1,1)"><path fill="none" stroke="#000000" d="M 264 615.5 C 264 593.6847504 306.0852288 576 358 576 C 409.9147712 576 452 593.6847504 452 615.5 C 452 637.3152496 409.9147712 655 358 655 C 306.0852288 655 264 637.3152496 264 615.5 Z" stroke-miterlimit="10"/></g><g transform="translate(-94,-46) scale(1,1)"><g><path fill="none" stroke="none"/><text fill="#000000" stroke="none" font-family="Arial" font-size="13px" font-style="normal" font-weight="bold" text-decoration="none" x="300.550537109375" y="622.5">Control end devices</text></g></g><g transform="translate(-94,-46) scale(1,1)"><path fill="none" stroke="#000000" d="M 175 422 L 519 567" stroke-miterlimit="10"/></g><g transform="translate(-94,-46) scale(1,1)"><path fill="none" stroke="#000000" d="M 508.00021231893226 566.9316554945102 L 519 567 L 511.27030240239344 559.173648675816" stroke-miterlimit="10"/></g><g transform="translate(-94,-46) scale(1,1)"><path fill="#C0C0C0" stroke="none" d="M 615 211 C 615 199.954304 653.2796496 191 700.5 191 C 747.7203504 191 786 199.954304 786 211 C 786 222.045696 747.7203504 231 700.5 231 C 653.2796496 231 615 222.045696 615 211 Z" opacity="0.2"/></g><g transform="translate(-94,-46) scale(1,1)"><path fill="#ffffff" stroke="none" d="M 608 204 C 608 192.954304 646.2796496 184 693.5 184 C 740.7203504 184 779 192.954304 779 204 C 779 215.045696 740.7203504 224 693.5 224 C 646.2796496 224 608 215.045696 608 204 Z"/></g><g transform="translate(-94,-46) scale(1,1)"><path fill="none" stroke="#000000" d="M 608 204 C 608 192.954304 646.2796496 184 693.5 184 C 740.7203504 184 779 192.954304 779 204 C 779 215.045696 740.7203504 224 693.5 224 C 646.2796496 224 608 215.045696 608 204 Z" stroke-miterlimit="10"/></g><g transform="translate(-94,-46) scale(1,1)"><g><path fill="none" stroke="none"/><text fill="#000000" stroke="none" font-family="Arial" font-size="13px" font-style="normal" font-weight="bold" text-decoration="none" x="640.3955078125" y="211">View Temperature</text></g></g><g transform="translate(-94,-46) scale(1,1)"><path fill="#C0C0C0" stroke="none" d="M 679 287 C 679 273.7451648 713.0263552 263 755 263 C 796.9736448 263 831 273.7451648 831 287 C 831 300.2548352 796.9736448 311 755 311 C 713.0263552 311 679 300.2548352 679 287 Z" opacity="0.2"/></g><g transform="translate(-94,-46) scale(1,1)"><path fill="#ffffff" stroke="none" d="M 672 280 C 672 266.7451648 706.0263552 256 748 256 C 789.9736448 256 824 266.7451648 824 280 C 824 293.2548352 789.9736448 304 748 304 C 706.0263552 304 672 293.2548352 672 280 Z"/></g><g transform="translate(-94,-46) scale(1,1)"><path fill="none" stroke="#000000" d="M 672 280 C 672 266.7451648 706.0263552 256 748 256 C 789.9736448 256 824 266.7451648 824 280 C 824 293.2548352 789.9736448 304 748 304 C 706.0263552 304 672 293.2548352 672 280 Z" stroke-miterlimit="10"/></g><g transform="translate(-94,-46) scale(1,1)"><g><path fill="none" stroke="none"/><text fill="#000000" stroke="none" font-family="Arial" font-size="13px" font-style="normal" font-weight="bold" text-decoration="none" x="706.82275390625" y="287">View Humidity</text></g></g><g transform="translate(-94,-46) scale(1,1)"><path fill="#C0C0C0" stroke="none" d="M 783 352 C 783 342.6111584 806.505048 335 835.5 335 C 864.494952 335 888 342.6111584 888 352 C 888 361.3888416 864.494952 369 835.5 369 C 806.505048 369 783 361.3888416 783 352 Z" opacity="0.2"/></g><g transform="translate(-94,-46) scale(1,1)"><path fill="#ffffff" stroke="none" d="M 776 345 C 776 335.6111584 799.505048 328 828.5 328 C 857.494952 328 881 335.6111584 881 345 C 881 354.3888416 857.494952 362 828.5 362 C 799.505048 362 776 354.3888416 776 345 Z"/></g><g transform="translate(-94,-46) scale(1,1)"><path fill="none" stroke="#000000" d="M 776 345 C 776 335.6111584 799.505048 328 828.5 328 C 857.494952 328 881 335.6111584 881 345 C 881 354.3888416 857.494952 362 828.5 362 C 799.505048 362 776 354.3888416 776 345 Z" stroke-miterlimit="10"/></g><g transform="translate(-94,-46) scale(1,1)"><g><path fill="none" stroke="none"/><text fill="#000000" stroke="none" font-family="Arial" font-size="13px" font-style="normal" font-weight="bold" text-decoration="none" x="798.510498046875" y="352">View Light</text></g></g><g transform="translate(-94,-46) scale(1,1)"><path fill="#C0C0C0" stroke="none" d="M 783 416 C 783 406.6111584 842.0984064 399 915 399 C 987.9015936 399 1047 406.6111584 1047 416 C 1047 425.3888416 987.9015936 433 915 433 C 842.0984064 433 783 425.3888416 783 416 Z" opacity="0.2"/></g><g transform="translate(-94,-46) scale(1,1)"><path fill="#ffffff" stroke="none" d="M 776 409 C 776 399.6111584 835.0984064 392 908 392 C 980.9015936 392 1040 399.6111584 1040 409 C 1040 418.3888416 980.9015936 426 908 426 C 835.0984064 426 776 418.3888416 776 409 Z"/></g><g transform="translate(-94,-46) scale(1,1)"><path fill="none" stroke="#000000" d="M 776 409 C 776 399.6111584 835.0984064 392 908 392 C 980.9015936 392 1040 399.6111584 1040 409 C 1040 418.3888416 980.9015936 426 908 426 C 835.0984064 426 776 418.3888416 776 409 Z" stroke-miterlimit="10"/></g><g transform="translate(-94,-46) scale(1,1)"><g><path fill="none" stroke="none"/><text fill="#000000" stroke="none" font-family="Arial" font-size="13px" font-style="normal" font-weight="bold" text-decoration="none" x="825.483642578125" y="416">View Electric Device's status</text></g></g><g transform="translate(-94,-46) scale(1,1)"><path fill="#C0C0C0" stroke="none" d="M 319 771 C 319 751.1177472 365.5623808 735 423 735 C 480.4376192 735 527 751.1177472 527 771 C 527 790.8822528 480.4376192 807 423 807 C 365.5623808 807 319 790.8822528 319 771 Z" opacity="0.2"/></g><g transform="translate(-94,-46) scale(1,1)"><path fill="#ffffff" stroke="none" d="M 312 764 C 312 744.1177472 358.5623808 728 416 728 C 473.4376192 728 520 744.1177472 520 764 C 520 783.8822528 473.4376192 800 416 800 C 358.5623808 800 312 783.8822528 312 764 Z"/></g><g transform="translate(-94,-46) scale(1,1)"><path fill="none" stroke="#000000" d="M 312 764 C 312 744.1177472 358.5623808 728 416 728 C 473.4376192 728 520 744.1177472 520 764 C 520 783.8822528 473.4376192 800 416 800 C 358.5623808 800 312 783.8822528 312 764 Z" stroke-miterlimit="10"/></g><g transform="translate(-94,-46) scale(1,1)"><g><path fill="none" stroke="none"/><text fill="#000000" stroke="none" font-family="Arial" font-size="13px" font-style="normal" font-weight="bold" text-decoration="none" x="368.675048828125" y="771">Tracking Sensor</text></g></g><g transform="translate(-94,-46) scale(1,1)"><path fill="#C0C0C0" stroke="none" d="M 751 911 C 751 897.7451648 783.2354944 887 823 887 C 862.7645056 887 895 897.7451648 895 911 C 895 924.2548352 862.7645056 935 823 935 C 783.2354944 935 751 924.2548352 751 911 Z" opacity="0.2"/></g><g transform="translate(-94,-46) scale(1,1)"><path fill="#ffffff" stroke="none" d="M 744 904 C 744 890.7451648 776.2354944 880 816 880 C 855.7645056 880 888 890.7451648 888 904 C 888 917.2548352 855.7645056 928 816 928 C 776.2354944 928 744 917.2548352 744 904 Z"/></g><g transform="translate(-94,-46) scale(1,1)"><path fill="none" stroke="#000000" d="M 744 904 C 744 890.7451648 776.2354944 880 816 880 C 855.7645056 880 888 890.7451648 888 904 C 888 917.2548352 855.7645056 928 816 928 C 776.2354944 928 744 917.2548352 744 904 Z" stroke-miterlimit="10"/></g><g transform="translate(-94,-46) scale(1,1)"><g><path fill="none" stroke="none"/><text fill="#000000" stroke="none" font-family="Arial" font-size="13px" font-style="normal" font-weight="bold" text-decoration="none" x="771.931396484375" y="911">On Off Devices</text></g></g><g transform="translate(-94,-46) scale(1,1)"><path fill="none" stroke="#000000" d="M 680 680 L 801 879" stroke-miterlimit="10" stroke-dasharray="3"/></g><g transform="translate(-94,-46) scale(1,1)"><path fill="none" stroke="#000000" d="M 792.1232910924526 872.5035364258183 L 801 879 L 799.3169123838895 868.129525489819" stroke-miterlimit="10"/></g><g transform="translate(-94,-46) scale(1,1)"><g><path fill="none" stroke="none"/><text fill="#000000" stroke="none" font-family="Arial" font-size="13px" font-style="normal" font-weight="normal" text-decoration="none" x="738" y="770">«include»</text></g></g><g transform="translate(-94,-46) scale(1,1)"><path fill="#C0C0C0" stroke="none" d="M 839 823 C 839 809.7451648 876.6080768 799 923 799 C 969.3919232 799 1007 809.7451648 1007 823 C 1007 836.2548352 969.3919232 847 923 847 C 876.6080768 847 839 836.2548352 839 823 Z" opacity="0.2"/></g><g transform="translate(-94,-46) scale(1,1)"><path fill="#ffffff" stroke="none" d="M 832 816 C 832 802.7451648 869.6080768 792 916 792 C 962.3919232 792 1000 802.7451648 1000 816 C 1000 829.2548352 962.3919232 840 916 840 C 869.6080768 840 832 829.2548352 832 816 Z"/></g><g transform="translate(-94,-46) scale(1,1)"><path fill="none" stroke="#000000" d="M 832 816 C 832 802.7451648 869.6080768 792 916 792 C 962.3919232 792 1000 802.7451648 1000 816 C 1000 829.2548352 962.3919232 840 916 840 C 869.6080768 840 832 829.2548352 832 816 Z" stroke-miterlimit="10"/></g><g transform="translate(-94,-46) scale(1,1)"><g><path fill="none" stroke="none"/><text fill="#000000" stroke="none" font-family="Arial" font-size="13px" font-style="normal" font-weight="bold" text-decoration="none" x="864.701416015625" y="823">Add New Devices</text></g></g><g transform="translate(-94,-46) scale(1,1)"><path fill="none" stroke="#000000" d="M 728 680 L 881 791" stroke-miterlimit="10" stroke-dasharray="3"/></g><g transform="translate(-94,-46) scale(1,1)"><path fill="none" stroke="#000000" d="M 870.3021638635355 788.4394723205255 L 881 791 L 875.2460540094557 781.6249210383112" stroke-miterlimit="10"/></g><g transform="translate(-94,-46) scale(1,1)"><g><path fill="none" stroke="none"/><text fill="#000000" stroke="none" font-family="Arial" font-size="13px" font-style="normal" font-weight="normal" text-decoration="none" x="794" y="717">«include»</text></g></g><g transform="translate(-94,-46) scale(1,1)"><path fill="#C0C0C0" stroke="none" d="M 799 707 C 799 687.1177472 854.5166848 671 923 671 C 991.4833152 671 1047 687.1177472 1047 707 C 1047 726.8822528 991.4833152 743 923 743 C 854.5166848 743 799 726.8822528 799 707 Z" opacity="0.2"/></g><g transform="translate(-94,-46) scale(1,1)"><path fill="#ffffff" stroke="none" d="M 792 700 C 792 680.1177472 847.5166848 664 916 664 C 984.4833152 664 1040 680.1177472 1040 700 C 1040 719.8822528 984.4833152 736 916 736 C 847.5166848 736 792 719.8822528 792 700 Z"/></g><g transform="translate(-94,-46) scale(1,1)"><path fill="none" stroke="#000000" d="M 792 700 C 792 680.1177472 847.5166848 664 916 664 C 984.4833152 664 1040 680.1177472 1040 700 C 1040 719.8822528 984.4833152 736 916 736 C 847.5166848 736 792 719.8822528 792 700 Z" stroke-miterlimit="10"/></g><g transform="translate(-94,-46) scale(1,1)"><g><path fill="none" stroke="none"/><text fill="#000000" stroke="none" font-family="Arial" font-size="13px" font-style="normal" font-weight="bold" text-decoration="none" x="845.906005859375" y="707">Delete registered device</text></g></g><g transform="translate(-94,-46) scale(1,1)"><path fill="none" stroke="#000000" d="M 768 656 L 791 663" stroke-miterlimit="10" stroke-dasharray="3"/></g><g transform="translate(-94,-46) scale(1,1)"><path fill="none" stroke="#000000" d="M 780.0519844169123 664.068154854162 L 791 663 L 782.5032843999275 656.013883481398" stroke-miterlimit="10"/></g><g transform="translate(-94,-46) scale(1,1)"><g><path fill="none" stroke="none"/><text fill="#000000" stroke="none" font-family="Arial" font-size="13px" font-style="normal" font-weight="normal" text-decoration="none" x="761" y="637">«include»</text></g></g><g transform="translate(-94,-46) scale(1,1)"><path fill="#C0C0C0" stroke="none" d="M 447 884 C 447 867.9837408 508.3369824 855 584 855 C 659.6630176 855 721 867.9837408 721 884 C 721 900.0162592 659.6630176 913 584 913 C 508.3369824 913 447 900.0162592 447 884 Z" opacity="0.2"/></g><g transform="translate(-94,-46) scale(1,1)"><path fill="#ffffff" stroke="none" d="M 440 877 C 440 860.9837408 501.3369824 848 577 848 C 652.6630176 848 714 860.9837408 714 877 C 714 893.0162592 652.6630176 906 577 906 C 501.3369824 906 440 893.0162592 440 877 Z"/></g><g transform="translate(-94,-46) scale(1,1)"><path fill="none" stroke="#000000" d="M 440 877 C 440 860.9837408 501.3369824 848 577 848 C 652.6630176 848 714 860.9837408 714 877 C 714 893.0162592 652.6630176 906 577 906 C 501.3369824 906 440 893.0162592 440 877 Z" stroke-miterlimit="10"/></g><g transform="translate(-94,-46) scale(1,1)"><g><path fill="none" stroke="none"/><text fill="#000000" stroke="none" font-family="Arial" font-size="13px" font-style="normal" font-weight="bold" text-decoration="none" x="491.582763671875" y="884">Schedule system's using time</text></g></g><g transform="translate(-94,-46) scale(1,1)"><path fill="#C0C0C0" stroke="none" d="M 655 120 C 655 106.19288 743.1998944 95 852 95 C 960.8001056 95 1049 106.19288 1049 120 C 1049 133.80712 960.8001056 145 852 145 C 743.1998944 145 655 133.80712 655 120 Z" opacity="0.2"/></g><g transform="translate(-94,-46) scale(1,1)"><path fill="#ffffff" stroke="none" d="M 648 113 C 648 99.19288 736.1998944 88 845 88 C 953.8001056 88 1042 99.19288 1042 113 C 1042 126.80712 953.8001056 138 845 138 C 736.1998944 138 648 126.80712 648 113 Z"/></g><g transform="translate(-94,-46) scale(1,1)"><path fill="none" stroke="#000000" d="M 648 113 C 648 99.19288 736.1998944 88 845 88 C 953.8001056 88 1042 99.19288 1042 113 C 1042 126.80712 953.8001056 138 845 138 C 736.1998944 138 648 126.80712 648 113 Z" stroke-miterlimit="10"/></g><g transform="translate(-94,-46) scale(1,1)"><g><path fill="none" stroke="none"/><text fill="#000000" stroke="none" font-family="Arial" font-size="13px" font-style="normal" font-weight="bold" text-decoration="none" x="719.624267578125" y="120">React when unexpected problems occurred</text></g></g><g transform="translate(-94,-46) scale(1,1)"><path fill="none" stroke="#000000" d="M 728 183 L 802 139" stroke-miterlimit="10" stroke-dasharray="3"/></g><g transform="translate(-94,-46) scale(1,1)"><path fill="none" stroke="#000000" d="M 795.416197182566 147.81212462809896 L 802 139 L 791.1134353006075 140.57566146298706" stroke-miterlimit="10"/></g><g transform="translate(-94,-46) scale(1,1)"><g><path fill="none" stroke="none"/><text fill="#000000" stroke="none" font-family="Arial" font-size="13px" font-style="normal" font-weight="normal" text-decoration="none" x="723" y="142">«extend»</text></g></g><g transform="translate(-94,-46) scale(1,1)"><path fill="none" stroke="#000000" d="M 763 255 L 830 139" stroke-miterlimit="10" stroke-dasharray="3"/></g><g transform="translate(-94,-46) scale(1,1)"><path fill="none" stroke="#000000" d="M 828.5622822715997 149.90563926294297 L 830 139 L 821.2719285688147 145.69483152081722" stroke-miterlimit="10"/></g><g transform="translate(-94,-46) scale(1,1)"><g><path fill="none" stroke="none"/><text fill="#000000" stroke="none" font-family="Arial" font-size="13px" font-style="normal" font-weight="normal" text-decoration="none" x="744" y="188">«extend»</text></g></g><g transform="translate(-94,-46) scale(1,1)"><path fill="none" stroke="#000000" d="M 829 327 L 843 139" stroke-miterlimit="10" stroke-dasharray="3"/></g><g transform="translate(-94,-46) scale(1,1)"><path fill="none" stroke="#000000" d="M 846.4431889243939 149.4472221203022 L 843 139 L 838.0474006315176 148.8220038431731" stroke-miterlimit="10"/></g><g transform="translate(-94,-46) scale(1,1)"><g><path fill="none" stroke="none"/><text fill="#000000" stroke="none" font-family="Arial" font-size="13px" font-style="normal" font-weight="normal" text-decoration="none" x="780" y="237">«extend»</text></g></g><g transform="translate(-94,-46) scale(1,1)"><path fill="#C0C0C0" stroke="none" d="M 559 503 C 559 485.3268864 665.1085024 471 796 471 C 926.8914976 471 1033 485.3268864 1033 503 C 1033 520.6731136 926.8914976 535 796 535 C 665.1085024 535 559 520.6731136 559 503 Z" opacity="0.2"/></g><g transform="translate(-94,-46) scale(1,1)"><path fill="#ffffff" stroke="none" d="M 552 496 C 552 478.3268864 658.1085024 464 789 464 C 919.8914976 464 1026 478.3268864 1026 496 C 1026 513.6731136 919.8914976 528 789 528 C 658.1085024 528 552 513.6731136 552 496 Z"/></g><g transform="translate(-94,-46) scale(1,1)"><path fill="none" stroke="#000000" d="M 552 496 C 552 478.3268864 658.1085024 464 789 464 C 919.8914976 464 1026 478.3268864 1026 496 C 1026 513.6731136 919.8914976 528 789 528 C 658.1085024 528 552 513.6731136 552 496 Z" stroke-miterlimit="10"/></g><g transform="translate(-94,-46) scale(1,1)"><g><path fill="none" stroke="none"/><text fill="#000000" stroke="none" font-family="Arial" font-size="13px" font-style="normal" font-weight="bold" text-decoration="none" x="637.249755859375" y="503">React scenario when unexpected problems occurred</text></g></g><g transform="translate(-94,-46) scale(1,1)"><path fill="none" stroke="#000000" d="M 904 391 L 851 139" stroke-miterlimit="10" stroke-dasharray="3"/></g><g transform="translate(-94,-46) scale(1,1)"><path fill="none" stroke="#000000" d="M 857.2110246112953 148.07872090538547 L 851 139 L 848.9722325040653 149.81148273746163" stroke-miterlimit="10"/></g><g transform="translate(-94,-46) scale(1,1)"><g><path fill="none" stroke="none"/><text fill="#000000" stroke="none" font-family="Arial" font-size="13px" font-style="normal" font-weight="normal" text-decoration="none" x="821" y="278">«extend»</text></g></g><g transform="translate(-94,-46) scale(1,1)"><path fill="#C0C0C0" stroke="none" d="M 551 168 C 551 158.6111584 573.6096176 151 601.5 151 C 629.3903824 151 652 158.6111584 652 168 C 652 177.3888416 629.3903824 185 601.5 185 C 573.6096176 185 551 177.3888416 551 168 Z" opacity="0.2"/></g><g transform="translate(-94,-46) scale(1,1)"><path fill="#ffffff" stroke="none" d="M 544 161 C 544 151.6111584 566.6096176 144 594.5 144 C 622.3903824 144 645 151.6111584 645 161 C 645 170.3888416 622.3903824 178 594.5 178 C 566.6096176 178 544 170.3888416 544 161 Z"/></g><g transform="translate(-94,-46) scale(1,1)"><path fill="none" stroke="#000000" d="M 544 161 C 544 151.6111584 566.6096176 144 594.5 144 C 622.3903824 144 645 151.6111584 645 161 C 645 170.3888416 622.3903824 178 594.5 178 C 566.6096176 178 544 170.3888416 544 161 Z" stroke-miterlimit="10"/></g><g transform="translate(-94,-46) scale(1,1)"><g><path fill="none" stroke="none"/><text fill="#000000" stroke="none" font-family="Arial" font-size="13px" font-style="normal" font-weight="bold" text-decoration="none" x="570.29638671875" y="168">View pH</text></g></g><g transform="translate(-94,-46) scale(1,1)"><path fill="none" stroke="#000000" d="M 646 151 L 709 139" stroke-miterlimit="10" stroke-dasharray="3"/></g><g transform="translate(-94,-46) scale(1,1)"><path fill="none" stroke="#000000" d="M 699.8044642898723 145.0367311521854 L 709 139 L 698.2291608088152 136.76638787663603" stroke-miterlimit="10"/></g><g transform="translate(-94,-46) scale(1,1)"><g><path fill="none" stroke="none"/><text fill="#000000" stroke="none" font-family="Arial" font-size="13px" font-style="normal" font-weight="normal" text-decoration="none" x="645" y="122">«extend»</text></g></g><g transform="translate(-94,-46) scale(1,1)"><path fill="none" stroke="#000000" d="M 483 231 L 565 179" stroke-miterlimit="10"/></g><g transform="translate(-94,-46) scale(1,1)"><path fill="#FFFFFF" stroke="none" d="M 552.3438151351604 196.99502666480396 L 565 179 L 543.3263204758058 182.77513124043702"/></g><g transform="translate(-94,-46) scale(1,1)"><path fill="none" stroke="#000000" d="M 552.3438151351604 196.99502666480396 L 565 179 L 543.3263204758058 182.77513124043702 L 552.3438151351604 196.99502666480396" stroke-miterlimit="10"/></g><g transform="translate(-94,-46) scale(1,1)"><path fill="none" stroke="#000000" d="M 513 247 L 607 224" stroke-miterlimit="10"/></g><g transform="translate(-94,-46) scale(1,1)"><path fill="#FFFFFF" stroke="none" d="M 589.2580027834726 237.00851777754627 L 607 224 L 585.256102322712 220.6529245900894"/></g><g transform="translate(-94,-46) scale(1,1)"><path fill="none" stroke="#000000" d="M 589.2580027834726 237.00851777754627 L 607 224 L 585.256102322712 220.6529245900894 L 589.2580027834726 237.00851777754627" stroke-miterlimit="10"/></g><g transform="translate(-94,-46) scale(1,1)"><path fill="none" stroke="#000000" d="M 513 271 L 671 277" stroke-miterlimit="10"/></g><g transform="translate(-94,-46) scale(1,1)"><path fill="#FFFFFF" stroke="none" d="M 650.3698098736356 284.641678830601 L 671 277 L 651.0087697437123 267.81573558524764"/></g><g transform="translate(-94,-46) scale(1,1)"><path fill="none" stroke="#000000" d="M 650.3698098736356 284.641678830601 L 671 277 L 651.0087697437123 267.81573558524764 L 650.3698098736356 284.641678830601" stroke-miterlimit="10"/></g><g transform="translate(-94,-46) scale(1,1)"><path fill="none" stroke="#000000" d="M 513 285 L 775 335" stroke-miterlimit="10"/></g><g transform="translate(-94,-46) scale(1,1)"><path fill="#FFFFFF" stroke="none" d="M 753.4567560455308 339.4596681399213 L 775 335 L 756.6131645274588 322.9200876946187"/></g><g transform="translate(-94,-46) scale(1,1)"><path fill="none" stroke="#000000" d="M 753.4567560455308 339.4596681399213 L 775 335 L 756.6131645274588 322.9200876946187 L 753.4567560455308 339.4596681399213" stroke-miterlimit="10"/></g><g transform="translate(-94,-46) scale(1,1)"><path fill="none" stroke="#000000" d="M 513 294 L 846 391" stroke-miterlimit="10"/></g><g transform="translate(-94,-46) scale(1,1)"><path fill="#FFFFFF" stroke="none" d="M 824.1311629400506 393.39874251335607 L 846 391 L 828.8402299207315 377.2325641157606"/></g><g transform="translate(-94,-46) scale(1,1)"><path fill="none" stroke="#000000" d="M 824.1311629400506 393.39874251335607 L 846 391 L 828.8402299207315 377.2325641157606 L 824.1311629400506 393.39874251335607" stroke-miterlimit="10"/></g><g transform="translate(-94,-46) scale(1,1)"><path fill="none" stroke="#000000" d="M 714 559 L 750 529" stroke-miterlimit="10" stroke-dasharray="3"/></g><g transform="translate(-94,-46) scale(1,1)"><path fill="none" stroke="#000000" d="M 744.887684514256 538.739827019728 L 750 529 L 739.4979493192318 532.272144785699" stroke-miterlimit="10"/></g><g transform="translate(-94,-46) scale(1,1)"><g><path fill="none" stroke="none"/><text fill="#000000" stroke="none" font-family="Arial" font-size="13px" font-style="normal" font-weight="normal" text-decoration="none" x="686" y="527">«extend»</text></g></g><g transform="translate(-94,-46) scale(1,1)"><path fill="none" stroke="#000000" d="M 519 617 L 453 616" stroke-miterlimit="10"/></g><g transform="translate(-94,-46) scale(1,1)"><path fill="#FFFFFF" stroke="none" d="M 473.45056359237896 607.8898551952468 L 453 616 L 473.1954705831037 624.725993807412"/></g><g transform="translate(-94,-46) scale(1,1)"><path fill="none" stroke="#000000" d="M 473.45056359237896 607.8898551952468 L 453 616 L 473.1954705831037 624.725993807412 L 473.45056359237896 607.8898551952468" stroke-miterlimit="10"/></g><g transform="translate(-94,-46) scale(1,1)"><path fill="none" stroke="#000000" d="M 548 680 L 474 727" stroke-miterlimit="10"/></g><g transform="translate(-94,-46) scale(1,1)"><path fill="#FFFFFF" stroke="none" d="M 486.6434972594937 708.9960566250286 L 474 727 L 495.6710130986424 723.2095922015607"/></g><g transform="translate(-94,-46) scale(1,1)"><path fill="none" stroke="#000000" d="M 486.6434972594937 708.9960566250286 L 474 727 L 495.6710130986424 723.2095922015607 L 486.6434972594937 708.9960566250286" stroke-miterlimit="10"/></g><g transform="translate(-94,-46) scale(1,1)"><path fill="none" stroke="#000000" d="M 627 680 L 585 847" stroke-miterlimit="10"/></g><g transform="translate(-94,-46) scale(1,1)"><path fill="#FFFFFF" stroke="none" d="M 581.7926088711165 825.2350593351059 L 585 847 L 598.1221691191183 829.3418948465794"/></g><g transform="translate(-94,-46) scale(1,1)"><path fill="none" stroke="#000000" d="M 581.7926088711165 825.2350593351059 L 585 847 L 598.1221691191183 829.3418948465794 L 581.7926088711165 825.2350593351059" stroke-miterlimit="10"/></g></g></svg>