M48
INCH,LZ
VER,1
FMAT,2
T01C0.01F1B1S6H2000
T02C0.04F1B1S6H2000
T03C0.07F1B1S6H2000
T04C0.084F1B1S6H2000
DETECT,ON
ATC,ON
%
T01
X169Y0695
X1765Y0711
X157Y0801
X16Y0791
X16317Y07385
X1718Y06635
X16533Y07535
Y07485
Y07335
Y07385
Y07435
Y07585
X16317Y07485
X17175Y09235
X16317Y07585
X1718Y0792
X16317Y07435
X17175Y07265
X16317Y07535
X17175Y08575
X16317Y07335
X17175Y05945
X16175Y0626
X16317Y07285
T02
X16909Y0604
X1671
X16511
X18505Y06399
Y062
Y06001
Y08379
Y0818
Y07981
X185Y09039
Y0884
Y08641
Y09689
Y0949
Y09291
X18495Y07719
Y0752
Y07321
X185Y07074
Y06875
Y06676
X1765Y0794
Y0842
X1757Y0818
X1814Y0794
Y0842
X1765Y08595
Y09075
X1757Y08835
X1814Y08595
Y09075
X1765Y09255
Y09735
X1757Y09495
X1814Y09255
Y09735
X1765Y0663
Y0711
X1757Y0687
X1814Y0663
Y0711
X1765Y0729
Y0777
X1757Y0753
X1814Y0729
Y0777
X1691Y0676
Y0628
X1699Y0652
X1642Y0676
Y0628
X1765Y05965
Y06445
X1757Y06205
X1814Y05965
Y06445
X148Y06555
Y06655
Y06755
Y06855
X157Y06385
X158
X159
X151Y0785
Y0775
Y0765
Y0755
Y0745
Y0735
Y0725
Y0715
Y0705
Y0695
X169
Y0705
Y0715
Y0725
Y0735
Y0745
Y0755
Y0765
Y0775
Y0785
X152
Y0775
Y0765
Y0755
Y0745
Y0735
Y0725
Y0715
Y0705
Y0695
X168
Y0705
Y0715
Y0725
Y0735
Y0745
Y0755
Y0765
Y0775
Y0785
X15095Y06385
X14995
X14895
X14795
X15535Y07045
Y06945
Y06845
X1555Y06385
X1545
X1535
X1525
X15915Y08735
X15835
X15755
X15675
X14995Y08896
X15095
X15195
Y09034
X15095
X14995
X148Y07595
Y07695
Y07795
Y07895
Y07995
Y08095
Y08195
Y0739
Y0729
Y0719
Y0709
Y0699
T03
X14902Y08585
X1514
X1504Y08425
T04
X15564Y08842
X16026
M30
