G04 CAM350 V10.0.1 (Build 312) Date:  Thu Jul 28 16:15:00 2016 *
G04 Database: C:\arctmp\odbjob_v7\odbjob_v7.cam *
G04 Layer 8: drill *
%FSLAX23Y23*%
%MOIN*%
%SFA1.000B1.000*%

%MIA0B0*%
%IPPOS*%
%LNdrill*%
%LPD*%
G54D35*
X16900Y6950D03*
X17650Y7110D03*
X15700Y8010D03*
X16000Y7910D03*
X16317Y7385D03*
X17180Y6635D03*
X16533Y7535D03*
Y7485D03*
Y7335D03*
Y7385D03*
Y7435D03*
Y7585D03*
X16317Y7485D03*
X17175Y9235D03*
X16317Y7585D03*
X17180Y7920D03*
X16317Y7435D03*
X17175Y7265D03*
X16317Y7535D03*
X17175Y8575D03*
X16317Y7335D03*
X17175Y5945D03*
X16175Y6260D03*
X16317Y7285D03*
G54D33*
X16909Y6040D03*
X16710D03*
X16511D03*
X18505Y6399D03*
Y6200D03*
Y6001D03*
Y8379D03*
Y8180D03*
Y7981D03*
X18500Y9039D03*
Y8840D03*
Y8641D03*
Y9689D03*
Y9490D03*
Y9291D03*
X18495Y7719D03*
Y7520D03*
Y7321D03*
X18500Y7074D03*
Y6875D03*
Y6676D03*
X17650Y7940D03*
Y8420D03*
X17570Y8180D03*
X18140Y7940D03*
Y8420D03*
X17650Y8595D03*
Y9075D03*
X17570Y8835D03*
X18140Y8595D03*
Y9075D03*
X17650Y9255D03*
Y9735D03*
X17570Y9495D03*
X18140Y9255D03*
Y9735D03*
X17650Y6630D03*
Y7110D03*
X17570Y6870D03*
X18140Y6630D03*
Y7110D03*
X17650Y7290D03*
Y7770D03*
X17570Y7530D03*
X18140Y7290D03*
Y7770D03*
X16910Y6760D03*
Y6280D03*
X16990Y6520D03*
X16420Y6760D03*
Y6280D03*
X17650Y5965D03*
Y6445D03*
X17570Y6205D03*
X18140Y5965D03*
Y6445D03*
X14800Y6555D03*
Y6655D03*
Y6755D03*
Y6855D03*
X15700Y6385D03*
X15800D03*
X15900D03*
X15100Y7850D03*
Y7750D03*
Y7650D03*
Y7550D03*
Y7450D03*
Y7350D03*
Y7250D03*
Y7150D03*
Y7050D03*
Y6950D03*
X16900D03*
Y7050D03*
Y7150D03*
Y7250D03*
Y7350D03*
Y7450D03*
Y7550D03*
Y7650D03*
Y7750D03*
Y7850D03*
X15200D03*
Y7750D03*
Y7650D03*
Y7550D03*
Y7450D03*
Y7350D03*
Y7250D03*
Y7150D03*
Y7050D03*
Y6950D03*
X16800D03*
Y7050D03*
Y7150D03*
Y7250D03*
Y7350D03*
Y7450D03*
Y7550D03*
Y7650D03*
Y7750D03*
Y7850D03*
X15095Y6385D03*
X14995D03*
X14895D03*
X14795D03*
X15535Y7045D03*
Y6945D03*
Y6845D03*
X15550Y6385D03*
X15450D03*
X15350D03*
X15250D03*
X15915Y8735D03*
X15835D03*
X15755D03*
X15675D03*
X14995Y8896D03*
X15095D03*
X15195D03*
Y9034D03*
X15095D03*
X14995D03*
X14800Y7595D03*
Y7695D03*
Y7795D03*
Y7895D03*
Y7995D03*
Y8095D03*
Y8195D03*
Y7390D03*
Y7290D03*
Y7190D03*
Y7090D03*
Y6990D03*
G54D15*
X14902Y8585D03*
X15140D03*
X15040Y8425D03*
G54D34*
X15564Y8842D03*
X16026D03*
M02*
