G04 CAM350 V10.0.1 (Build 312) Date:  Thu Jul 28 16:14:56 2016 *
G04 Database: C:\arctmp\odbjob_v7\odbjob_v7.cam *
G04 Layer 2: smt *
%FSLAX23Y23*%
%MOIN*%
%SFA1.000B1.000*%

%MIA0B0*%
%IPPOS*%
%ADD10C,0.00000*%
%ADD12R,0.06500X0.02500*%
%ADD13R,0.05500X0.06500*%
%ADD14R,0.06500X0.05500*%
%ADD15C,0.07000*%
%ADD16C,0.06500*%
%ADD17R,0.04200X0.08500*%
%ADD18R,0.18500X0.13500*%
%ADD19C,0.10000*%
%ADD70R,0.06000X0.08000*%
%ADD71R,0.20000X0.20000*%
%ADD20R,0.13000X0.18000*%
%ADD21C,0.12000*%
%ADD22R,0.32000X0.27000*%
%LNsmt*%
%LPD*%
G54D12*
X16317Y7385D03*
G54D13*
X17180Y6635D03*
G54D12*
X16317Y7285D03*
G54D14*
X16175Y6265D03*
G54D17*
X15809Y8100D03*
G54D18*
X15435Y8525D03*
G54D70*
X17295Y7003D03*
G54D13*
X17175Y7035D03*
G54D70*
X17305Y7653D03*
G54D13*
X17175Y7670D03*
G54D70*
X17305Y8303D03*
G54D13*
X17175Y8325D03*
G54D70*
X17305Y7907D03*
G54D13*
X17175Y8000D03*
G54D70*
X17305Y7257D03*
G54D13*
X17175Y7345D03*
X17180Y6715D03*
G54D70*
X17295Y6607D03*
G54D13*
X17175Y6025D03*
G54D70*
X17300Y5932D03*
X16080Y6387D03*
G54D14*
X16095Y6265D03*
G54D70*
X16180Y6783D03*
G54D14*
X16335Y6920D03*
G54D12*
X16533Y7585D03*
G54D13*
X17175Y6230D03*
G54D70*
X17400Y6328D03*
G54D13*
X17180Y6910D03*
G54D70*
X17395Y7003D03*
G54D13*
X17175Y7540D03*
G54D70*
X17405Y7653D03*
G54D13*
X17175Y8200D03*
G54D70*
X17405Y8303D03*
G54D12*
X16533Y7285D03*
Y7335D03*
G54D13*
X17175Y6150D03*
X16815Y8300D03*
G54D71*
X16850Y8630D03*
G54D70*
X17400Y5932D03*
G54D13*
X17180Y6830D03*
G54D70*
X17395Y6607D03*
X17405Y7257D03*
G54D13*
X17175Y7460D03*
G54D70*
X17405Y7907D03*
G54D13*
X17175Y8120D03*
Y8775D03*
G54D70*
X17400Y8562D03*
G54D13*
X17175Y9440D03*
G54D70*
X17395Y9227D03*
G54D13*
X16130Y7200D03*
G54D12*
X16533Y7235D03*
G54D14*
X16415Y6920D03*
G54D70*
X16180Y6387D03*
G54D13*
X14935Y6550D03*
X15065D03*
X15215D03*
X15480Y7210D03*
G54D17*
X15608Y8100D03*
G54D13*
X15225Y8150D03*
X15390Y6635D03*
G54D18*
X16510Y8165D03*
G54D12*
X16533Y7385D03*
Y7535D03*
G54D17*
X15675Y8100D03*
G54D13*
X16130Y7280D03*
G54D12*
X16317Y7235D03*
G54D13*
X16815Y8220D03*
G54D18*
X16510Y7865D03*
G54D20*
X16110Y7880D03*
G54D13*
X14935Y6630D03*
X15065D03*
X15215D03*
X15480Y7290D03*
G54D18*
X15435Y8225D03*
G54D17*
X15541Y8100D03*
G54D13*
X15090Y8150D03*
X15390Y6555D03*
X14935Y7975D03*
X14910Y8095D03*
X17175Y9725D03*
Y9060D03*
G54D14*
X16255Y7045D03*
G54D70*
X16080Y6783D03*
G54D14*
X16175Y7045D03*
G54D13*
X17175Y6440D03*
Y7115D03*
Y7750D03*
Y8405D03*
G54D12*
X16533Y7435D03*
G54D13*
X15090Y8230D03*
X15225D03*
G54D12*
X16533Y7485D03*
G54D13*
X14935Y7895D03*
X14910Y8175D03*
G54D71*
X16360Y8630D03*
G54D20*
X16110Y8200D03*
G54D17*
X15742Y8100D03*
G54D12*
X16317Y7335D03*
G54D13*
X17175Y5945D03*
G54D12*
X16317Y7535D03*
G54D13*
X17175Y8575D03*
G54D12*
X16317Y7435D03*
G54D13*
X17175Y7265D03*
G54D12*
X16317Y7585D03*
G54D13*
X17175Y7920D03*
G54D12*
X16317Y7485D03*
G54D13*
X17175Y9240D03*
Y9320D03*
G54D70*
X17295Y9227D03*
Y9623D03*
G54D13*
X17175Y9645D03*
Y9520D03*
G54D70*
X17395Y9623D03*
G54D13*
X17175Y8655D03*
G54D70*
X17300Y8562D03*
Y8958D03*
G54D13*
X17175Y8980D03*
Y8855D03*
G54D70*
X17400Y8958D03*
X17300Y6328D03*
G54D13*
X17175Y6360D03*
G54D22*
X15675Y7660D03*
G54D10*
X16900Y6950D03*
X17650Y7110D03*
X15700Y8010D03*
X16000Y7910D03*
X16533Y7585D03*
Y7535D03*
Y7485D03*
Y7385D03*
Y7435D03*
Y7335D03*
X16317Y7585D03*
X17180Y7920D03*
X16317Y7435D03*
X17175Y7265D03*
X16317Y7385D03*
X17180Y6635D03*
X16317Y7335D03*
X17175Y5945D03*
X16175Y6260D03*
X16317Y7285D03*
Y7535D03*
X17175Y8575D03*
X16317Y7485D03*
X17175Y9235D03*
G54D19*
X14902Y8585D03*
X15140D03*
X15040Y8425D03*
G54D15*
X15915Y8735D03*
X15835D03*
X15755D03*
X15675D03*
G54D21*
X15564Y8842D03*
X16026D03*
G54D15*
X16910Y6760D03*
Y6280D03*
X16990Y6520D03*
X16420Y6760D03*
Y6280D03*
X17650Y5965D03*
Y6445D03*
X17570Y6205D03*
X18140Y5965D03*
Y6445D03*
X17650Y6630D03*
Y7110D03*
X17570Y6870D03*
X18140Y6630D03*
Y7110D03*
X17650Y7290D03*
Y7770D03*
X17570Y7530D03*
X18140Y7290D03*
Y7770D03*
X17650Y7940D03*
Y8420D03*
X17570Y8180D03*
X18140Y7940D03*
Y8420D03*
X17650Y8595D03*
Y9075D03*
X17570Y8835D03*
X18140Y8595D03*
Y9075D03*
X17650Y9255D03*
Y9735D03*
X17570Y9495D03*
X18140Y9255D03*
Y9735D03*
X16909Y6040D03*
X16710D03*
X16511D03*
X18505Y6399D03*
Y6200D03*
Y6001D03*
X18500Y7074D03*
Y6875D03*
Y6676D03*
X18495Y7719D03*
Y7520D03*
Y7321D03*
X18505Y8379D03*
Y8180D03*
Y7981D03*
X18500Y9039D03*
Y8840D03*
Y8641D03*
Y9689D03*
Y9490D03*
Y9291D03*
X15535Y7045D03*
Y6945D03*
Y6845D03*
X15700Y6385D03*
X15800D03*
X15900D03*
X15550D03*
X15450D03*
X15350D03*
X15250D03*
X15095D03*
X14995D03*
X14895D03*
X14795D03*
X14800Y6555D03*
Y6655D03*
Y6755D03*
Y6855D03*
Y7390D03*
Y7290D03*
Y7190D03*
Y7090D03*
Y6990D03*
Y7595D03*
Y7695D03*
Y7795D03*
Y7895D03*
Y7995D03*
Y8095D03*
Y8195D03*
X14995Y8896D03*
X15095D03*
X15195D03*
Y9034D03*
X15095D03*
X14995D03*
G54D16*
X15100Y7850D03*
Y7750D03*
Y7650D03*
Y7550D03*
Y7450D03*
Y7350D03*
Y7250D03*
Y7150D03*
Y7050D03*
Y6950D03*
X16900D03*
Y7050D03*
Y7150D03*
Y7250D03*
Y7350D03*
Y7450D03*
Y7550D03*
Y7650D03*
Y7750D03*
Y7850D03*
X15200D03*
Y7750D03*
Y7650D03*
Y7550D03*
Y7450D03*
Y7350D03*
Y7250D03*
Y7150D03*
Y7050D03*
Y6950D03*
X16800D03*
Y7050D03*
Y7150D03*
Y7250D03*
Y7350D03*
Y7450D03*
Y7550D03*
Y7650D03*
Y7750D03*
Y7850D03*
M02*
