G04 CAM350 V10.0.1 (Build 312) Date:  Thu Jul 28 16:14:56 2016 *
G04 Database: C:\arctmp\odbjob_v7\odbjob_v7.cam *
G04 Layer 3: top *
%FSLAX23Y23*%
%MOIN*%
%SFA1.000B1.000*%

%MIA0B0*%
%IPPOS*%
%ADD11C,0.00800*%
%ADD17R,0.04200X0.08500*%
%ADD19C,0.10000*%
%ADD71R,0.20000X0.20000*%
%ADD20R,0.13000X0.18000*%
%ADD23R,0.06000X0.02000*%
%ADD24C,0.02000*%
%ADD25R,0.05000X0.06000*%
%ADD26R,0.06000X0.05000*%
%ADD27C,0.06000*%
%ADD28C,0.00500*%
%ADD29R,0.17000X0.12000*%
%ADD72C,0.08000*%
%ADD73C,0.11000*%
%ADD30R,0.04000X0.06000*%
%ADD31R,0.30000X0.25000*%
%LNtop*%
%LPD*%
G36*
X14640Y5800D02*
G01Y9880D01*
X18735*
Y5800*
X14640*
G37*
%LPC*%
G36*
X14842Y8578D02*
G01X14843Y8572D01*
X14845Y8565*
X14848Y8559*
X14851Y8553*
X14855Y8548*
X14860Y8543*
X14865Y8538*
X14870Y8534*
X14876Y8531*
X14882Y8528*
X14889Y8526*
X14895Y8525*
X14902*
X14909*
X14915Y8526*
X14922Y8528*
X14928Y8531*
X14934Y8534*
X14939Y8538*
X14944Y8543*
X14949Y8548*
X14953Y8553*
X14956Y8559*
X14959Y8565*
X14961Y8572*
X14962Y8578*
Y8585*
Y8592*
X14961Y8598*
X14959Y8605*
X14956Y8611*
X14953Y8617*
X14949Y8622*
X14944Y8627*
X14939Y8632*
X14934Y8636*
X14928Y8639*
X14922Y8642*
X14915Y8644*
X14909Y8645*
X14902*
X14895*
X14889Y8644*
X14882Y8642*
X14876Y8639*
X14870Y8636*
X14865Y8632*
X14860Y8627*
X14855Y8622*
X14851Y8617*
X14848Y8611*
X14845Y8605*
X14843Y8598*
X14842Y8592*
Y8585*
Y8578*
G37*
G36*
X14980Y8418D02*
G01X14981Y8412D01*
X14983Y8405*
X14986Y8399*
X14989Y8393*
X14993Y8388*
X14998Y8383*
X15003Y8378*
X15008Y8374*
X15014Y8371*
X15020Y8368*
X15027Y8366*
X15033Y8365*
X15040*
X15047*
X15053Y8366*
X15060Y8368*
X15066Y8371*
X15072Y8374*
X15077Y8378*
X15082Y8383*
X15087Y8388*
X15091Y8393*
X15094Y8399*
X15097Y8405*
X15099Y8412*
X15100Y8418*
Y8425*
Y8432*
X15099Y8438*
X15097Y8445*
X15094Y8451*
X15091Y8457*
X15087Y8462*
X15082Y8467*
X15077Y8472*
X15072Y8476*
X15066Y8479*
X15060Y8482*
X15053Y8484*
X15047Y8485*
X15040*
X15033*
X15027Y8484*
X15020Y8482*
X15014Y8479*
X15008Y8476*
X15003Y8472*
X14998Y8467*
X14993Y8462*
X14989Y8457*
X14986Y8451*
X14983Y8445*
X14981Y8438*
X14980Y8432*
Y8425*
Y8418*
G37*
G36*
X15525Y8160D02*
G01Y8290D01*
X15345*
Y8160*
X15525*
G37*
G36*
X15494Y8835D02*
G01X15496Y8827D01*
X15497Y8820*
X15500Y8814*
X15503Y8807*
X15507Y8801*
X15512Y8795*
X15517Y8790*
X15523Y8785*
X15529Y8781*
X15536Y8778*
X15542Y8775*
X15549Y8774*
X15557Y8772*
X15564*
X15571*
X15579Y8774*
X15586Y8775*
X15592Y8778*
X15599Y8781*
X15605Y8785*
X15611Y8790*
X15616Y8795*
X15621Y8801*
X15625Y8807*
X15628Y8814*
X15631Y8820*
X15632Y8827*
X15634Y8835*
Y8842*
Y8849*
X15632Y8857*
X15631Y8864*
X15628Y8870*
X15625Y8877*
X15621Y8883*
X15616Y8889*
X15611Y8894*
X15605Y8899*
X15599Y8903*
X15592Y8906*
X15586Y8909*
X15579Y8910*
X15571Y8912*
X15564*
X15557*
X15549Y8910*
X15542Y8909*
X15536Y8906*
X15529Y8903*
X15523Y8899*
X15517Y8894*
X15512Y8889*
X15507Y8883*
X15503Y8877*
X15500Y8870*
X15497Y8864*
X15496Y8857*
X15494Y8849*
Y8842*
Y8835*
G37*
G36*
X15845Y7515D02*
G01Y7805D01*
X15505*
Y7515*
X15845*
G37*
G36*
X17600Y6439D02*
G01X17602Y6433D01*
X17603Y6427*
X17606Y6421*
X17610Y6416*
X17614Y6411*
X17618Y6406*
X17623Y6403*
X17629Y6400*
X17635Y6397*
X17641Y6396*
X17647Y6395*
X17653*
X17659Y6396*
X17665Y6397*
X17671Y6400*
X17677Y6403*
X17682Y6406*
X17686Y6411*
X17690Y6416*
X17694Y6421*
X17697Y6427*
X17698Y6433*
X17700Y6439*
Y6445*
Y6451*
X17698Y6457*
X17697Y6463*
X17694Y6469*
X17690Y6474*
X17686Y6479*
X17682Y6484*
X17677Y6487*
X17671Y6490*
X17665Y6493*
X17659Y6494*
X17653Y6495*
X17647*
X17641Y6494*
X17635Y6493*
X17629Y6490*
X17623Y6487*
X17618Y6484*
X17614Y6479*
X17610Y6474*
X17606Y6469*
X17603Y6463*
X17602Y6457*
X17600Y6451*
Y6445*
Y6439*
G37*
G36*
Y7104D02*
G01X17602Y7098D01*
X17603Y7092*
X17606Y7086*
X17610Y7081*
X17614Y7076*
X17618Y7071*
X17623Y7068*
X17629Y7065*
X17635Y7062*
X17641Y7061*
X17647Y7060*
X17653*
X17659Y7061*
X17665Y7062*
X17671Y7065*
X17677Y7068*
X17682Y7071*
X17686Y7076*
X17690Y7081*
X17694Y7086*
X17697Y7092*
X17698Y7098*
X17700Y7104*
Y7110*
Y7116*
X17698Y7122*
X17697Y7128*
X17694Y7134*
X17690Y7139*
X17686Y7144*
X17682Y7149*
X17677Y7152*
X17671Y7155*
X17665Y7158*
X17659Y7159*
X17653Y7160*
X17647*
X17641Y7159*
X17635Y7158*
X17629Y7155*
X17623Y7152*
X17618Y7149*
X17614Y7144*
X17610Y7139*
X17606Y7134*
X17603Y7128*
X17602Y7122*
X17600Y7116*
Y7110*
Y7104*
G37*
G36*
Y7764D02*
G01X17602Y7758D01*
X17603Y7752*
X17606Y7746*
X17610Y7741*
X17614Y7736*
X17618Y7731*
X17623Y7728*
X17629Y7725*
X17635Y7722*
X17641Y7721*
X17647Y7720*
X17653*
X17659Y7721*
X17665Y7722*
X17671Y7725*
X17677Y7728*
X17682Y7731*
X17686Y7736*
X17690Y7741*
X17694Y7746*
X17697Y7752*
X17698Y7758*
X17700Y7764*
Y7770*
Y7776*
X17698Y7782*
X17697Y7788*
X17694Y7794*
X17690Y7799*
X17686Y7804*
X17682Y7809*
X17677Y7812*
X17671Y7815*
X17665Y7818*
X17659Y7819*
X17653Y7820*
X17647*
X17641Y7819*
X17635Y7818*
X17629Y7815*
X17623Y7812*
X17618Y7809*
X17614Y7804*
X17610Y7799*
X17606Y7794*
X17603Y7788*
X17602Y7782*
X17600Y7776*
Y7770*
Y7764*
G37*
G36*
Y8414D02*
G01X17602Y8408D01*
X17603Y8402*
X17606Y8396*
X17610Y8391*
X17614Y8386*
X17618Y8381*
X17623Y8378*
X17629Y8375*
X17635Y8372*
X17641Y8371*
X17647Y8370*
X17653*
X17659Y8371*
X17665Y8372*
X17671Y8375*
X17677Y8378*
X17682Y8381*
X17686Y8386*
X17690Y8391*
X17694Y8396*
X17697Y8402*
X17698Y8408*
X17700Y8414*
Y8420*
Y8426*
X17698Y8432*
X17697Y8438*
X17694Y8444*
X17690Y8449*
X17686Y8454*
X17682Y8459*
X17677Y8462*
X17671Y8465*
X17665Y8468*
X17659Y8469*
X17653Y8470*
X17647*
X17641Y8469*
X17635Y8468*
X17629Y8465*
X17623Y8462*
X17618Y8459*
X17614Y8454*
X17610Y8449*
X17606Y8444*
X17603Y8438*
X17602Y8432*
X17600Y8426*
Y8420*
Y8414*
G37*
G36*
Y9069D02*
G01X17602Y9063D01*
X17603Y9057*
X17606Y9051*
X17610Y9046*
X17614Y9041*
X17618Y9036*
X17623Y9033*
X17629Y9030*
X17635Y9027*
X17641Y9026*
X17647Y9025*
X17653*
X17659Y9026*
X17665Y9027*
X17671Y9030*
X17677Y9033*
X17682Y9036*
X17686Y9041*
X17690Y9046*
X17694Y9051*
X17697Y9057*
X17698Y9063*
X17700Y9069*
Y9075*
Y9081*
X17698Y9087*
X17697Y9093*
X17694Y9099*
X17690Y9104*
X17686Y9109*
X17682Y9114*
X17677Y9117*
X17671Y9120*
X17665Y9123*
X17659Y9124*
X17653Y9125*
X17647*
X17641Y9124*
X17635Y9123*
X17629Y9120*
X17623Y9117*
X17618Y9114*
X17614Y9109*
X17610Y9104*
X17606Y9099*
X17603Y9093*
X17602Y9087*
X17600Y9081*
Y9075*
Y9069*
G37*
G36*
Y9729D02*
G01X17602Y9723D01*
X17603Y9717*
X17606Y9711*
X17610Y9706*
X17614Y9701*
X17618Y9696*
X17623Y9693*
X17629Y9690*
X17635Y9687*
X17641Y9686*
X17647Y9685*
X17653*
X17659Y9686*
X17665Y9687*
X17671Y9690*
X17677Y9693*
X17682Y9696*
X17686Y9701*
X17690Y9706*
X17694Y9711*
X17697Y9717*
X17698Y9723*
X17700Y9729*
Y9735*
Y9741*
X17698Y9747*
X17697Y9753*
X17694Y9759*
X17690Y9764*
X17686Y9769*
X17682Y9774*
X17677Y9777*
X17671Y9780*
X17665Y9783*
X17659Y9784*
X17653Y9785*
X17647*
X17641Y9784*
X17635Y9783*
X17629Y9780*
X17623Y9777*
X17618Y9774*
X17614Y9769*
X17610Y9764*
X17606Y9759*
X17603Y9753*
X17602Y9747*
X17600Y9741*
Y9735*
Y9729*
G37*
G36*
X18092Y7215D02*
G01X18518D01*
X18575Y7272*
Y7378*
X18558Y7395*
X18097*
X18050Y7348*
Y7257*
X18092Y7215*
G37*
G36*
X18087Y5895D02*
G01X18543D01*
X18580Y5932*
Y6038*
X18543Y6075*
X18117*
X18055Y6013*
Y5927*
X18087Y5895*
G37*
G36*
X18097Y6565D02*
G01X18503D01*
X18585Y6647*
Y6718*
X18548Y6755*
X18137*
X18060Y6678*
Y6602*
X18097Y6565*
G37*
G36*
X18122Y6325D02*
G01X18553D01*
X18580Y6352*
Y6448*
X18518Y6510*
X18055*
Y6392*
X18122Y6325*
G37*
G36*
X18102Y8525D02*
G01X18493D01*
X18580Y8612*
Y8678*
X18543Y8715*
X18102*
X18055Y8668*
Y8572*
X18102Y8525*
G37*
G36*
X18132Y9615D02*
G01X18568D01*
X18590Y9637*
Y9718*
X18513Y9795*
X18055*
Y9692*
X18132Y9615*
G37*
G36*
X18112Y7870D02*
G01X18493D01*
X18575Y7952*
Y8060*
X18142*
X18070Y7988*
Y7912*
X18112Y7870*
G37*
G36*
X18147Y7645D02*
G01X18548D01*
X18580Y7677*
Y7763*
X18513Y7830*
X18077*
X18060Y7813*
Y7732*
X18147Y7645*
G37*
G36*
X18112Y9185D02*
G01X18508D01*
X18575Y9252*
Y9338*
X18543Y9370*
X18122*
X18060Y9308*
Y9237*
X18112Y9185*
G37*
G36*
X18132Y7000D02*
G01X18548D01*
X18580Y7032*
Y7118*
X18528Y7170*
X18065*
Y7067*
X18132Y7000*
G37*
G36*
X18147Y8305D02*
G01X18548D01*
X18580Y8337*
Y8428*
X18528Y8480*
X18065*
Y8387*
X18147Y8305*
G37*
G36*
X18137Y8965D02*
G01X18548D01*
X18575Y8992*
Y9078*
X18513Y9140*
X18087*
X18070Y9123*
Y9032*
X18137Y8965*
G37*
G36*
X14722Y7325D02*
G01X14776D01*
X14778*
X14779Y7324*
X14780Y7322*
Y7321*
Y7319*
X14779Y7318*
X14775Y7315*
X14772Y7311*
X14769Y7307*
X14767Y7303*
X14766Y7298*
X14765Y7293*
Y7288*
X14766Y7284*
X14767Y7279*
X14769Y7274*
X14771Y7270*
X14772Y7269*
Y7268*
X14771Y7266*
X14770Y7265*
X14769Y7264*
X14768*
X14750*
X14721Y7235*
Y7135*
X14752Y7104*
Y7103*
X14750Y7097*
Y7091*
Y7085*
X14751Y7079*
X14753Y7073*
X14755Y7068*
X14758Y7063*
X14762Y7058*
X14766Y7053*
X14771Y7050*
X14776Y7046*
X14781Y7044*
X14782Y7043*
X14783Y7042*
X14784Y7040*
X14783Y7038*
X14782Y7037*
X14781Y7036*
X14775Y7034*
X14770Y7030*
X14765Y7026*
X14761Y7022*
X14758Y7016*
X14755Y7011*
X14752Y7005*
X14751Y6999*
X14750Y6993*
Y6987*
X14751Y6980*
X14753Y6974*
X14755Y6968*
X14758Y6963*
X14762Y6958*
X14766Y6953*
X14771Y6949*
X14776Y6946*
X14782Y6943*
X14788Y6942*
X14794Y6940*
X14800*
X14806*
X14812Y6942*
X14818Y6943*
X14824Y6946*
X14829Y6949*
X14834Y6953*
X14838Y6958*
X14842Y6963*
X14845Y6968*
X14847Y6974*
X14849Y6980*
X14850Y6987*
Y6993*
X14849Y6999*
X14848Y7005*
X14845Y7011*
X14842Y7016*
X14839Y7022*
X14835Y7026*
X14830Y7030*
X14825Y7034*
X14819Y7036*
X14818Y7037*
X14817Y7038*
X14816Y7040*
X14817Y7042*
X14818Y7043*
X14819Y7044*
X14824Y7046*
X14829Y7049*
X14833Y7053*
X14837Y7057*
X14841Y7061*
X14844Y7066*
X14950*
X15052Y6964*
Y6963*
X15050Y6957*
Y6951*
Y6944*
X15051Y6938*
X15053Y6932*
X15056Y6926*
X15059Y6921*
X15063Y6916*
X15068Y6912*
X15073Y6908*
X15078Y6905*
X15084Y6903*
X15090Y6901*
X15096Y6900*
X15103*
X15109Y6901*
X15115Y6902*
X15121Y6905*
X15126Y6907*
X15131Y6911*
X15136Y6915*
X15140Y6920*
X15144Y6925*
X15146Y6931*
X15147Y6932*
X15148Y6933*
X15150Y6934*
X15152Y6933*
X15153Y6932*
X15154Y6931*
X15156Y6926*
X15159Y6921*
X15162Y6917*
X15166Y6913*
X15170Y6910*
X15175Y6907*
X15180Y6904*
X15185Y6902*
X15190Y6901*
X15195Y6900*
X15201*
X15206*
X15208*
X15209Y6899*
X15210Y6898*
X15211Y6897*
Y6895*
X15210Y6894*
X15195Y6879*
X14844*
X14841Y6884*
X14837Y6889*
X14833Y6893*
X14828Y6897*
X14823Y6900*
X14817Y6902*
X14812Y6904*
X14806Y6905*
X14800*
X14794*
X14788Y6904*
X14782Y6902*
X14777Y6899*
X14772Y6896*
X14767Y6893*
X14763Y6888*
X14759Y6884*
X14756Y6879*
X14753Y6873*
X14752Y6867*
X14750Y6862*
Y6856*
Y6850*
X14751Y6844*
X14753Y6838*
X14755Y6833*
X14758Y6827*
X14762Y6823*
X14766Y6818*
X14771Y6814*
X14776Y6811*
X14781Y6809*
X14782Y6808*
X14783Y6807*
X14784Y6805*
X14783Y6803*
X14782Y6802*
X14781Y6801*
X14775Y6799*
X14770Y6795*
X14765Y6791*
X14761Y6787*
X14758Y6781*
X14755Y6776*
X14752Y6770*
X14751Y6764*
X14750Y6758*
Y6752*
X14751Y6745*
X14753Y6739*
X14755Y6733*
X14758Y6728*
X14762Y6723*
X14766Y6718*
X14771Y6714*
X14776Y6711*
X14782Y6708*
X14788Y6707*
X14794Y6705*
X14800*
X14806*
X14812Y6707*
X14818Y6708*
X14824Y6711*
X14829Y6714*
X14834Y6718*
X14838Y6723*
X14842Y6728*
X14845Y6733*
X14847Y6739*
X14849Y6745*
X14850Y6752*
Y6758*
X14849Y6764*
X14848Y6770*
X14845Y6776*
X14842Y6781*
X14839Y6787*
X14835Y6791*
X14830Y6795*
X14825Y6799*
X14819Y6801*
X14818Y6802*
X14817Y6803*
X14816Y6805*
X14817Y6807*
X14818Y6808*
X14819Y6809*
X14824Y6811*
X14829Y6814*
X14833Y6818*
X14837Y6822*
X14841Y6826*
X14844Y6831*
X15215*
X15259Y6875*
X15260Y6876*
X15262*
X15264*
X15265Y6875*
X15266Y6874*
Y6872*
Y6605*
X15245*
Y6665*
X15185*
Y6605*
X15095*
Y6665*
X15035*
Y6605*
X14965*
Y6665*
X14905*
Y6605*
X14878*
X14858Y6625*
X14829*
X14828*
X14826Y6626*
X14825Y6627*
Y6629*
Y6630*
X14826Y6632*
X14829Y6636*
X14832Y6640*
X14834Y6645*
X14835Y6650*
Y6655*
Y6661*
X14833Y6666*
X14831Y6670*
X14829Y6675*
X14826Y6679*
X14822Y6682*
X14817Y6685*
X14813Y6688*
X14808Y6689*
X14803Y6690*
X14797*
X14792Y6689*
X14787Y6688*
X14783Y6685*
X14778Y6682*
X14774Y6679*
X14771Y6675*
X14769Y6670*
X14767Y6666*
X14765Y6661*
Y6655*
Y6650*
X14766Y6645*
X14768Y6640*
X14771Y6636*
X14774Y6632*
X14775Y6630*
Y6629*
Y6627*
X14774Y6626*
X14772Y6625*
X14771*
X14757*
X14700Y6568*
Y6337*
X14747Y6290*
X15983*
X16005Y6312*
Y6435*
X16020*
Y6227*
X16052Y6195*
X16123*
X16148Y6220*
X16225*
Y6310*
X16150*
Y6320*
X16255*
Y6463*
X16188Y6530*
X16143*
X16141*
X16140Y6531*
X16139Y6532*
Y6534*
Y6536*
X16140Y6537*
X16273Y6670*
X16274Y6671*
X16276*
X16278*
X16279Y6670*
X16280Y6669*
Y6667*
Y6047*
X16387Y5940*
X16563*
X16608Y5985*
X16609Y5986*
X16611*
X16613*
X16614Y5985*
X16615Y5984*
Y5982*
Y5927*
X16672Y5870*
X17013*
X17060Y5917*
Y6540*
Y6542*
X17061Y6543*
X17062Y6544*
X17064*
X17066*
X17067Y6543*
X17071Y6539*
Y6465*
X17114Y6422*
X17115Y6421*
Y6419*
Y6417*
X17114Y6416*
X17113Y6415*
X17111*
X17105*
Y6302*
X17119Y6288*
X17110Y6278*
Y6193*
X17105Y6188*
Y5997*
X17130Y5972*
Y5895*
X17220*
Y5970*
X17237*
X17250Y5957*
Y5870*
X17350*
Y5877*
Y5879*
X17351Y5880*
X17352Y5881*
X17354*
X17356*
X17357Y5880*
X17367Y5870*
X17653*
X17720Y5937*
Y6013*
X17688Y6045*
X17633*
X17570Y6108*
X17569Y6109*
Y6111*
Y6113*
X17570Y6114*
X17571Y6115*
X17573*
X18578*
X18615Y6152*
Y6243*
X18573Y6285*
X17537*
X17527Y6275*
X17526Y6274*
X17524*
X17522*
X17521Y6275*
X17520Y6276*
Y6278*
Y6545*
X17683*
X17720Y6582*
Y6668*
X17683Y6705*
X17520*
Y6802*
Y6804*
X17521Y6805*
X17522Y6806*
X17524*
X17525*
X17527Y6805*
X18543*
X18575Y6837*
Y6923*
X18548Y6950*
X17547*
X17527Y6930*
X17526Y6929*
X17524*
X17522*
X17521Y6930*
X17520Y6931*
Y6933*
Y7200*
X17693*
X17725Y7232*
Y7333*
X17693Y7365*
X17520*
Y7467*
Y7469*
X17521Y7470*
X17522Y7471*
X17524*
X17526*
X17527Y7470*
X17547Y7450*
X18563*
X18590Y7477*
Y7573*
X18558Y7605*
X17527*
X17525Y7604*
X17524*
X17522*
X17521Y7605*
X17520Y7606*
Y7608*
Y7855*
X17693*
X17730Y7892*
Y7978*
X17698Y8010*
X17520*
Y8117*
Y8119*
X17521Y8120*
X17522Y8121*
X17524*
X17526*
X17527Y8120*
X17542Y8105*
X18538*
X18575Y8142*
Y8270*
X17552*
X17527Y8245*
X17526Y8244*
X17524*
X17522*
X17521Y8245*
X17520Y8246*
Y8248*
Y8505*
X17698*
X17720Y8527*
Y8675*
X17520*
Y8762*
Y8764*
X17521Y8765*
X17522Y8766*
X17524*
X17525*
X17527Y8765*
X18548*
X18580Y8797*
Y8888*
X18553Y8915*
X17532*
X17527Y8910*
X17526Y8909*
X17524*
X17522*
X17521Y8910*
X17520Y8911*
Y8913*
Y9165*
X17693*
X17730Y9202*
Y9303*
X17708Y9325*
X17520*
Y9432*
Y9434*
X17521Y9435*
X17522Y9436*
X17524*
X17526*
X17527Y9435*
X17547Y9415*
X18533*
X18580Y9462*
Y9533*
X18533Y9580*
X17537*
X17527Y9570*
X17526Y9569*
X17524*
X17522*
X17521Y9570*
X17520Y9571*
Y9573*
Y9813*
X17498Y9835*
X16797*
X15865Y8903*
Y8782*
Y8781*
X15864Y8779*
X15862*
X15861Y8778*
X15859Y8779*
X15854Y8781*
X15849Y8783*
X15843Y8784*
X15838Y8785*
X15832*
X15827Y8784*
X15821Y8783*
X15816Y8781*
X15811Y8779*
X15806Y8776*
X15802Y8773*
X15798Y8769*
X15797Y8768*
X15795Y8767*
X15793Y8768*
X15792Y8769*
X15788Y8773*
X15783Y8777*
X15778Y8780*
X15772Y8782*
X15766Y8784*
X15760Y8785*
X15754*
X15748Y8784*
X15742Y8783*
X15736Y8781*
X15730Y8779*
X15725Y8775*
X15721Y8771*
X15716Y8767*
X15713Y8762*
X15710Y8757*
X15709Y8755*
X15708*
X15707Y8754*
X15705*
X15704Y8755*
X15703Y8756*
X15700Y8760*
X15696Y8763*
X15691Y8766*
X15687Y8768*
X15682Y8769*
X15677Y8770*
X15672*
X15666Y8769*
X15662Y8767*
X15657Y8765*
X15653Y8762*
X15649Y8758*
X15646Y8754*
X15643Y8750*
X15641Y8745*
X15640Y8740*
Y8735*
Y8730*
X15641Y8725*
X15643Y8720*
X15646Y8716*
X15649Y8712*
X15653Y8708*
X15657Y8705*
X15662Y8703*
X15666Y8701*
X15672Y8700*
X15677*
X15682Y8701*
X15687Y8702*
X15691Y8704*
X15696Y8707*
X15700Y8710*
X15703Y8714*
X15704Y8715*
X15705Y8716*
X15707*
X15708Y8715*
X15709*
X15710Y8713*
X15713Y8708*
X15716Y8703*
X15721Y8699*
X15725Y8695*
X15730Y8691*
X15736Y8689*
X15742Y8687*
X15748Y8686*
X15754Y8685*
X15760*
X15766Y8686*
X15772Y8688*
X15778Y8690*
X15783Y8693*
X15788Y8697*
X15792Y8701*
X15793Y8702*
X15795Y8703*
X15797Y8702*
X15798Y8701*
X15802Y8697*
X15806Y8694*
X15811Y8691*
X15816Y8689*
X15821Y8687*
X15827Y8686*
X15832Y8685*
X15838*
X15843Y8686*
X15849Y8687*
X15854Y8689*
X15859Y8691*
X15861Y8692*
X15862Y8691*
X15864*
X15865Y8689*
Y8688*
Y8337*
X15907Y8295*
X15953*
X15995Y8337*
Y8677*
X16088Y8770*
X16232*
X16234*
X16235Y8769*
X16236Y8768*
Y8766*
Y8764*
X16235Y8763*
X16215Y8743*
Y8428*
X16122Y8335*
X16012*
X15975Y8298*
Y8178*
X15877Y8080*
X15876Y8079*
X15874*
X15872*
X15871Y8080*
X15870Y8081*
Y8083*
Y8218*
X15800Y8288*
Y8388*
X15533Y8655*
X15395*
Y8988*
X15258Y9125*
X15147*
X15130Y9108*
X15118Y9120*
X14917*
X14865Y9068*
Y8737*
X15109Y8492*
X15184*
X15187Y8490*
X15250*
Y8663*
X15160Y8753*
Y8817*
Y8819*
X15161Y8820*
X15162Y8821*
X15164*
X15166*
X15167Y8820*
X15275Y8712*
Y8400*
X15467*
X15555Y8312*
Y8215*
X15717*
X15730Y8202*
X15731Y8201*
Y8199*
Y8197*
X15730Y8196*
X15729Y8195*
X15727*
X15712*
X15690Y8173*
Y8148*
X15660*
Y8178*
X15638Y8200*
X15577*
X15555Y8178*
Y8148*
X15515*
Y8052*
X15555*
Y8038*
X15547Y8030*
X15408*
X15355Y8083*
Y8133*
X15295Y8193*
Y8273*
X15268Y8300*
X15042*
X15020Y8278*
Y8192*
X15042Y8170*
X15060*
Y8115*
X15120*
Y8170*
X15150*
Y8097*
X15372Y7875*
X15865*
Y7448*
X15687Y7270*
X15510*
Y7325*
X15450*
Y7270*
X15417*
X15416Y7269*
X15415Y7268*
X15413*
X15411*
X15410Y7269*
X15409Y7270*
Y7272*
Y7475*
X15248Y7636*
Y7637*
X15250Y7643*
Y7649*
Y7655*
X15249Y7661*
X15247Y7667*
X15245Y7672*
X15242Y7677*
X15238Y7682*
X15234Y7687*
X15229Y7690*
X15224Y7694*
X15219Y7696*
X15218Y7697*
X15217Y7698*
X15216Y7700*
X15217Y7702*
X15218Y7703*
X15219Y7704*
X15225Y7706*
X15230Y7710*
X15235Y7714*
X15239Y7718*
X15242Y7723*
X15245Y7729*
X15248Y7735*
X15249Y7741*
X15250Y7747*
Y7753*
X15249Y7759*
X15248Y7765*
X15245Y7771*
X15242Y7777*
X15239Y7782*
X15235Y7786*
X15230Y7790*
X15225Y7794*
X15219Y7796*
X15218Y7797*
X15217Y7798*
X15216Y7800*
X15217Y7802*
X15218Y7803*
X15219Y7804*
X15224Y7806*
X15229Y7809*
X15234Y7813*
X15238Y7817*
X15242Y7822*
X15245Y7827*
X15247Y7833*
X15249Y7838*
X15250Y7844*
Y7850*
Y7856*
X15249Y7862*
X15247Y7867*
X15244Y7873*
X15241Y7878*
X15238Y7883*
X15234Y7887*
X15229Y7891*
X15224Y7894*
X15219Y7896*
X15213Y7898*
X15207Y7899*
X15201Y7900*
X15196*
X15190Y7899*
X15184Y7897*
X15179Y7895*
X15173Y7892*
X15169Y7889*
X15164Y7885*
X15163Y7884*
X15161*
X15160*
X15158Y7885*
X15045Y7998*
Y8128*
X14955Y8218*
Y8225*
X14948*
X14903Y8270*
X14767*
X14675Y8178*
Y7372*
X14722Y7325*
G37*
%LPD*%
G36*
X15713Y8167D02*
G01X15714Y8168D01*
Y8169*
X15720Y8175*
X15755*
X15765Y8165*
Y8148*
X15716*
Y8163*
X15715*
X15714Y8164*
X15713Y8166*
Y8167*
G37*
G36*
X15575Y8163D02*
G01Y8170D01*
X15585Y8180*
X15630*
X15640Y8170*
Y8163*
X15634*
Y8148*
X15582*
Y8163*
X15575*
G37*
G36*
X14820Y7321D02*
G01Y7322D01*
X14821Y7324*
X14822Y7325*
X14843*
X14854Y7336*
X14855*
X14857Y7337*
X14858Y7336*
X14859*
X14860Y7334*
X14861Y7333*
Y7295*
X14830Y7264*
X14826*
Y7267*
X14827*
X14829Y7271*
X14832Y7275*
X14833Y7280*
X14835Y7284*
Y7294*
X14834Y7298*
X14833Y7303*
X14831Y7307*
X14825Y7315*
X14821Y7318*
X14820Y7319*
Y7321*
G37*
G36*
X15660Y8033D02*
G01Y8052D01*
X15690*
Y8042*
X15751Y7981*
Y7977*
X15749Y7975*
X15718*
X15660Y8033*
G37*
G36*
X14884Y6438D02*
G01Y6440D01*
X14890Y6446*
X15025*
X15027Y6444*
Y6440*
X15025Y6438*
Y6413*
X15024Y6411*
X15023Y6410*
X15020*
X15018Y6411*
X15010Y6417*
X15005Y6419*
X15000Y6420*
X14990*
X14985Y6419*
X14980Y6417*
X14972Y6411*
X14968Y6407*
X14965Y6403*
X14963Y6399*
X14961Y6394*
X14960Y6389*
Y6384*
X14962Y6374*
X14964Y6369*
X14970Y6361*
X14975Y6356*
Y6353*
X14974Y6351*
X14973Y6350*
X14938*
X14936Y6351*
X14935Y6353*
Y6355*
X14936Y6356*
X14939Y6361*
X14942Y6367*
X14944Y6373*
X14945Y6379*
Y6391*
X14944Y6397*
X14942Y6403*
X14936Y6413*
X14932Y6418*
X14928Y6422*
X14923Y6426*
X14913Y6432*
X14907Y6434*
X14901Y6435*
X14887*
X14884Y6438*
G37*
G36*
X17125Y6985D02*
G01Y7070D01*
X17130*
Y7065*
X17145*
Y7000*
X17205*
Y7065*
X17220*
Y7070*
X17300*
X17325Y7045*
Y6980*
X17320*
Y7038*
X17270*
Y6980*
X17130*
X17125Y6985*
G37*
G36*
Y9600D02*
G01Y9680D01*
X17130*
Y9675*
X17145*
Y9610*
X17205*
Y9675*
X17220*
Y9680*
X17305*
X17325Y9660*
Y9590*
X17320*
Y9658*
X17270*
Y9590*
X17135*
X17125Y9600*
G37*
G36*
Y8925D02*
G01Y9015D01*
X17130*
Y9010*
X17145*
Y8945*
X17205*
Y9010*
X17220*
Y9015*
X17310*
X17330Y8995*
Y8925*
X17325*
Y8993*
X17275*
Y8925*
X17125*
G37*
G36*
Y8280D02*
G01Y8360D01*
X17130*
Y8355*
X17145*
Y8290*
X17205*
Y8355*
X17220*
Y8360*
X17320*
X17335Y8345*
Y8270*
X17330*
Y8338*
X17280*
Y8270*
X17135*
X17125Y8280*
G37*
G36*
Y7620D02*
G01Y7705D01*
X17130*
Y7700*
X17145*
Y7635*
X17205*
Y7700*
X17220*
Y7705*
X17325*
X17335Y7695*
Y7620*
X17333Y7618*
X17331*
X17330Y7619*
Y7688*
X17280*
Y7615*
X17130*
X17125Y7620*
G37*
G36*
X16040Y6235D02*
G01Y6430D01*
X16120*
X16130Y6420*
Y6310*
X16125*
Y6295*
X16060*
Y6235*
X16125*
Y6225*
X16115Y6215*
X16060*
X16040Y6235*
G37*
G36*
X17125Y6310D02*
G01Y6395D01*
X17130*
Y6390*
X17145*
Y6325*
X17205*
Y6390*
X17220*
Y6395*
X17310*
X17335Y6370*
Y6300*
X17330Y6295*
X17325*
Y6363*
X17275*
Y6295*
X17140*
X17125Y6310*
G37*
G36*
X15040Y8200D02*
G01Y8270D01*
X15050Y8280*
X15260*
X15275Y8265*
Y8200*
X15273Y8198*
X15271*
X15270Y8199*
Y8200*
X15255*
Y8265*
X15195*
Y8200*
X15180*
Y8190*
X15135*
Y8200*
X15120*
Y8265*
X15060*
Y8200*
X15045*
Y8199*
X15044Y8198*
X15042*
X15040Y8200*
G37*
G36*
X16845Y8194D02*
G01Y8240D01*
X16883*
X16905Y8262*
Y8367*
X16974Y8436*
X16978*
X16980Y8434*
Y8319*
X16851Y8190*
X16847*
X16845Y8192*
Y8194*
G37*
G36*
X17125Y9285D02*
G01Y9370D01*
X17225*
X17325Y9270*
Y9185*
X17265*
X17260Y9190*
Y9265*
X17240Y9285*
X17220*
Y9290*
X17205*
Y9355*
X17145*
Y9290*
X17130*
Y9285*
X17125*
G37*
G36*
X17120Y7315D02*
G01Y7390D01*
X17245*
X17335Y7300*
Y7220*
X17330Y7215*
X17275*
Y7295*
X17260Y7310*
X17220*
Y7315*
X17205*
Y7380*
X17145*
Y7315*
X17130*
Y7310*
X17125*
X17120Y7315*
G37*
G36*
X17125Y7970D02*
G01Y8050D01*
X17230*
X17335Y7945*
Y7870*
X17330*
Y7942*
X17280*
Y7870*
X17275*
Y7945*
X17250Y7970*
X17205*
Y8035*
X17145*
Y7970*
X17125*
G37*
G36*
Y8620D02*
G01Y8705D01*
X17225*
X17330Y8600*
Y8525*
X17325Y8520*
X17275*
X17270Y8525*
Y8605*
X17255Y8620*
X17220*
Y8625*
X17205*
Y8690*
X17145*
Y8625*
X17130*
Y8620*
X17125*
G37*
G36*
Y6005D02*
G01Y6075D01*
X17230*
X17330Y5975*
Y5890*
X17270*
Y5965*
X17245Y5990*
X17220*
Y5995*
X17205*
Y6060*
X17145*
Y5995*
X17135*
X17125Y6005*
G37*
G36*
X17130Y6680D02*
G01Y6760D01*
X17222*
X17325Y6657*
Y6565*
X17275*
X17271Y6569*
Y6571*
X17272Y6572*
X17320*
Y6642*
X17270*
Y6574*
X17269Y6573*
X17267*
X17265Y6575*
Y6645*
X17230Y6680*
X17225*
Y6685*
X17210*
Y6750*
X17150*
Y6685*
X17135*
Y6680*
X17130*
G37*
G36*
X15339Y6438D02*
G01Y6440D01*
X15344Y6445*
Y6575*
X15360*
Y6520*
X15420*
Y6569*
X15422Y6571*
X15426*
X15541Y6456*
Y6452*
X15539Y6450*
X15502*
X15480Y6428*
Y6413*
X15479Y6411*
X15478Y6410*
X15475*
X15473Y6411*
X15465Y6417*
X15460Y6419*
X15455Y6420*
X15445*
X15440Y6419*
X15435Y6417*
X15427Y6411*
X15423Y6407*
X15420Y6403*
X15418Y6399*
X15416Y6394*
X15415Y6389*
Y6384*
X15417Y6374*
X15419Y6369*
X15425Y6361*
X15430Y6356*
Y6353*
X15429Y6351*
X15428Y6350*
X15393*
X15391Y6351*
X15390Y6353*
Y6355*
X15391Y6356*
X15394Y6361*
X15397Y6367*
X15399Y6373*
X15400Y6379*
Y6391*
X15399Y6397*
X15397Y6403*
X15391Y6413*
X15387Y6418*
X15383Y6422*
X15378Y6426*
X15368Y6432*
X15362Y6434*
X15356Y6435*
X15342*
X15339Y6438*
G37*
G36*
X16150Y6745D02*
G01Y6825D01*
X16155Y6830*
X16235*
X16270Y6865*
Y6960*
X16280Y6970*
X16285*
X16290Y6975*
X16345*
X16358Y6962*
X16355Y6958*
Y6950*
X16300*
Y6890*
X16355*
Y6858*
X16237Y6740*
X16155*
X16150Y6745*
G37*
G36*
X17130Y6205D02*
G01Y6270D01*
X17135Y6275*
X17350*
X17365Y6290*
Y6365*
X17370Y6370*
X17430*
Y6290*
X17345Y6205*
X17205*
Y6265*
X17145*
Y6205*
X17130*
G37*
G36*
X15374Y6830D02*
G01Y7019D01*
X15376Y7021*
X15380*
X15480Y6921*
X15491*
X15494Y6916*
X15498Y6911*
X15508Y6903*
X15513Y6900*
X15525Y6896*
X15531Y6895*
X15537*
X15544Y6896*
X15550Y6897*
X15555Y6899*
X15561Y6902*
X15566Y6906*
X15567*
X15569Y6907*
X15572Y6904*
Y6863*
X15570Y6861*
X15568*
X15566Y6862*
X15565Y6863*
X15559Y6871*
X15555Y6874*
X15550Y6876*
X15546Y6878*
X15541Y6880*
X15531*
X15526Y6879*
X15516Y6875*
X15512Y6872*
X15503Y6860*
X15501Y6855*
X15500Y6850*
Y6840*
X15501Y6835*
X15503Y6830*
X15512Y6818*
X15516Y6815*
X15526Y6811*
X15531Y6810*
X15541*
X15546Y6812*
X15550Y6814*
X15555Y6816*
X15559Y6819*
X15565Y6827*
X15566Y6828*
X15568Y6829*
X15570*
X15572Y6827*
Y6789*
X15581Y6781*
X15582Y6780*
Y6776*
X15580Y6774*
X15430*
X15374Y6830*
G37*
G36*
X17130Y6875D02*
G01Y6960D01*
X17255*
Y6953*
X17335*
Y6960*
X17360*
X17365Y6965*
Y7045*
X17370Y7050*
X17415*
X17425Y7040*
Y6965*
X17335Y6875*
X17225*
Y6880*
X17210*
Y6945*
X17150*
Y6880*
X17135*
Y6875*
X17130*
G37*
G36*
X17125Y9500D02*
G01Y9570D01*
X17345*
X17360Y9585*
Y9665*
X17365Y9670*
X17422*
X17425Y9667*
Y9590*
X17423Y9588*
X17421*
X17420Y9589*
Y9658*
X17370*
Y9588*
X17415*
X17417Y9586*
Y9582*
X17330Y9495*
X17205*
Y9555*
X17145*
Y9495*
X17130*
X17125Y9500*
G37*
G36*
Y8175D02*
G01Y8250D01*
X17365*
X17375Y8260*
Y8345*
X17435*
Y8248*
X17362Y8175*
X17205*
Y8235*
X17145*
Y8175*
X17125*
G37*
G36*
Y8825D02*
G01Y8905D01*
X17360*
X17370Y8915*
Y9000*
X17425*
X17430Y8995*
Y8915*
X17340Y8825*
X17205*
Y8890*
X17145*
Y8825*
X17125*
G37*
G36*
Y7510D02*
G01Y7590D01*
X17350*
X17375Y7615*
Y7690*
X17380Y7695*
X17435*
Y7600*
X17345Y7510*
X17205*
Y7575*
X17145*
Y7510*
X17125*
G37*
G36*
X14740Y7879D02*
G01Y8102D01*
X14763Y8125*
X14772*
X14774Y8124*
X14775Y8123*
Y8120*
X14774Y8118*
X14768Y8110*
X14767Y8105*
X14765Y8100*
Y8090*
X14766Y8085*
X14768Y8081*
X14770Y8076*
X14773Y8072*
X14785Y8063*
X14790Y8061*
X14795Y8060*
X14805*
X14810Y8061*
X14815Y8063*
X14827Y8072*
X14830Y8076*
X14832Y8081*
X14834Y8085*
X14835Y8090*
Y8100*
X14833Y8105*
X14832Y8110*
X14826Y8118*
X14825Y8120*
Y8123*
X14826Y8124*
X14828Y8125*
X14880*
Y8060*
X14940*
Y8099*
X14942Y8101*
X14946*
X14980Y8067*
Y7945*
X14965*
Y8010*
X14905*
Y7945*
X14884*
X14848Y7981*
Y7982*
X14850Y7988*
Y8000*
X14849Y8006*
X14847Y8012*
X14845Y8017*
X14842Y8023*
X14838Y8027*
X14834Y8032*
X14829Y8036*
X14824Y8039*
X14819Y8041*
X14807Y8045*
X14795*
X14789Y8044*
X14783Y8042*
X14778Y8040*
X14773Y8037*
X14763Y8029*
X14760Y8024*
X14756Y8019*
X14754Y8014*
X14752Y8008*
X14750Y7996*
Y7990*
X14751Y7984*
X14753Y7978*
X14755Y7973*
X14758Y7968*
X14766Y7958*
X14771Y7955*
X14776Y7951*
X14781Y7949*
X14783Y7947*
X14784Y7945*
X14783Y7943*
X14781Y7941*
X14776Y7939*
X14771Y7935*
X14766Y7932*
X14758Y7922*
X14755Y7917*
X14753Y7912*
X14751Y7906*
X14750Y7900*
Y7888*
X14752Y7882*
Y7881*
X14746Y7875*
X14742*
X14740Y7877*
Y7879*
G37*
G36*
X16045Y6740D02*
G01Y7025D01*
X16115Y7095*
X16210*
X16212Y7093*
Y7091*
X16211Y7090*
X16205*
Y7075*
X16140*
Y7015*
X16205*
Y7000*
X16150*
X16125Y6975*
Y6745*
X16115Y6735*
X16050*
X16045Y6740*
G37*
G36*
X18085Y7075D02*
G01Y7150D01*
X18520*
X18560Y7110*
Y7040*
X18540Y7020*
X18140*
X18085Y7075*
G37*
G36*
X18090Y9040D02*
G01Y9115D01*
X18095Y9120*
X18505*
X18555Y9070*
Y9000*
X18540Y8985*
X18145*
X18090Y9040*
G37*
G36*
X18085Y8395D02*
G01Y8460D01*
X18520*
X18560Y8420*
Y8345*
X18540Y8325*
X18155*
X18085Y8395*
G37*
G36*
X18075Y5935D02*
G01Y6005D01*
X18125Y6055*
X18535*
X18560Y6030*
Y5940*
X18535Y5915*
X18095*
X18075Y5935*
G37*
G36*
X18070Y7265D02*
G01Y7340D01*
X18105Y7375*
X18550*
X18555Y7370*
Y7280*
X18510Y7235*
X18100*
X18070Y7265*
G37*
G36*
X18080Y9245D02*
G01Y9300D01*
X18130Y9350*
X18535*
X18555Y9330*
Y9260*
X18500Y9205*
X18120*
X18080Y9245*
G37*
G36*
X18075Y9700D02*
G01Y9775D01*
X18505*
X18570Y9710*
Y9645*
X18560Y9635*
X18140*
X18075Y9700*
G37*
G36*
X18080Y7740D02*
G01Y7805D01*
X18085Y7810*
X18505*
X18560Y7755*
Y7685*
X18540Y7665*
X18155*
X18080Y7740*
G37*
G36*
X18090Y7920D02*
G01Y7980D01*
X18150Y8040*
X18555*
Y7960*
X18485Y7890*
X18120*
X18090Y7920*
G37*
G36*
X18075Y6400D02*
G01Y6490D01*
X18510*
X18560Y6440*
Y6360*
X18545Y6345*
X18130*
X18075Y6400*
G37*
G36*
Y8580D02*
G01Y8660D01*
X18110Y8695*
X18535*
X18560Y8670*
Y8620*
X18485Y8545*
X18110*
X18075Y8580*
G37*
G36*
X18080Y6610D02*
G01Y6670D01*
X18145Y6735*
X18540*
X18565Y6710*
Y6655*
X18495Y6585*
X18105*
X18080Y6610*
G37*
G36*
X17525Y6835D02*
G01Y6900D01*
X17555Y6930*
X18540*
X18555Y6915*
Y6845*
X18535Y6825*
X17535*
X17525Y6835*
G37*
G36*
X17520Y8800D02*
G01Y8875D01*
X17540Y8895*
X18545*
X18560Y8880*
Y8805*
X18540Y8785*
X17535*
X17520Y8800*
G37*
G36*
Y7505D02*
G01Y7570D01*
X17535Y7585*
X18550*
X18570Y7565*
Y7485*
X18555Y7470*
X17555*
X17520Y7505*
G37*
G36*
X17525Y8150D02*
G01Y8215D01*
X17560Y8250*
X18555*
Y8150*
X18530Y8125*
X17550*
X17525Y8150*
G37*
G36*
X17520Y9470D02*
G01Y9535D01*
X17545Y9560*
X18525*
X18560Y9525*
Y9470*
X18525Y9435*
X17555*
X17520Y9470*
G37*
G36*
X14895Y7670D02*
G01Y7925D01*
X14905*
Y7860*
X14965*
Y7925*
X15000*
Y8075*
X14955Y8120*
Y8145*
X14940*
Y8197*
X14942Y8199*
X14946*
X15025Y8120*
Y7990*
X15145Y7870*
Y7830*
X15115Y7800*
X15030*
X14995Y7765*
Y7675*
X14985Y7665*
X14900*
X14895Y7670*
G37*
G36*
X17520Y6175D02*
G01Y6240D01*
X17545Y6265*
X18565*
X18595Y6235*
Y6160*
X18570Y6135*
X17560*
X17520Y6175*
G37*
G36*
X14885Y8745D02*
G01Y9060D01*
X14925Y9100*
X15110*
X15140Y9070*
Y9058*
X15139Y9055*
X15137Y9053*
X15135Y9055*
X15132Y9060*
X15124Y9068*
X15119Y9072*
X15114Y9075*
X15109Y9077*
X15097Y9079*
X15091*
X15085Y9078*
X15079Y9076*
X15074Y9074*
X15069Y9071*
X15064Y9067*
X15060Y9063*
X15057Y9058*
X15055Y9056*
X15052*
X15050Y9058*
X15047Y9064*
X15043Y9070*
X15039Y9075*
X15034Y9080*
X15028Y9084*
X15016Y9090*
X15010Y9092*
X15003Y9094*
X14989*
X14983Y9093*
X14976Y9091*
X14964Y9085*
X14958Y9081*
X14953Y9077*
X14948Y9072*
X14944Y9066*
X14938Y9054*
X14937Y9047*
X14935Y9041*
Y9027*
X14937Y9021*
X14938Y9014*
X14944Y9002*
X14948Y8996*
X14953Y8991*
X14958Y8987*
X14964Y8983*
X14976Y8977*
X14983Y8975*
X14989Y8974*
X15003*
X15010Y8976*
X15016Y8978*
X15028Y8984*
X15034Y8988*
X15039Y8993*
X15043Y8998*
X15047Y9004*
X15050Y9010*
X15052Y9012*
X15055*
X15057Y9010*
X15060Y9005*
X15064Y9001*
X15069Y8997*
X15074Y8994*
X15079Y8992*
X15085Y8990*
X15091Y8989*
X15097*
X15109Y8991*
X15114Y8993*
X15119Y8996*
X15124Y9000*
X15132Y9008*
X15135Y9013*
X15137Y9015*
X15139Y9013*
X15140Y9010*
Y8920*
X15139Y8917*
X15137Y8915*
X15135Y8917*
X15132Y8922*
X15124Y8930*
X15119Y8934*
X15114Y8937*
X15109Y8939*
X15097Y8941*
X15091*
X15085Y8940*
X15079Y8938*
X15074Y8936*
X15069Y8933*
X15064Y8929*
X15060Y8925*
X15057Y8920*
X15055Y8918*
X15052*
X15050Y8920*
X15047Y8926*
X15043Y8932*
X15039Y8937*
X15034Y8942*
X15028Y8946*
X15016Y8952*
X15010Y8954*
X15003Y8956*
X14989*
X14983Y8955*
X14976Y8953*
X14964Y8947*
X14958Y8943*
X14953Y8939*
X14948Y8934*
X14944Y8928*
X14938Y8916*
X14937Y8909*
X14935Y8903*
Y8889*
X14937Y8883*
X14938Y8876*
X14944Y8864*
X14948Y8858*
X14953Y8853*
X14958Y8849*
X14964Y8845*
X14976Y8839*
X14983Y8837*
X14989Y8836*
X15003*
X15010Y8838*
X15016Y8840*
X15028Y8846*
X15034Y8850*
X15039Y8855*
X15043Y8860*
X15047Y8866*
X15050Y8872*
X15052Y8874*
X15055*
X15057Y8872*
X15060Y8867*
X15064Y8863*
X15069Y8859*
X15074Y8856*
X15079Y8854*
X15085Y8852*
X15091Y8851*
X15097*
X15109Y8853*
X15114Y8855*
X15119Y8858*
X15124Y8862*
X15132Y8870*
X15135Y8875*
X15137Y8877*
X15139Y8875*
X15140Y8872*
Y8745*
X15230Y8655*
Y8510*
X15195*
X15193Y8513*
X15118*
X14885Y8745*
G37*
G36*
X16355Y6250D02*
G01Y6320D01*
X16750*
X16965Y6105*
Y5995*
X16950Y5980*
X16880*
X16840Y6020*
Y6110*
X16785Y6165*
X16440*
X16355Y6250*
G37*
G36*
X14695Y7380D02*
G01Y8170D01*
X14775Y8250*
X14895*
X14929Y8216*
Y8212*
X14927Y8210*
X14880*
Y8145*
X14755*
X14720Y8110*
Y7545*
X14850Y7415*
X14855*
Y7365*
X14835Y7345*
X14730*
X14695Y7380*
G37*
G36*
X16300Y6055D02*
G01Y6697D01*
X16413Y6810*
X16465*
X16495Y6780*
Y6735*
X16340Y6580*
Y6340*
X16335*
Y6242*
X16340Y6237*
Y6185*
X16415Y6110*
X16550*
X16595Y6065*
Y6000*
X16555Y5960*
X16395*
X16300Y6055*
G37*
G36*
X16635Y5935D02*
G01Y6075D01*
X16660Y6100*
X16755*
X16785Y6070*
Y5960*
X16815Y5930*
X16960*
X16985Y5955*
Y6320*
X16935Y6370*
Y6575*
X17035*
X17040Y6570*
Y5925*
X17005Y5890*
X16680*
X16635Y5935*
G37*
G36*
X15716Y8044D02*
G01Y8052D01*
X15765*
Y8032*
X15782Y8015*
X15843*
X15870Y8042*
Y8045*
X15995Y8170*
Y8290*
X16020Y8315*
X16130*
X16235Y8420*
Y8735*
X16255Y8755*
X16470*
X16485Y8740*
Y8390*
X16195Y8100*
X16022*
X16017Y8095*
X16005*
X15890Y7980*
X15780*
X15716Y8044*
G37*
G36*
X15145Y9093D02*
G01Y9095D01*
X15155Y9105*
X15250*
X15375Y8980*
Y8635*
X15525*
X15780Y8380*
Y8280*
X15850Y8210*
Y8050*
X15835Y8035*
X15790*
X15785Y8040*
Y8052*
X15835*
Y8148*
X15785*
Y8175*
X15725Y8235*
X15575*
Y8320*
X15475Y8420*
X15295*
Y8720*
X15160Y8855*
Y8859*
X15161Y8861*
X15162Y8862*
X15165*
X15167Y8861*
X15171Y8858*
X15177Y8855*
X15182Y8853*
X15194Y8851*
X15200*
X15206Y8852*
X15212Y8854*
X15222Y8860*
X15227Y8864*
X15230Y8868*
X15234Y8873*
X15237Y8879*
X15238Y8884*
X15240Y8890*
Y8902*
X15238Y8908*
X15237Y8913*
X15234Y8919*
X15230Y8924*
X15227Y8928*
X15222Y8932*
X15212Y8938*
X15206Y8940*
X15200Y8941*
X15194*
X15182Y8939*
X15177Y8937*
X15171Y8934*
X15167Y8931*
X15165Y8930*
X15162*
X15161Y8931*
X15160Y8933*
Y8997*
X15161Y8999*
X15162Y9000*
X15165*
X15167Y8999*
X15171Y8996*
X15177Y8993*
X15182Y8991*
X15194Y8989*
X15200*
X15206Y8990*
X15212Y8992*
X15222Y8998*
X15227Y9002*
X15230Y9006*
X15234Y9011*
X15237Y9017*
X15238Y9022*
X15240Y9028*
Y9040*
X15238Y9046*
X15237Y9051*
X15234Y9057*
X15230Y9062*
X15227Y9066*
X15222Y9070*
X15212Y9076*
X15206Y9078*
X15200Y9079*
X15194*
X15182Y9077*
X15177Y9075*
X15171Y9072*
X15167Y9069*
X15165Y9068*
X15162*
X15161Y9069*
X15160Y9071*
Y9078*
X15145Y9093*
G37*
G36*
X16005Y7243D02*
G01Y7937D01*
X16034Y7966*
X16038*
X16040Y7964*
Y7785*
X16180*
Y7975*
X16051*
X16049Y7977*
Y7981*
X16063Y7995*
X16578*
X16600Y8017*
Y8057*
X16779Y8236*
X16783*
X16785Y8234*
Y8185*
X16838*
X16840Y8183*
Y8179*
X16651Y7990*
Y7800*
X16725Y7726*
X16756*
X16759Y7721*
X16771Y7709*
X16776Y7706*
X16781Y7704*
X16783Y7702*
X16784Y7700*
X16783Y7698*
X16781Y7696*
X16775Y7694*
X16765Y7686*
X16761Y7682*
X16758Y7677*
X16752Y7665*
X16750Y7653*
Y7647*
X16752Y7635*
X16758Y7623*
X16761Y7618*
X16765Y7614*
X16775Y7606*
X16781Y7604*
X16783Y7602*
X16784Y7600*
X16783Y7598*
X16781Y7596*
X16775Y7594*
X16765Y7586*
X16761Y7582*
X16758Y7577*
X16752Y7565*
X16750Y7553*
Y7547*
X16752Y7535*
X16758Y7523*
X16761Y7518*
X16765Y7514*
X16775Y7506*
X16781Y7504*
X16783Y7502*
X16784Y7500*
X16783Y7498*
X16781Y7496*
X16775Y7494*
X16765Y7486*
X16761Y7482*
X16758Y7477*
X16752Y7465*
X16750Y7453*
Y7447*
X16752Y7435*
X16758Y7423*
X16761Y7418*
X16765Y7414*
X16775Y7406*
X16781Y7404*
X16783Y7402*
X16784Y7400*
X16783Y7398*
X16781Y7396*
X16775Y7394*
X16765Y7386*
X16761Y7382*
X16758Y7377*
X16752Y7365*
X16750Y7353*
Y7347*
X16752Y7335*
X16758Y7323*
X16761Y7318*
X16765Y7314*
X16775Y7306*
X16781Y7304*
X16783Y7302*
X16784Y7300*
X16783Y7298*
X16781Y7296*
X16775Y7294*
X16765Y7286*
X16761Y7282*
X16758Y7277*
X16752Y7265*
X16750Y7253*
Y7247*
X16752Y7235*
X16758Y7223*
X16761Y7218*
X16765Y7214*
X16775Y7206*
X16781Y7204*
X16783Y7202*
X16784Y7200*
X16783Y7198*
X16781Y7196*
X16775Y7194*
X16765Y7186*
X16761Y7182*
X16758Y7177*
X16752Y7165*
X16750Y7153*
Y7147*
X16752Y7135*
X16758Y7123*
X16761Y7118*
X16765Y7114*
X16775Y7106*
X16781Y7104*
X16783Y7102*
X16784Y7100*
X16783Y7098*
X16781Y7096*
X16776Y7094*
X16770Y7090*
X16766Y7086*
X16761Y7082*
X16758Y7077*
X16755Y7071*
X16753Y7066*
X16751Y7060*
X16750Y7054*
Y7048*
X16751Y7041*
X16752Y7035*
X16754Y7030*
X16755Y7028*
Y7027*
X16752Y7024*
X16705*
X16654Y7075*
Y7270*
X16615Y7309*
X16583*
Y7615*
X16483*
Y7280*
X16482*
X16432Y7230*
X16352*
Y7250*
X16282*
Y7230*
X16208*
X16183Y7255*
X16160*
Y7315*
X16100*
Y7255*
X16027*
X16010Y7238*
X16005Y7243*
G37*
G36*
X14720Y6345D02*
G01Y6560D01*
X14765Y6605*
X14850*
X14870Y6585*
X14890*
Y6580*
X14905*
Y6515*
X14965*
Y6580*
X14980*
Y6585*
X15020*
Y6580*
X15035*
Y6515*
X15095*
Y6580*
X15110*
Y6585*
X15170*
Y6580*
X15185*
Y6515*
X15245*
Y6580*
X15260*
Y6581*
X15261Y6582*
X15263*
X15265Y6580*
Y6524*
X15241Y6500*
X14805*
X14745Y6440*
Y6360*
X14775Y6330*
X15035*
X15045Y6340*
Y6430*
X15055Y6440*
X15140*
X15145Y6435*
Y6345*
X15160Y6330*
X15500*
Y6420*
X15510Y6430*
X15585*
X15600Y6415*
Y6330*
X15735*
X15750Y6345*
Y6415*
X15725Y6440*
X15585*
X15435Y6590*
Y6605*
X15420*
Y6670*
X15360*
Y6605*
X15345*
X15344Y6606*
Y6689*
X15350Y6695*
X15415*
X15625Y6485*
X15775*
X15850Y6410*
Y6350*
X15870Y6330*
X15955*
Y6435*
X15593Y6798*
Y6993*
X15580Y7005*
X15465*
X15415Y7055*
Y7240*
X15425Y7250*
X15435*
Y7240*
X15450*
Y7175*
X15510*
Y7240*
X15525*
Y7250*
X15695*
X15885Y7440*
Y7895*
X15380*
X15170Y8105*
Y8170*
X15195*
Y8115*
X15255*
Y8170*
X15273*
X15282Y8178*
X15335Y8125*
Y8075*
X15400Y8010*
X15555*
X15575Y8030*
Y8037*
X15582*
Y8052*
X15634*
Y8037*
X15640*
Y8025*
X15710Y7955*
X15905*
X16030Y8080*
X16315*
X16355Y8120*
X16380*
X16390Y8130*
Y8235*
X16420Y8265*
X16610*
X16695Y8350*
X16740*
Y8510*
X16690Y8560*
Y8790*
X16080*
X15975Y8685*
Y8345*
X15945Y8315*
X15915*
X15885Y8345*
Y8707*
X15886Y8709*
X15887Y8710*
X15890*
X15892Y8709*
X15900Y8703*
X15905Y8702*
X15910Y8700*
X15920*
X15925Y8701*
X15929Y8703*
X15934Y8705*
X15938Y8708*
X15947Y8720*
X15949Y8725*
X15950Y8730*
Y8740*
X15949Y8745*
X15947Y8750*
X15938Y8762*
X15934Y8765*
X15929Y8767*
X15925Y8769*
X15920Y8770*
X15910*
X15905Y8768*
X15900Y8767*
X15892Y8761*
X15890Y8760*
X15887*
X15886Y8761*
X15885Y8763*
Y8895*
X16805Y9815*
X17490*
X17500Y9805*
Y9305*
X17700*
X17710Y9295*
Y9210*
X17685Y9185*
X17500*
Y8655*
X17700*
Y8535*
X17690Y8525*
X17500*
Y7989*
X17501Y7988*
X17503*
X17505Y7990*
X17690*
X17710Y7970*
Y7900*
X17685Y7875*
X17505*
X17500Y7870*
Y7345*
X17685*
X17705Y7325*
Y7240*
X17685Y7220*
X17500*
Y6685*
X17675*
X17700Y6660*
Y6590*
X17675Y6565*
X17500*
Y6150*
X17625Y6025*
X17680*
X17700Y6005*
Y5945*
X17645Y5890*
X17375*
X17370Y5895*
Y5970*
X17240Y6100*
X17130*
X17125Y6105*
Y6180*
X17127Y6182*
X17129*
X17130Y6181*
Y6180*
X17145*
Y6115*
X17205*
Y6180*
X17220*
Y6185*
X17370*
X17480Y6295*
Y6565*
X17370*
X17365Y6570*
Y6645*
X17230Y6780*
X17135*
X17130Y6785*
Y6850*
X17135Y6855*
X17150*
Y6795*
X17210*
Y6855*
X17365*
X17445Y6935*
Y7205*
X17452Y7212*
Y7214*
X17451Y7215*
X17375*
Y7295*
X17260Y7410*
X17130*
X17125Y7415*
Y7485*
X17130Y7490*
X17145*
Y7425*
X17205*
Y7490*
X17385*
X17455Y7560*
Y7865*
X17375*
Y7945*
X17250Y8070*
X17130*
X17125Y8075*
Y8150*
X17127Y8152*
X17129*
X17130Y8151*
Y8150*
X17145*
Y8085*
X17205*
Y8150*
X17220*
Y8155*
X17370*
X17455Y8240*
Y8521*
X17454Y8522*
X17452*
X17445Y8515*
X17375*
X17370Y8520*
Y8600*
X17245Y8725*
X17130*
X17125Y8730*
Y8800*
X17130Y8805*
X17145*
Y8740*
X17205*
Y8805*
X17350*
X17450Y8905*
Y9160*
X17445Y9165*
Y9180*
X17370*
X17365Y9185*
Y9265*
X17240Y9390*
X17140*
X17125Y9405*
Y9465*
X17130Y9470*
X17145*
Y9405*
X17205*
Y9470*
X17220*
Y9475*
X17365*
X17445Y9555*
Y9675*
X17340Y9780*
X17030*
X16940Y9690*
Y8875*
X16980Y8835*
Y8470*
X16885Y8375*
Y8270*
X16875Y8260*
X16860*
Y8270*
X16845*
Y8335*
X16785*
Y8270*
X16770*
Y8255*
X16580Y8065*
Y8025*
X16570Y8015*
X16055*
X16030Y7990*
X16025*
Y7985*
X15985Y7945*
Y7936*
X15981Y7933*
X15978Y7930*
X15972Y7922*
X15970Y7912*
Y7908*
X15972Y7898*
X15978Y7890*
X15981Y7887*
X15985Y7884*
Y7235*
X16010Y7210*
X16035Y7235*
X16085*
Y7230*
X16100*
Y7165*
X16160*
Y7230*
X16175*
Y7231*
X16176Y7232*
X16178*
X16190Y7220*
Y7210*
X16267*
Y7205*
X16367*
Y7210*
X16440*
X16485Y7255*
X16580*
X16590Y7245*
Y7115*
X16580Y7105*
X16505*
X16495Y7115*
X15985*
Y6639*
X15986Y6638*
X15988*
X16055Y6705*
X16230*
X16375Y6850*
Y6875*
X16385*
Y6890*
X16450*
Y6950*
X16385*
Y6960*
X16390Y6965*
X16460*
X16615Y6810*
X16930*
X16955Y6785*
Y6735*
X16925Y6705*
X16620*
X16490Y6835*
X16410*
X16090Y6515*
Y6510*
X16180*
X16235Y6455*
Y6340*
X16155*
Y6352*
X16205*
Y6422*
X16155*
Y6435*
X16135Y6455*
X15985*
Y6320*
X15975Y6310*
X14755*
X14720Y6345*
G37*
%LPC*%
G36*
X16105Y6352D02*
G01Y6422D01*
X16055*
Y6352*
X16105*
G37*
G36*
X17320Y9192D02*
G01Y9262D01*
X17270*
Y9192*
X17320*
G37*
G36*
X17330Y7222D02*
G01Y7292D01*
X17280*
Y7222*
X17330*
G37*
G36*
X17325Y8527D02*
G01Y8597D01*
X17275*
Y8527*
X17325*
G37*
G36*
Y5897D02*
G01Y5967D01*
X17275*
Y5897*
X17325*
G37*
G36*
X16205Y6748D02*
G01Y6818D01*
X16155*
Y6748*
X16205*
G37*
G36*
X17425Y6293D02*
G01Y6363D01*
X17375*
Y6293*
X17425*
G37*
G36*
X17420Y6968D02*
G01Y7038D01*
X17370*
Y6968*
X17420*
G37*
G36*
X17430Y8268D02*
G01Y8338D01*
X17380*
Y8268*
X17430*
G37*
G36*
X17425Y8923D02*
G01Y8993D01*
X17375*
Y8923*
X17425*
G37*
G36*
X17430Y7618D02*
G01Y7688D01*
X17380*
Y7618*
X17430*
G37*
G36*
X16105Y6748D02*
G01Y6818D01*
X16055*
Y6748*
X16105*
G37*
G36*
X18455Y7068D02*
G01X18457Y7062D01*
X18458Y7057*
X18461Y7051*
X18464Y7047*
X18468Y7042*
X18473Y7038*
X18477Y7035*
X18483Y7032*
X18488Y7031*
X18494Y7029*
X18500*
X18506*
X18512Y7031*
X18517Y7032*
X18523Y7035*
X18527Y7038*
X18532Y7042*
X18536Y7047*
X18539Y7051*
X18542Y7057*
X18543Y7062*
X18545Y7068*
Y7074*
Y7080*
X18543Y7086*
X18542Y7091*
X18539Y7097*
X18536Y7101*
X18532Y7106*
X18527Y7110*
X18523Y7113*
X18517Y7116*
X18512Y7117*
X18506Y7119*
X18500*
X18494*
X18488Y7117*
X18483Y7116*
X18477Y7113*
X18473Y7110*
X18468Y7106*
X18464Y7101*
X18461Y7097*
X18458Y7091*
X18457Y7086*
X18455Y7080*
Y7074*
Y7068*
G37*
G36*
X18105Y7105D02*
G01X18107Y7100D01*
X18108Y7095*
X18111Y7090*
X18114Y7086*
X18118Y7083*
X18122Y7080*
X18127Y7077*
X18132Y7076*
X18137Y7075*
X18143*
X18148Y7076*
X18153Y7077*
X18158Y7080*
X18162Y7083*
X18166Y7086*
X18169Y7090*
X18172Y7095*
X18173Y7100*
X18175Y7105*
Y7110*
Y7115*
X18173Y7120*
X18172Y7125*
X18169Y7130*
X18166Y7134*
X18162Y7137*
X18158Y7140*
X18153Y7143*
X18148Y7144*
X18143Y7145*
X18137*
X18132Y7144*
X18127Y7143*
X18122Y7140*
X18118Y7137*
X18114Y7134*
X18111Y7130*
X18108Y7125*
X18107Y7120*
X18105Y7115*
Y7110*
Y7105*
G37*
G36*
X18455Y9033D02*
G01X18457Y9027D01*
X18458Y9022*
X18461Y9016*
X18464Y9012*
X18468Y9007*
X18473Y9003*
X18477Y9000*
X18483Y8997*
X18488Y8996*
X18494Y8994*
X18500*
X18506*
X18512Y8996*
X18517Y8997*
X18523Y9000*
X18527Y9003*
X18532Y9007*
X18536Y9012*
X18539Y9016*
X18542Y9022*
X18543Y9027*
X18545Y9033*
Y9039*
Y9045*
X18543Y9051*
X18542Y9056*
X18539Y9062*
X18536Y9066*
X18532Y9071*
X18527Y9075*
X18523Y9078*
X18517Y9081*
X18512Y9082*
X18506Y9084*
X18500*
X18494*
X18488Y9082*
X18483Y9081*
X18477Y9078*
X18473Y9075*
X18468Y9071*
X18464Y9066*
X18461Y9062*
X18458Y9056*
X18457Y9051*
X18455Y9045*
Y9039*
Y9033*
G37*
G36*
X18105Y9070D02*
G01X18107Y9065D01*
X18108Y9060*
X18111Y9055*
X18114Y9051*
X18118Y9048*
X18122Y9045*
X18127Y9042*
X18132Y9041*
X18137Y9040*
X18143*
X18148Y9041*
X18153Y9042*
X18158Y9045*
X18162Y9048*
X18166Y9051*
X18169Y9055*
X18172Y9060*
X18173Y9065*
X18175Y9070*
Y9075*
Y9080*
X18173Y9085*
X18172Y9090*
X18169Y9095*
X18166Y9099*
X18162Y9102*
X18158Y9105*
X18153Y9108*
X18148Y9109*
X18143Y9110*
X18137*
X18132Y9109*
X18127Y9108*
X18122Y9105*
X18118Y9102*
X18114Y9099*
X18111Y9095*
X18108Y9090*
X18107Y9085*
X18105Y9080*
Y9075*
Y9070*
G37*
G36*
X18460Y8373D02*
G01X18462Y8367D01*
X18463Y8362*
X18466Y8356*
X18469Y8352*
X18473Y8347*
X18478Y8343*
X18482Y8340*
X18488Y8337*
X18493Y8336*
X18499Y8334*
X18505*
X18511*
X18517Y8336*
X18522Y8337*
X18528Y8340*
X18532Y8343*
X18537Y8347*
X18541Y8352*
X18544Y8356*
X18547Y8362*
X18548Y8367*
X18550Y8373*
Y8379*
Y8385*
X18548Y8391*
X18547Y8396*
X18544Y8402*
X18541Y8406*
X18537Y8411*
X18532Y8415*
X18528Y8418*
X18522Y8421*
X18517Y8422*
X18511Y8424*
X18505*
X18499*
X18493Y8422*
X18488Y8421*
X18482Y8418*
X18478Y8415*
X18473Y8411*
X18469Y8406*
X18466Y8402*
X18463Y8396*
X18462Y8391*
X18460Y8385*
Y8379*
Y8373*
G37*
G36*
X18105Y8415D02*
G01X18107Y8410D01*
X18108Y8405*
X18111Y8400*
X18114Y8396*
X18118Y8393*
X18122Y8390*
X18127Y8387*
X18132Y8386*
X18137Y8385*
X18143*
X18148Y8386*
X18153Y8387*
X18158Y8390*
X18162Y8393*
X18166Y8396*
X18169Y8400*
X18172Y8405*
X18173Y8410*
X18175Y8415*
Y8420*
Y8425*
X18173Y8430*
X18172Y8435*
X18169Y8440*
X18166Y8444*
X18162Y8447*
X18158Y8450*
X18153Y8453*
X18148Y8454*
X18143Y8455*
X18137*
X18132Y8454*
X18127Y8453*
X18122Y8450*
X18118Y8447*
X18114Y8444*
X18111Y8440*
X18108Y8435*
X18107Y8430*
X18105Y8425*
Y8420*
Y8415*
G37*
G36*
X18460Y5995D02*
G01X18462Y5989D01*
X18463Y5984*
X18466Y5978*
X18469Y5974*
X18473Y5969*
X18478Y5965*
X18482Y5962*
X18488Y5959*
X18493Y5958*
X18499Y5956*
X18505*
X18511*
X18517Y5958*
X18522Y5959*
X18528Y5962*
X18532Y5965*
X18537Y5969*
X18541Y5974*
X18544Y5978*
X18547Y5984*
X18548Y5989*
X18550Y5995*
Y6001*
Y6007*
X18548Y6013*
X18547Y6018*
X18544Y6024*
X18541Y6028*
X18537Y6033*
X18532Y6037*
X18528Y6040*
X18522Y6043*
X18517Y6044*
X18511Y6046*
X18505*
X18499*
X18493Y6044*
X18488Y6043*
X18482Y6040*
X18478Y6037*
X18473Y6033*
X18469Y6028*
X18466Y6024*
X18463Y6018*
X18462Y6013*
X18460Y6007*
Y6001*
Y5995*
G37*
G36*
X18105Y5960D02*
G01X18107Y5955D01*
X18108Y5950*
X18111Y5945*
X18114Y5941*
X18118Y5938*
X18122Y5935*
X18127Y5932*
X18132Y5931*
X18137Y5930*
X18143*
X18148Y5931*
X18153Y5932*
X18158Y5935*
X18162Y5938*
X18166Y5941*
X18169Y5945*
X18172Y5950*
X18173Y5955*
X18175Y5960*
Y5965*
Y5970*
X18173Y5975*
X18172Y5980*
X18169Y5985*
X18166Y5989*
X18162Y5992*
X18158Y5995*
X18153Y5998*
X18148Y5999*
X18143Y6000*
X18137*
X18132Y5999*
X18127Y5998*
X18122Y5995*
X18118Y5992*
X18114Y5989*
X18111Y5985*
X18108Y5980*
X18107Y5975*
X18105Y5970*
Y5965*
Y5960*
G37*
G36*
X18450Y7315D02*
G01X18452Y7309D01*
X18453Y7304*
X18456Y7298*
X18459Y7294*
X18463Y7289*
X18468Y7285*
X18472Y7282*
X18478Y7279*
X18483Y7278*
X18489Y7276*
X18495*
X18501*
X18507Y7278*
X18512Y7279*
X18518Y7282*
X18522Y7285*
X18527Y7289*
X18531Y7294*
X18534Y7298*
X18537Y7304*
X18538Y7309*
X18540Y7315*
Y7321*
Y7327*
X18538Y7333*
X18537Y7338*
X18534Y7344*
X18531Y7348*
X18527Y7353*
X18522Y7357*
X18518Y7360*
X18512Y7363*
X18507Y7364*
X18501Y7366*
X18495*
X18489*
X18483Y7364*
X18478Y7363*
X18472Y7360*
X18468Y7357*
X18463Y7353*
X18459Y7348*
X18456Y7344*
X18453Y7338*
X18452Y7333*
X18450Y7327*
Y7321*
Y7315*
G37*
G36*
X18105Y7285D02*
G01X18107Y7280D01*
X18108Y7275*
X18111Y7270*
X18114Y7266*
X18118Y7263*
X18122Y7260*
X18127Y7257*
X18132Y7256*
X18137Y7255*
X18143*
X18148Y7256*
X18153Y7257*
X18158Y7260*
X18162Y7263*
X18166Y7266*
X18169Y7270*
X18172Y7275*
X18173Y7280*
X18175Y7285*
Y7290*
Y7295*
X18173Y7300*
X18172Y7305*
X18169Y7310*
X18166Y7314*
X18162Y7317*
X18158Y7320*
X18153Y7323*
X18148Y7324*
X18143Y7325*
X18137*
X18132Y7324*
X18127Y7323*
X18122Y7320*
X18118Y7317*
X18114Y7314*
X18111Y7310*
X18108Y7305*
X18107Y7300*
X18105Y7295*
Y7290*
Y7285*
G37*
G36*
X18455Y9285D02*
G01X18457Y9279D01*
X18458Y9274*
X18461Y9268*
X18464Y9264*
X18468Y9259*
X18473Y9255*
X18477Y9252*
X18483Y9249*
X18488Y9248*
X18494Y9246*
X18500*
X18506*
X18512Y9248*
X18517Y9249*
X18523Y9252*
X18527Y9255*
X18532Y9259*
X18536Y9264*
X18539Y9268*
X18542Y9274*
X18543Y9279*
X18545Y9285*
Y9291*
Y9297*
X18543Y9303*
X18542Y9308*
X18539Y9314*
X18536Y9318*
X18532Y9323*
X18527Y9327*
X18523Y9330*
X18517Y9333*
X18512Y9334*
X18506Y9336*
X18500*
X18494*
X18488Y9334*
X18483Y9333*
X18477Y9330*
X18473Y9327*
X18468Y9323*
X18464Y9318*
X18461Y9314*
X18458Y9308*
X18457Y9303*
X18455Y9297*
Y9291*
Y9285*
G37*
G36*
X18105Y9250D02*
G01X18107Y9245D01*
X18108Y9240*
X18111Y9235*
X18114Y9231*
X18118Y9228*
X18122Y9225*
X18127Y9222*
X18132Y9221*
X18137Y9220*
X18143*
X18148Y9221*
X18153Y9222*
X18158Y9225*
X18162Y9228*
X18166Y9231*
X18169Y9235*
X18172Y9240*
X18173Y9245*
X18175Y9250*
Y9255*
Y9260*
X18173Y9265*
X18172Y9270*
X18169Y9275*
X18166Y9279*
X18162Y9282*
X18158Y9285*
X18153Y9288*
X18148Y9289*
X18143Y9290*
X18137*
X18132Y9289*
X18127Y9288*
X18122Y9285*
X18118Y9282*
X18114Y9279*
X18111Y9275*
X18108Y9270*
X18107Y9265*
X18105Y9260*
Y9255*
Y9250*
G37*
G36*
X18455Y9683D02*
G01X18457Y9677D01*
X18458Y9672*
X18461Y9666*
X18464Y9662*
X18468Y9657*
X18473Y9653*
X18477Y9650*
X18483Y9647*
X18488Y9646*
X18494Y9644*
X18500*
X18506*
X18512Y9646*
X18517Y9647*
X18523Y9650*
X18527Y9653*
X18532Y9657*
X18536Y9662*
X18539Y9666*
X18542Y9672*
X18543Y9677*
X18545Y9683*
Y9689*
Y9695*
X18543Y9701*
X18542Y9706*
X18539Y9712*
X18536Y9716*
X18532Y9721*
X18527Y9725*
X18523Y9728*
X18517Y9731*
X18512Y9732*
X18506Y9734*
X18500*
X18494*
X18488Y9732*
X18483Y9731*
X18477Y9728*
X18473Y9725*
X18468Y9721*
X18464Y9716*
X18461Y9712*
X18458Y9706*
X18457Y9701*
X18455Y9695*
Y9689*
Y9683*
G37*
G36*
X18105Y9730D02*
G01X18107Y9725D01*
X18108Y9720*
X18111Y9715*
X18114Y9711*
X18118Y9708*
X18122Y9705*
X18127Y9702*
X18132Y9701*
X18137Y9700*
X18143*
X18148Y9701*
X18153Y9702*
X18158Y9705*
X18162Y9708*
X18166Y9711*
X18169Y9715*
X18172Y9720*
X18173Y9725*
X18175Y9730*
Y9735*
Y9740*
X18173Y9745*
X18172Y9750*
X18169Y9755*
X18166Y9759*
X18162Y9762*
X18158Y9765*
X18153Y9768*
X18148Y9769*
X18143Y9770*
X18137*
X18132Y9769*
X18127Y9768*
X18122Y9765*
X18118Y9762*
X18114Y9759*
X18111Y9755*
X18108Y9750*
X18107Y9745*
X18105Y9740*
Y9735*
Y9730*
G37*
G36*
X18450Y7713D02*
G01X18452Y7707D01*
X18453Y7702*
X18456Y7696*
X18459Y7692*
X18463Y7687*
X18468Y7683*
X18472Y7680*
X18478Y7677*
X18483Y7676*
X18489Y7674*
X18495*
X18501*
X18507Y7676*
X18512Y7677*
X18518Y7680*
X18522Y7683*
X18527Y7687*
X18531Y7692*
X18534Y7696*
X18537Y7702*
X18538Y7707*
X18540Y7713*
Y7719*
Y7725*
X18538Y7731*
X18537Y7736*
X18534Y7742*
X18531Y7746*
X18527Y7751*
X18522Y7755*
X18518Y7758*
X18512Y7761*
X18507Y7762*
X18501Y7764*
X18495*
X18489*
X18483Y7762*
X18478Y7761*
X18472Y7758*
X18468Y7755*
X18463Y7751*
X18459Y7746*
X18456Y7742*
X18453Y7736*
X18452Y7731*
X18450Y7725*
Y7719*
Y7713*
G37*
G36*
X18105Y7765D02*
G01X18107Y7760D01*
X18108Y7755*
X18111Y7750*
X18114Y7746*
X18118Y7743*
X18122Y7740*
X18127Y7737*
X18132Y7736*
X18137Y7735*
X18143*
X18148Y7736*
X18153Y7737*
X18158Y7740*
X18162Y7743*
X18166Y7746*
X18169Y7750*
X18172Y7755*
X18173Y7760*
X18175Y7765*
Y7770*
Y7775*
X18173Y7780*
X18172Y7785*
X18169Y7790*
X18166Y7794*
X18162Y7797*
X18158Y7800*
X18153Y7803*
X18148Y7804*
X18143Y7805*
X18137*
X18132Y7804*
X18127Y7803*
X18122Y7800*
X18118Y7797*
X18114Y7794*
X18111Y7790*
X18108Y7785*
X18107Y7780*
X18105Y7775*
Y7770*
Y7765*
G37*
G36*
X18460Y7975D02*
G01X18462Y7969D01*
X18463Y7964*
X18466Y7958*
X18469Y7954*
X18473Y7949*
X18478Y7945*
X18482Y7942*
X18488Y7939*
X18493Y7938*
X18499Y7936*
X18505*
X18511*
X18517Y7938*
X18522Y7939*
X18528Y7942*
X18532Y7945*
X18537Y7949*
X18541Y7954*
X18544Y7958*
X18547Y7964*
X18548Y7969*
X18550Y7975*
Y7981*
Y7987*
X18548Y7993*
X18547Y7998*
X18544Y8004*
X18541Y8008*
X18537Y8013*
X18532Y8017*
X18528Y8020*
X18522Y8023*
X18517Y8024*
X18511Y8026*
X18505*
X18499*
X18493Y8024*
X18488Y8023*
X18482Y8020*
X18478Y8017*
X18473Y8013*
X18469Y8008*
X18466Y8004*
X18463Y7998*
X18462Y7993*
X18460Y7987*
Y7981*
Y7975*
G37*
G36*
X18105Y7935D02*
G01X18107Y7930D01*
X18108Y7925*
X18111Y7920*
X18114Y7916*
X18118Y7913*
X18122Y7910*
X18127Y7907*
X18132Y7906*
X18137Y7905*
X18143*
X18148Y7906*
X18153Y7907*
X18158Y7910*
X18162Y7913*
X18166Y7916*
X18169Y7920*
X18172Y7925*
X18173Y7930*
X18175Y7935*
Y7940*
Y7945*
X18173Y7950*
X18172Y7955*
X18169Y7960*
X18166Y7964*
X18162Y7967*
X18158Y7970*
X18153Y7973*
X18148Y7974*
X18143Y7975*
X18137*
X18132Y7974*
X18127Y7973*
X18122Y7970*
X18118Y7967*
X18114Y7964*
X18111Y7960*
X18108Y7955*
X18107Y7950*
X18105Y7945*
Y7940*
Y7935*
G37*
G36*
X18460Y6393D02*
G01X18462Y6387D01*
X18463Y6382*
X18466Y6376*
X18469Y6372*
X18473Y6367*
X18478Y6363*
X18482Y6360*
X18488Y6357*
X18493Y6356*
X18499Y6354*
X18505*
X18511*
X18517Y6356*
X18522Y6357*
X18528Y6360*
X18532Y6363*
X18537Y6367*
X18541Y6372*
X18544Y6376*
X18547Y6382*
X18548Y6387*
X18550Y6393*
Y6399*
Y6405*
X18548Y6411*
X18547Y6416*
X18544Y6422*
X18541Y6426*
X18537Y6431*
X18532Y6435*
X18528Y6438*
X18522Y6441*
X18517Y6442*
X18511Y6444*
X18505*
X18499*
X18493Y6442*
X18488Y6441*
X18482Y6438*
X18478Y6435*
X18473Y6431*
X18469Y6426*
X18466Y6422*
X18463Y6416*
X18462Y6411*
X18460Y6405*
Y6399*
Y6393*
G37*
G36*
X18105Y6440D02*
G01X18107Y6435D01*
X18108Y6430*
X18111Y6425*
X18114Y6421*
X18118Y6418*
X18122Y6415*
X18127Y6412*
X18132Y6411*
X18137Y6410*
X18143*
X18148Y6411*
X18153Y6412*
X18158Y6415*
X18162Y6418*
X18166Y6421*
X18169Y6425*
X18172Y6430*
X18173Y6435*
X18175Y6440*
Y6445*
Y6450*
X18173Y6455*
X18172Y6460*
X18169Y6465*
X18166Y6469*
X18162Y6472*
X18158Y6475*
X18153Y6478*
X18148Y6479*
X18143Y6480*
X18137*
X18132Y6479*
X18127Y6478*
X18122Y6475*
X18118Y6472*
X18114Y6469*
X18111Y6465*
X18108Y6460*
X18107Y6455*
X18105Y6450*
Y6445*
Y6440*
G37*
G36*
X18455Y8635D02*
G01X18457Y8629D01*
X18458Y8624*
X18461Y8618*
X18464Y8614*
X18468Y8609*
X18473Y8605*
X18477Y8602*
X18483Y8599*
X18488Y8598*
X18494Y8596*
X18500*
X18506*
X18512Y8598*
X18517Y8599*
X18523Y8602*
X18527Y8605*
X18532Y8609*
X18536Y8614*
X18539Y8618*
X18542Y8624*
X18543Y8629*
X18545Y8635*
Y8641*
Y8647*
X18543Y8653*
X18542Y8658*
X18539Y8664*
X18536Y8668*
X18532Y8673*
X18527Y8677*
X18523Y8680*
X18517Y8683*
X18512Y8684*
X18506Y8686*
X18500*
X18494*
X18488Y8684*
X18483Y8683*
X18477Y8680*
X18473Y8677*
X18468Y8673*
X18464Y8668*
X18461Y8664*
X18458Y8658*
X18457Y8653*
X18455Y8647*
Y8641*
Y8635*
G37*
G36*
X18105Y8590D02*
G01X18107Y8585D01*
X18108Y8580*
X18111Y8575*
X18114Y8571*
X18118Y8568*
X18122Y8565*
X18127Y8562*
X18132Y8561*
X18137Y8560*
X18143*
X18148Y8561*
X18153Y8562*
X18158Y8565*
X18162Y8568*
X18166Y8571*
X18169Y8575*
X18172Y8580*
X18173Y8585*
X18175Y8590*
Y8595*
Y8600*
X18173Y8605*
X18172Y8610*
X18169Y8615*
X18166Y8619*
X18162Y8622*
X18158Y8625*
X18153Y8628*
X18148Y8629*
X18143Y8630*
X18137*
X18132Y8629*
X18127Y8628*
X18122Y8625*
X18118Y8622*
X18114Y8619*
X18111Y8615*
X18108Y8610*
X18107Y8605*
X18105Y8600*
Y8595*
Y8590*
G37*
G36*
X18455Y6670D02*
G01X18457Y6664D01*
X18458Y6659*
X18461Y6653*
X18464Y6649*
X18468Y6644*
X18473Y6640*
X18477Y6637*
X18483Y6634*
X18488Y6633*
X18494Y6631*
X18500*
X18506*
X18512Y6633*
X18517Y6634*
X18523Y6637*
X18527Y6640*
X18532Y6644*
X18536Y6649*
X18539Y6653*
X18542Y6659*
X18543Y6664*
X18545Y6670*
Y6676*
Y6682*
X18543Y6688*
X18542Y6693*
X18539Y6699*
X18536Y6703*
X18532Y6708*
X18527Y6712*
X18523Y6715*
X18517Y6718*
X18512Y6719*
X18506Y6721*
X18500*
X18494*
X18488Y6719*
X18483Y6718*
X18477Y6715*
X18473Y6712*
X18468Y6708*
X18464Y6703*
X18461Y6699*
X18458Y6693*
X18457Y6688*
X18455Y6682*
Y6676*
Y6670*
G37*
G36*
X18105Y6625D02*
G01X18107Y6620D01*
X18108Y6615*
X18111Y6610*
X18114Y6606*
X18118Y6603*
X18122Y6600*
X18127Y6597*
X18132Y6596*
X18137Y6595*
X18143*
X18148Y6596*
X18153Y6597*
X18158Y6600*
X18162Y6603*
X18166Y6606*
X18169Y6610*
X18172Y6615*
X18173Y6620*
X18175Y6625*
Y6630*
Y6635*
X18173Y6640*
X18172Y6645*
X18169Y6650*
X18166Y6654*
X18162Y6657*
X18158Y6660*
X18153Y6663*
X18148Y6664*
X18143Y6665*
X18137*
X18132Y6664*
X18127Y6663*
X18122Y6660*
X18118Y6657*
X18114Y6654*
X18111Y6650*
X18108Y6645*
X18107Y6640*
X18105Y6635*
Y6630*
Y6625*
G37*
G36*
X18455Y6869D02*
G01X18457Y6863D01*
X18458Y6858*
X18461Y6852*
X18464Y6848*
X18468Y6843*
X18473Y6839*
X18477Y6836*
X18483Y6833*
X18488Y6832*
X18494Y6830*
X18500*
X18506*
X18512Y6832*
X18517Y6833*
X18523Y6836*
X18527Y6839*
X18532Y6843*
X18536Y6848*
X18539Y6852*
X18542Y6858*
X18543Y6863*
X18545Y6869*
Y6875*
Y6881*
X18543Y6887*
X18542Y6892*
X18539Y6898*
X18536Y6902*
X18532Y6907*
X18527Y6911*
X18523Y6914*
X18517Y6917*
X18512Y6918*
X18506Y6920*
X18500*
X18494*
X18488Y6918*
X18483Y6917*
X18477Y6914*
X18473Y6911*
X18468Y6907*
X18464Y6902*
X18461Y6898*
X18458Y6892*
X18457Y6887*
X18455Y6881*
Y6875*
Y6869*
G37*
G36*
X17535Y6865D02*
G01X17537Y6860D01*
X17538Y6855*
X17541Y6850*
X17544Y6846*
X17548Y6843*
X17552Y6840*
X17557Y6837*
X17562Y6836*
X17567Y6835*
X17573*
X17578Y6836*
X17583Y6837*
X17588Y6840*
X17592Y6843*
X17596Y6846*
X17599Y6850*
X17602Y6855*
X17603Y6860*
X17605Y6865*
Y6870*
Y6875*
X17603Y6880*
X17602Y6885*
X17599Y6890*
X17596Y6894*
X17592Y6897*
X17588Y6900*
X17583Y6903*
X17578Y6904*
X17573Y6905*
X17567*
X17562Y6904*
X17557Y6903*
X17552Y6900*
X17548Y6897*
X17544Y6894*
X17541Y6890*
X17538Y6885*
X17537Y6880*
X17535Y6875*
Y6870*
Y6865*
G37*
G36*
X18455Y8834D02*
G01X18457Y8828D01*
X18458Y8823*
X18461Y8817*
X18464Y8813*
X18468Y8808*
X18473Y8804*
X18477Y8801*
X18483Y8798*
X18488Y8797*
X18494Y8795*
X18500*
X18506*
X18512Y8797*
X18517Y8798*
X18523Y8801*
X18527Y8804*
X18532Y8808*
X18536Y8813*
X18539Y8817*
X18542Y8823*
X18543Y8828*
X18545Y8834*
Y8840*
Y8846*
X18543Y8852*
X18542Y8857*
X18539Y8863*
X18536Y8867*
X18532Y8872*
X18527Y8876*
X18523Y8879*
X18517Y8882*
X18512Y8883*
X18506Y8885*
X18500*
X18494*
X18488Y8883*
X18483Y8882*
X18477Y8879*
X18473Y8876*
X18468Y8872*
X18464Y8867*
X18461Y8863*
X18458Y8857*
X18457Y8852*
X18455Y8846*
Y8840*
Y8834*
G37*
G36*
X17535Y8830D02*
G01X17537Y8825D01*
X17538Y8820*
X17541Y8815*
X17544Y8811*
X17548Y8808*
X17552Y8805*
X17557Y8802*
X17562Y8801*
X17567Y8800*
X17573*
X17578Y8801*
X17583Y8802*
X17588Y8805*
X17592Y8808*
X17596Y8811*
X17599Y8815*
X17602Y8820*
X17603Y8825*
X17605Y8830*
Y8835*
Y8840*
X17603Y8845*
X17602Y8850*
X17599Y8855*
X17596Y8859*
X17592Y8862*
X17588Y8865*
X17583Y8868*
X17578Y8869*
X17573Y8870*
X17567*
X17562Y8869*
X17557Y8868*
X17552Y8865*
X17548Y8862*
X17544Y8859*
X17541Y8855*
X17538Y8850*
X17537Y8845*
X17535Y8840*
Y8835*
Y8830*
G37*
G36*
X18450Y7514D02*
G01X18452Y7508D01*
X18453Y7503*
X18456Y7497*
X18459Y7493*
X18463Y7488*
X18468Y7484*
X18472Y7481*
X18478Y7478*
X18483Y7477*
X18489Y7475*
X18495*
X18501*
X18507Y7477*
X18512Y7478*
X18518Y7481*
X18522Y7484*
X18527Y7488*
X18531Y7493*
X18534Y7497*
X18537Y7503*
X18538Y7508*
X18540Y7514*
Y7520*
Y7526*
X18538Y7532*
X18537Y7537*
X18534Y7543*
X18531Y7547*
X18527Y7552*
X18522Y7556*
X18518Y7559*
X18512Y7562*
X18507Y7563*
X18501Y7565*
X18495*
X18489*
X18483Y7563*
X18478Y7562*
X18472Y7559*
X18468Y7556*
X18463Y7552*
X18459Y7547*
X18456Y7543*
X18453Y7537*
X18452Y7532*
X18450Y7526*
Y7520*
Y7514*
G37*
G36*
X17535Y7525D02*
G01X17537Y7520D01*
X17538Y7515*
X17541Y7510*
X17544Y7506*
X17548Y7503*
X17552Y7500*
X17557Y7497*
X17562Y7496*
X17567Y7495*
X17573*
X17578Y7496*
X17583Y7497*
X17588Y7500*
X17592Y7503*
X17596Y7506*
X17599Y7510*
X17602Y7515*
X17603Y7520*
X17605Y7525*
Y7530*
Y7535*
X17603Y7540*
X17602Y7545*
X17599Y7550*
X17596Y7554*
X17592Y7557*
X17588Y7560*
X17583Y7563*
X17578Y7564*
X17573Y7565*
X17567*
X17562Y7564*
X17557Y7563*
X17552Y7560*
X17548Y7557*
X17544Y7554*
X17541Y7550*
X17538Y7545*
X17537Y7540*
X17535Y7535*
Y7530*
Y7525*
G37*
G36*
X18460Y8174D02*
G01X18462Y8168D01*
X18463Y8163*
X18466Y8157*
X18469Y8153*
X18473Y8148*
X18478Y8144*
X18482Y8141*
X18488Y8138*
X18493Y8137*
X18499Y8135*
X18505*
X18511*
X18517Y8137*
X18522Y8138*
X18528Y8141*
X18532Y8144*
X18537Y8148*
X18541Y8153*
X18544Y8157*
X18547Y8163*
X18548Y8168*
X18550Y8174*
Y8180*
Y8186*
X18548Y8192*
X18547Y8197*
X18544Y8203*
X18541Y8207*
X18537Y8212*
X18532Y8216*
X18528Y8219*
X18522Y8222*
X18517Y8223*
X18511Y8225*
X18505*
X18499*
X18493Y8223*
X18488Y8222*
X18482Y8219*
X18478Y8216*
X18473Y8212*
X18469Y8207*
X18466Y8203*
X18463Y8197*
X18462Y8192*
X18460Y8186*
Y8180*
Y8174*
G37*
G36*
X17535Y8175D02*
G01X17537Y8170D01*
X17538Y8165*
X17541Y8160*
X17544Y8156*
X17548Y8153*
X17552Y8150*
X17557Y8147*
X17562Y8146*
X17567Y8145*
X17573*
X17578Y8146*
X17583Y8147*
X17588Y8150*
X17592Y8153*
X17596Y8156*
X17599Y8160*
X17602Y8165*
X17603Y8170*
X17605Y8175*
Y8180*
Y8185*
X17603Y8190*
X17602Y8195*
X17599Y8200*
X17596Y8204*
X17592Y8207*
X17588Y8210*
X17583Y8213*
X17578Y8214*
X17573Y8215*
X17567*
X17562Y8214*
X17557Y8213*
X17552Y8210*
X17548Y8207*
X17544Y8204*
X17541Y8200*
X17538Y8195*
X17537Y8190*
X17535Y8185*
Y8180*
Y8175*
G37*
G36*
X18455Y9484D02*
G01X18457Y9478D01*
X18458Y9473*
X18461Y9467*
X18464Y9463*
X18468Y9458*
X18473Y9454*
X18477Y9451*
X18483Y9448*
X18488Y9447*
X18494Y9445*
X18500*
X18506*
X18512Y9447*
X18517Y9448*
X18523Y9451*
X18527Y9454*
X18532Y9458*
X18536Y9463*
X18539Y9467*
X18542Y9473*
X18543Y9478*
X18545Y9484*
Y9490*
Y9496*
X18543Y9502*
X18542Y9507*
X18539Y9513*
X18536Y9517*
X18532Y9522*
X18527Y9526*
X18523Y9529*
X18517Y9532*
X18512Y9533*
X18506Y9535*
X18500*
X18494*
X18488Y9533*
X18483Y9532*
X18477Y9529*
X18473Y9526*
X18468Y9522*
X18464Y9517*
X18461Y9513*
X18458Y9507*
X18457Y9502*
X18455Y9496*
Y9490*
Y9484*
G37*
G36*
X17535Y9490D02*
G01X17537Y9485D01*
X17538Y9480*
X17541Y9475*
X17544Y9471*
X17548Y9468*
X17552Y9465*
X17557Y9462*
X17562Y9461*
X17567Y9460*
X17573*
X17578Y9461*
X17583Y9462*
X17588Y9465*
X17592Y9468*
X17596Y9471*
X17599Y9475*
X17602Y9480*
X17603Y9485*
X17605Y9490*
Y9495*
Y9500*
X17603Y9505*
X17602Y9510*
X17599Y9515*
X17596Y9519*
X17592Y9522*
X17588Y9525*
X17583Y9528*
X17578Y9529*
X17573Y9530*
X17567*
X17562Y9529*
X17557Y9528*
X17552Y9525*
X17548Y9522*
X17544Y9519*
X17541Y9515*
X17538Y9510*
X17537Y9505*
X17535Y9500*
Y9495*
Y9490*
G37*
G36*
X15065Y7845D02*
G01X15067Y7840D01*
X15068Y7835*
X15071Y7830*
X15074Y7826*
X15078Y7823*
X15082Y7820*
X15087Y7817*
X15092Y7816*
X15097Y7815*
X15103*
X15108Y7816*
X15113Y7817*
X15118Y7820*
X15122Y7823*
X15126Y7826*
X15129Y7830*
X15132Y7835*
X15133Y7840*
X15135Y7845*
Y7850*
Y7855*
X15133Y7860*
X15132Y7865*
X15129Y7870*
X15126Y7874*
X15122Y7877*
X15118Y7880*
X15113Y7883*
X15108Y7884*
X15103Y7885*
X15097*
X15092Y7884*
X15087Y7883*
X15082Y7880*
X15078Y7877*
X15074Y7874*
X15071Y7870*
X15068Y7865*
X15067Y7860*
X15065Y7855*
Y7850*
Y7845*
G37*
G36*
X18460Y6194D02*
G01X18462Y6188D01*
X18463Y6183*
X18466Y6177*
X18469Y6173*
X18473Y6168*
X18478Y6164*
X18482Y6161*
X18488Y6158*
X18493Y6157*
X18499Y6155*
X18505*
X18511*
X18517Y6157*
X18522Y6158*
X18528Y6161*
X18532Y6164*
X18537Y6168*
X18541Y6173*
X18544Y6177*
X18547Y6183*
X18548Y6188*
X18550Y6194*
Y6200*
Y6206*
X18548Y6212*
X18547Y6217*
X18544Y6223*
X18541Y6227*
X18537Y6232*
X18532Y6236*
X18528Y6239*
X18522Y6242*
X18517Y6243*
X18511Y6245*
X18505*
X18499*
X18493Y6243*
X18488Y6242*
X18482Y6239*
X18478Y6236*
X18473Y6232*
X18469Y6227*
X18466Y6223*
X18463Y6217*
X18462Y6212*
X18460Y6206*
Y6200*
Y6194*
G37*
G36*
X17535Y6200D02*
G01X17537Y6195D01*
X17538Y6190*
X17541Y6185*
X17544Y6181*
X17548Y6178*
X17552Y6175*
X17557Y6172*
X17562Y6171*
X17567Y6170*
X17573*
X17578Y6171*
X17583Y6172*
X17588Y6175*
X17592Y6178*
X17596Y6181*
X17599Y6185*
X17602Y6190*
X17603Y6195*
X17605Y6200*
Y6205*
Y6210*
X17603Y6215*
X17602Y6220*
X17599Y6225*
X17596Y6229*
X17592Y6232*
X17588Y6235*
X17583Y6238*
X17578Y6239*
X17573Y6240*
X17567*
X17562Y6239*
X17557Y6238*
X17552Y6235*
X17548Y6232*
X17544Y6229*
X17541Y6225*
X17538Y6220*
X17537Y6215*
X17535Y6210*
Y6205*
Y6200*
G37*
G36*
X15080Y8578D02*
G01X15081Y8572D01*
X15083Y8565*
X15086Y8559*
X15089Y8553*
X15093Y8548*
X15098Y8543*
X15103Y8538*
X15108Y8534*
X15114Y8531*
X15120Y8528*
X15127Y8526*
X15133Y8525*
X15140*
X15147*
X15153Y8526*
X15160Y8528*
X15166Y8531*
X15172Y8534*
X15177Y8538*
X15182Y8543*
X15187Y8548*
X15191Y8553*
X15194Y8559*
X15197Y8565*
X15199Y8572*
X15200Y8578*
Y8585*
Y8592*
X15199Y8598*
X15197Y8605*
X15194Y8611*
X15191Y8617*
X15187Y8622*
X15182Y8627*
X15177Y8632*
X15172Y8636*
X15166Y8639*
X15160Y8642*
X15153Y8644*
X15147Y8645*
X15140*
X15133*
X15127Y8644*
X15120Y8642*
X15114Y8639*
X15108Y8636*
X15103Y8632*
X15098Y8627*
X15093Y8622*
X15089Y8617*
X15086Y8611*
X15083Y8605*
X15081Y8598*
X15080Y8592*
Y8585*
Y8578*
G37*
G36*
X16864Y6034D02*
G01X16866Y6028D01*
X16867Y6023*
X16870Y6017*
X16873Y6013*
X16877Y6008*
X16882Y6004*
X16886Y6001*
X16892Y5998*
X16897Y5997*
X16903Y5995*
X16909*
X16915*
X16921Y5997*
X16926Y5998*
X16932Y6001*
X16936Y6004*
X16941Y6008*
X16945Y6013*
X16948Y6017*
X16951Y6023*
X16952Y6028*
X16954Y6034*
Y6040*
Y6046*
X16952Y6052*
X16951Y6057*
X16948Y6063*
X16945Y6067*
X16941Y6072*
X16936Y6076*
X16932Y6079*
X16926Y6082*
X16921Y6083*
X16915Y6085*
X16909*
X16903*
X16897Y6083*
X16892Y6082*
X16886Y6079*
X16882Y6076*
X16877Y6072*
X16873Y6067*
X16870Y6063*
X16867Y6057*
X16866Y6052*
X16864Y6046*
Y6040*
Y6034*
G37*
G36*
X16385Y6275D02*
G01X16387Y6270D01*
X16388Y6265*
X16391Y6260*
X16394Y6256*
X16398Y6253*
X16402Y6250*
X16407Y6247*
X16412Y6246*
X16417Y6245*
X16423*
X16428Y6246*
X16433Y6247*
X16438Y6250*
X16442Y6253*
X16446Y6256*
X16449Y6260*
X16452Y6265*
X16453Y6270*
X16455Y6275*
Y6280*
Y6285*
X16453Y6290*
X16452Y6295*
X16449Y6300*
X16446Y6304*
X16442Y6307*
X16438Y6310*
X16433Y6313*
X16428Y6314*
X16423Y6315*
X16417*
X16412Y6314*
X16407Y6313*
X16402Y6310*
X16398Y6307*
X16394Y6304*
X16391Y6300*
X16388Y6295*
X16387Y6290*
X16385Y6285*
Y6280*
Y6275*
G37*
G36*
X14765Y8190D02*
G01X14767Y8185D01*
X14768Y8180*
X14771Y8175*
X14774Y8171*
X14778Y8168*
X14782Y8165*
X14787Y8162*
X14792Y8161*
X14797Y8160*
X14803*
X14808Y8161*
X14813Y8162*
X14818Y8165*
X14822Y8168*
X14826Y8171*
X14829Y8175*
X14832Y8180*
X14833Y8185*
X14835Y8190*
Y8195*
Y8200*
X14833Y8205*
X14832Y8210*
X14829Y8215*
X14826Y8219*
X14822Y8222*
X14818Y8225*
X14813Y8228*
X14808Y8229*
X14803Y8230*
X14797*
X14792Y8229*
X14787Y8228*
X14782Y8225*
X14778Y8222*
X14774Y8219*
X14771Y8215*
X14768Y8210*
X14767Y8205*
X14765Y8200*
Y8195*
Y8190*
G37*
G36*
Y7385D02*
G01X14767Y7380D01*
X14768Y7375*
X14771Y7370*
X14774Y7366*
X14778Y7363*
X14782Y7360*
X14787Y7357*
X14792Y7356*
X14797Y7355*
X14803*
X14808Y7356*
X14813Y7357*
X14818Y7360*
X14822Y7363*
X14826Y7366*
X14829Y7370*
X14832Y7375*
X14833Y7380*
X14835Y7385*
Y7390*
Y7395*
X14833Y7400*
X14832Y7405*
X14829Y7410*
X14826Y7414*
X14822Y7417*
X14818Y7420*
X14813Y7423*
X14808Y7424*
X14803Y7425*
X14797*
X14792Y7424*
X14787Y7423*
X14782Y7420*
X14778Y7417*
X14774Y7414*
X14771Y7410*
X14768Y7405*
X14767Y7400*
X14765Y7395*
Y7390*
Y7385*
G37*
G36*
X16466Y6034D02*
G01X16468Y6028D01*
X16469Y6023*
X16472Y6017*
X16475Y6013*
X16479Y6008*
X16484Y6004*
X16488Y6001*
X16494Y5998*
X16499Y5997*
X16505Y5995*
X16511*
X16517*
X16523Y5997*
X16528Y5998*
X16534Y6001*
X16538Y6004*
X16543Y6008*
X16547Y6013*
X16550Y6017*
X16553Y6023*
X16554Y6028*
X16556Y6034*
Y6040*
Y6046*
X16554Y6052*
X16553Y6057*
X16550Y6063*
X16547Y6067*
X16543Y6072*
X16538Y6076*
X16534Y6079*
X16528Y6082*
X16523Y6083*
X16517Y6085*
X16511*
X16505*
X16499Y6083*
X16494Y6082*
X16488Y6079*
X16484Y6076*
X16479Y6072*
X16475Y6067*
X16472Y6063*
X16469Y6057*
X16468Y6052*
X16466Y6046*
Y6040*
Y6034*
G37*
G36*
X16385Y6755D02*
G01X16387Y6750D01*
X16388Y6745*
X16391Y6740*
X16394Y6736*
X16398Y6733*
X16402Y6730*
X16407Y6727*
X16412Y6726*
X16417Y6725*
X16423*
X16428Y6726*
X16433Y6727*
X16438Y6730*
X16442Y6733*
X16446Y6736*
X16449Y6740*
X16452Y6745*
X16453Y6750*
X16455Y6755*
Y6760*
Y6765*
X16453Y6770*
X16452Y6775*
X16449Y6780*
X16446Y6784*
X16442Y6787*
X16438Y6790*
X16433Y6793*
X16428Y6794*
X16423Y6795*
X16417*
X16412Y6794*
X16407Y6793*
X16402Y6790*
X16398Y6787*
X16394Y6784*
X16391Y6780*
X16388Y6775*
X16387Y6770*
X16385Y6765*
Y6760*
Y6755*
G37*
G36*
X16955Y6515D02*
G01X16957Y6510D01*
X16958Y6505*
X16961Y6500*
X16964Y6496*
X16968Y6493*
X16972Y6490*
X16977Y6487*
X16982Y6486*
X16987Y6485*
X16993*
X16998Y6486*
X17003Y6487*
X17008Y6490*
X17012Y6493*
X17016Y6496*
X17019Y6500*
X17022Y6505*
X17023Y6510*
X17025Y6515*
Y6520*
Y6525*
X17023Y6530*
X17022Y6535*
X17019Y6540*
X17016Y6544*
X17012Y6547*
X17008Y6550*
X17003Y6553*
X16998Y6554*
X16993Y6555*
X16987*
X16982Y6554*
X16977Y6553*
X16972Y6550*
X16968Y6547*
X16964Y6544*
X16961Y6540*
X16958Y6535*
X16957Y6530*
X16955Y6525*
Y6520*
Y6515*
G37*
G36*
X16665Y6034D02*
G01X16667Y6028D01*
X16668Y6023*
X16671Y6017*
X16674Y6013*
X16678Y6008*
X16683Y6004*
X16687Y6001*
X16693Y5998*
X16698Y5997*
X16704Y5995*
X16710*
X16716*
X16722Y5997*
X16727Y5998*
X16733Y6001*
X16737Y6004*
X16742Y6008*
X16746Y6013*
X16749Y6017*
X16752Y6023*
X16753Y6028*
X16755Y6034*
Y6040*
Y6046*
X16753Y6052*
X16752Y6057*
X16749Y6063*
X16746Y6067*
X16742Y6072*
X16737Y6076*
X16733Y6079*
X16727Y6082*
X16722Y6083*
X16716Y6085*
X16710*
X16704*
X16698Y6083*
X16693Y6082*
X16687Y6079*
X16683Y6076*
X16678Y6072*
X16674Y6067*
X16671Y6063*
X16668Y6057*
X16667Y6052*
X16665Y6046*
Y6040*
Y6034*
G37*
G36*
X16465Y8525D02*
G01Y8735D01*
X16255*
Y8525*
X16465*
G37*
G36*
X16180Y8105D02*
G01Y8295D01*
X16040*
Y8105*
X16180*
G37*
G36*
X15525Y8460D02*
G01Y8590D01*
X15345*
Y8460*
X15525*
G37*
G36*
X16600Y7800D02*
G01Y7930D01*
X16420*
Y7800*
X16600*
G37*
G36*
X16367Y7255D02*
G01Y7615D01*
X16267*
Y7255*
X16367*
G37*
G36*
X15060Y6380D02*
G01X15062Y6375D01*
X15063Y6370*
X15066Y6365*
X15069Y6361*
X15073Y6358*
X15077Y6355*
X15082Y6352*
X15087Y6351*
X15092Y6350*
X15098*
X15103Y6351*
X15108Y6352*
X15113Y6355*
X15117Y6358*
X15121Y6361*
X15124Y6365*
X15127Y6370*
X15128Y6375*
X15130Y6380*
Y6385*
Y6390*
X15128Y6395*
X15127Y6400*
X15124Y6405*
X15121Y6409*
X15117Y6412*
X15113Y6415*
X15108Y6418*
X15103Y6419*
X15098Y6420*
X15092*
X15087Y6419*
X15082Y6418*
X15077Y6415*
X15073Y6412*
X15069Y6409*
X15066Y6405*
X15063Y6400*
X15062Y6395*
X15060Y6390*
Y6385*
Y6380*
G37*
G36*
X15500Y7040D02*
G01X15502Y7035D01*
X15503Y7030*
X15506Y7025*
X15509Y7021*
X15513Y7018*
X15517Y7015*
X15522Y7012*
X15527Y7011*
X15532Y7010*
X15538*
X15543Y7011*
X15548Y7012*
X15553Y7015*
X15557Y7018*
X15561Y7021*
X15564Y7025*
X15567Y7030*
X15568Y7035*
X15570Y7040*
Y7045*
Y7050*
X15568Y7055*
X15567Y7060*
X15564Y7065*
X15561Y7069*
X15557Y7072*
X15553Y7075*
X15548Y7078*
X15543Y7079*
X15538Y7080*
X15532*
X15527Y7079*
X15522Y7078*
X15517Y7075*
X15513Y7072*
X15509Y7069*
X15506Y7065*
X15503Y7060*
X15502Y7055*
X15500Y7050*
Y7045*
Y7040*
G37*
G36*
X15515Y6380D02*
G01X15517Y6375D01*
X15518Y6370*
X15521Y6365*
X15524Y6361*
X15528Y6358*
X15532Y6355*
X15537Y6352*
X15542Y6351*
X15547Y6350*
X15553*
X15558Y6351*
X15563Y6352*
X15568Y6355*
X15572Y6358*
X15576Y6361*
X15579Y6365*
X15582Y6370*
X15583Y6375*
X15585Y6380*
Y6385*
Y6390*
X15583Y6395*
X15582Y6400*
X15579Y6405*
X15576Y6409*
X15572Y6412*
X15568Y6415*
X15563Y6418*
X15558Y6419*
X15553Y6420*
X15547*
X15542Y6419*
X15537Y6418*
X15532Y6415*
X15528Y6412*
X15524Y6409*
X15521Y6405*
X15518Y6400*
X15517Y6395*
X15515Y6390*
Y6385*
Y6380*
G37*
G36*
X15765D02*
G01X15767Y6375D01*
X15768Y6370*
X15771Y6365*
X15774Y6361*
X15778Y6358*
X15782Y6355*
X15787Y6352*
X15792Y6351*
X15797Y6350*
X15803*
X15808Y6351*
X15813Y6352*
X15818Y6355*
X15822Y6358*
X15826Y6361*
X15829Y6365*
X15832Y6370*
X15833Y6375*
X15835Y6380*
Y6385*
Y6390*
X15833Y6395*
X15832Y6400*
X15829Y6405*
X15826Y6409*
X15822Y6412*
X15818Y6415*
X15813Y6418*
X15808Y6419*
X15803Y6420*
X15797*
X15792Y6419*
X15787Y6418*
X15782Y6415*
X15778Y6412*
X15774Y6409*
X15771Y6405*
X15768Y6400*
X15767Y6395*
X15765Y6390*
Y6385*
Y6380*
G37*
G36*
X15956Y8835D02*
G01X15958Y8827D01*
X15959Y8820*
X15962Y8814*
X15965Y8807*
X15969Y8801*
X15974Y8795*
X15979Y8790*
X15985Y8785*
X15991Y8781*
X15998Y8778*
X16004Y8775*
X16011Y8774*
X16019Y8772*
X16026*
X16033*
X16041Y8774*
X16048Y8775*
X16054Y8778*
X16061Y8781*
X16067Y8785*
X16073Y8790*
X16078Y8795*
X16083Y8801*
X16087Y8807*
X16090Y8814*
X16093Y8820*
X16094Y8827*
X16096Y8835*
Y8842*
Y8849*
X16094Y8857*
X16093Y8864*
X16090Y8870*
X16087Y8877*
X16083Y8883*
X16078Y8889*
X16073Y8894*
X16067Y8899*
X16061Y8903*
X16054Y8906*
X16048Y8909*
X16041Y8910*
X16033Y8912*
X16026*
X16019*
X16011Y8910*
X16004Y8909*
X15998Y8906*
X15991Y8903*
X15985Y8899*
X15979Y8894*
X15974Y8889*
X15969Y8883*
X15965Y8877*
X15962Y8870*
X15959Y8864*
X15958Y8857*
X15956Y8849*
Y8842*
Y8835*
G37*
G36*
X16600Y8100D02*
G01Y8230D01*
X16420*
Y8100*
X16600*
G37*
G36*
X16568Y7220D02*
G01Y7250D01*
X16498*
Y7220*
X16568*
G37*
G36*
X16955Y8525D02*
G01Y8735D01*
X16745*
Y8525*
X16955*
G37*
G36*
X16875Y6755D02*
G01X16877Y6750D01*
X16878Y6745*
X16881Y6740*
X16884Y6736*
X16888Y6733*
X16892Y6730*
X16897Y6727*
X16902Y6726*
X16907Y6725*
X16913*
X16918Y6726*
X16923Y6727*
X16928Y6730*
X16932Y6733*
X16936Y6736*
X16939Y6740*
X16942Y6745*
X16943Y6750*
X16945Y6755*
Y6760*
Y6765*
X16943Y6770*
X16942Y6775*
X16939Y6780*
X16936Y6784*
X16932Y6787*
X16928Y6790*
X16923Y6793*
X16918Y6794*
X16913Y6795*
X16907*
X16902Y6794*
X16897Y6793*
X16892Y6790*
X16888Y6787*
X16884Y6784*
X16881Y6780*
X16878Y6775*
X16877Y6770*
X16875Y6765*
Y6760*
Y6755*
G37*
G36*
X17420Y6572D02*
G01Y6642D01*
X17370*
Y6572*
X17420*
G37*
G36*
Y9192D02*
G01Y9262D01*
X17370*
Y9192*
X17420*
G37*
G36*
X17425Y5897D02*
G01Y5967D01*
X17375*
Y5897*
X17425*
G37*
G36*
Y8527D02*
G01Y8597D01*
X17375*
Y8527*
X17425*
G37*
G36*
X17430Y7222D02*
G01Y7292D01*
X17380*
Y7222*
X17430*
G37*
G36*
Y7872D02*
G01Y7942D01*
X17380*
Y7872*
X17430*
G37*
G36*
X17615Y5960D02*
G01X17617Y5955D01*
X17618Y5950*
X17621Y5945*
X17624Y5941*
X17628Y5938*
X17632Y5935*
X17637Y5932*
X17642Y5931*
X17647Y5930*
X17653*
X17658Y5931*
X17663Y5932*
X17668Y5935*
X17672Y5938*
X17676Y5941*
X17679Y5945*
X17682Y5950*
X17683Y5955*
X17685Y5960*
Y5965*
Y5970*
X17683Y5975*
X17682Y5980*
X17679Y5985*
X17676Y5989*
X17672Y5992*
X17668Y5995*
X17663Y5998*
X17658Y5999*
X17653Y6000*
X17647*
X17642Y5999*
X17637Y5998*
X17632Y5995*
X17628Y5992*
X17624Y5989*
X17621Y5985*
X17618Y5980*
X17617Y5975*
X17615Y5970*
Y5965*
Y5960*
G37*
G36*
Y6625D02*
G01X17617Y6620D01*
X17618Y6615*
X17621Y6610*
X17624Y6606*
X17628Y6603*
X17632Y6600*
X17637Y6597*
X17642Y6596*
X17647Y6595*
X17653*
X17658Y6596*
X17663Y6597*
X17668Y6600*
X17672Y6603*
X17676Y6606*
X17679Y6610*
X17682Y6615*
X17683Y6620*
X17685Y6625*
Y6630*
Y6635*
X17683Y6640*
X17682Y6645*
X17679Y6650*
X17676Y6654*
X17672Y6657*
X17668Y6660*
X17663Y6663*
X17658Y6664*
X17653Y6665*
X17647*
X17642Y6664*
X17637Y6663*
X17632Y6660*
X17628Y6657*
X17624Y6654*
X17621Y6650*
X17618Y6645*
X17617Y6640*
X17615Y6635*
Y6630*
Y6625*
G37*
G36*
Y7285D02*
G01X17617Y7280D01*
X17618Y7275*
X17621Y7270*
X17624Y7266*
X17628Y7263*
X17632Y7260*
X17637Y7257*
X17642Y7256*
X17647Y7255*
X17653*
X17658Y7256*
X17663Y7257*
X17668Y7260*
X17672Y7263*
X17676Y7266*
X17679Y7270*
X17682Y7275*
X17683Y7280*
X17685Y7285*
Y7290*
Y7295*
X17683Y7300*
X17682Y7305*
X17679Y7310*
X17676Y7314*
X17672Y7317*
X17668Y7320*
X17663Y7323*
X17658Y7324*
X17653Y7325*
X17647*
X17642Y7324*
X17637Y7323*
X17632Y7320*
X17628Y7317*
X17624Y7314*
X17621Y7310*
X17618Y7305*
X17617Y7300*
X17615Y7295*
Y7290*
Y7285*
G37*
G36*
Y7935D02*
G01X17617Y7930D01*
X17618Y7925*
X17621Y7920*
X17624Y7916*
X17628Y7913*
X17632Y7910*
X17637Y7907*
X17642Y7906*
X17647Y7905*
X17653*
X17658Y7906*
X17663Y7907*
X17668Y7910*
X17672Y7913*
X17676Y7916*
X17679Y7920*
X17682Y7925*
X17683Y7930*
X17685Y7935*
Y7940*
Y7945*
X17683Y7950*
X17682Y7955*
X17679Y7960*
X17676Y7964*
X17672Y7967*
X17668Y7970*
X17663Y7973*
X17658Y7974*
X17653Y7975*
X17647*
X17642Y7974*
X17637Y7973*
X17632Y7970*
X17628Y7967*
X17624Y7964*
X17621Y7960*
X17618Y7955*
X17617Y7950*
X17615Y7945*
Y7940*
Y7935*
G37*
G36*
Y8590D02*
G01X17617Y8585D01*
X17618Y8580*
X17621Y8575*
X17624Y8571*
X17628Y8568*
X17632Y8565*
X17637Y8562*
X17642Y8561*
X17647Y8560*
X17653*
X17658Y8561*
X17663Y8562*
X17668Y8565*
X17672Y8568*
X17676Y8571*
X17679Y8575*
X17682Y8580*
X17683Y8585*
X17685Y8590*
Y8595*
Y8600*
X17683Y8605*
X17682Y8610*
X17679Y8615*
X17676Y8619*
X17672Y8622*
X17668Y8625*
X17663Y8628*
X17658Y8629*
X17653Y8630*
X17647*
X17642Y8629*
X17637Y8628*
X17632Y8625*
X17628Y8622*
X17624Y8619*
X17621Y8615*
X17618Y8610*
X17617Y8605*
X17615Y8600*
Y8595*
Y8590*
G37*
G36*
Y9250D02*
G01X17617Y9245D01*
X17618Y9240*
X17621Y9235*
X17624Y9231*
X17628Y9228*
X17632Y9225*
X17637Y9222*
X17642Y9221*
X17647Y9220*
X17653*
X17658Y9221*
X17663Y9222*
X17668Y9225*
X17672Y9228*
X17676Y9231*
X17679Y9235*
X17682Y9240*
X17683Y9245*
X17685Y9250*
Y9255*
Y9260*
X17683Y9265*
X17682Y9270*
X17679Y9275*
X17676Y9279*
X17672Y9282*
X17668Y9285*
X17663Y9288*
X17658Y9289*
X17653Y9290*
X17647*
X17642Y9289*
X17637Y9288*
X17632Y9285*
X17628Y9282*
X17624Y9279*
X17621Y9275*
X17618Y9270*
X17617Y9265*
X17615Y9260*
Y9255*
Y9250*
G37*
G36*
X14765Y6550D02*
G01X14767Y6545D01*
X14768Y6540*
X14771Y6535*
X14774Y6531*
X14778Y6528*
X14782Y6525*
X14787Y6522*
X14792Y6521*
X14797Y6520*
X14803*
X14808Y6521*
X14813Y6522*
X14818Y6525*
X14822Y6528*
X14826Y6531*
X14829Y6535*
X14832Y6540*
X14833Y6545*
X14835Y6550*
Y6555*
Y6560*
X14833Y6565*
X14832Y6570*
X14829Y6575*
X14826Y6579*
X14822Y6582*
X14818Y6585*
X14813Y6588*
X14808Y6589*
X14803Y6590*
X14797*
X14792Y6589*
X14787Y6588*
X14782Y6585*
X14778Y6582*
X14774Y6579*
X14771Y6575*
X14768Y6570*
X14767Y6565*
X14765Y6560*
Y6555*
Y6550*
G37*
%LPD*%
G54D24*
X16900Y6950D03*
X17650Y7110D03*
X15700Y8010D03*
X16000Y7910D03*
X16533Y7585D03*
Y7535D03*
Y7485D03*
Y7385D03*
Y7435D03*
Y7335D03*
X16317Y7585D03*
X17180Y7920D03*
X16317Y7435D03*
X17175Y7265D03*
X16317Y7385D03*
X17180Y6635D03*
X16317Y7335D03*
X17175Y5945D03*
X16175Y6260D03*
X16317Y7285D03*
Y7535D03*
X17175Y8575D03*
X16317Y7485D03*
X17175Y9235D03*
G54D29*
X16510Y8165D03*
Y7865D03*
X15435Y8525D03*
Y8225D03*
G54D73*
X14902Y8585D03*
X15140D03*
X15040Y8425D03*
G54D27*
X15915Y8735D03*
X15835D03*
X15755D03*
X15675D03*
G54D19*
X15564Y8842D03*
X16026D03*
G54D27*
X16910Y6760D03*
Y6280D03*
X16990Y6520D03*
X16420Y6760D03*
Y6280D03*
X17650Y5965D03*
Y6445D03*
X17570Y6205D03*
X18140Y5965D03*
Y6445D03*
X17650Y6630D03*
Y7110D03*
X17570Y6870D03*
X18140Y6630D03*
Y7110D03*
X17650Y7290D03*
Y7770D03*
X17570Y7530D03*
X18140Y7290D03*
Y7770D03*
X17650Y7940D03*
Y8420D03*
X17570Y8180D03*
X18140Y7940D03*
Y8420D03*
X17650Y8595D03*
Y9075D03*
X17570Y8835D03*
X18140Y8595D03*
Y9075D03*
X17650Y9255D03*
Y9735D03*
X17570Y9495D03*
X18140Y9255D03*
Y9735D03*
G54D72*
X16909Y6040D03*
X16710D03*
X16511D03*
X18505Y6399D03*
Y6200D03*
Y6001D03*
X18500Y7074D03*
Y6875D03*
Y6676D03*
X18495Y7719D03*
Y7520D03*
Y7321D03*
X18505Y8379D03*
Y8180D03*
Y7981D03*
X18500Y9039D03*
Y8840D03*
Y8641D03*
Y9689D03*
Y9490D03*
Y9291D03*
G54D30*
X16180Y6783D03*
X16080D03*
Y6387D03*
X16180D03*
X17400Y6328D03*
X17300D03*
Y5932D03*
X17400D03*
X17395Y7003D03*
X17295D03*
Y6607D03*
X17395D03*
X17405Y7653D03*
X17305D03*
Y7257D03*
X17405D03*
Y8303D03*
X17305D03*
Y7907D03*
X17405D03*
X17400Y8958D03*
X17300D03*
Y8562D03*
X17400D03*
X17395Y9623D03*
X17295D03*
Y9227D03*
X17395D03*
G54D23*
X16317Y7585D03*
Y7535D03*
Y7485D03*
Y7435D03*
Y7385D03*
Y7335D03*
Y7285D03*
Y7235D03*
X16533D03*
Y7285D03*
Y7335D03*
Y7385D03*
Y7435D03*
Y7485D03*
Y7535D03*
Y7585D03*
G54D27*
X15535Y7045D03*
Y6945D03*
Y6845D03*
X15700Y6385D03*
X15800D03*
X15900D03*
X15550D03*
X15450D03*
X15350D03*
X15250D03*
X15095D03*
X14995D03*
X14895D03*
X14795D03*
X14800Y6555D03*
Y6655D03*
Y6755D03*
Y6855D03*
Y7390D03*
Y7290D03*
Y7190D03*
Y7090D03*
Y6990D03*
Y7595D03*
Y7695D03*
Y7795D03*
Y7895D03*
Y7995D03*
Y8095D03*
Y8195D03*
G54D72*
X14995Y8896D03*
X15095D03*
X15195D03*
Y9034D03*
X15095D03*
X14995D03*
G54D25*
X14910Y8095D03*
Y8175D03*
X16130Y7280D03*
Y7200D03*
X15480Y7210D03*
Y7290D03*
X15390Y6555D03*
Y6635D03*
X15215Y6550D03*
Y6630D03*
X15065Y6550D03*
Y6630D03*
X14935Y6550D03*
Y6630D03*
Y7895D03*
Y7975D03*
X16815Y8300D03*
Y8220D03*
G54D26*
X16415Y6920D03*
X16335D03*
G54D25*
X17175Y6150D03*
Y6230D03*
Y6025D03*
Y5945D03*
G54D26*
X16095Y6265D03*
X16175D03*
G54D25*
X17180Y6830D03*
Y6910D03*
Y6715D03*
Y6635D03*
X17175Y7460D03*
Y7540D03*
Y7345D03*
Y7265D03*
Y8120D03*
Y8200D03*
Y8000D03*
Y7920D03*
Y8655D03*
Y8575D03*
Y8775D03*
Y8855D03*
Y9320D03*
Y9240D03*
Y9440D03*
Y9520D03*
X15225Y8150D03*
Y8230D03*
G54D26*
X16255Y7045D03*
X16175D03*
G54D25*
X17175Y6440D03*
Y6360D03*
Y7115D03*
Y7035D03*
Y7750D03*
Y7670D03*
Y8405D03*
Y8325D03*
Y9060D03*
Y8980D03*
Y9725D03*
Y9645D03*
X15090Y8150D03*
Y8230D03*
G54D71*
X16360Y8630D03*
X16850D03*
G54D20*
X16110Y7880D03*
Y8200D03*
G54D17*
X15809Y8100D03*
X15742D03*
X15675D03*
X15608D03*
X15541D03*
G54D31*
X15675Y7660D03*
G54D27*
X15100Y7850D03*
Y7750D03*
Y7650D03*
Y7550D03*
Y7450D03*
Y7350D03*
Y7250D03*
Y7150D03*
Y7050D03*
Y6950D03*
X16900D03*
Y7050D03*
Y7150D03*
Y7250D03*
Y7350D03*
Y7450D03*
Y7550D03*
Y7650D03*
Y7750D03*
Y7850D03*
X15200D03*
Y7750D03*
Y7650D03*
Y7550D03*
Y7450D03*
Y7350D03*
Y7250D03*
Y7150D03*
Y7050D03*
Y6950D03*
X16800D03*
Y7050D03*
Y7150D03*
Y7250D03*
Y7350D03*
Y7450D03*
Y7550D03*
Y7650D03*
Y7750D03*
Y7850D03*
G54D11*
X14800Y7190D02*
G01X14960D01*
Y7190D02*
G01X15100Y7050D01*
X14800Y7995D02*
G01X14865Y7930D01*
Y7930D02*
G01Y7555D01*
Y7555D02*
G01X14910Y7510D01*
Y7510D02*
G01Y7240D01*
Y7240D02*
G01X14960Y7190D01*
X15900Y6385D02*
G01Y6424D01*
Y6424D02*
G01X15574Y6750D01*
Y6750D02*
G01X15420D01*
Y6750D02*
G01X15350Y6820D01*
Y6820D02*
G01Y7400D01*
Y7400D02*
G01X15200Y7550D01*
Y7250D02*
G01X15260Y7190D01*
Y7190D02*
G01Y6910D01*
Y6910D02*
G01X15205Y6855D01*
Y6855D02*
G01X14800D01*
G54D28*
X15195Y9034D02*
G01X15242D01*
X15195D02*
G01Y9081D01*
Y8987D02*
G01Y9034D01*
Y8896D02*
G01X15242D01*
X15195D02*
G01Y8943D01*
Y8849D02*
G01Y8896D01*
X15435Y8525D02*
G01X15527D01*
X15343D02*
G01X15435D01*
Y8525D02*
G01Y8592D01*
Y8458D02*
G01Y8525D01*
X15809Y8100D02*
G01X15837D01*
X15809D02*
G01Y8150D01*
Y8050D02*
G01Y8100D01*
X15140Y8585D02*
G01X15202D01*
X15078D02*
G01X15140D01*
Y8585D02*
G01Y8647D01*
Y8523D02*
G01Y8585D01*
X15095Y9034D02*
G01Y9081D01*
Y8987D02*
G01Y9034D01*
Y8896D02*
G01Y8943D01*
Y8849D02*
G01Y8896D01*
X17175Y7035D02*
G01X17207D01*
X17143D02*
G01X17175D01*
Y6998D02*
G01Y7035D01*
X17295Y7003D02*
G01X17322D01*
X17268D02*
G01X17295D01*
Y7003D02*
G01Y7040D01*
X17175Y7670D02*
G01X17207D01*
X17143D02*
G01X17175D01*
Y7633D02*
G01Y7670D01*
X17305Y7653D02*
G01X17332D01*
X17278D02*
G01X17305D01*
Y7653D02*
G01Y7690D01*
X17175Y8325D02*
G01X17207D01*
X17143D02*
G01X17175D01*
Y8288D02*
G01Y8325D01*
X17305Y8303D02*
G01X17332D01*
X17278D02*
G01X17305D01*
Y8303D02*
G01Y8340D01*
X17175Y8000D02*
G01X17207D01*
X17143D02*
G01X17175D01*
Y8000D02*
G01Y8037D01*
X17305Y7907D02*
G01X17332D01*
X17278D02*
G01X17305D01*
Y7907D02*
G01Y7944D01*
X17175Y7345D02*
G01X17207D01*
X17143D02*
G01X17175D01*
Y7345D02*
G01Y7382D01*
X17305Y7257D02*
G01X17332D01*
X17278D02*
G01X17305D01*
Y7257D02*
G01Y7294D01*
Y7220D02*
G01Y7257D01*
X17295Y6607D02*
G01X17322D01*
X17268D02*
G01X17295D01*
Y6607D02*
G01Y6644D01*
Y6570D02*
G01Y6607D01*
X17180Y6715D02*
G01X17212D01*
X17148D02*
G01X17180D01*
Y6715D02*
G01Y6752D01*
X17175Y6025D02*
G01X17207D01*
X17143D02*
G01X17175D01*
Y6025D02*
G01Y6062D01*
X17300Y5932D02*
G01X17327D01*
X17273D02*
G01X17300D01*
Y5932D02*
G01Y5969D01*
Y5895D02*
G01Y5932D01*
X16058Y6265D02*
G01X16095D01*
Y6265D02*
G01Y6297D01*
Y6233D02*
G01Y6265D01*
X16080Y6387D02*
G01X16107D01*
X16053D02*
G01X16080D01*
Y6387D02*
G01Y6424D01*
Y6350D02*
G01Y6387D01*
X16180Y6783D02*
G01X16207D01*
X16153D02*
G01X16180D01*
Y6783D02*
G01Y6820D01*
Y6746D02*
G01Y6783D01*
X16298Y6920D02*
G01X16335D01*
Y6920D02*
G01Y6952D01*
Y6888D02*
G01Y6920D01*
X17175Y6230D02*
G01X17207D01*
X17143D02*
G01X17175D01*
Y6230D02*
G01Y6267D01*
X17400Y6328D02*
G01X17427D01*
X17373D02*
G01X17400D01*
Y6328D02*
G01Y6365D01*
Y6291D02*
G01Y6328D01*
X17180Y6910D02*
G01X17212D01*
X17148D02*
G01X17180D01*
Y6910D02*
G01Y6947D01*
X17395Y7003D02*
G01X17422D01*
X17368D02*
G01X17395D01*
Y7003D02*
G01Y7040D01*
Y6966D02*
G01Y7003D01*
X17175Y7540D02*
G01X17207D01*
X17143D02*
G01X17175D01*
Y7540D02*
G01Y7577D01*
X17405Y7653D02*
G01X17432D01*
X17378D02*
G01X17405D01*
Y7653D02*
G01Y7690D01*
Y7616D02*
G01Y7653D01*
X17175Y8200D02*
G01X17207D01*
X17143D02*
G01X17175D01*
Y8200D02*
G01Y8237D01*
X17405Y8303D02*
G01X17432D01*
X17378D02*
G01X17405D01*
Y8303D02*
G01Y8340D01*
Y8266D02*
G01Y8303D01*
G54D11*
X16910Y6280D02*
G01X16875Y6315D01*
Y6315D02*
G01Y6570D01*
Y6570D02*
G01X16981Y6676D01*
Y6676D02*
G01Y6994D01*
Y6994D02*
G01X16975Y7000D01*
Y7000D02*
G01X16695D01*
Y7000D02*
G01X16630Y7065D01*
Y7065D02*
G01Y7260D01*
Y7260D02*
G01X16605Y7285D01*
Y7285D02*
G01X16533D01*
G54D28*
X14935Y6550D02*
G01X14967D01*
X14903D02*
G01X14935D01*
Y6513D02*
G01Y6550D01*
X14800Y6555D02*
G01X14837D01*
X14763D02*
G01X14800D01*
Y6555D02*
G01Y6592D01*
Y6518D02*
G01Y6555D01*
X15095Y6385D02*
G01X15132D01*
X15058D02*
G01X15095D01*
Y6385D02*
G01Y6422D01*
Y6348D02*
G01Y6385D01*
X15065Y6550D02*
G01X15097D01*
X15033D02*
G01X15065D01*
Y6513D02*
G01Y6550D01*
X15215D02*
G01X15247D01*
X15183D02*
G01X15215D01*
Y6513D02*
G01Y6550D01*
X15225Y8150D02*
G01X15257D01*
X15193D02*
G01X15225D01*
Y8113D02*
G01Y8150D01*
X15550Y6385D02*
G01X15587D01*
X15513D02*
G01X15550D01*
Y6385D02*
G01Y6422D01*
Y6348D02*
G01Y6385D01*
X15390Y6635D02*
G01X15422D01*
X15358D02*
G01X15390D01*
Y6635D02*
G01Y6672D01*
X15535Y7045D02*
G01X15572D01*
X15498D02*
G01X15535D01*
Y7045D02*
G01Y7082D01*
Y7008D02*
G01Y7045D01*
X15480Y7210D02*
G01X15512D01*
X15448D02*
G01X15480D01*
Y7173D02*
G01Y7210D01*
X15608Y8100D02*
G01Y8150D01*
Y8050D02*
G01Y8100D01*
X15800Y6385D02*
G01X15837D01*
X15763D02*
G01X15800D01*
Y6385D02*
G01Y6422D01*
Y6348D02*
G01Y6385D01*
X15915Y8735D02*
G01X15952D01*
X15915D02*
G01Y8772D01*
Y8698D02*
G01Y8735D01*
X16180Y6387D02*
G01X16207D01*
X16180D02*
G01Y6424D01*
Y6350D02*
G01Y6387D01*
X16130Y7200D02*
G01X16162D01*
X16098D02*
G01X16130D01*
Y7163D02*
G01Y7200D01*
X16415Y6920D02*
G01X16452D01*
X16415D02*
G01Y6952D01*
Y6888D02*
G01Y6920D01*
X16510Y8165D02*
G01X16602D01*
X16418D02*
G01X16510D01*
Y8165D02*
G01Y8232D01*
Y8098D02*
G01Y8165D01*
X16533Y7235D02*
G01X16570D01*
X16496D02*
G01X16533D01*
Y7235D02*
G01Y7252D01*
Y7218D02*
G01Y7235D01*
X16815Y8300D02*
G01X16847D01*
X16783D02*
G01X16815D01*
Y8300D02*
G01Y8337D01*
X16850Y8630D02*
G01X16957D01*
X16743D02*
G01X16850D01*
Y8630D02*
G01Y8737D01*
Y8523D02*
G01Y8630D01*
X16910Y6760D02*
G01X16947D01*
X16873D02*
G01X16910D01*
Y6760D02*
G01Y6797D01*
Y6723D02*
G01Y6760D01*
X17400Y5932D02*
G01X17427D01*
X17373D02*
G01X17400D01*
Y5932D02*
G01Y5969D01*
Y5895D02*
G01Y5932D01*
X17175Y6150D02*
G01X17207D01*
X17143D02*
G01X17175D01*
Y6113D02*
G01Y6150D01*
X17395Y6607D02*
G01X17422D01*
X17368D02*
G01X17395D01*
Y6607D02*
G01Y6644D01*
Y6570D02*
G01Y6607D01*
X17180Y6830D02*
G01X17212D01*
X17148D02*
G01X17180D01*
Y6793D02*
G01Y6830D01*
X17175Y7460D02*
G01X17207D01*
X17143D02*
G01X17175D01*
Y7423D02*
G01Y7460D01*
X17405Y7257D02*
G01X17432D01*
X17378D02*
G01X17405D01*
Y7257D02*
G01Y7294D01*
Y7220D02*
G01Y7257D01*
X17175Y8120D02*
G01X17207D01*
X17143D02*
G01X17175D01*
Y8083D02*
G01Y8120D01*
X17405Y7907D02*
G01X17432D01*
X17378D02*
G01X17405D01*
Y7907D02*
G01Y7944D01*
Y7870D02*
G01Y7907D01*
X17400Y8562D02*
G01X17427D01*
X17373D02*
G01X17400D01*
Y8562D02*
G01Y8599D01*
Y8525D02*
G01Y8562D01*
X17175Y8775D02*
G01X17207D01*
X17143D02*
G01X17175D01*
Y8738D02*
G01Y8775D01*
X17395Y9227D02*
G01X17422D01*
X17368D02*
G01X17395D01*
Y9227D02*
G01Y9264D01*
Y9190D02*
G01Y9227D01*
X17175Y9440D02*
G01X17207D01*
X17143D02*
G01X17175D01*
Y9403D02*
G01Y9440D01*
X17650Y5965D02*
G01X17687D01*
X17613D02*
G01X17650D01*
Y5965D02*
G01Y6002D01*
Y5928D02*
G01Y5965D01*
Y6630D02*
G01X17687D01*
X17613D02*
G01X17650D01*
Y6630D02*
G01Y6667D01*
Y6593D02*
G01Y6630D01*
Y7290D02*
G01X17687D01*
X17613D02*
G01X17650D01*
Y7290D02*
G01Y7327D01*
Y7253D02*
G01Y7290D01*
Y7940D02*
G01X17687D01*
X17613D02*
G01X17650D01*
Y7940D02*
G01Y7977D01*
Y7903D02*
G01Y7940D01*
Y8595D02*
G01X17687D01*
X17613D02*
G01X17650D01*
Y8595D02*
G01Y8632D01*
Y8558D02*
G01Y8595D01*
Y9255D02*
G01X17687D01*
X17613D02*
G01X17650D01*
Y9255D02*
G01Y9292D01*
Y9218D02*
G01Y9255D01*
G54D11*
X14795Y6385D02*
G01X14880Y6470D01*
Y6470D02*
G01X15245D01*
Y6470D02*
G01X15290Y6515D01*
Y6515D02*
G01Y7260D01*
Y7260D02*
G01X15200Y7350D01*
G54D24*
X15675Y8100D02*
G01Y8165D01*
G54D28*
X14958Y6385D02*
G01X14995D01*
Y6385D02*
G01Y6422D01*
X14935Y6630D02*
G01X14967D01*
X14903D02*
G01X14935D01*
Y6630D02*
G01Y6667D01*
X14800Y6655D02*
G01X14837D01*
X14763D02*
G01X14800D01*
Y6655D02*
G01Y6692D01*
Y7290D02*
G01X14837D01*
X14763D02*
G01X14800D01*
X14910Y8095D02*
G01X14942D01*
X14878D02*
G01X14910D01*
Y8058D02*
G01Y8095D01*
X14935Y7975D02*
G01X14967D01*
X14903D02*
G01X14935D01*
Y7975D02*
G01Y8012D01*
X14800Y8095D02*
G01X14837D01*
X14763D02*
G01X14800D01*
Y8058D02*
G01Y8095D01*
X15040Y8425D02*
G01X15102D01*
X14978D02*
G01X15040D01*
Y8425D02*
G01Y8487D01*
Y8363D02*
G01Y8425D01*
X14902Y8585D02*
G01X14964D01*
X14840D02*
G01X14902D01*
Y8585D02*
G01Y8647D01*
Y8523D02*
G01Y8585D01*
X15065Y6630D02*
G01X15097D01*
X15033D02*
G01X15065D01*
Y6630D02*
G01Y6667D01*
X15215Y6630D02*
G01X15247D01*
X15183D02*
G01X15215D01*
Y6630D02*
G01Y6667D01*
X15090Y8150D02*
G01X15122D01*
X15058D02*
G01X15090D01*
Y8113D02*
G01Y8150D01*
X15413Y6385D02*
G01X15450D01*
Y6385D02*
G01Y6422D01*
X15390Y6555D02*
G01X15422D01*
X15358D02*
G01X15390D01*
Y6518D02*
G01Y6555D01*
X15498Y6845D02*
G01X15535D01*
Y6845D02*
G01Y6882D01*
Y6808D02*
G01Y6845D01*
X15480Y7290D02*
G01X15512D01*
X15448D02*
G01X15480D01*
Y7290D02*
G01Y7327D01*
X15513Y8100D02*
G01X15541D01*
Y8100D02*
G01Y8150D01*
Y8050D02*
G01Y8100D01*
X15435Y8225D02*
G01X15527D01*
X15343D02*
G01X15435D01*
Y8225D02*
G01Y8292D01*
Y8158D02*
G01Y8225D01*
X15638Y8735D02*
G01X15675D01*
Y8735D02*
G01Y8772D01*
Y8698D02*
G01Y8735D01*
X16130Y7280D02*
G01X16162D01*
X16098D02*
G01X16130D01*
Y7280D02*
G01Y7317D01*
X16110Y7880D02*
G01X16182D01*
X16038D02*
G01X16110D01*
Y7880D02*
G01Y7977D01*
Y7783D02*
G01Y7880D01*
X16317Y7235D02*
G01X16354D01*
X16280D02*
G01X16317D01*
Y7235D02*
G01Y7252D01*
X16510Y7865D02*
G01X16602D01*
X16418D02*
G01X16510D01*
Y7865D02*
G01Y7932D01*
Y7798D02*
G01Y7865D01*
X16815Y8220D02*
G01X16847D01*
X16783D02*
G01X16815D01*
Y8183D02*
G01Y8220D01*
G54D24*
X15675Y8035D02*
G01Y8100D01*
X15700Y8010D02*
G01X15675Y8035D01*
X16000Y7910D02*
G01X16080D01*
Y7910D02*
G01X16110Y7880D01*
G54D11*
X15535Y6945D02*
G01X15490D01*
Y6945D02*
G01X15385Y7050D01*
Y7050D02*
G01Y7465D01*
Y7465D02*
G01X15200Y7650D01*
X17175Y9725D02*
G01X17032D01*
Y9725D02*
G01X17004Y9697D01*
Y9697D02*
G01Y8309D01*
Y8309D02*
G01X16675Y7980D01*
Y7980D02*
G01Y7810D01*
Y7810D02*
G01X16735Y7750D01*
Y7750D02*
G01X16800D01*
X17175Y9060D02*
G01X17068D01*
Y9060D02*
G01X17050Y9042D01*
Y9042D02*
G01Y8265D01*
Y8265D02*
G01X16740Y7955D01*
Y7955D02*
G01Y7858D01*
Y7858D02*
G01X16748Y7850D01*
Y7850D02*
G01X16800D01*
X16255Y7045D02*
G01X16475D01*
Y7045D02*
G01X16635Y6885D01*
Y6885D02*
G01X16890D01*
Y6885D02*
G01X16900Y6895D01*
Y6895D02*
G01Y6950D01*
G54D28*
X16080Y6783D02*
G01X16107D01*
X16053D02*
G01X16080D01*
Y6783D02*
G01Y6820D01*
Y6746D02*
G01Y6783D01*
X16138Y7045D02*
G01X16175D01*
Y7045D02*
G01Y7077D01*
Y7013D02*
G01Y7045D01*
G54D11*
X16900Y7050D02*
G01X17042D01*
Y7050D02*
G01X17050Y7042D01*
Y7042D02*
G01Y6594D01*
Y6594D02*
G01X17095Y6549D01*
Y6549D02*
G01Y6475D01*
Y6475D02*
G01X17130Y6440D01*
Y6440D02*
G01X17175D01*
Y7115D02*
G01X16935D01*
Y7115D02*
G01X16900Y7150D01*
X15250Y6385D02*
G01X15312Y6447D01*
Y6447D02*
G01Y6447D01*
Y6447D02*
G01X15320Y6455D01*
Y6455D02*
G01Y7330D01*
Y7330D02*
G01X15200Y7450D01*
X14800Y7090D02*
G01X14960D01*
Y7090D02*
G01X15100Y6950D01*
X14800Y7895D02*
G01X14745Y7840D01*
Y7840D02*
G01Y7560D01*
Y7560D02*
G01X14885Y7420D01*
Y7420D02*
G01Y7285D01*
Y7285D02*
G01X14840Y7240D01*
Y7240D02*
G01X14760D01*
Y7240D02*
G01X14745Y7225D01*
Y7225D02*
G01Y7145D01*
Y7145D02*
G01X14800Y7090D01*
G54D28*
X18140Y9735D02*
G01X18177D01*
X18103D02*
G01X18140D01*
Y9735D02*
G01Y9772D01*
Y9698D02*
G01Y9735D01*
X18500Y9689D02*
G01X18547D01*
X18453D02*
G01X18500D01*
Y9689D02*
G01Y9736D01*
Y9642D02*
G01Y9689D01*
G54D11*
X17175Y7750D02*
G01X17053D01*
Y7750D02*
G01X17045Y7742D01*
Y7742D02*
G01Y7315D01*
Y7315D02*
G01X16980Y7250D01*
Y7250D02*
G01X16900D01*
G54D28*
X18140Y8420D02*
G01X18177D01*
X18103D02*
G01X18140D01*
Y8420D02*
G01Y8457D01*
Y8383D02*
G01Y8420D01*
X18505Y8379D02*
G01X18552D01*
X18458D02*
G01X18505D01*
Y8379D02*
G01Y8426D01*
Y8332D02*
G01Y8379D01*
X18140Y7940D02*
G01X18177D01*
X18103D02*
G01X18140D01*
Y7940D02*
G01Y7977D01*
Y7903D02*
G01Y7940D01*
X18505Y7981D02*
G01X18552D01*
X18458D02*
G01X18505D01*
Y7981D02*
G01Y8028D01*
Y7934D02*
G01Y7981D01*
X18140Y9255D02*
G01X18177D01*
X18103D02*
G01X18140D01*
Y9255D02*
G01Y9292D01*
Y9218D02*
G01Y9255D01*
X18500Y9291D02*
G01X18547D01*
X18453D02*
G01X18500D01*
Y9291D02*
G01Y9338D01*
Y9244D02*
G01Y9291D01*
G54D11*
X17175Y8405D02*
G01X17098D01*
Y8405D02*
G01X17080Y8387D01*
Y8387D02*
G01Y8225D01*
Y8225D02*
G01X16995Y8140D01*
Y8140D02*
G01Y7400D01*
Y7400D02*
G01X16945Y7350D01*
Y7350D02*
G01X16900D01*
G54D28*
X17570Y9495D02*
G01X17607D01*
X17533D02*
G01X17570D01*
Y9495D02*
G01Y9532D01*
Y9458D02*
G01Y9495D01*
X18500Y9490D02*
G01X18547D01*
X18453D02*
G01X18500D01*
Y9490D02*
G01Y9537D01*
Y9443D02*
G01Y9490D01*
X17570Y7530D02*
G01X17607D01*
X17533D02*
G01X17570D01*
Y7530D02*
G01Y7567D01*
Y7493D02*
G01Y7530D01*
X18495Y7520D02*
G01X18542D01*
X18448D02*
G01X18495D01*
Y7520D02*
G01Y7567D01*
Y7473D02*
G01Y7520D01*
X18140Y7290D02*
G01X18177D01*
X18103D02*
G01X18140D01*
Y7290D02*
G01Y7327D01*
Y7253D02*
G01Y7290D01*
X18495Y7321D02*
G01X18542D01*
X18448D02*
G01X18495D01*
Y7321D02*
G01Y7368D01*
Y7274D02*
G01Y7321D01*
X17570Y6870D02*
G01X17607D01*
X17533D02*
G01X17570D01*
Y6870D02*
G01Y6907D01*
Y6833D02*
G01Y6870D01*
X18500Y6875D02*
G01X18547D01*
X18453D02*
G01X18500D01*
Y6875D02*
G01Y6922D01*
Y6828D02*
G01Y6875D01*
X16710Y6040D02*
G01X16757D01*
X16663D02*
G01X16710D01*
Y6040D02*
G01Y6087D01*
Y5993D02*
G01Y6040D01*
X16990Y6520D02*
G01X17027D01*
X16953D02*
G01X16990D01*
Y6520D02*
G01Y6557D01*
Y6483D02*
G01Y6520D01*
X17570Y8180D02*
G01X17607D01*
X17533D02*
G01X17570D01*
Y8180D02*
G01Y8217D01*
Y8143D02*
G01Y8180D01*
X18505D02*
G01X18552D01*
X18458D02*
G01X18505D01*
Y8180D02*
G01Y8227D01*
Y8133D02*
G01Y8180D01*
X15090Y8230D02*
G01X15122D01*
X15058D02*
G01X15090D01*
Y8230D02*
G01Y8267D01*
X15225Y8230D02*
G01X15257D01*
X15193D02*
G01X15225D01*
Y8230D02*
G01Y8267D01*
X18140Y5965D02*
G01X18177D01*
X18103D02*
G01X18140D01*
Y5965D02*
G01Y6002D01*
Y5928D02*
G01Y5965D01*
X18505Y6001D02*
G01X18552D01*
X18458D02*
G01X18505D01*
Y6001D02*
G01Y6048D01*
Y5954D02*
G01Y6001D01*
X17570Y6205D02*
G01X17607D01*
X17533D02*
G01X17570D01*
Y6205D02*
G01Y6242D01*
Y6168D02*
G01Y6205D01*
X18505Y6200D02*
G01X18552D01*
X18458D02*
G01X18505D01*
Y6200D02*
G01Y6247D01*
Y6153D02*
G01Y6200D01*
X18140Y6445D02*
G01X18177D01*
X18103D02*
G01X18140D01*
Y6445D02*
G01Y6482D01*
Y6408D02*
G01Y6445D01*
X18505Y6399D02*
G01X18552D01*
X18458D02*
G01X18505D01*
Y6399D02*
G01Y6446D01*
Y6352D02*
G01Y6399D01*
X17570Y8835D02*
G01X17607D01*
X17533D02*
G01X17570D01*
Y8835D02*
G01Y8872D01*
Y8798D02*
G01Y8835D01*
X18500Y8840D02*
G01X18547D01*
X18453D02*
G01X18500D01*
Y8840D02*
G01Y8887D01*
Y8793D02*
G01Y8840D01*
X18140Y7770D02*
G01X18177D01*
X18103D02*
G01X18140D01*
Y7770D02*
G01Y7807D01*
Y7733D02*
G01Y7770D01*
X18495Y7719D02*
G01X18542D01*
X18448D02*
G01X18495D01*
Y7719D02*
G01Y7766D01*
Y7672D02*
G01Y7719D01*
X18140Y7110D02*
G01X18177D01*
X18103D02*
G01X18140D01*
Y7110D02*
G01Y7147D01*
Y7073D02*
G01Y7110D01*
X18500Y7074D02*
G01X18547D01*
X18453D02*
G01X18500D01*
Y7074D02*
G01Y7121D01*
Y7027D02*
G01Y7074D01*
X16511Y6040D02*
G01X16558D01*
X16464D02*
G01X16511D01*
Y6040D02*
G01Y6087D01*
Y5993D02*
G01Y6040D01*
X16420Y6760D02*
G01X16457D01*
X16383D02*
G01X16420D01*
Y6760D02*
G01Y6797D01*
Y6723D02*
G01Y6760D01*
Y6280D02*
G01X16457D01*
X16383D02*
G01X16420D01*
Y6280D02*
G01Y6317D01*
Y6243D02*
G01Y6280D01*
X16909Y6040D02*
G01X16956D01*
X16862D02*
G01X16909D01*
Y6040D02*
G01Y6087D01*
Y5993D02*
G01Y6040D01*
X18140Y9075D02*
G01X18177D01*
X18103D02*
G01X18140D01*
Y9075D02*
G01Y9112D01*
Y9038D02*
G01Y9075D01*
X18500Y9039D02*
G01X18547D01*
X18453D02*
G01X18500D01*
Y9039D02*
G01Y9086D01*
Y8992D02*
G01Y9039D01*
X18140Y8595D02*
G01X18177D01*
X18103D02*
G01X18140D01*
Y8595D02*
G01Y8632D01*
Y8558D02*
G01Y8595D01*
X18500Y8641D02*
G01X18547D01*
X18453D02*
G01X18500D01*
Y8641D02*
G01Y8688D01*
Y8594D02*
G01Y8641D01*
X14800Y7390D02*
G01X14837D01*
X14763D02*
G01X14800D01*
Y7390D02*
G01Y7427D01*
Y7353D02*
G01Y7390D01*
X14935Y7895D02*
G01X14967D01*
X14903D02*
G01X14935D01*
Y7858D02*
G01Y7895D01*
X14910Y8175D02*
G01X14942D01*
X14878D02*
G01X14910D01*
Y8175D02*
G01Y8212D01*
X14800Y8195D02*
G01X14837D01*
X14763D02*
G01X14800D01*
Y8195D02*
G01Y8232D01*
Y8158D02*
G01Y8195D01*
X15100Y7850D02*
G01X15137D01*
X15063D02*
G01X15100D01*
Y7850D02*
G01Y7887D01*
Y7813D02*
G01Y7850D01*
X18140Y6630D02*
G01X18177D01*
X18103D02*
G01X18140D01*
Y6630D02*
G01Y6667D01*
Y6593D02*
G01Y6630D01*
X18500Y6676D02*
G01X18547D01*
X18453D02*
G01X18500D01*
Y6676D02*
G01Y6723D01*
Y6629D02*
G01Y6676D01*
X15742Y8100D02*
G01Y8150D01*
Y8050D02*
G01Y8100D01*
X16110Y8200D02*
G01X16182D01*
X16038D02*
G01X16110D01*
Y8200D02*
G01Y8297D01*
Y8103D02*
G01Y8200D01*
X16360Y8630D02*
G01X16467D01*
X16253D02*
G01X16360D01*
Y8630D02*
G01Y8737D01*
Y8523D02*
G01Y8630D01*
X17295Y9227D02*
G01X17322D01*
X17268D02*
G01X17295D01*
Y9227D02*
G01Y9264D01*
Y9190D02*
G01Y9227D01*
X17175Y9320D02*
G01X17207D01*
X17143D02*
G01X17175D01*
Y9320D02*
G01Y9357D01*
X17295Y9623D02*
G01X17322D01*
X17268D02*
G01X17295D01*
Y9623D02*
G01Y9660D01*
X17175Y9645D02*
G01X17207D01*
X17143D02*
G01X17175D01*
Y9608D02*
G01Y9645D01*
X17395Y9623D02*
G01X17422D01*
X17368D02*
G01X17395D01*
Y9623D02*
G01Y9660D01*
Y9586D02*
G01Y9623D01*
X17175Y9520D02*
G01X17207D01*
X17143D02*
G01X17175D01*
Y9520D02*
G01Y9557D01*
Y8655D02*
G01X17207D01*
X17143D02*
G01X17175D01*
Y8655D02*
G01Y8692D01*
X17300Y8562D02*
G01X17327D01*
X17273D02*
G01X17300D01*
Y8562D02*
G01Y8599D01*
Y8525D02*
G01Y8562D01*
X17175Y8980D02*
G01X17207D01*
X17143D02*
G01X17175D01*
Y8943D02*
G01Y8980D01*
X17300Y8958D02*
G01X17327D01*
X17273D02*
G01X17300D01*
Y8958D02*
G01Y8995D01*
X17175Y8855D02*
G01X17207D01*
X17143D02*
G01X17175D01*
Y8855D02*
G01Y8892D01*
X17400Y8958D02*
G01X17427D01*
X17373D02*
G01X17400D01*
Y8958D02*
G01Y8995D01*
Y8921D02*
G01Y8958D01*
X17300Y6328D02*
G01X17327D01*
X17273D02*
G01X17300D01*
Y6328D02*
G01Y6365D01*
X17175Y6360D02*
G01X17207D01*
X17143D02*
G01X17175D01*
Y6323D02*
G01Y6360D01*
M02*
