G04 CAM350 V10.0.1 (Build 312) Date:  Thu Jul 28 16:15:01 2016 *
G04 Database: C:\arctmp\odbjob_v7\odbjob_v7.cam *
G04 Layer 9: TopPartOutLine *
%FSLAX23Y23*%
%MOIN*%
%SFA1.000B1.000*%

%MIA0B0*%
%IPPOS*%
%ADD28C,0.00500*%
%LNTopPartOutLine*%
%LPD*%
G54D28*
X16385Y8201D02*
G01X16635D01*
Y7829*
X16385*
Y8201*
X15310Y8561D02*
G01X15560D01*
Y8189*
X15310*
Y8561*
X14690Y8360D02*
G01Y8760D01*
X15205*
Y8360*
X14690*
X16105Y8650D02*
G01X15485D01*
Y9220*
X16105*
Y8650*
X16270Y6210D02*
G01Y6830D01*
X17060*
Y6210*
X16270*
X18290Y6515D02*
G01Y5895D01*
X17500*
Y6515*
X18290*
Y7180D02*
G01Y6560D01*
X17500*
Y7180*
X18290*
Y7840D02*
G01Y7220D01*
X17500*
Y7840*
X18290*
Y8490D02*
G01Y7870D01*
X17500*
Y8490*
X18290*
Y9145D02*
G01Y8525D01*
X17500*
Y9145*
X18290*
Y9805D02*
G01Y9185D01*
X17500*
Y9805*
X18290*
X16412Y6190D02*
G01X17008D01*
Y5890*
X16412*
Y6190*
X18355Y5902D02*
G01Y6498D01*
X18655*
Y5902*
X18355*
X18350Y6577D02*
G01Y7173D01*
X18650*
Y6577*
X18350*
X18345Y7222D02*
G01Y7818D01*
X18645*
Y7222*
X18345*
X18355Y7882D02*
G01Y8478D01*
X18655*
Y7882*
X18355*
X18350Y8542D02*
G01Y9138D01*
X18650*
Y8542*
X18350*
Y9192D02*
G01Y9788D01*
X18650*
Y9192*
X18350*
X16030Y6823D02*
G01X16230D01*
Y6347*
X16030*
Y6823*
X17250Y6368D02*
G01X17450D01*
Y5892*
X17250*
Y6368*
X17245Y7043D02*
G01X17445D01*
Y6567*
X17245*
Y7043*
X17255Y7693D02*
G01X17455D01*
Y7217*
X17255*
Y7693*
Y8343D02*
G01X17455D01*
Y7867*
X17255*
Y8343*
X17250Y8998D02*
G01X17450D01*
Y8522*
X17250*
Y8998*
X17245Y9663D02*
G01X17445D01*
Y9187*
X17245*
Y9663*
X16229Y7205D02*
G01Y7615D01*
X16620*
Y7205*
X16229*
X15480Y6795D02*
G01Y7095D01*
X15590*
Y6795*
X15480*
X15950Y6330D02*
G01X15650D01*
Y6440*
X15950*
Y6330*
X15200Y6440D02*
G01X15600D01*
Y6330*
X15200*
Y6440*
X14745D02*
G01X15145D01*
Y6330*
X14745*
Y6440*
X14855Y6905D02*
G01Y6505D01*
X14745*
Y6905*
X14855*
X14745Y6940D02*
G01Y7440D01*
X14855*
Y6940*
X14745*
Y7535D02*
G01Y8255D01*
X14855*
Y7535*
X14745*
X15275Y8856D02*
G01X14915D01*
Y9074*
X15275*
Y8856*
X14960Y8225D02*
G01Y8045D01*
X14860*
Y8225*
X14960*
X16080Y7150D02*
G01Y7330D01*
X16180*
Y7150*
X16080*
X15530Y7340D02*
G01Y7160D01*
X15430*
Y7340*
X15530*
X15440Y6685D02*
G01Y6505D01*
X15340*
Y6685*
X15440*
X15265Y6680D02*
G01Y6500D01*
X15165*
Y6680*
X15265*
X15115D02*
G01Y6500D01*
X15015*
Y6680*
X15115*
X14985D02*
G01Y6500D01*
X14885*
Y6680*
X14985*
Y8025D02*
G01Y7845D01*
X14885*
Y8025*
X14985*
X16765Y8170D02*
G01Y8350D01*
X16865*
Y8170*
X16765*
X16285Y6970D02*
G01X16465D01*
Y6870*
X16285*
Y6970*
X17225Y6280D02*
G01Y6100D01*
X17125*
Y6280*
X17225*
X17125Y5895D02*
G01Y6075D01*
X17225*
Y5895*
X17125*
X16225Y6215D02*
G01X16045D01*
Y6315*
X16225*
Y6215*
X17230Y6960D02*
G01Y6780D01*
X17130*
Y6960*
X17230*
X17130Y6585D02*
G01Y6765D01*
X17230*
Y6585*
X17130*
X17225Y7590D02*
G01Y7410D01*
X17125*
Y7590*
X17225*
X17125Y7215D02*
G01Y7395D01*
X17225*
Y7215*
X17125*
X17225Y8250D02*
G01Y8070D01*
X17125*
Y8250*
X17225*
X17125Y7870D02*
G01Y8050D01*
X17225*
Y7870*
X17125*
Y8525D02*
G01Y8705D01*
X17225*
Y8525*
X17125*
X17225Y8905D02*
G01Y8725D01*
X17125*
Y8905*
X17225*
X17125Y9190D02*
G01Y9370D01*
X17225*
Y9190*
X17125*
X17225Y9570D02*
G01Y9390D01*
X17125*
Y9570*
X17225*
X15275Y8280D02*
G01Y8100D01*
X15175*
Y8280*
X15275*
X16125Y7095D02*
G01X16305D01*
Y6995*
X16125*
Y7095*
X17125Y6310D02*
G01Y6490D01*
X17225*
Y6310*
X17125*
Y6985D02*
G01Y7165D01*
X17225*
Y6985*
X17125*
Y7620D02*
G01Y7800D01*
X17225*
Y7620*
X17125*
Y8275D02*
G01Y8455D01*
X17225*
Y8275*
X17125*
Y8930D02*
G01Y9110D01*
X17225*
Y8930*
X17125*
Y9595D02*
G01Y9775D01*
X17225*
Y9595*
X17125*
X15140Y8280D02*
G01Y8100D01*
X15040*
Y8280*
X15140*
X16270Y8385D02*
G01Y8875D01*
X16940*
Y8385*
X16270*
X16235Y7770D02*
G01X15985D01*
Y8310*
X16235*
Y7770*
X15887Y8140D02*
G01Y7583D01*
X15888Y7580*
Y7507*
X15887Y7504*
Y7460*
X15463*
Y7504*
X15462Y7507*
Y7580*
X15463Y7583*
Y8140*
X15887*
M02*
