M48
INCH
T01C.084
T02C.07
T03C.04
T04C.01
;LEADER: 12 
;HEADER: 
;CODE  : ASCII 
;FILE  : CC1310LAUNCHPAD1-1-2.drl for  ... layers TOP and BOTTOM
;T01 Holesize 1. = 84.000000 Tolerance = +0.000000/-0.000000 PLATED MILS Quantity = 2
;T02 Holesize 2. = 70.000000 Tolerance = +0.000000/-0.000000 PLATED MILS Quantity = 3
;T03 Holesize 3. = 40.000000 Tolerance = +0.000000/-0.000000 PLATED MILS Quantity = 136
;T04 Holesize 4. = 10.000000 Tolerance = +0.000000/-0.000000 PLATED MILS Quantity = 24
%
G90
T01
X1556400Y0884200
X1602600Y0884200
T02
X1490200Y0858500
X1514000Y0858500
X1504000Y0842500
T03
X1509500Y0638500
R03X-0010000
X1555000Y0638500
R03X-0010000
X1480000Y0655500
R03Y0010000
X1480000Y0739000
R04Y-0010000
X1480000Y0759500
R06Y0010000
X1499500Y0889600
R02X0010000
X1519500Y0903400
R02X-0010000
X1591500Y0873500
R03X-0008000
X1510000Y0785000
R09Y-0010000
X1690000Y0695000
R09Y0010000
X1520000Y0785000
R09Y-0010000
X1680000Y0695000
R09Y0010000
X1690900Y0604000
R02X-0019900
X1553500Y0704500
R02Y-0010000
X1691000Y0676000
X1691000Y0628000
X1699000Y0652000
X1642000Y0676000
X1642000Y0628000
X1570000Y0638500
R02X0010000
X1765000Y0925500
X1765000Y0973500
X1757000Y0949500
X1814000Y0925500
X1814000Y0973500
X1765000Y0859500
X1765000Y0907500
X1757000Y0883500
X1814000Y0859500
X1814000Y0907500
X1849500Y0771900
R02Y-0019900
X1765000Y0794000
X1765000Y0842000
X1757000Y0818000
X1814000Y0794000
X1814000Y0842000
X1765000Y0729000
X1765000Y0777000
X1757000Y0753000
X1814000Y0729000
X1814000Y0777000
X1850500Y0639900
R02Y-0019900
X1765000Y0663000
X1765000Y0711000
X1757000Y0687000
X1814000Y0663000
X1814000Y0711000
X1850000Y0707400
R02Y-0019900
X1765000Y0596500
X1765000Y0644500
X1757000Y0620500
X1814000Y0596500
X1814000Y0644500
X1850500Y0837900
R02Y-0019900
X1850000Y0903900
R02Y-0019900
X1850000Y0968900
R02Y-0019900
T04
X1631700Y0738500
X1718000Y0663500
X1631700Y0728500
X1617500Y0626000
X1653300Y0758500
X1653300Y0733500
X1653300Y0738500
X1653300Y0753500
X1570000Y0801000
X1600000Y0791000
X1653300Y0743500
X1653300Y0748500
X1631700Y0733500
X1717500Y0594500
X1631700Y0753500
X1717500Y0857500
X1631700Y0743500
X1717500Y0726500
X1631700Y0758500
X1718000Y0792000
X1631700Y0748500
X1717500Y0923500
X1690000Y0695000
X1765000Y0711000
M30
