M48
INCH
T01C.024
T02C.04
T03C.06
;LEADER: 12 
;HEADER: 
;CODE  : ASCII 
;FILE  : CC1310LAUNCHPAD1-1-2.drl for board #Taaaacx44444.tmp ... layers TOP and BOTTOM
;T01 Holesize 1. = 24.000000 Tolerance = +0.000000/-0.000000 PLATED MILS Quantity = 30
;T02 Holesize 2. = 40.000000 Tolerance = +0.000000/-0.000000 PLATED MILS Quantity = 136
;T03 Holesize 3. = 60.000000 Tolerance = +0.000000/-0.000000 PLATED MILS Quantity = 5
%
G90
T01
X1624500Y0629000
X1709500Y0598500
X1690000Y0695000
X1709000Y0670000
X1779000Y0651500
X1772500Y0716500
X1769500Y0767500
X1765000Y0711000
X1708500Y0726000
X1669000Y0733500
X1665000Y0738500
X1664000Y0743500
X1662500Y0748500
X1661500Y0755000
X1639500Y0738000
X1639500Y0743500
X1639500Y0732000
X1624500Y0728500
X1623000Y0758500
X1621000Y0753500
X1620447Y0748530
X1570000Y0801000
X1600000Y0791000
X1653300Y0771700
X1708000Y0802000
X1757500Y0834500
X1709500Y0857500
X1776500Y0906500
X1781000Y0973500
X1706000Y0923500
T02
X1499500Y0638500
X1479500Y0638500
X1489500Y0638500
X1480000Y0655500
X1480000Y0665500
R02Y0010000
X1480000Y0699000
R04Y0010000
X1480000Y0759500
R06Y0010000
X1499500Y0889600
X1499500Y0903400
X1519500Y0903400
X1509500Y0903400
X1509500Y0889600
X1519500Y0889600
X1591500Y0873500
R03X-0008000
X1510000Y0785000
X1520000Y0785000
X1510000Y0775000
X1520000Y0775000
X1520000Y0765000
X1510000Y0765000
X1510000Y0755000
X1520000Y0755000
X1510000Y0745000
X1520000Y0745000
X1510000Y0735000
X1520000Y0735000
X1520000Y0725000
X1510000Y0725000
X1510000Y0715000
X1520000Y0715000
X1520000Y0705000
X1510000Y0705000
X1553500Y0704500
X1520000Y0695000
X1510000Y0695000
X1553500Y0694500
X1553500Y0684500
X1545000Y0638500
X1535000Y0638500
X1509500Y0638500
X1525000Y0638500
X1555000Y0638500
X1570000Y0638500
R02X0010000
X1651100Y0604000
X1690900Y0604000
X1671000Y0604000
X1642000Y0628000
X1691000Y0628000
X1699000Y0652000
X1691000Y0676000
X1642000Y0676000
X1690000Y0695000
X1680000Y0695000
X1680000Y0705000
X1690000Y0705000
X1690000Y0715000
X1680000Y0715000
X1690000Y0725000
X1680000Y0725000
X1680000Y0735000
X1690000Y0735000
X1690000Y0745000
X1680000Y0745000
X1690000Y0755000
X1680000Y0755000
X1690000Y0765000
X1680000Y0765000
X1680000Y0775000
X1690000Y0775000
X1680000Y0785000
X1690000Y0785000
X1765000Y0596500
X1757000Y0620500
X1765000Y0644500
X1765000Y0663000
X1757000Y0687000
X1765000Y0711000
X1765000Y0729000
X1757000Y0753000
X1765000Y0777000
X1765000Y0794000
X1757000Y0818000
X1765000Y0842000
X1765000Y0859500
X1757000Y0883500
X1765000Y0907500
X1765000Y0925500
X1757000Y0949500
X1765000Y0973500
X1814000Y0973500
X1850000Y0968900
X1850000Y0949000
X1850000Y0929100
X1814000Y0925500
X1814000Y0907500
X1850000Y0903900
R02Y-0019900
X1814000Y0859500
X1814000Y0842000
X1850500Y0837900
R02Y-0019900
X1814000Y0794000
X1814000Y0777000
X1849500Y0771900
R02Y-0019900
X1814000Y0729000
X1814000Y0711000
X1850000Y0707400
R02Y-0019900
X1814000Y0663000
X1814000Y0644500
X1850500Y0639900
R02Y-0019900
X1814000Y0596500
T03
X1490200Y0859500
X1504000Y0843500
X1514000Y0859500
X1556400Y0884200
X1602600Y0884200
M30
