G04 ================== begin FILE IDENTIFICATION RECORD ==================*
G04 Layout Name:  LAUNCHXL-CC1310.brd*
G04 Film Name:    LAUNCHXL-CC1310_soldmask_bottom*
G04 File Format:  Gerber RS274X*
G04 File Origin:  Cadence Allegro 16.6-S019*
G04 Origin Date:  Thu Jan 21 09:47:58 2016*
G04 *
G04 Layer:  PACKAGE GEOMETRY/SOLDERMASK_BOTTOM*
G04 Layer:  VIA CLASS/SOLDERMASK_BOTTOM*
G04 Layer:  PIN/SOLDERMASK_BOTTOM*
G04 Layer:  BOARD GEOMETRY/OUTLINE*
G04 *
G04 Offset:    (0.000 0.000)*
G04 Mirror:    No*
G04 Mode:      Positive*
G04 Rotation:  0*
G04 FullContactRelief:  No*
G04 UndefLineWidth:     0.099*
G04 ================== end FILE IDENTIFICATION RECORD ====================*
%FSLAX25Y25*MOMM*%
%IR0*IPPOS*OFA0.00000B0.00000*MIA0B0*SFA1.00000B1.00000*%
%ADD14C,1.1*%
%ADD10C,1.42*%
%ADD11C,3.401*%
%ADD12C,1.8*%
%ADD17C,3.95*%
%ADD15C,1.199*%
%ADD13C,1.849*%
%ADD18O,1.55X2.25*%
%ADD16C,.95*%
%ADD19C,.599*%
%ADD20C,.2*%
%ADD21C,.099*%
%ADD22C,.15*%
G75*
%LPD*%
G75*
G36*
G01X20100000Y25510000D02*
X20050000Y25730000D01*
X20050100Y26010000D01*
X20950000D01*
Y25510000D01*
X20100000D01*
G37*
G54D10*
X20180000Y20720000D03*
X20560000Y29400000D03*
X25640000Y20840000D03*
G54D20*
G01X25300000Y20810000D02*
G02X25450000Y20660000I0J-150000D01*
G02X25300000Y20510000I-150000J0D01*
G02X25150000Y20660000I0J150000D01*
G02X25300000Y20810000I150000J0D01*
G01X25190000Y20560000D02*
X25400000Y20770000D01*
G54D11*
X20250000Y20250000D03*
X22250000Y22280000D03*
X23750000D03*
X25580000Y20250000D03*
G54D21*
G01X20146200Y20000000D02*
X25703800D01*
G03X25850000Y20146200I0J146200D01*
G01Y24450000D01*
G03X25740000Y24765000I-506023J0D01*
G02X25630000Y25080000I396023J315000D01*
G02X25740000Y25395000I506023J0D01*
G03X25850000Y25710000I-396023J315000D01*
G01Y29383800D01*
G03X25703800Y29530000I-146200J0D01*
G01X21580000D01*
Y29410000D01*
X21420000D01*
Y29200000D01*
X21330000D01*
Y29410000D01*
X20950000D01*
Y29200000D01*
X20860000D01*
Y29410000D01*
X20700000D01*
Y29530000D01*
X20146200D01*
G03X20000000Y29383800I0J-146200D01*
G01Y25710000D01*
G03X20110000Y25395000I506023J0D01*
G02X20220000Y25080000I-396023J-315000D01*
G02X20110000Y24765000I-506023J0D01*
G03X20000000Y24450000I396023J-315000D01*
G01Y20146200D01*
G03X20146200Y20000000I146200J0D01*
G54D12*
X20892300Y22160000D03*
Y22414000D03*
X20638300Y22160000D03*
Y22414000D03*
X20640000Y21650000D03*
Y21396000D03*
Y21142000D03*
X20892300Y22668000D03*
Y22922000D03*
Y23176000D03*
Y23430000D03*
Y23684000D03*
Y23938000D03*
Y24192000D03*
X20638300Y22668000D03*
Y22922000D03*
Y23176000D03*
Y23430000D03*
Y23684000D03*
Y23938000D03*
Y24192000D03*
X20892300Y24446000D03*
X20638300D03*
X21994000Y23584000D03*
X21740000D03*
X21994000Y23330000D03*
X21740000D03*
X21146300Y25462000D03*
X21400300D03*
X21654300D03*
X21908300D03*
X22162300D03*
X22416300D03*
X21146300Y25716000D03*
X21400300D03*
X21654300D03*
X21908300D03*
X22162300D03*
X22416300D03*
X22670300Y25462000D03*
X22924300D03*
X23178300D03*
X23432300D03*
X23686300D03*
X22670300Y25716000D03*
X22924300D03*
X23178300D03*
X23432300D03*
X23686300D03*
X25212300Y22160000D03*
Y22414000D03*
X24958300Y22160000D03*
Y22414000D03*
X25210000Y21650000D03*
Y21396000D03*
Y21142000D03*
X25212300Y22668000D03*
Y22922000D03*
Y23176000D03*
Y23430000D03*
Y23684000D03*
Y23938000D03*
Y24192000D03*
X24958300Y22668000D03*
Y22922000D03*
Y23176000D03*
Y23430000D03*
Y23684000D03*
Y23938000D03*
Y24192000D03*
X25212300Y24446000D03*
X24958300D03*
X24990000Y25462000D03*
Y25716000D03*
Y25970000D03*
G54D22*
G01X25366000Y20600000D02*
Y20727000D01*
X25332300D01*
X25321100Y20720600D01*
X25312700Y20705800D01*
X25309900Y20688900D01*
X25312700Y20672000D01*
X25319700Y20659300D01*
X25332300Y20652900D01*
X25366000D01*
G01X25266100Y20600000D02*
Y20727000D01*
G01Y20663500D02*
X25259100Y20676200D01*
X25250700Y20682500D01*
X25242300Y20684700D01*
X25229600Y20680400D01*
X25221200Y20672000D01*
X25215600Y20657100D01*
Y20640200D01*
X25218400Y20623300D01*
X25224000Y20610600D01*
X25233800Y20602100D01*
X25242300Y20600000D01*
X25250700Y20602100D01*
X25259100Y20608500D01*
X25266100Y20619000D01*
G54D13*
X20300000Y25760000D03*
G54D14*
X20260000Y24967100D03*
Y25197100D03*
X21927100Y29280000D03*
X22157100D03*
X25590000Y25202900D03*
Y24972900D03*
G54D15*
X20375000Y28855000D03*
X20172000D03*
X20273500Y28093000D03*
G54D16*
X20337000Y28728000D03*
Y28601000D03*
Y28474000D03*
Y28347000D03*
Y28220000D03*
X20210000Y28728000D03*
Y28601000D03*
Y28474000D03*
Y28347000D03*
Y28220000D03*
G54D17*
X20250000Y29270000D03*
X25580000D03*
G54D18*
X20745000Y29265000D03*
X21535000D03*
G54D19*
X22460000Y24120000D03*
Y24220000D03*
Y24320000D03*
Y24420000D03*
Y24520000D03*
X21320000Y28510000D03*
Y28600000D03*
Y28420000D03*
X22560000Y24120000D03*
X22660000D03*
X22760000D03*
X22860000D03*
Y24220000D03*
X22760000D03*
X22660000D03*
X22560000D03*
X22860000Y24320000D03*
X22760000D03*
X22660000D03*
X22560000D03*
X22860000Y24420000D03*
X22760000D03*
X22660000D03*
X22560000D03*
X22860000Y24520000D03*
X22760000D03*
X22660000D03*
X22560000D03*
M02*
