G04 ================== begin FILE IDENTIFICATION RECORD ==================*
G04 Layout Name:  LAUNCHXL-CC1310.brd*
G04 Film Name:    LAUNCHXL-CC1310_paste_bottom*
G04 File Format:  Gerber RS274X*
G04 File Origin:  Cadence Allegro 16.6-S019*
G04 Origin Date:  Thu Jan 21 09:47:58 2016*
G04 *
G04 Layer:  PIN/FILMMASKBOTTOM*
G04 Layer:  BOARD GEOMETRY/OUTLINE*
G04 *
G04 Offset:    (0.000 0.000)*
G04 Mirror:    No*
G04 Mode:      Positive*
G04 Rotation:  0*
G04 FullContactRelief:  No*
G04 UndefLineWidth:     0.099*
G04 ================== end FILE IDENTIFICATION RECORD ====================*
%FSLAX25Y25*MOMM*%
%IR0*IPPOS*OFA0.00000B0.00000*MIA0B0*SFA1.00000B1.00000*%
%ADD10C,1.27*%
%ADD11C,.8*%
%ADD12C,.099*%
G75*
%LPD*%
G75*
G54D10*
X20180000Y20720000D03*
X20560000Y29400000D03*
X25640000Y20840000D03*
G54D11*
X20337000Y28728000D03*
Y28601000D03*
Y28474000D03*
Y28347000D03*
Y28220000D03*
X20210000Y28728000D03*
Y28601000D03*
Y28474000D03*
Y28347000D03*
Y28220000D03*
G54D12*
G01X20146200Y20000000D02*
X25703800D01*
G03X25850000Y20146200I0J146200D01*
G01Y24450000D01*
G03X25740000Y24765000I-506023J0D01*
G02X25630000Y25080000I396023J315000D01*
G02X25740000Y25395000I506023J0D01*
G03X25850000Y25710000I-396023J315000D01*
G01Y29383800D01*
G03X25703800Y29530000I-146200J0D01*
G01X21580000D01*
Y29410000D01*
X21420000D01*
Y29200000D01*
X21330000D01*
Y29410000D01*
X20950000D01*
Y29200000D01*
X20860000D01*
Y29410000D01*
X20700000D01*
Y29530000D01*
X20146200D01*
G03X20000000Y29383800I0J-146200D01*
G01Y25710000D01*
G03X20110000Y25395000I506023J0D01*
G02X20220000Y25080000I-396023J-315000D01*
G02X20110000Y24765000I-506023J0D01*
G03X20000000Y24450000I396023J-315000D01*
G01Y20146200D01*
G03X20146200Y20000000I146200J0D01*
M02*
