G04 ================== begin FILE IDENTIFICATION RECORD ==================*
G04 Layout Name:  LAUNCHXL-CC1310.brd*
G04 Film Name:    LAUNCHXL-CC1310_paste_top*
G04 File Format:  Gerber RS274X*
G04 File Origin:  Cadence Allegro 16.6-S019*
G04 Origin Date:  Thu Jan 21 09:47:58 2016*
G04 *
G04 Layer:  PIN/FILMMASKTOP*
G04 Layer:  BOARD GEOMETRY/OUTLINE*
G04 *
G04 Offset:    (0.000 0.000)*
G04 Mirror:    No*
G04 Mode:      Positive*
G04 Rotation:  0*
G04 FullContactRelief:  No*
G04 UndefLineWidth:     0.099*
G04 ================== end FILE IDENTIFICATION RECORD ====================*
%FSLAX25Y25*MOMM*%
%IR0*IPPOS*OFA0.00000B0.00000*MIA0B0*SFA1.00000B1.00000*%
%AMMACRO57*
4,1,41,-.5,0.0,
-.5,-.256,
-.49672,-.293989,
-.486894,-.330832,
-.470819,-.365409,
-.448983,-.396669,
-.422052,-.423662,
-.390842,-.445569,
-.356303,-.461723,
-.319483,-.471634,
-.282,-.475,
.282,-.475,
.319974,-.471546,
.356771,-.461551,
.391274,-.445318,
.422434,-.42334,
.449304,-.396285,
.471067,-.364976,
.487063,-.330363,
.496806,-.293498,
.5,-.256,
.5,.256,
.49672,.293989,
.486894,.330832,
.470819,.365409,
.448983,.396669,
.422052,.423662,
.390842,.445569,
.356303,.461723,
.319483,.471634,
.282,.475,
-.282,.475,
-.319974,.471546,
-.356771,.461551,
-.391274,.445318,
-.422434,.42334,
-.449304,.396285,
-.471067,.364976,
-.487063,.330363,
-.496806,.293498,
-.5,.256,
-.5,0.0,
0.0*
%
%ADD57MACRO57*%
%AMMACRO56*
4,1,41,0.0,.5,
-.256,.5,
-.293989,.49672,
-.330832,.486894,
-.365409,.470819,
-.396669,.448983,
-.423662,.422052,
-.445569,.390842,
-.461723,.356303,
-.471634,.319483,
-.475,.282,
-.475,-.282,
-.471546,-.319974,
-.461551,-.356771,
-.445318,-.391274,
-.42334,-.422434,
-.396285,-.449304,
-.364976,-.471067,
-.330363,-.487063,
-.293498,-.496806,
-.256,-.5,
.256,-.5,
.293989,-.49672,
.330832,-.486894,
.365409,-.470819,
.396669,-.448983,
.423662,-.422052,
.445569,-.390842,
.461723,-.356303,
.471634,-.319483,
.475,-.282,
.475,.282,
.471546,.319974,
.461551,.356771,
.445318,.391274,
.42334,.422434,
.396285,.449304,
.364976,.471067,
.330363,.487063,
.293498,.496806,
.256,.5,
0.0,.5,
0.0*
%
%ADD56MACRO56*%
%AMMACRO54*
4,1,22,-.15,.4,
-.15,-.325,
-.148861,-.338024,
-.145477,-.350652,
-.139952,-.3625,
-.132453,-.373209,
-.123209,-.382453,
-.1125,-.389952,
-.100652,-.395477,
-.088024,-.398861,
-.075,-.4,
.075,-.4,
.088024,-.398861,
.100652,-.395477,
.1125,-.389952,
.123209,-.382453,
.132453,-.373209,
.139952,-.3625,
.145477,-.350652,
.148861,-.338024,
.15,-.325,
.15,.4,
-.15,.4,
0.0*
%
%ADD54MACRO54*%
%AMMACRO51*
4,1,22,-.4,-.15,
.325,-.15,
.338024,-.148861,
.350652,-.145477,
.3625,-.139952,
.373209,-.132453,
.382453,-.123209,
.389952,-.1125,
.395477,-.100652,
.398861,-.088024,
.4,-.075,
.4,.075,
.398861,.088024,
.395477,.100652,
.389952,.1125,
.382453,.123209,
.373209,.132453,
.3625,.139952,
.350652,.145477,
.338024,.148861,
.325,.15,
-.4,.15,
-.4,-.15,
0.0*
%
%ADD51MACRO51*%
%ADD16O,1.501X.201*%
%ADD17O,.201X1.501*%
%AMMACRO29*
4,1,44,.45,.188,
.45,-.188,
.447175,-.22062,
.438729,-.252253,
.424918,-.281939,
.406162,-.308776,
.38303,-.331949,
.356227,-.350752,
.326565,-.364615,
.294946,-.373118,
.262332,-.376,
.262,-.376,
-.262,-.376,
-.29462,-.373175,
-.326253,-.364729,
-.355939,-.350918,
-.382776,-.332162,
-.405949,-.30903,
-.424752,-.282227,
-.438615,-.252565,
-.447118,-.220946,
-.45,-.188332,
-.45,-.188,
-.45,.188,
-.447175,.22062,
-.438729,.252253,
-.424918,.281939,
-.406162,.308776,
-.38303,.331949,
-.356227,.350752,
-.326565,.364615,
-.294946,.373118,
-.262332,.376,
-.262,.376,
.262,.376,
.29462,.373175,
.326253,.364729,
.355939,.350918,
.382776,.332162,
.405949,.30903,
.424752,.282227,
.438615,.252565,
.447118,.220946,
.45,.188332,
.45,.188,
0.0*
%
%ADD29MACRO29*%
%ADD43R,1.7X.3*%
%AMMACRO22*
4,1,45,.376,0.0,
.376,.206,
.373522,.235432,
.365972,.263987,
.353577,.290796,
.336715,.315046,
.315899,.336,
.29176,.353021,
.265032,.365591,
.236528,.373329,
.207113,.376,
.206,.376,
-.206,.376,
-.235432,.373522,
-.263987,.365972,
-.290796,.353577,
-.315046,.336715,
-.336,.315899,
-.353021,.29176,
-.365591,.265032,
-.373329,.236528,
-.376,.207113,
-.376,.206,
-.376,-.206,
-.373522,-.235432,
-.365972,-.263987,
-.353577,-.290796,
-.336715,-.315046,
-.315899,-.336,
-.29176,-.353021,
-.265032,-.365591,
-.236528,-.373329,
-.207113,-.376,
-.206,-.376,
.206,-.376,
.235432,-.373522,
.263987,-.365972,
.290796,-.353577,
.315046,-.336715,
.336,-.315899,
.353021,-.29176,
.365591,-.265032,
.373329,-.236528,
.376,-.207113,
.376,-.206,
.376,0.0,
0.0*
%
%ADD22MACRO22*%
%ADD50O,.551X2.05*%
%ADD10C,1.27*%
%AMMACRO46*
4,1,14,.85,.3,
.85,-.3,
-.85,-.3,
-.85,.3,
-.49,.3,
-.395732,.222508,
-.28944,.162564,
-.174353,.121987,
-.053969,.102012,
.068055,.103244,
.188012,.125647,
.302255,.16854,
.407315,.230619,
.49,.3,
.85,.3,
0.0*
%
%ADD46MACRO46*%
%AMMACRO59*
4,1,45,0.0,.7,
-.212,.7,
-.261931,.695719,
-.310361,.682833,
-.355817,.661732,
-.396918,.633059,
-.432416,.597684,
-.461232,.556683,
-.482491,.511301,
-.495545,.462916,
-.5,.413,
-.5,.412,
-.5,-.412,
-.495719,-.461931,
-.482833,-.510361,
-.461732,-.555817,
-.433059,-.596918,
-.397684,-.632416,
-.356683,-.661232,
-.311301,-.682491,
-.262916,-.695545,
-.213,-.7,
-.212,-.7,
.212,-.7,
.261931,-.695719,
.310361,-.682833,
.355817,-.661732,
.396918,-.633059,
.432416,-.597684,
.461232,-.556683,
.482491,-.511301,
.495545,-.462916,
.5,-.413,
.5,-.412,
.5,.412,
.495719,.461931,
.482833,.510361,
.461732,.555817,
.433059,.596918,
.397684,.632416,
.356683,.661232,
.311301,.682491,
.262916,.695545,
.213,.7,
.212,.7,
0.0,.7,
0.0*
%
%ADD59MACRO59*%
%AMMACRO41*
4,1,45,-.7,0.0,
-.7,-.212,
-.695719,-.261931,
-.682833,-.310361,
-.661732,-.355817,
-.633059,-.396918,
-.597684,-.432416,
-.556683,-.461232,
-.511301,-.482491,
-.462916,-.495545,
-.413,-.5,
-.412,-.5,
.412,-.5,
.461931,-.495719,
.510361,-.482833,
.555817,-.461732,
.596918,-.433059,
.632416,-.397684,
.661232,-.356683,
.682491,-.311301,
.695545,-.262916,
.7,-.213,
.7,-.212,
.7,.212,
.695719,.261931,
.682833,.310361,
.661732,.355817,
.633059,.396918,
.597684,.432416,
.556683,.461232,
.511301,.482491,
.462916,.495545,
.413,.5,
.412,.5,
-.412,.5,
-.461931,.495719,
-.510361,.482833,
-.555817,.461732,
-.596918,.433059,
-.632416,.397684,
-.661232,.356683,
-.682491,.311301,
-.695545,.262916,
-.7,.213,
-.7,.212,
-.7,0.0,
0.0*
%
%ADD41MACRO41*%
%ADD26R,5.25X5.25*%
%AMMACRO58*
4,1,41,.65,0.0,
.65,.225,
.646582,.264071,
.636431,.301955,
.619856,.3375,
.59736,.369627,
.569627,.39736,
.5375,.419856,
.501955,.436431,
.464071,.446582,
.425,.45,
-.425,.45,
-.464071,.446582,
-.501955,.436431,
-.5375,.419856,
-.569627,.39736,
-.59736,.369627,
-.619856,.3375,
-.636431,.301955,
-.646582,.264071,
-.65,.225,
-.65,-.225,
-.646582,-.264071,
-.636431,-.301955,
-.619856,-.3375,
-.59736,-.369627,
-.569627,-.39736,
-.5375,-.419856,
-.501955,-.436431,
-.464071,-.446582,
-.425,-.45,
.425,-.45,
.464071,-.446582,
.501955,-.436431,
.5375,-.419856,
.569627,-.39736,
.59736,-.369627,
.619856,-.3375,
.636431,-.301955,
.646582,-.264071,
.65,-.225,
.65,0.0,
0.0*
%
%ADD58MACRO58*%
%AMMACRO33*
4,1,41,0.0,.325,
-.05,.325,
-.058682,.32424,
-.067101,.321985,
-.075,.318301,
-.082139,.313302,
-.088302,.307139,
-.093301,.3,
-.096985,.292101,
-.09924,.283682,
-.1,.275,
-.1,-.275,
-.09924,-.283682,
-.096985,-.292101,
-.093301,-.3,
-.088302,-.307139,
-.082139,-.313302,
-.075,-.318301,
-.067101,-.321985,
-.058682,-.32424,
-.05,-.325,
.05,-.325,
.058682,-.32424,
.067101,-.321985,
.075,-.318301,
.082139,-.313302,
.088302,-.307139,
.093301,-.3,
.096985,-.292101,
.09924,-.283682,
.1,-.275,
.1,.275,
.09924,.283682,
.096985,.292101,
.093301,.3,
.088302,.307139,
.082139,.313302,
.075,.318301,
.067101,.321985,
.058682,.32424,
.05,.325,
0.0,.325,
0.0*
%
%ADD33MACRO33*%
%AMMACRO36*
4,1,44,0.0,-.7,
.112,-.7,
.131543,-.698378,
.150507,-.693386,
.168317,-.685178,
.184431,-.674001,
.198359,-.660197,
.209678,-.644183,
.218044,-.626447,
.223204,-.607528,
.225,-.588,
.225,.588,
.223204,.607528,
.218044,.626447,
.209678,.644183,
.198359,.660197,
.184431,.674001,
.168317,.685178,
.150507,.693386,
.131543,.698378,
.112,.7,
.112,.7,
-.112,.7,
-.131543,.698378,
-.150507,.693386,
-.168317,.685178,
-.184431,.674001,
-.198359,.660197,
-.209678,.644183,
-.218044,.626447,
-.223204,.607528,
-.225,.588,
-.225,.588,
-.225,-.588,
-.223204,-.607528,
-.218044,-.626447,
-.209678,-.644183,
-.198359,-.660197,
-.184431,-.674001,
-.168317,-.685178,
-.150507,-.693386,
-.131543,-.698378,
-.112,-.7,
-.112,-.7,
0.0,-.7,
0.0*
%
%ADD36MACRO36*%
%AMMACRO30*
4,1,41,.5,0.0,
.5,.2,
.495822,.247753,
.483415,.294056,
.463157,.3375,
.435662,.376767,
.401767,.410662,
.3625,.438157,
.319056,.458415,
.272753,.470822,
.225,.475,
-.225,.475,
-.272753,.470822,
-.319056,.458415,
-.3625,.438157,
-.401767,.410662,
-.435662,.376767,
-.463157,.3375,
-.483415,.294056,
-.495822,.247753,
-.5,.2,
-.5,-.2,
-.495822,-.247753,
-.483415,-.294056,
-.463157,-.3375,
-.435662,-.376767,
-.401767,-.410662,
-.3625,-.438157,
-.319056,-.458415,
-.272753,-.470822,
-.225,-.475,
.225,-.475,
.272753,-.470822,
.319056,-.458415,
.3625,-.438157,
.401767,-.410662,
.435662,-.376767,
.463157,-.3375,
.483415,-.294056,
.495822,-.247753,
.5,-.2,
.5,0.0,
0.0*
%
%ADD30MACRO30*%
%AMMACRO20*
4,1,45,0.0,.701,
-.312,.701,
-.361916,.696546,
-.410301,.683492,
-.455683,.662235,
-.496685,.63342,
-.53206,.597922,
-.560734,.556821,
-.581835,.511366,
-.594722,.462937,
-.599003,.413006,
-.599,.412,
-.599,-.412,
-.594893,-.461946,
-.582175,-.51042,
-.561233,-.555949,
-.532704,-.59715,
-.497453,-.632771,
-.456552,-.661729,
-.411244,-.683145,
-.362906,-.696368,
-.313006,-.700997,
-.312,-.701,
.312,-.701,
.361916,-.696546,
.410301,-.683492,
.455683,-.662235,
.496685,-.63342,
.53206,-.597922,
.560734,-.556821,
.581835,-.511366,
.594722,-.462937,
.599003,-.413006,
.599,-.412,
.599,.412,
.594893,.461946,
.582175,.51042,
.561233,.555949,
.532704,.59715,
.497453,.632771,
.456552,.661729,
.411244,.683145,
.362906,.696368,
.313006,.700997,
.312,.701,
0.0,.701,
0.0*
%
%ADD20MACRO20*%
%AMMACRO49*
4,1,44,-.107,-.263,
-.088532,-.278907,
-.067371,-.291062,
-.044421,-.299358,
-.020379,-.303543,
.004025,-.303489,
.028048,-.299198,
.050962,-.290801,
.072069,-.278552,
.090728,-.262825,
.091,-.263,
.263,-.091,
.278514,-.072124,
.290772,-.051023,
.29918,-.028113,
.303483,-.004092,
.303548,.020312,
.299375,.044356,
.291091,.06731,
.278946,.088477,
.26331,.107213,
.263,.107,
.107,.263,
.088532,.278907,
.067371,.291062,
.044421,.299358,
.020379,.303543,
-.004025,.303489,
-.028048,.299198,
-.050962,.290801,
-.072069,.278552,
-.090728,.262825,
-.091,.263,
-.263,.091,
-.278514,.072124,
-.290772,.051023,
-.29918,.028113,
-.303483,.004092,
-.303548,-.020312,
-.299375,-.044356,
-.291091,-.06731,
-.278946,-.088477,
-.26331,-.107213,
-.263,-.107,
-.107,-.263,
0.0*
%
%ADD49MACRO49*%
%AMMACRO48*
4,1,44,.107,.263,
.088532,.278907,
.067371,.291062,
.044421,.299358,
.020379,.303543,
-.004025,.303489,
-.028048,.299198,
-.050962,.290801,
-.072069,.278552,
-.090728,.262825,
-.091,.263,
-.263,.091,
-.278514,.072124,
-.290772,.051023,
-.29918,.028113,
-.303483,.004092,
-.303548,-.020312,
-.299375,-.044356,
-.291091,-.06731,
-.278946,-.088477,
-.26331,-.107213,
-.263,-.107,
-.107,-.263,
-.088532,-.278907,
-.067371,-.291062,
-.044421,-.299358,
-.020379,-.303543,
.004025,-.303489,
.028048,-.299198,
.050962,-.290801,
.072069,-.278552,
.090728,-.262825,
.091,-.263,
.263,-.091,
.278514,-.072124,
.290772,-.051023,
.29918,-.028113,
.303483,-.004092,
.303548,.020312,
.299375,.044356,
.291091,.06731,
.278946,.088477,
.26331,.107213,
.263,.107,
.107,.263,
0.0*
%
%ADD48MACRO48*%
%AMMACRO19*
4,1,40,-.11,.262,
-.134311,.259873,
-.157883,.253557,
-.18,.243244,
-.19999,.229246,
-.217246,.21199,
-.231244,.192,
-.241557,.169883,
-.247873,.146311,
-.25,.122,
-.25,-.122,
-.247873,-.146311,
-.241557,-.169883,
-.231244,-.192,
-.217246,-.21199,
-.19999,-.229246,
-.18,-.243244,
-.157883,-.253557,
-.134311,-.259873,
-.11,-.262,
.11,-.262,
.134311,-.259873,
.157883,-.253557,
.18,-.243244,
.19999,-.229246,
.217246,-.21199,
.231244,-.192,
.241557,-.169883,
.247873,-.146311,
.25,-.122,
.25,.122,
.247873,.146311,
.241557,.169883,
.231244,.192,
.217246,.21199,
.19999,.229246,
.18,.243244,
.157883,.253557,
.134311,.259873,
.11,.262,
-.11,.262,
0.0*
%
%ADD19MACRO19*%
%AMMACRO14*
4,1,40,-.262,-.11,
-.259873,-.134311,
-.253557,-.157883,
-.243244,-.18,
-.229246,-.19999,
-.21199,-.217246,
-.192,-.231244,
-.169883,-.241557,
-.146311,-.247873,
-.122,-.25,
.122,-.25,
.146311,-.247873,
.169883,-.241557,
.192,-.231244,
.21199,-.217246,
.229246,-.19999,
.243244,-.18,
.253557,-.157883,
.259873,-.134311,
.262,-.11,
.262,.11,
.259873,.134311,
.253557,.157883,
.243244,.18,
.229246,.19999,
.21199,.217246,
.192,.231244,
.169883,.241557,
.146311,.247873,
.122,.25,
-.122,.25,
-.146311,.247873,
-.169883,.241557,
-.192,.231244,
-.21199,.217246,
-.229246,.19999,
-.243244,.18,
-.253557,.157883,
-.259873,.134311,
-.262,.11,
-.262,-.11,
0.0*
%
%ADD14MACRO14*%
%AMMACRO28*
4,1,41,0.0,.45,
-.15,.45,
-.189071,.446582,
-.226955,.436431,
-.2625,.419856,
-.294627,.39736,
-.32236,.369627,
-.344856,.3375,
-.361431,.301955,
-.371582,.264071,
-.375,.225,
-.375,-.225,
-.371582,-.264071,
-.361431,-.301955,
-.344856,-.3375,
-.32236,-.369627,
-.294627,-.39736,
-.2625,-.419856,
-.226955,-.436431,
-.189071,-.446582,
-.15,-.45,
.15,-.45,
.189071,-.446582,
.226955,-.436431,
.2625,-.419856,
.294627,-.39736,
.32236,-.369627,
.344856,-.3375,
.361431,-.301955,
.371582,-.264071,
.375,-.225,
.375,.225,
.371582,.264071,
.361431,.301955,
.344856,.3375,
.32236,.369627,
.294627,.39736,
.2625,.419856,
.226955,.436431,
.189071,.446582,
.15,.45,
0.0,.45,
0.0*
%
%ADD28MACRO28*%
%AMMACRO23*
4,1,45,0.0,.625,
-.262,.625,
-.307658,.62121,
-.351964,.609549,
-.393572,.590371,
-.431218,.56426,
-.463757,.532008,
-.490202,.494596,
-.509749,.45316,
-.521803,.40896,
-.525999,.363337,
-.526,.363,
-.526,-.363,
-.521863,-.408628,
-.509865,-.452844,
-.490372,-.494305,
-.463975,-.531751,
-.431477,-.564044,
-.393865,-.590204,
-.352281,-.609435,
-.30799,-.621153,
-.262337,-.625001,
-.262,-.625,
.262,-.625,
.307658,-.62121,
.351964,-.609549,
.393572,-.590371,
.431218,-.56426,
.463757,-.532008,
.490202,-.494596,
.509749,-.45316,
.521803,-.40896,
.525999,-.363337,
.526,-.363,
.526,.363,
.521863,.408628,
.509865,.452844,
.490372,.494305,
.463975,.531751,
.431477,.564044,
.393865,.590204,
.352281,.609435,
.30799,.621153,
.262337,.625001,
.262,.625,
0.0,.625,
0.0*
%
%ADD23MACRO23*%
%AMMACRO55*
4,1,41,.5,0.0,
.5,.256,
.49672,.293989,
.486894,.330832,
.470819,.365409,
.448983,.396669,
.422052,.423662,
.390842,.445569,
.356303,.461723,
.319483,.471634,
.282,.475,
-.282,.475,
-.319974,.471546,
-.356771,.461551,
-.391274,.445318,
-.422434,.42334,
-.449304,.396285,
-.471067,.364976,
-.487063,.330363,
-.496806,.293498,
-.5,.256,
-.5,-.256,
-.49672,-.293989,
-.486894,-.330832,
-.470819,-.365409,
-.448983,-.396669,
-.422052,-.423662,
-.390842,-.445569,
-.356303,-.461723,
-.319483,-.471634,
-.282,-.475,
.282,-.475,
.319974,-.471546,
.356771,-.461551,
.391274,-.445318,
.422434,-.42334,
.449304,-.396285,
.471067,-.364976,
.487063,-.330363,
.496806,-.293498,
.5,-.256,
.5,0.0,
0.0*
%
%ADD55MACRO55*%
%AMMACRO37*
4,1,45,-.375,0.0,
-.375,-.088,
-.373964,-.098845,
-.37106,-.109346,
-.366377,-.119183,
-.360057,-.128057,
-.352292,-.135699,
-.343318,-.141876,
-.333407,-.146402,
-.322862,-.149137,
-.312001,-.15,
-.312,-.15,
.312,-.15,
.322861,-.149137,
.333406,-.146402,
.343317,-.141877,
.352291,-.1357,
.360056,-.128058,
.366376,-.119184,
.37106,-.109347,
.373964,-.098847,
.375,-.088001,
.375,-.088,
.375,.088,
.373964,.098845,
.37106,.109346,
.366377,.119183,
.360057,.128057,
.352292,.135699,
.343318,.141876,
.333407,.146402,
.322862,.149137,
.312001,.15,
.312,.15,
-.312,.15,
-.322861,.149137,
-.333406,.146402,
-.343317,.141877,
-.352291,.1357,
-.360056,.128058,
-.366376,.119184,
-.37106,.109347,
-.373964,.098847,
-.375,.088001,
-.375,.088,
-.375,0.0,
0.0*
%
%ADD37MACRO37*%
%AMMACRO52*
4,1,22,.4,.15,
-.325,.15,
-.338024,.148861,
-.350652,.145477,
-.3625,.139952,
-.373209,.132453,
-.382453,.123209,
-.389952,.1125,
-.395477,.100652,
-.398861,.088024,
-.4,.075,
-.4,-.075,
-.398861,-.088024,
-.395477,-.100652,
-.389952,-.1125,
-.382453,-.123209,
-.373209,-.132453,
-.3625,-.139952,
-.350652,-.145477,
-.338024,-.148861,
-.325,-.15,
.4,-.15,
.4,.15,
0.0*
%
%ADD52MACRO52*%
%AMMACRO53*
4,1,22,.15,-.4,
.15,.325,
.148861,.338024,
.145477,.350652,
.139952,.3625,
.132453,.373209,
.123209,.382453,
.1125,.389952,
.100652,.395477,
.088024,.398861,
.075,.4,
-.075,.4,
-.088024,.398861,
-.100652,.395477,
-.1125,.389952,
-.123209,.382453,
-.132453,.373209,
-.139952,.3625,
-.145477,.350652,
-.148861,.338024,
-.15,.325,
-.15,-.4,
.15,-.4,
0.0*
%
%ADD53MACRO53*%
%AMMACRO27*
4,1,40,.676,.239,
.676,-.239,
.672069,-.280271,
.661031,-.320231,
.643221,-.357669,
.619181,-.391444,
.589641,-.420532,
.555499,-.444049,
.517792,-.46128,
.477666,-.471701,
.437,-.475,
-.437,-.475,
-.478317,-.47159,
-.518414,-.461058,
-.556073,-.443723,
-.59015,-.420111,
-.619609,-.390941,
-.643555,-.357099,
-.66126,-.319613,
-.672187,-.279621,
-.676,-.239,
-.676,.239,
-.672069,.280271,
-.661031,.320231,
-.643221,.357669,
-.619181,.391444,
-.589641,.420532,
-.555499,.444049,
-.517792,.46128,
-.477666,.471701,
-.437,.475,
.437,.475,
.478317,.47159,
.518414,.461058,
.556073,.443723,
.59015,.420111,
.619609,.390941,
.643555,.357099,
.66126,.319613,
.672187,.279621,
.676,.239,
0.0*
%
%ADD27MACRO27*%
%AMMACRO15*
4,1,45,-.376,0.0,
-.376,-.206,
-.373522,-.235432,
-.365972,-.263987,
-.353577,-.290796,
-.336715,-.315046,
-.315899,-.336,
-.29176,-.353021,
-.265032,-.365591,
-.236528,-.373329,
-.207113,-.376,
-.206,-.376,
.206,-.376,
.235432,-.373522,
.263987,-.365972,
.290796,-.353577,
.315046,-.336715,
.336,-.315899,
.353021,-.29176,
.365591,-.265032,
.373329,-.236528,
.376,-.207113,
.376,-.206,
.376,.206,
.373522,.235432,
.365972,.263987,
.353577,.290796,
.336715,.315046,
.315899,.336,
.29176,.353021,
.265032,.365591,
.236528,.373329,
.207113,.376,
.206,.376,
-.206,.376,
-.235432,.373522,
-.263987,.365972,
-.290796,.353577,
-.315046,.336715,
-.336,.315899,
-.353021,.29176,
-.365591,.265032,
-.373329,.236528,
-.376,.207113,
-.376,.206,
-.376,0.0,
0.0*
%
%ADD15MACRO15*%
%ADD38R,1.65X2.5*%
%AMMACRO45*
4,1,14,-.85,-.3,
-.85,.3,
.85,.3,
.85,-.3,
.49,-.3,
.395732,-.222508,
.28944,-.162564,
.174353,-.121987,
.053969,-.102012,
-.068055,-.103244,
-.188012,-.125647,
-.302255,-.16854,
-.407315,-.230619,
-.49,-.3,
-.85,-.3,
0.0*
%
%ADD45MACRO45*%
%AMMACRO12*
4,1,45,0.0,-.7,
.212,-.7,
.261931,-.695719,
.310361,-.682833,
.355817,-.661732,
.396918,-.633059,
.432416,-.597684,
.461232,-.556683,
.482491,-.511301,
.495545,-.462916,
.5,-.413,
.5,-.412,
.5,.412,
.495719,.461931,
.482833,.510361,
.461732,.555817,
.433059,.596918,
.397684,.632416,
.356683,.661232,
.311301,.682491,
.262916,.695545,
.213,.7,
.212,.7,
-.212,.7,
-.261931,.695719,
-.310361,.682833,
-.355817,.661732,
-.396918,.633059,
-.432416,.597684,
-.461232,.556683,
-.482491,.511301,
-.495545,.462916,
-.5,.413,
-.5,.412,
-.5,-.412,
-.495719,-.461931,
-.482833,-.510361,
-.461732,-.555817,
-.433059,-.596918,
-.397684,-.632416,
-.356683,-.661232,
-.311301,-.682491,
-.262916,-.695545,
-.213,-.7,
-.212,-.7,
0.0,-.7,
0.0*
%
%ADD12MACRO12*%
%AMMACRO40*
4,1,41,0.0,.65,
-.225,.65,
-.264071,.646582,
-.301955,.636431,
-.3375,.619856,
-.369627,.59736,
-.39736,.569627,
-.419856,.5375,
-.436431,.501955,
-.446582,.464071,
-.45,.425,
-.45,-.425,
-.446582,-.464071,
-.436431,-.501955,
-.419856,-.5375,
-.39736,-.569627,
-.369627,-.59736,
-.3375,-.619856,
-.301955,-.636431,
-.264071,-.646582,
-.225,-.65,
.225,-.65,
.264071,-.646582,
.301955,-.636431,
.3375,-.619856,
.369627,-.59736,
.39736,-.569627,
.419856,-.5375,
.436431,-.501955,
.446582,-.464071,
.45,-.425,
.45,.425,
.446582,.464071,
.436431,.501955,
.419856,.5375,
.39736,.569627,
.369627,.59736,
.3375,.619856,
.301955,.636431,
.264071,.646582,
.225,.65,
0.0,.65,
0.0*
%
%ADD40MACRO40*%
%AMMACRO11*
4,1,41,-.65,0.0,
-.65,-.225,
-.646582,-.264071,
-.636431,-.301955,
-.619856,-.3375,
-.59736,-.369627,
-.569627,-.39736,
-.5375,-.419856,
-.501955,-.436431,
-.464071,-.446582,
-.425,-.45,
.425,-.45,
.464071,-.446582,
.501955,-.436431,
.5375,-.419856,
.569627,-.39736,
.59736,-.369627,
.619856,-.3375,
.636431,-.301955,
.646582,-.264071,
.65,-.225,
.65,.225,
.646582,.264071,
.636431,.301955,
.619856,.3375,
.59736,.369627,
.569627,.39736,
.5375,.419856,
.501955,.436431,
.464071,.446582,
.425,.45,
-.425,.45,
-.464071,.446582,
-.501955,.436431,
-.5375,.419856,
-.569627,.39736,
-.59736,.369627,
-.619856,.3375,
-.636431,.301955,
-.646582,.264071,
-.65,.225,
-.65,0.0,
0.0*
%
%ADD11MACRO11*%
%AMMACRO47*
4,1,45,.25,0.0,
.25,.062,
.247998,.085884,
.241879,.109058,
.231828,.130817,
.218153,.1505,
.201266,.16751,
.181683,.181328,
.159998,.191537,
.136869,.197824,
.113,.2,
.112,.2,
-.112,.2,
-.135884,.197998,
-.159058,.191879,
-.180817,.181828,
-.2005,.168153,
-.21751,.151266,
-.231328,.131683,
-.241537,.109998,
-.247824,.086869,
-.25,.063,
-.25,.062,
-.25,-.062,
-.247998,-.085884,
-.241879,-.109058,
-.231828,-.130817,
-.218153,-.1505,
-.201266,-.16751,
-.181683,-.181328,
-.159998,-.191537,
-.136869,-.197824,
-.113,-.2,
-.112,-.2,
.112,-.2,
.135884,-.197998,
.159058,-.191879,
.180817,-.181828,
.2005,-.168153,
.21751,-.151266,
.231328,-.131683,
.241537,-.109998,
.247824,-.086869,
.25,-.063,
.25,-.062,
.25,0.0,
0.0*
%
%ADD47MACRO47*%
%AMMACRO21*
4,1,43,0.0,-1.05,
.362,-1.05,
.424955,-1.04458,
.486012,-1.02831,
.543317,-1.001684,
.595127,-.965513,
.63987,-.920894,
.676184,-.869183,
.702968,-.811952,
.719406,-.75094,
.725,-.688,
.725,.688,
.719406,.75094,
.702968,.811952,
.676184,.869183,
.63987,.920894,
.595127,.965513,
.543317,1.001684,
.486012,1.02831,
.424955,1.04458,
.362,1.05,
-.362,1.05,
-.424955,1.04458,
-.486012,1.02831,
-.543317,1.001684,
-.595127,.965513,
-.63987,.920894,
-.676184,.869183,
-.702968,.811952,
-.719406,.75094,
-.725,.688,
-.725,.688,
-.725,-.688,
-.719406,-.75094,
-.702968,-.811952,
-.676184,-.869183,
-.63987,-.920894,
-.595127,-.965513,
-.543317,-1.001684,
-.486012,-1.02831,
-.424955,-1.04458,
-.362,-1.05,
0.0,-1.05,
0.0*
%
%ADD21MACRO21*%
%AMMACRO39*
4,1,41,0.0,-.95,
.35,-.95,
.410777,-.944683,
.469707,-.928892,
.525,-.903109,
.574976,-.868116,
.618116,-.824976,
.653109,-.775,
.678892,-.719707,
.694683,-.660777,
.7,-.6,
.7,.6,
.694683,.660777,
.678892,.719707,
.653109,.775,
.618116,.824976,
.574976,.868116,
.525,.903109,
.469707,.928892,
.410777,.944683,
.35,.95,
-.35,.95,
-.410777,.944683,
-.469707,.928892,
-.525,.903109,
-.574976,.868116,
-.618116,.824976,
-.653109,.775,
-.678892,.719707,
-.694683,.660777,
-.7,.6,
-.7,-.6,
-.694683,-.660777,
-.678892,-.719707,
-.653109,-.775,
-.618116,-.824976,
-.574976,-.868116,
-.525,-.903109,
-.469707,-.928892,
-.410777,-.944683,
-.35,-.95,
0.0,-.95,
0.0*
%
%ADD39MACRO39*%
%AMMACRO32*
4,1,41,.45,0.0,
.45,.05,
.44924,.058682,
.446985,.067101,
.443301,.075,
.438302,.082139,
.432139,.088302,
.425,.093301,
.417101,.096985,
.408682,.09924,
.4,.1,
-.4,.1,
-.408682,.09924,
-.417101,.096985,
-.425,.093301,
-.432139,.088302,
-.438302,.082139,
-.443301,.075,
-.446985,.067101,
-.44924,.058682,
-.45,.05,
-.45,-.05,
-.44924,-.058682,
-.446985,-.067101,
-.443301,-.075,
-.438302,-.082139,
-.432139,-.088302,
-.425,-.093301,
-.417101,-.096985,
-.408682,-.09924,
-.4,-.1,
.4,-.1,
.408682,-.09924,
.417101,-.096985,
.425,-.093301,
.432139,-.088302,
.438302,-.082139,
.443301,-.075,
.446985,-.067101,
.44924,-.058682,
.45,-.05,
.45,0.0,
0.0*
%
%ADD32MACRO32*%
%AMMACRO24*
4,1,41,.45,0.0,
.45,.05,
.448481,.067365,
.443969,.084202,
.436603,.1,
.426604,.114279,
.414279,.126604,
.4,.136603,
.384202,.143969,
.367365,.148481,
.35,.15,
-.35,.15,
-.367365,.148481,
-.384202,.143969,
-.4,.136603,
-.414279,.126604,
-.426604,.114279,
-.436603,.1,
-.443969,.084202,
-.448481,.067365,
-.45,.05,
-.45,-.05,
-.448481,-.067365,
-.443969,-.084202,
-.436603,-.1,
-.426604,-.114279,
-.414279,-.126604,
-.4,-.136603,
-.384202,-.143969,
-.367365,-.148481,
-.35,-.15,
.35,-.15,
.367365,-.148481,
.384202,-.143969,
.4,-.136603,
.414279,-.126604,
.426604,-.114279,
.436603,-.1,
.443969,-.084202,
.448481,-.067365,
.45,-.05,
.45,0.0,
0.0*
%
%ADD24MACRO24*%
%AMMACRO44*
4,1,41,0.0,-.225,
.05,-.225,
.067365,-.223481,
.084202,-.218969,
.1,-.211603,
.114279,-.201604,
.126604,-.189279,
.136603,-.175,
.143969,-.159202,
.148481,-.142365,
.15,-.125,
.15,.125,
.148481,.142365,
.143969,.159202,
.136603,.175,
.126604,.189279,
.114279,.201604,
.1,.211603,
.084202,.218969,
.067365,.223481,
.05,.225,
-.05,.225,
-.067365,.223481,
-.084202,.218969,
-.1,.211603,
-.114279,.201604,
-.126604,.189279,
-.136603,.175,
-.143969,.159202,
-.148481,.142365,
-.15,.125,
-.15,-.125,
-.148481,-.142365,
-.143969,-.159202,
-.136603,-.175,
-.126604,-.189279,
-.114279,-.201604,
-.1,-.211603,
-.084202,-.218969,
-.067365,-.223481,
-.05,-.225,
0.0,-.225,
0.0*
%
%ADD44MACRO44*%
%AMMACRO34*
4,1,41,.325,0.0,
.325,.05,
.32424,.058682,
.321985,.067101,
.318301,.075,
.313302,.082139,
.307139,.088302,
.3,.093301,
.292101,.096985,
.283682,.09924,
.275,.1,
-.275,.1,
-.283682,.09924,
-.292101,.096985,
-.3,.093301,
-.307139,.088302,
-.313302,.082139,
-.318301,.075,
-.321985,.067101,
-.32424,.058682,
-.325,.05,
-.325,-.05,
-.32424,-.058682,
-.321985,-.067101,
-.318301,-.075,
-.313302,-.082139,
-.307139,-.088302,
-.3,-.093301,
-.292101,-.096985,
-.283682,-.09924,
-.275,-.1,
.275,-.1,
.283682,-.09924,
.292101,-.096985,
.3,-.093301,
.307139,-.088302,
.313302,-.082139,
.318301,-.075,
.321985,-.067101,
.32424,-.058682,
.325,-.05,
.325,0.0,
0.0*
%
%ADD34MACRO34*%
%AMMACRO25*
4,1,41,0.0,-.45,
.05,-.45,
.067365,-.448481,
.084202,-.443969,
.1,-.436603,
.114279,-.426604,
.126604,-.414279,
.136603,-.4,
.143969,-.384202,
.148481,-.367365,
.15,-.35,
.15,.35,
.148481,.367365,
.143969,.384202,
.136603,.4,
.126604,.414279,
.114279,.426604,
.1,.436603,
.084202,.443969,
.067365,.448481,
.05,.45,
-.05,.45,
-.067365,.448481,
-.084202,.443969,
-.1,.436603,
-.114279,.426604,
-.126604,.414279,
-.136603,.4,
-.143969,.384202,
-.148481,.367365,
-.15,.35,
-.15,-.35,
-.148481,-.367365,
-.143969,-.384202,
-.136603,-.4,
-.126604,-.414279,
-.114279,-.426604,
-.1,-.436603,
-.084202,-.443969,
-.067365,-.448481,
-.05,-.45,
0.0,-.45,
0.0*
%
%ADD25MACRO25*%
%AMMACRO13*
4,1,40,.262,.11,
.259873,.134311,
.253557,.157883,
.243244,.18,
.229246,.19999,
.21199,.217246,
.192,.231244,
.169883,.241557,
.146311,.247873,
.122,.25,
-.122,.25,
-.146311,.247873,
-.169883,.241557,
-.192,.231244,
-.21199,.217246,
-.229246,.19999,
-.243244,.18,
-.253557,.157883,
-.259873,.134311,
-.262,.11,
-.262,-.11,
-.259873,-.134311,
-.253557,-.157883,
-.243244,-.18,
-.229246,-.19999,
-.21199,-.217246,
-.192,-.231244,
-.169883,-.241557,
-.146311,-.247873,
-.122,-.25,
.122,-.25,
.146311,-.247873,
.169883,-.241557,
.192,-.231244,
.21199,-.217246,
.229246,-.19999,
.243244,-.18,
.253557,-.157883,
.259873,-.134311,
.262,-.11,
.262,.11,
0.0*
%
%ADD13MACRO13*%
%AMMACRO42*
4,1,44,.899,-.249,
.899,.249,
.895439,.292374,
.8844,.33447,
.866218,.37401,
.841447,.409793,
.810839,.44073,
.775323,.465882,
.73598,.484485,
.694004,.495973,
.65067,.499997,
.65,.5,
-.65,.5,
-.693344,.496092,
-.735351,.484716,
-.774744,.466219,
-.810327,.441163,
-.841018,.410308,
-.865886,.374592,
-.884173,.335101,
-.895325,.293034,
-.899003,.24967,
-.899,.249,
-.899,-.249,
-.895439,-.292374,
-.8844,-.33447,
-.866218,-.37401,
-.841447,-.409793,
-.810839,-.44073,
-.775323,-.465882,
-.73598,-.484485,
-.694004,-.495973,
-.65067,-.499997,
-.65,-.5,
.65,-.5,
.693344,-.496092,
.735351,-.484716,
.774744,-.466219,
.810327,-.441163,
.841018,-.410308,
.865886,-.374592,
.884173,-.335101,
.895325,-.293034,
.899003,-.24967,
.899,-.249,
0.0*
%
%ADD42MACRO42*%
%AMMACRO18*
4,1,40,.11,-.262,
.134311,-.259873,
.157883,-.253557,
.18,-.243244,
.19999,-.229246,
.217246,-.21199,
.231244,-.192,
.241557,-.169883,
.247873,-.146311,
.25,-.122,
.25,.122,
.247873,.146311,
.241557,.169883,
.231244,.192,
.217246,.21199,
.19999,.229246,
.18,.243244,
.157883,.253557,
.134311,.259873,
.11,.262,
-.11,.262,
-.134311,.259873,
-.157883,.253557,
-.18,.243244,
-.19999,.229246,
-.217246,.21199,
-.231244,.192,
-.241557,.169883,
-.247873,.146311,
-.25,.122,
-.25,-.122,
-.247873,-.146311,
-.241557,-.169883,
-.231244,-.192,
-.217246,-.21199,
-.19999,-.229246,
-.18,-.243244,
-.157883,-.253557,
-.134311,-.259873,
-.11,-.262,
.11,-.262,
0.0*
%
%ADD18MACRO18*%
%AMMACRO35*
4,1,41,0.0,-.201,
.081,-.201,
.092997,-.199933,
.104627,-.196799,
.115536,-.191694,
.125392,-.184771,
.133897,-.176242,
.140792,-.166366,
.145866,-.155443,
.148967,-.143804,
.15,-.132,
.15,.132,
.148936,.143995,
.145805,.155623,
.140702,.166531,
.133783,.176387,
.125257,.184892,
.115384,.191787,
.104464,.196863,
.092829,.199965,
.081,.201,
-.081,.201,
-.092997,.199933,
-.104627,.196799,
-.115536,.191694,
-.125392,.184771,
-.133897,.176242,
-.140792,.166366,
-.145866,.155443,
-.148967,.143804,
-.15,.132,
-.15,-.132,
-.148936,-.143995,
-.145805,-.155623,
-.140702,-.166531,
-.133783,-.176387,
-.125257,-.184892,
-.115384,-.191787,
-.104464,-.196863,
-.092829,-.199965,
-.081,-.201,
0.0,-.201,
0.0*
%
%ADD35MACRO35*%
%ADD31O,.899X.399*%
%ADD60C,.099*%
G75*
%LPD*%
G75*
G54D10*
X20180000Y20720000D03*
X20560000Y29400000D03*
X25640000Y20840000D03*
G54D11*
X20380000Y24872500D03*
Y25292500D03*
G54D20*
X20730100Y28150000D03*
Y28370000D03*
X20900000D03*
Y28150000D03*
G54D21*
X20893800Y29035000D03*
X21386200D03*
G54D12*
X20200000Y24745000D03*
Y25420000D03*
G54D30*
X22290000Y24960000D03*
Y24800000D03*
G54D31*
X21210000Y26100000D03*
Y26165000D03*
Y26230000D03*
X21430000D03*
Y26100000D03*
G54D13*
X20510000Y24870000D03*
X20437600Y26160000D03*
Y26250000D03*
X20137600Y26860000D03*
X20697600Y26250000D03*
X20137600Y26950000D03*
X20697600Y26160000D03*
X20137600Y27040000D03*
X20370000Y28030000D03*
X20790000Y28500000D03*
X20367600Y27930000D03*
X22375000Y23800000D03*
X22457600Y23710000D03*
X22117600Y23940000D03*
X22067600Y24140000D03*
X22420000Y23130000D03*
X22327600Y23390000D03*
X22270000Y23710000D03*
X22067600Y24260000D03*
X22080000Y25880000D03*
X20990000Y26160000D03*
X21550000Y26240000D03*
X20990000Y26250000D03*
X21920000Y28090000D03*
X22097600Y27480000D03*
Y27840000D03*
X22110000Y27570000D03*
Y27660000D03*
X22097600Y27750000D03*
X21427600Y28090000D03*
Y28190000D03*
X21620000D03*
X21170000Y28290000D03*
X21220000Y28730000D03*
X21620000Y28090000D03*
X21747600Y29030000D03*
X23787600Y23720000D03*
X23970000Y23320000D03*
X22990000Y22800000D03*
X23120000Y24040000D03*
X22600000Y22940000D03*
X22897600Y22630000D03*
X23190000Y24580000D03*
X23400000Y25920000D03*
X25470000Y24660000D03*
X24230000Y25650000D03*
G54D40*
X21832500Y29160000D03*
X22252500D03*
G54D22*
X21740000Y22970100D03*
Y22820000D03*
X22000000Y22970100D03*
Y22820000D03*
G54D32*
Y26070000D03*
X22400000D03*
X22800000D03*
G54D23*
X21727000Y23880000D03*
Y24103000D03*
X21900000D03*
Y23880000D03*
G54D14*
X20602400Y24870000D03*
X20530000Y26160000D03*
Y26250000D03*
X20230000Y26860000D03*
X20790000Y26250000D03*
X20230000Y26950000D03*
X20790000Y26160000D03*
X20230000Y27040000D03*
X20462400Y28030000D03*
X20882400Y28500000D03*
X20460000Y27930000D03*
X22467400Y23800000D03*
X22210000Y23940000D03*
X22160000Y24140000D03*
X22512400Y23130000D03*
X22420000Y23390000D03*
X22362400Y23710000D03*
X22160000Y24260000D03*
X22172400Y25880000D03*
X21082400Y26160000D03*
X21642400Y26240000D03*
X21082400Y26250000D03*
X22012400Y28090000D03*
X22190000Y27480000D03*
Y27840000D03*
X22202400Y27570000D03*
Y27660000D03*
X22190000Y27750000D03*
X21520000Y28090000D03*
Y28190000D03*
X21712400D03*
X21262400Y28290000D03*
X21312400Y28730000D03*
X21712400Y28090000D03*
X21840000Y29030000D03*
X23880000Y23720000D03*
X24062400Y23320000D03*
X23082400Y22800000D03*
X22550000Y23710000D03*
X23212400Y24040000D03*
X22692400Y22940000D03*
X22990000Y22630000D03*
X23282400Y24580000D03*
X23492400Y25920000D03*
X25562400Y24660000D03*
X24322400Y25650000D03*
G54D41*
X21705000Y29340000D03*
X22380000D03*
G54D50*
X24067900Y25793300D03*
X24070000Y25370000D03*
Y24910000D03*
X24067900Y26253300D03*
X24194900Y25793300D03*
X24321900D03*
X24448900D03*
X24575900D03*
X24578000Y25370000D03*
X24451000D03*
X24324000D03*
X24197000D03*
X24578000Y24910000D03*
X24451000D03*
X24324000D03*
X24197000D03*
X24194900Y26253300D03*
X24321900D03*
X24448900D03*
X24575900D03*
G54D60*
G01X20146200Y20000000D02*
X25703800D01*
G03X25850000Y20146200I0J146200D01*
G01Y24450000D01*
G03X25740000Y24765000I-506023J0D01*
G02X25630000Y25080000I396023J315000D01*
G02X25740000Y25395000I506023J0D01*
G03X25850000Y25710000I-396023J315000D01*
G01Y29383800D01*
G03X25703800Y29530000I-146200J0D01*
G01X21580000D01*
Y29410000D01*
X21420000D01*
Y29200000D01*
X21330000D01*
Y29410000D01*
X20950000D01*
Y29200000D01*
X20860000D01*
Y29410000D01*
X20700000D01*
Y29530000D01*
X20146200D01*
G03X20000000Y29383800I0J-146200D01*
G01Y25710000D01*
G03X20110000Y25395000I506023J0D01*
G02X20220000Y25080000I-396023J-315000D01*
G02X20110000Y24765000I-506023J0D01*
G03X20000000Y24450000I396023J-315000D01*
G01Y20146200D01*
G03X20146200Y20000000I146200J0D01*
G54D42*
X22950000Y23639900D03*
Y23390000D03*
G54D24*
X22320000Y24040000D03*
Y24090000D03*
Y24140000D03*
Y24190000D03*
Y24240000D03*
Y24290000D03*
Y24340000D03*
Y24390000D03*
Y24440000D03*
Y24490000D03*
Y24540000D03*
Y24590000D03*
X23010000Y24090000D03*
Y24040000D03*
Y24590000D03*
Y24540000D03*
Y24490000D03*
Y24440000D03*
Y24390000D03*
Y24340000D03*
Y24290000D03*
Y24240000D03*
Y24190000D03*
Y24140000D03*
G54D15*
X20100000Y26519900D03*
Y26670000D03*
X20220000Y26519900D03*
Y26670000D03*
G54D33*
X21991000Y26007500D03*
X21951000D03*
X21911000D03*
X21871000D03*
Y26252500D03*
X21911000D03*
X21951000D03*
X21991000D03*
X22391000Y26007500D03*
X22351000D03*
X22311000D03*
X22271000D03*
Y26252500D03*
X22311000D03*
X22351000D03*
X22391000D03*
X22791000Y26007500D03*
X22751000D03*
X22711000D03*
X22671000D03*
Y26252500D03*
X22711000D03*
X22751000D03*
X22791000D03*
G54D51*
X23935000Y25115000D03*
X23930000Y26010000D03*
Y26060000D03*
Y26110000D03*
G54D25*
X22490000Y23970000D03*
X22440000D03*
X22390000D03*
Y24660000D03*
X22440000D03*
X22490000D03*
X22940000Y23970000D03*
X22890000D03*
X22840000D03*
X22790000D03*
X22740000D03*
X22690000D03*
X22640000D03*
X22590000D03*
X22540000D03*
Y24660000D03*
X22590000D03*
X22640000D03*
X22690000D03*
X22740000D03*
X22790000D03*
X22840000D03*
X22890000D03*
X22940000D03*
G54D34*
X21849500Y26070000D03*
Y26110000D03*
Y26150000D03*
Y26190000D03*
X22012500D03*
Y26150000D03*
Y26110000D03*
X22249500Y26070000D03*
Y26110000D03*
Y26150000D03*
Y26190000D03*
X22412500D03*
Y26150000D03*
Y26110000D03*
X22649500Y26070000D03*
Y26110000D03*
Y26150000D03*
Y26190000D03*
X22812500D03*
Y26150000D03*
Y26110000D03*
G54D52*
X23785000Y25115000D03*
X23780000Y26010000D03*
Y26060000D03*
Y26110000D03*
G54D43*
X23935000Y23520000D03*
G54D16*
X20379900Y26540100D03*
Y26580000D03*
Y26620100D03*
Y26660000D03*
Y26699900D03*
Y26740000D03*
Y26779900D03*
Y26820000D03*
Y26859900D03*
Y26900000D03*
Y26939900D03*
Y26980000D03*
Y27019900D03*
Y27060000D03*
Y27099900D03*
Y27140100D03*
Y27179900D03*
Y27220100D03*
Y27260000D03*
Y27300100D03*
Y27340000D03*
Y27380100D03*
Y27420000D03*
Y27460100D03*
Y27500000D03*
Y27540100D03*
Y27580000D03*
Y27620100D03*
Y27660000D03*
Y27699900D03*
Y27740000D03*
Y27779900D03*
X21919900Y27340000D03*
Y27300100D03*
Y27260000D03*
Y27220100D03*
Y27179900D03*
Y27140100D03*
Y27099900D03*
Y27060000D03*
Y27019900D03*
Y26980000D03*
Y26939900D03*
Y26900000D03*
Y26859900D03*
Y26820000D03*
Y26779900D03*
Y26740000D03*
Y26699900D03*
Y26660000D03*
Y26620100D03*
Y26580000D03*
Y26540100D03*
Y27779900D03*
Y27740000D03*
Y27699900D03*
Y27660000D03*
Y27620100D03*
Y27580000D03*
Y27540100D03*
Y27500000D03*
Y27460100D03*
Y27420000D03*
Y27380100D03*
G54D35*
X21130100Y28818900D03*
X21080000D03*
X21030000D03*
X21130100Y28760000D03*
X21080000D03*
X21030000D03*
G54D44*
X24010000Y23640000D03*
X23960000D03*
X23910000D03*
X23860000D03*
X24010000Y23400000D03*
X23960000D03*
X23910000D03*
X23860000D03*
G54D53*
X23910000Y25190000D03*
X23860000D03*
X23810000D03*
X23855000Y26135000D03*
G54D26*
X22665000Y24315000D03*
G54D17*
X20850000Y26390000D03*
X20809900D03*
X20770000D03*
X20729900D03*
X20690000D03*
X20649900D03*
X20610000D03*
X20569900D03*
X20530000D03*
Y27930000D03*
X20569900D03*
X20610000D03*
X20649900D03*
X20690000D03*
X20729900D03*
X20770000D03*
X20809900D03*
X20850000D03*
X21770000Y26390000D03*
X21729900D03*
X21690000D03*
X21649900D03*
X21610000D03*
X21569900D03*
X21530000D03*
X21490100D03*
X21450000D03*
X21410100D03*
X21370000D03*
X21330100D03*
X21290000D03*
X21250100D03*
X21210000D03*
X21170100D03*
X21130000D03*
X21090100D03*
X21049900D03*
X21010100D03*
X20969900D03*
X20930000D03*
X20889900D03*
Y27930000D03*
X20930000D03*
X20969900D03*
X21010100D03*
X21049900D03*
X21090100D03*
X21130000D03*
X21170100D03*
X21210000D03*
X21250100D03*
X21290000D03*
X21330100D03*
X21370000D03*
X21410100D03*
X21450000D03*
X21490100D03*
X21530000D03*
X21569900D03*
X21610000D03*
X21649900D03*
X21690000D03*
X21729900D03*
X21770000D03*
G54D18*
X20890000Y26250000D03*
X20100000Y26400000D03*
X20220000D03*
X20230000Y27242400D03*
X20560000Y28220000D03*
X20240000Y27600000D03*
X21360000Y22822400D03*
X21250000D03*
X22000000Y23152400D03*
X21740000Y23162400D03*
X22420000Y23040000D03*
Y23300000D03*
X22370000Y23620000D03*
X22510000Y22940000D03*
X22460000Y23620000D03*
X22190000Y24772400D03*
X22100000D03*
X22390000Y24892400D03*
X22130000Y26820000D03*
X22170000Y27260000D03*
X22510000Y26110000D03*
X22110000Y26282400D03*
X22070000Y27260000D03*
X22510000Y26282400D03*
X22110000Y26110000D03*
X21570000Y28490000D03*
X21760000Y28492400D03*
X21570000Y28902400D03*
X21660000Y28490000D03*
X21020000Y28342400D03*
X21830000Y28182400D03*
X23780000Y23400000D03*
X23120000Y23640000D03*
Y23482400D03*
X23780000Y23640000D03*
X22570000Y23620000D03*
X22990000Y22800000D03*
X23110000Y24702400D03*
X22910000Y26110000D03*
Y26282400D03*
X24685800Y25806000D03*
G54D45*
X23675000Y22900000D03*
G54D27*
X22540000Y25010000D03*
Y24850000D03*
G54D36*
X21270000Y29000000D03*
X21205000D03*
X21140000D03*
X21075000D03*
X21010000D03*
G54D54*
X23910000Y25040000D03*
X23860000D03*
X23810000D03*
X23855000Y25985000D03*
G54D37*
X21470000Y28415000D03*
Y28480000D03*
Y28545000D03*
Y28610000D03*
X21170000Y28415000D03*
Y28480000D03*
Y28545000D03*
Y28610000D03*
G54D55*
X24080000Y24660000D03*
Y24500000D03*
G54D28*
X22400000Y25160000D03*
X22540000D03*
G54D19*
X20890000Y26157600D03*
X20100000Y26307600D03*
X20220000D03*
X20230000Y27150000D03*
X20560000Y28127600D03*
X20240000Y27507600D03*
X21360000Y22730000D03*
X21250000D03*
X22000000Y23060000D03*
X21740000Y23070000D03*
X22420000Y22947600D03*
Y23207600D03*
X22370000Y23527600D03*
X22510000Y22847600D03*
X22460000Y23527600D03*
X22190000Y24680000D03*
X22100000D03*
X22390000Y24800000D03*
X22130000Y26727600D03*
X22170000Y27167600D03*
X22510000Y26017600D03*
X22110000Y26190000D03*
X22070000Y27167600D03*
X22510000Y26190000D03*
X22110000Y26017600D03*
X21570000Y28397600D03*
X21760000Y28400000D03*
X21570000Y28810000D03*
X21660000Y28397600D03*
X21020000Y28250000D03*
X21830000Y28090000D03*
X23780000Y23307600D03*
X23120000Y23547600D03*
Y23390000D03*
X23780000Y23547600D03*
X22570000Y23527600D03*
X22990000Y22707600D03*
X23110000Y24610000D03*
X22910000Y26017600D03*
Y26190000D03*
X24685800Y25713600D03*
G54D46*
X23675000Y22740000D03*
G54D47*
X23770000Y22820000D03*
X23580000D03*
G54D38*
X21320000Y28512500D03*
G54D29*
X22290000Y25220000D03*
Y25080000D03*
G54D56*
X24170000Y22160000D03*
X24330000D03*
X24170000Y22410000D03*
X24330000D03*
X24170000Y22670000D03*
X24330000D03*
X24170000Y22920000D03*
X24330000D03*
G54D39*
X21233800Y29265000D03*
X21046200D03*
G54D48*
X22970000Y22910000D03*
G54D57*
X24300000Y24500000D03*
Y24660000D03*
G54D49*
X23035300Y22975300D03*
G54D58*
X25470000Y25297500D03*
Y24877500D03*
G54D59*
X25650000Y25425000D03*
Y24750000D03*
M02*
