G04 ================== begin FILE IDENTIFICATION RECORD ==================*
G04 Layout Name:  LAUNCHXL-CC1310.brd*
G04 Film Name:    LAUNCHXL-CC1310_silk_bottom*
G04 File Format:  Gerber RS274X*
G04 File Origin:  Cadence Allegro 16.6-S019*
G04 Origin Date:  Thu Jan 21 09:47:58 2016*
G04 *
G04 Layer:  REF DES/SILKSCREEN_BOTTOM*
G04 Layer:  PACKAGE GEOMETRY/SILKSCREEN_BOTTOM*
G04 Layer:  MANUFACTURING/AUTOSILK_BOTTOM*
G04 Layer:  BOARD GEOMETRY/OUTLINE*
G04 *
G04 Offset:    (0.000 0.000)*
G04 Mirror:    No*
G04 Mode:      Positive*
G04 Rotation:  0*
G04 FullContactRelief:  No*
G04 UndefLineWidth:     0.099*
G04 ================== end FILE IDENTIFICATION RECORD ====================*
%FSLAX25Y25*MOMM*%
%IR0*IPPOS*OFA0.00000B0.00000*MIA0B0*SFA1.00000B1.00000*%
%ADD10C,.1*%
%ADD11C,.2*%
%ADD12C,.3*%
%ADD13C,.4*%
%ADD14C,.099*%
%ADD15C,.002*%
%ADD16C,.18*%
G75*
%LPD*%
G75*
G36*
G01X20582900Y20000000D02*
G02X21058800Y20272000I407101J-159952D01*
G02X21549800Y20720000I561180J-121980D01*
G02X21944000Y21040800I360197J-40014D01*
G02X22070800Y21194500I206000J-40792D01*
G02X22205800Y21395100I119200J65507D01*
G01X22350000Y23090000D01*
X22305100Y21332400D01*
G02X22301300Y21181800I-115105J-72444D01*
G01X22300400Y21146600D01*
G02X22331700Y20894700I-150394J-146582D01*
G02X22416500Y20886200I8275J-344700D01*
G01X22360000Y23100000D01*
X22543700Y20828200D01*
G02X22677400Y20479000I-203705J-278189D01*
G02X22806100Y20438100I-27350J-309003D01*
G02X23111700Y20457800I173939J-318074D01*
G02X23220400Y20541800I108293J-27804D01*
G02X23267600Y20595900I79598J-21806D01*
G02X23319400Y20653700I42423J14092D01*
G02X23373300Y20718700I70587J-3685D01*
G01X23410000Y21870000D01*
X23397700Y20720300D01*
G02X23460200Y20641700I-7697J-70269D01*
G02X23568000Y20576000I-237J-121678D01*
G02X23764800Y20394700I-7896J-206033D01*
G02X24124700Y20132600I-4779J-384709D01*
G02X24725700Y20000000I215273J-452586D01*
G01X23737700D01*
G03X23562000Y20118700I-107695J29975D01*
G03X23444200Y20215200I-121968J-28738D01*
G03X23443700Y20221900I-104288J-4414D01*
G03X23428300Y20320000I-13652J48116D01*
G03X23425300Y20332700I-28298J20D01*
G03X23425900Y20336600I-35287J7425D01*
G03X23432300Y20377500I-15908J23440D01*
G03X23387700I-22300J2500D01*
G03X23386600Y20375900I22762J-16827D01*
G03X23354000Y20337700I3392J-35905D01*
G03X23331900Y20314100I5939J-27710D01*
G03X23240100Y20179600I8078J-104091D01*
G03X23130000Y20000000I9898J-129615D01*
G01X22650000D01*
G03X22487300Y20132800I-160019J-29981D01*
G03X22158500Y20367600I-307341J-82767D01*
G03X22092300Y20484000I-78475J32394D01*
G03X22056100Y20553700I-112238J-14042D01*
G03X21944900Y20577500I-46093J56318D01*
G03X21869900Y20444000I35123J-107549D01*
G03X21759000Y20303700I51J-114021D01*
G03X21546400Y20149800I-29009J-183721D01*
G03X21411500Y20000000I-6440J-129842D01*
G01X20582900D01*
G37*
G36*
G01X20056500Y21250300D02*
X20417200D01*
X20533400Y21134100D01*
X20418500Y21019200D01*
X20056500D01*
Y21134700D01*
Y21250300D01*
G37*
G36*
G01X20051400Y21767500D02*
X20412100D01*
X20528300Y21651300D01*
X20470800Y21593900D01*
X20413400Y21536400D01*
X20051400D01*
Y21652000D01*
Y21767500D01*
G37*
G36*
G01Y21517500D02*
X20412100D01*
X20528300Y21401300D01*
X20470800Y21343900D01*
X20413400Y21286400D01*
X20051400D01*
Y21402000D01*
Y21517500D01*
G37*
G36*
G01X20423100Y24333000D02*
X20062400D01*
Y24562800D01*
X20423100D01*
X20480600Y24505400D01*
X20538000Y24447900D01*
X20480600Y24390500D01*
X20423100Y24333000D01*
G37*
G36*
G01X21478600Y24072500D02*
X21117900D01*
X21001700Y24188700D01*
X21059200Y24246100D01*
X21116600Y24303600D01*
X21478600D01*
Y24188000D01*
Y24072500D01*
G37*
G36*
G01X22428500Y24613600D02*
X22468400Y24613300D01*
X22457800Y24186100D01*
X22432900Y24185600D01*
X22428500Y24613600D01*
G37*
G36*
G01X22344300Y24875400D02*
X22385900Y24893500D01*
X22427400Y24900300D01*
X22472200Y24899900D01*
X22514000Y24892400D01*
X22555200Y24877700D01*
X22563700Y24857000D01*
X22570000Y24800000D01*
X22580000Y24740000D01*
Y24680000D01*
X22565200Y24687700D01*
X22526900Y24705700D01*
X22487000Y24715800D01*
X22444200Y24719700D01*
X22399900Y24717500D01*
X22362400Y24709700D01*
X22320000Y24690000D01*
X22325000Y24761900D01*
X22335600Y24871900D01*
X22344300Y24875400D01*
G37*
G36*
G01X21474500Y24327700D02*
X21113800D01*
X20997600Y24443900D01*
X21112500Y24558800D01*
X21474500D01*
Y24443300D01*
Y24327700D01*
G37*
G36*
G01X22195300Y28947600D02*
Y28940200D01*
X22236000D01*
Y28947600D01*
X22231400D01*
G02X22227600Y28951400I51J3851D01*
G01Y29041800D01*
G02X22231400Y29045600I3827J-27D01*
G01X22254500D01*
G02X22257300Y29044600I195J-3874D01*
G01X22267500Y29034200D01*
X22263700Y29058600D01*
X22167400D01*
X22163600Y29034200D01*
X22174000Y29044600D01*
G02X22176800Y29045600I2600J-2859D01*
G01X22199900D01*
G02X22203700Y29041800I-46J-3846D01*
G01Y28951400D01*
G02X22199900Y28947600I-3870J70D01*
G01X22195300D01*
G37*
G36*
G01X22416100Y29015100D02*
X22413000D01*
Y28985700D01*
X22416100D01*
X22419900Y28990800D01*
G02X22423200Y28992300I3144J-2537D01*
G01X22463600D01*
Y28953900D01*
X22412500D01*
G02X22409700Y28955200I126J3937D01*
G01X22397300Y28968100D01*
X22394000D01*
X22402600Y28942700D01*
G03X22406400Y28940000I3774J1288D01*
G01X22497100D01*
Y28944300D01*
X22485900Y28950100D01*
G02X22483900Y28953700I1934J3430D01*
G01Y29042100D01*
G02X22485700Y29045400I3937J-7D01*
G01X22497100Y29052200D01*
Y29058800D01*
X22411200D01*
G03X22407400Y29056500I-186J-3982D01*
G01X22396800Y29030400D01*
X22402600Y29028100D01*
X22413300Y29039500D01*
G02X22416100Y29040800I2935J-2656D01*
G01X22463600D01*
Y29010300D01*
X22422700D01*
G02X22420100Y29011300I25J3945D01*
G01X22416100Y29015100D01*
G37*
G36*
G01X22392200Y28949100D02*
X22384800D01*
G02X22380800Y28953200I-6J3995D01*
G01Y29046100D01*
G02X22384800Y29050200I3985J113D01*
G01X22392700D01*
Y29058800D01*
X22356400D01*
G03X22353300Y29057600I-255J-3945D01*
G01X22296700Y28991800D01*
Y29045400D01*
G02X22300500Y29049400I3941J61D01*
G01X22310200D01*
Y29058800D01*
X22270300D01*
Y29049400D01*
X22278600D01*
G02X22282700Y29045400I106J-3992D01*
G01Y28940200D01*
X22288800D01*
G03X22291900Y28941500I163J3958D01*
G01X22360400Y29021000D01*
Y28953200D01*
G02X22356600Y28949100I-3973J-128D01*
G01X22350500D01*
Y28940200D01*
X22392200D01*
Y28949100D01*
G37*
G36*
G01X22148400Y28942000D02*
X22158500Y28978600D01*
X22153900Y28979800D01*
X22151900Y28977000D01*
X22149900Y28974500D01*
X22147800Y28972000D01*
X22145800Y28969700D01*
X22143800Y28967400D01*
X22141500Y28965100D01*
X22139200Y28963300D01*
X22136700Y28961500D01*
X22134100Y28960000D01*
X22131300Y28959000D01*
X22128500Y28958000D01*
X22125500Y28957200D01*
X22121700Y28956500D01*
X22119100Y28956000D01*
X22116100Y28955400D01*
X22112800Y28954900D01*
X22109700Y28954700D01*
X22106400Y28954400D01*
X22103400Y28954700D01*
X22100400Y28954900D01*
X22097300Y28955700D01*
X22094200Y28957200D01*
X22091700Y28958500D01*
X22089200Y28960500D01*
X22087100Y28963100D01*
X22085100Y28966900D01*
X22084800Y28968600D01*
Y28971700D01*
X22085600Y28975000D01*
X22087100Y28978000D01*
X22089700Y28981400D01*
X22091200Y28982900D01*
X22094000Y28984400D01*
X22096800Y28985900D01*
X22099600Y28986900D01*
X22103900Y28988000D01*
X22105900Y28988200D01*
X22109000Y28988700D01*
X22112000Y28989200D01*
X22115100Y28989700D01*
X22118100Y28990200D01*
X22120900Y28990500D01*
X22124000Y28991000D01*
X22127000Y28991500D01*
X22130100Y28992300D01*
X22132100Y28992800D01*
X22136400Y28993800D01*
X22139500Y28995100D01*
X22142300Y28996300D01*
X22145000Y28997900D01*
X22147600Y28999400D01*
X22149600Y29001400D01*
X22151600Y29004000D01*
X22153200Y29006500D01*
X22154400Y29009300D01*
X22155200Y29012300D01*
X22156000Y29015400D01*
X22156500Y29018700D01*
X22156700Y29023500D01*
Y29025300D01*
X22156500Y29028600D01*
X22156200Y29031600D01*
X22155500Y29035000D01*
X22154700Y29038000D01*
X22153400Y29040800D01*
X22152200Y29043300D01*
X22150400Y29046100D01*
X22148400Y29048200D01*
X22146100Y29050200D01*
X22143500Y29052200D01*
X22141000Y29053700D01*
X22138200Y29055300D01*
X22135100Y29056500D01*
X22130800Y29058100D01*
X22129300Y29058600D01*
X22126200Y29059300D01*
X22123200Y29059800D01*
X22120200Y29060400D01*
X22117100Y29060600D01*
X22114100D01*
X22110800D01*
X22107700Y29060400D01*
X22104700Y29060100D01*
X22101600Y29059300D01*
X22098600Y29058600D01*
X22096300Y29057800D01*
X22093000Y29056300D01*
X22090200Y29054800D01*
X22087400Y29053200D01*
Y29060800D01*
X22078800D01*
X22070900Y29027300D01*
X22073900Y29024500D01*
X22076200Y29026300D01*
X22078500Y29028100D01*
X22081000Y29029900D01*
X22083600Y29031600D01*
X22085900Y29033200D01*
X22088700Y29034700D01*
X22091200Y29036000D01*
X22094000Y29037200D01*
X22096800Y29038200D01*
X22099800Y29039000D01*
X22102600Y29039800D01*
X22105700Y29040300D01*
X22107500Y29040500D01*
X22111500Y29041000D01*
X22114600D01*
X22117600Y29040800D01*
X22120200Y29040500D01*
X22123700Y29040000D01*
X22126800Y29039000D01*
X22129300Y29037200D01*
X22130600Y29036200D01*
X22132600Y29032400D01*
X22133400Y29029100D01*
X22133100Y29026100D01*
X22132400Y29023500D01*
X22130600Y29020700D01*
X22128300Y29018900D01*
X22125500Y29017700D01*
X22122400Y29016400D01*
X22119400Y29015600D01*
X22116100Y29014900D01*
X22113000Y29014400D01*
X22110200Y29014100D01*
X22107200Y29013600D01*
X22104400Y29013400D01*
X22101400Y29012800D01*
X22098600Y29012300D01*
X22095800Y29011600D01*
X22092700Y29010800D01*
X22089900Y29010000D01*
X22087100Y29009300D01*
X22084100Y29008300D01*
X22081300Y29007000D01*
X22078500Y29006000D01*
X22075700Y29004500D01*
X22073200Y29002700D01*
X22071100Y29001200D01*
X22069100Y28998600D01*
X22067300Y28996300D01*
X22065600Y28993500D01*
X22064300Y28991000D01*
X22063300Y28988000D01*
X22062500Y28984900D01*
X22062000Y28982100D01*
X22061500Y28979100D01*
Y28976000D01*
Y28973000D01*
X22062000Y28969900D01*
X22062500Y28966900D01*
X22063300Y28964100D01*
X22064300Y28961300D01*
X22065600Y28958500D01*
X22066800Y28955700D01*
X22068600Y28953200D01*
X22070400Y28950900D01*
X22072700Y28948300D01*
X22074700Y28946600D01*
X22077000Y28944800D01*
X22079500Y28943000D01*
X22082300Y28941700D01*
X22085100Y28940500D01*
X22088200Y28939400D01*
X22091000Y28938400D01*
X22094000Y28937900D01*
X22097000Y28937400D01*
X22100100Y28937200D01*
X22103600D01*
X22106200D01*
X22109200Y28937400D01*
X22112300Y28937900D01*
X22115100Y28938400D01*
X22118100Y28939200D01*
X22120900Y28940000D01*
X22123700Y28941000D01*
X22126800Y28942000D01*
X22129600Y28943000D01*
X22132400Y28944000D01*
X22135100Y28945300D01*
X22137900Y28946600D01*
Y28942000D01*
X22148400D01*
G37*
G36*
G01X22195300Y28947600D02*
Y28940200D01*
X22236000D01*
Y28947600D01*
X22231400D01*
G02X22227600Y28951400I51J3851D01*
G01Y29041800D01*
G02X22231400Y29045600I3827J-27D01*
G01X22254500D01*
G02X22257300Y29044600I195J-3874D01*
G01X22267500Y29034200D01*
X22263700Y29058600D01*
X22167400D01*
X22163600Y29034200D01*
X22174000Y29044600D01*
G02X22176800Y29045600I2600J-2859D01*
G01X22199900D01*
G02X22203700Y29041800I-46J-3846D01*
G01Y28951400D01*
G02X22199900Y28947600I-3870J70D01*
G01X22195300D01*
G37*
G36*
G01X22416100Y29015100D02*
X22413000D01*
Y28985700D01*
X22416100D01*
X22419900Y28990800D01*
G02X22423200Y28992300I3144J-2537D01*
G01X22463600D01*
Y28953900D01*
X22412500D01*
G02X22409700Y28955200I126J3937D01*
G01X22397300Y28968100D01*
X22394000D01*
X22402600Y28942700D01*
G03X22406400Y28940000I3774J1288D01*
G01X22497100D01*
Y28944300D01*
X22485900Y28950100D01*
G02X22483900Y28953700I1934J3430D01*
G01Y29042100D01*
G02X22485700Y29045400I3937J-7D01*
G01X22497100Y29052200D01*
Y29058800D01*
X22411200D01*
G03X22407400Y29056500I-186J-3982D01*
G01X22396800Y29030400D01*
X22402600Y29028100D01*
X22413300Y29039500D01*
G02X22416100Y29040800I2935J-2656D01*
G01X22463600D01*
Y29010300D01*
X22422700D01*
G02X22420100Y29011300I25J3945D01*
G01X22416100Y29015100D01*
G37*
G36*
G01X22392200Y28949100D02*
X22384800D01*
G02X22380800Y28953200I-6J3995D01*
G01Y29046100D01*
G02X22384800Y29050200I3985J113D01*
G01X22392700D01*
Y29058800D01*
X22356400D01*
G03X22353300Y29057600I-255J-3945D01*
G01X22296700Y28991800D01*
Y29045400D01*
G02X22300500Y29049400I3941J61D01*
G01X22310200D01*
Y29058800D01*
X22270300D01*
Y29049400D01*
X22278600D01*
G02X22282700Y29045400I106J-3992D01*
G01Y28940200D01*
X22288800D01*
G03X22291900Y28941500I163J3958D01*
G01X22360400Y29021000D01*
Y28953200D01*
G02X22356600Y28949100I-3973J-128D01*
G01X22350500D01*
Y28940200D01*
X22392200D01*
Y28949100D01*
G37*
G36*
G01X22148400Y28942000D02*
X22158500Y28978600D01*
X22153900Y28979800D01*
X22151900Y28977000D01*
X22149900Y28974500D01*
X22147800Y28972000D01*
X22145800Y28969700D01*
X22143800Y28967400D01*
X22141500Y28965100D01*
X22139200Y28963300D01*
X22136700Y28961500D01*
X22134100Y28960000D01*
X22131300Y28959000D01*
X22128500Y28958000D01*
X22125500Y28957200D01*
X22121700Y28956500D01*
X22119100Y28956000D01*
X22116100Y28955400D01*
X22112800Y28954900D01*
X22109700Y28954700D01*
X22106400Y28954400D01*
X22103400Y28954700D01*
X22100400Y28954900D01*
X22097300Y28955700D01*
X22094200Y28957200D01*
X22091700Y28958500D01*
X22089200Y28960500D01*
X22087100Y28963100D01*
X22085100Y28966900D01*
X22084800Y28968600D01*
Y28971700D01*
X22085600Y28975000D01*
X22087100Y28978000D01*
X22089700Y28981400D01*
X22091200Y28982900D01*
X22094000Y28984400D01*
X22096800Y28985900D01*
X22099600Y28986900D01*
X22103900Y28988000D01*
X22105900Y28988200D01*
X22109000Y28988700D01*
X22112000Y28989200D01*
X22115100Y28989700D01*
X22118100Y28990200D01*
X22120900Y28990500D01*
X22124000Y28991000D01*
X22127000Y28991500D01*
X22130100Y28992300D01*
X22132100Y28992800D01*
X22136400Y28993800D01*
X22139500Y28995100D01*
X22142300Y28996300D01*
X22145000Y28997900D01*
X22147600Y28999400D01*
X22149600Y29001400D01*
X22151600Y29004000D01*
X22153200Y29006500D01*
X22154400Y29009300D01*
X22155200Y29012300D01*
X22156000Y29015400D01*
X22156500Y29018700D01*
X22156700Y29023500D01*
Y29025300D01*
X22156500Y29028600D01*
X22156200Y29031600D01*
X22155500Y29035000D01*
X22154700Y29038000D01*
X22153400Y29040800D01*
X22152200Y29043300D01*
X22150400Y29046100D01*
X22148400Y29048200D01*
X22146100Y29050200D01*
X22143500Y29052200D01*
X22141000Y29053700D01*
X22138200Y29055300D01*
X22135100Y29056500D01*
X22130800Y29058100D01*
X22129300Y29058600D01*
X22126200Y29059300D01*
X22123200Y29059800D01*
X22120200Y29060400D01*
X22117100Y29060600D01*
X22114100D01*
X22110800D01*
X22107700Y29060400D01*
X22104700Y29060100D01*
X22101600Y29059300D01*
X22098600Y29058600D01*
X22096300Y29057800D01*
X22093000Y29056300D01*
X22090200Y29054800D01*
X22087400Y29053200D01*
Y29060800D01*
X22078800D01*
X22070900Y29027300D01*
X22073900Y29024500D01*
X22076200Y29026300D01*
X22078500Y29028100D01*
X22081000Y29029900D01*
X22083600Y29031600D01*
X22085900Y29033200D01*
X22088700Y29034700D01*
X22091200Y29036000D01*
X22094000Y29037200D01*
X22096800Y29038200D01*
X22099800Y29039000D01*
X22102600Y29039800D01*
X22105700Y29040300D01*
X22107500Y29040500D01*
X22111500Y29041000D01*
X22114600D01*
X22117600Y29040800D01*
X22120200Y29040500D01*
X22123700Y29040000D01*
X22126800Y29039000D01*
X22129300Y29037200D01*
X22130600Y29036200D01*
X22132600Y29032400D01*
X22133400Y29029100D01*
X22133100Y29026100D01*
X22132400Y29023500D01*
X22130600Y29020700D01*
X22128300Y29018900D01*
X22125500Y29017700D01*
X22122400Y29016400D01*
X22119400Y29015600D01*
X22116100Y29014900D01*
X22113000Y29014400D01*
X22110200Y29014100D01*
X22107200Y29013600D01*
X22104400Y29013400D01*
X22101400Y29012800D01*
X22098600Y29012300D01*
X22095800Y29011600D01*
X22092700Y29010800D01*
X22089900Y29010000D01*
X22087100Y29009300D01*
X22084100Y29008300D01*
X22081300Y29007000D01*
X22078500Y29006000D01*
X22075700Y29004500D01*
X22073200Y29002700D01*
X22071100Y29001200D01*
X22069100Y28998600D01*
X22067300Y28996300D01*
X22065600Y28993500D01*
X22064300Y28991000D01*
X22063300Y28988000D01*
X22062500Y28984900D01*
X22062000Y28982100D01*
X22061500Y28979100D01*
Y28976000D01*
Y28973000D01*
X22062000Y28969900D01*
X22062500Y28966900D01*
X22063300Y28964100D01*
X22064300Y28961300D01*
X22065600Y28958500D01*
X22066800Y28955700D01*
X22068600Y28953200D01*
X22070400Y28950900D01*
X22072700Y28948300D01*
X22074700Y28946600D01*
X22077000Y28944800D01*
X22079500Y28943000D01*
X22082300Y28941700D01*
X22085100Y28940500D01*
X22088200Y28939400D01*
X22091000Y28938400D01*
X22094000Y28937900D01*
X22097000Y28937400D01*
X22100100Y28937200D01*
X22103600D01*
X22106200D01*
X22109200Y28937400D01*
X22112300Y28937900D01*
X22115100Y28938400D01*
X22118100Y28939200D01*
X22120900Y28940000D01*
X22123700Y28941000D01*
X22126800Y28942000D01*
X22129600Y28943000D01*
X22132400Y28944000D01*
X22135100Y28945300D01*
X22137900Y28946600D01*
Y28942000D01*
X22148400D01*
G37*
G36*
G01X23386200Y23719700D02*
X23427800Y23737800D01*
X23469300Y23744600D01*
X23514100Y23744200D01*
X23555900Y23736700D01*
X23597100Y23722000D01*
X23605600Y23701300D01*
X23611900Y23644300D01*
X23621900Y23584300D01*
Y23524300D01*
X23607100Y23532000D01*
X23568800Y23550000D01*
X23528900Y23560100D01*
X23486100Y23564000D01*
X23441800Y23561800D01*
X23404300Y23554000D01*
X23361900Y23534300D01*
X23366900Y23606200D01*
X23377500Y23716200D01*
X23386200Y23719700D01*
G37*
G36*
G01X23470400Y23457900D02*
X23510300Y23457600D01*
X23499700Y23030400D01*
X23474800Y23029900D01*
X23470400Y23457900D01*
G37*
G36*
G01X22934200Y28947600D02*
Y28940200D01*
X22974900D01*
Y28947600D01*
X22970300D01*
G02X22966500Y28951400I39J3839D01*
G01Y29041800D01*
G02X22970300Y29045600I3811J-11D01*
G01X22993400D01*
G02X22996200Y29044600I192J-3882D01*
G01X23006400Y29034200D01*
X23002600Y29058600D01*
X22906300D01*
X22902500Y29034200D01*
X22912900Y29044600D01*
G02X22915700Y29045600I2597J-2851D01*
G01X22938800D01*
G02X22942600Y29041800I-58J-3858D01*
G01Y28951400D01*
G02X22938800Y28947600I-3882J82D01*
G01X22934200D01*
G37*
G36*
G01X22886000Y28951400D02*
Y29047600D01*
G02X22890000Y29051700I4006J93D01*
G01X22897400D01*
Y29058300D01*
X22823500D01*
X22821200Y29058100D01*
X22818700Y29057600D01*
X22817600Y29057300D01*
X22816400Y29057000D01*
X22814800Y29056500D01*
X22814100Y29056300D01*
X22812800Y29056000D01*
X22811800Y29055500D01*
X22810500Y29055000D01*
X22809500Y29054500D01*
X22808500Y29054000D01*
X22807500Y29053200D01*
X22806500Y29052700D01*
X22805400Y29052000D01*
X22804400Y29051200D01*
X22803400Y29050400D01*
X22802700Y29049400D01*
X22801900Y29048900D01*
X22800900Y29047600D01*
X22800100Y29046900D01*
X22799400Y29045900D01*
X22798600Y29044800D01*
X22797800Y29043800D01*
X22797300Y29042600D01*
X22796800Y29041600D01*
X22796300Y29040500D01*
X22795800Y29039300D01*
X22795500Y29038200D01*
X22795000Y29036700D01*
Y29035700D01*
X22794800Y29034700D01*
Y29033400D01*
X22794500Y29032200D01*
Y29030900D01*
Y29026100D01*
Y29025000D01*
X22794300Y29023500D01*
Y29021200D01*
X22794000Y29020000D01*
Y29018700D01*
Y29017400D01*
X22794300Y29016400D01*
Y29015100D01*
X22794500Y29014600D01*
Y29013900D01*
X22794800Y29013600D01*
X22795000Y29012800D01*
Y29012100D01*
X22795300Y29011600D01*
X22795500Y29011100D01*
X22796000Y29010600D01*
X22796600Y29009600D01*
X22797300Y29008500D01*
X22798100Y29007500D01*
X22798800Y29006500D01*
X22799900Y29005700D01*
X22800600Y29004700D01*
X22801600Y29004000D01*
X22802400Y29003400D01*
X22803700Y29002700D01*
X22804400Y29002200D01*
X22805400Y29001700D01*
X22806500Y29001200D01*
X22807500Y29000700D01*
X22809800Y28999600D01*
X22810800Y28999100D01*
X22811800Y28998600D01*
X22812800Y28998100D01*
X22814100Y28997600D01*
X22815100Y28997100D01*
X22816400Y28996300D01*
X22817400Y28995600D01*
X22818700Y28994800D01*
X22819200Y28994300D01*
X22819400Y28994000D01*
X22819700Y28993800D01*
X22819900Y28993500D01*
X22820200D01*
X22820400Y28993300D01*
Y28993000D01*
Y28992800D01*
Y28992500D01*
X22820200Y28992300D01*
X22819900D01*
X22819700Y28992000D01*
X22819400Y28991800D01*
X22818900Y28991500D01*
X22817900Y28990800D01*
X22816900Y28990200D01*
X22816400Y28990000D01*
X22815900Y28989500D01*
X22815400Y28989200D01*
X22814800Y28988700D01*
X22814300Y28988500D01*
X22813300Y28987700D01*
X22812600Y28986900D01*
X22811800Y28986200D01*
X22811000Y28985400D01*
X22810000Y28984400D01*
X22809500Y28983600D01*
X22808800Y28982600D01*
X22808000Y28981900D01*
X22807200Y28980800D01*
X22806500Y28979800D01*
X22804900Y28977800D01*
X22804400Y28976800D01*
X22803700Y28975800D01*
X22802900Y28974800D01*
X22802700Y28974000D01*
X22801100Y28971400D01*
X22800100Y28969400D01*
X22798800Y28967100D01*
X22797800Y28965100D01*
X22797100Y28964100D01*
X22796600Y28963100D01*
X22796000Y28962300D01*
X22795300Y28961000D01*
X22794500Y28960000D01*
X22793800Y28959200D01*
X22792800Y28958200D01*
X22792000Y28957200D01*
X22790500Y28955400D01*
X22788200Y28953400D01*
X22786900Y28952100D01*
X22785100Y28950600D01*
X22782600Y28948300D01*
G02X22779800Y28947300I-2651J3003D01*
G01X22775000D01*
Y28940000D01*
X22802400D01*
G03X22805400Y28941200I157J3956D01*
G01X22810800Y28947300D01*
X22811800Y28948300D01*
X22812600Y28949400D01*
X22813600Y28950400D01*
X22814600Y28951400D01*
X22815400Y28952400D01*
X22816100Y28953400D01*
X22817100Y28954700D01*
X22817900Y28955700D01*
X22818700Y28956700D01*
X22819400Y28957700D01*
X22820200Y28959000D01*
X22820900Y28960300D01*
X22821400Y28961300D01*
X22822200Y28962600D01*
X22822700Y28963800D01*
X22823500Y28965100D01*
X22824000Y28966100D01*
X22824500Y28967600D01*
X22824800Y28968900D01*
X22825300Y28970200D01*
X22825800Y28971400D01*
X22826300Y28972700D01*
X22826800Y28974000D01*
X22827300Y28975000D01*
X22827600Y28975800D01*
X22828600Y28977500D01*
X22829300Y28978600D01*
X22829800Y28979800D01*
X22830600Y28980800D01*
X22831400Y28982100D01*
X22831900Y28982900D01*
X22832900Y28984400D01*
X22833600Y28985700D01*
X22834400Y28986700D01*
X22835200Y28987700D01*
X22836200Y28988700D01*
X22837000Y28989500D01*
X22838200Y28990500D01*
X22839500Y28991000D01*
X22840800Y28991800D01*
X22842000Y28992300D01*
X22862400D01*
Y29003400D01*
X22839000D01*
X22837400D01*
X22836200Y29003700D01*
X22835200D01*
X22833400Y29004000D01*
X22832100Y29004200D01*
X22830600Y29004500D01*
X22830100Y29004700D01*
X22828100Y29005500D01*
X22826800Y29006200D01*
X22825500Y29007000D01*
X22824500Y29007800D01*
X22823500Y29008800D01*
X22822500Y29009800D01*
X22821400Y29010800D01*
X22820700Y29012100D01*
X22819900Y29013100D01*
X22819400Y29014400D01*
X22818900Y29015600D01*
X22818400Y29016900D01*
X22818200Y29018400D01*
Y29019700D01*
X22817900Y29021200D01*
Y29022500D01*
Y29024000D01*
X22818200Y29025600D01*
Y29026800D01*
Y29028100D01*
X22818400Y29029600D01*
Y29030900D01*
X22818700Y29032400D01*
X22818900Y29033700D01*
X22819400Y29035000D01*
X22819900Y29036200D01*
X22820400Y29037500D01*
X22820700Y29038200D01*
X22822000Y29040000D01*
X22822700Y29041000D01*
X22823700Y29042100D01*
X22824800Y29043100D01*
X22826000Y29043800D01*
X22827000Y29044600D01*
X22828100Y29044800D01*
X22829600Y29045400D01*
X22831100Y29045900D01*
X22832400Y29046100D01*
X22833600D01*
X22835200Y29046400D01*
X22862800D01*
Y28951400D01*
G02X22858800Y28947300I-3975J-123D01*
G01X22849900D01*
Y28940000D01*
X22897400D01*
Y28947300D01*
X22890000D01*
G02X22886000Y28951400I-12J3989D01*
G37*
G36*
G01X22745800Y28940200D02*
X22691400D01*
G02X22671300Y28962300I2185J22178D01*
G01Y29047600D01*
G03X22667300Y29051700I-3986J113D01*
G01X22661400D01*
Y29058800D01*
X22700000D01*
Y29051700D01*
X22691700D01*
G03X22687800Y29047600I98J-3998D01*
G01Y28968400D01*
G03X22706600Y28953900I17948J3833D01*
G01X22728500D01*
G03X22745500Y28968400I-581J17897D01*
G01Y29047600D01*
G03X22741700Y29051700I-3985J118D01*
G01X22733100D01*
Y29058800D01*
X22785100D01*
Y29051700D01*
X22775000D01*
G03X22771200Y29047600I140J-3941D01*
G01Y28971400D01*
G02X22745800Y28940200I-32275J336D01*
G37*
G36*
G01X22655600Y28940000D02*
X22618000D01*
Y28949100D01*
X22626100D01*
G03X22630200Y28953200I101J3999D01*
G01Y29028800D01*
X22586200Y28940000D01*
X22544300Y29027300D01*
Y28953200D01*
G03X22548400Y28949100I4015J-85D01*
G01X22553000D01*
Y28940200D01*
X22507500D01*
Y28949100D01*
X22509300D01*
G03X22513400Y28953200I70J4030D01*
G01Y29048200D01*
G03X22509300Y29052200I-4026J-26D01*
G01X22505200D01*
Y29058800D01*
X22544300D01*
G02X22547900Y29056500I18J-3940D01*
G01X22578400Y28986200D01*
X22610900Y29056500D01*
G02X22614400Y29058800I3568J-1617D01*
G01X22655600D01*
Y29051700D01*
X22646200D01*
G03X22642400Y29047600I158J-3957D01*
G01Y28953200D01*
G03X22646200Y28949100I3961J-140D01*
G01X22655600D01*
Y28940000D01*
G37*
G36*
G01X23246100Y28957200D02*
G02X23238300Y28949100I-7926J-173D01*
G01X23234000D01*
Y28940200D01*
X23286300Y28940000D01*
Y28949100D01*
X23282000D01*
G02X23274100Y28957200I39J7941D01*
G01Y29079900D01*
G02X23282000Y29087800I7892J8D01*
G01X23286300D01*
Y29094600D01*
X23234700D01*
Y29087800D01*
X23238300D01*
G02X23246100Y29079900I-79J-7879D01*
G01Y28957200D01*
G37*
G36*
G01X23227100Y28949100D02*
X23219700D01*
G02X23215700Y28953200I-22J3980D01*
G01Y29046100D01*
G02X23219700Y29050200I3969J129D01*
G01X23227600D01*
Y29058800D01*
X23191300D01*
G03X23188200Y29057600I-260J-3933D01*
G01X23131300Y28991800D01*
Y29045400D01*
G02X23135400Y29049400I4025J-25D01*
G01X23145000D01*
Y29058800D01*
X23105200D01*
Y29049400D01*
X23113600D01*
G02X23117600Y29045400I-9J-4009D01*
G01Y28940200D01*
X23123700D01*
G03X23126800Y28941500I158J3970D01*
G01X23195300Y29021000D01*
Y28953200D01*
G02X23191300Y28949100I-3990J-109D01*
G01X23185400D01*
Y28940200D01*
X23227100D01*
Y28949100D01*
G37*
G36*
G01X23092700Y28941200D02*
X23102900Y28978000D01*
X23098300Y28979100D01*
X23096300Y28976500D01*
X23094200Y28974000D01*
X23092200Y28971400D01*
X23090200Y28968900D01*
X23088200Y28966600D01*
X23085900Y28964600D01*
X23083600Y28962600D01*
X23081000Y28960800D01*
X23078500Y28959200D01*
X23075700Y28958200D01*
X23072900Y28957200D01*
X23069900Y28956500D01*
X23066000Y28955700D01*
X23063500Y28955200D01*
X23060500Y28954700D01*
X23057200Y28954200D01*
X23054100Y28953900D01*
X23050800D01*
X23047800D01*
X23044700Y28954400D01*
X23041700Y28955200D01*
X23038600Y28956500D01*
X23036100Y28958000D01*
X23033500Y28960000D01*
X23031500Y28962300D01*
X23029500Y28966100D01*
X23029200Y28967900D01*
Y28971200D01*
X23030000Y28974200D01*
X23031500Y28977300D01*
X23034000Y28980800D01*
X23035600Y28982100D01*
X23038100Y28983900D01*
X23041200Y28985200D01*
X23044000Y28986200D01*
X23048300Y28987200D01*
X23050300Y28987400D01*
X23053400Y28988200D01*
X23056400Y28988500D01*
X23059400Y28989000D01*
X23062200Y28989500D01*
X23065300Y28990000D01*
X23068300Y28990500D01*
X23071400Y28991000D01*
X23074400Y28991500D01*
X23076500Y28992000D01*
X23080800Y28993300D01*
X23083600Y28994300D01*
X23086600Y28995600D01*
X23089400Y28997100D01*
X23092000Y28998900D01*
X23094000Y29000700D01*
X23096000Y29003200D01*
X23097600Y29005700D01*
X23098800Y29008500D01*
X23099600Y29011600D01*
X23100300Y29014900D01*
X23100800Y29017900D01*
X23101100Y29022800D01*
Y29024500D01*
X23100800Y29027800D01*
X23100600Y29031100D01*
X23099800Y29034200D01*
X23099100Y29037200D01*
X23097800Y29040000D01*
X23096500Y29042800D01*
X23094800Y29045400D01*
X23092700Y29047600D01*
X23090400Y29049700D01*
X23087900Y29051500D01*
X23085400Y29053200D01*
X23082600Y29054500D01*
X23079500Y29055800D01*
X23075200Y29057600D01*
X23073700Y29057800D01*
X23070600Y29058600D01*
X23067600Y29059300D01*
X23064500Y29059600D01*
X23061500Y29059800D01*
X23058400Y29060100D01*
X23055100D01*
X23052100Y29059800D01*
X23049000Y29059300D01*
X23046000Y29058800D01*
X23042900Y29058100D01*
X23040600Y29057000D01*
X23037100Y29055500D01*
X23034600Y29054000D01*
X23031800Y29052500D01*
Y29060100D01*
X23023100D01*
X23015200Y29026600D01*
X23018300Y29023800D01*
X23020600Y29025600D01*
X23022900Y29027600D01*
X23025400Y29029400D01*
X23028000Y29030900D01*
X23030200Y29032700D01*
X23033000Y29034200D01*
X23035600Y29035400D01*
X23038400Y29036500D01*
X23041200Y29037500D01*
X23044200Y29038500D01*
X23047000Y29039000D01*
X23050000Y29039800D01*
X23051800Y29040000D01*
X23055900Y29040300D01*
X23058900D01*
X23062000D01*
X23064500Y29040000D01*
X23068100Y29039300D01*
X23070900Y29038200D01*
X23073700Y29036700D01*
X23074900Y29035400D01*
X23077000Y29031600D01*
X23077700Y29028600D01*
X23077500Y29025300D01*
X23076700Y29022800D01*
X23074900Y29020200D01*
X23072700Y29018200D01*
X23069900Y29016900D01*
X23066800Y29015900D01*
X23063800Y29015100D01*
X23060500Y29014400D01*
X23057400Y29013900D01*
X23054600Y29013400D01*
X23051600Y29013100D01*
X23048800Y29012600D01*
X23045700Y29012100D01*
X23042900Y29011600D01*
X23040200Y29010800D01*
X23037100Y29010300D01*
X23034300Y29009300D01*
X23031500Y29008500D01*
X23028500Y29007500D01*
X23025400Y29006500D01*
X23022900Y29005200D01*
X23020100Y29003700D01*
X23017500Y29002200D01*
X23015500Y29000400D01*
X23013200Y28998100D01*
X23011400Y28995600D01*
X23009900Y28993000D01*
X23008600Y28990200D01*
X23007600Y28987200D01*
X23006900Y28984400D01*
X23006400Y28981400D01*
X23005900Y28978300D01*
Y28975300D01*
Y28972200D01*
X23006400Y28969400D01*
X23006900Y28966100D01*
X23007600Y28963300D01*
X23008600Y28960500D01*
X23009900Y28957700D01*
X23011200Y28955200D01*
X23013000Y28952400D01*
X23014800Y28950100D01*
X23017000Y28947800D01*
X23019100Y28945800D01*
X23021400Y28944000D01*
X23023900Y28942500D01*
X23026700Y28941000D01*
X23029500Y28939700D01*
X23032500Y28938700D01*
X23035300Y28937900D01*
X23038400Y28937200D01*
X23041400Y28936600D01*
X23044500Y28936400D01*
X23048000D01*
X23050600D01*
X23053600Y28936600D01*
X23056700Y28937200D01*
X23059400Y28937900D01*
X23062500Y28938400D01*
X23065300Y28939400D01*
X23068100Y28940200D01*
X23071100Y28941200D01*
X23073900Y28942200D01*
X23076700Y28943500D01*
X23079500Y28944500D01*
X23082300Y28945800D01*
Y28941200D01*
X23092700D01*
G37*
G36*
G01X23532900Y29272400D02*
X23555800D01*
Y29340000D01*
X23650000D01*
Y29198800D01*
X23750300D01*
X23749300Y29195200D01*
X23748600Y29191700D01*
X23747500Y29188400D01*
X23746500Y29184800D01*
X23745500Y29181500D01*
X23744200Y29178200D01*
X23742700Y29175200D01*
X23740900Y29172400D01*
X23739200Y29169600D01*
X23738100Y29168300D01*
X23734600Y29164500D01*
X23731800Y29162200D01*
X23729200Y29160200D01*
X23726400Y29158100D01*
X23723700Y29155800D01*
X23720600Y29153300D01*
X23718300Y29151300D01*
X23715800Y29148700D01*
X23713500Y29146200D01*
X23711200Y29143700D01*
X23708900Y29140900D01*
X23706900Y29138300D01*
X23704600Y29135500D01*
X23703600Y29132000D01*
X23702600Y29128400D01*
X23701600Y29124900D01*
X23700600Y29121300D01*
X23699500Y29117800D01*
X23698300Y29114200D01*
X23697000Y29110600D01*
X23695700Y29107300D01*
X23694400Y29103800D01*
X23692900Y29100500D01*
X23690900Y29095900D01*
X23689600Y29093600D01*
X23687800Y29090300D01*
X23685600Y29087300D01*
X23683300Y29084500D01*
X23680200Y29081900D01*
X23677200Y29079900D01*
X23673400Y29078600D01*
X23669600Y29077600D01*
X23666000D01*
X23663000Y29078100D01*
X23659100Y29079900D01*
X23656400Y29082200D01*
X23653600Y29085000D01*
X23651300Y29088000D01*
X23648700Y29091100D01*
X23646400Y29094100D01*
X23643900Y29096900D01*
X23641400Y29099700D01*
X23638600Y29102000D01*
X23635300Y29103800D01*
X23632000Y29105000D01*
X23627400Y29105800D01*
X23624600Y29105600D01*
X23621000Y29104500D01*
X23617500Y29102800D01*
X23613400Y29099700D01*
X23611600Y29098200D01*
X23609100Y29095400D01*
X23606800Y29092400D01*
X23604800Y29089300D01*
X23602800Y29086000D01*
X23601700Y29084000D01*
X23599200Y29079600D01*
X23597700Y29076400D01*
X23595900Y29073000D01*
X23594100Y29069700D01*
X23592600Y29066400D01*
X23591100Y29062900D01*
X23589800Y29060400D01*
X23588000Y29056300D01*
X23586500Y29053000D01*
X23585000Y29049400D01*
X23583400Y29046100D01*
X23581900Y29042800D01*
X23580400Y29039500D01*
X23577900Y29034400D01*
X23577100Y29032700D01*
X23575300Y29029600D01*
X23573600Y29026300D01*
X23571800Y29023000D01*
X23569700Y29020000D01*
X23568000Y29016700D01*
X23565700Y29013600D01*
X23563600Y29010600D01*
X23562100Y29008800D01*
X23558800Y29004700D01*
X23556300Y29001900D01*
X23553500Y28999400D01*
X23550900Y28996600D01*
X23547900Y28994300D01*
X23545100Y28991800D01*
X23542300Y28989700D01*
X23538200Y28986900D01*
X23536500Y28985700D01*
X23533400Y28984200D01*
X23530400Y28982600D01*
X23527300Y28981100D01*
X23524000Y28980100D01*
X23520700Y28979100D01*
X23516900Y28978300D01*
X23513400Y28977800D01*
X23509300Y28977300D01*
X23505000Y28977000D01*
X23498600D01*
X23495600Y28977300D01*
X23490700Y28977500D01*
X23485900Y28978300D01*
X23481600Y28979100D01*
X23478000Y28980600D01*
X23475800Y28982400D01*
X23475000Y28984900D01*
X23475800Y28987400D01*
X23477800Y28990500D01*
X23480600Y28994000D01*
X23481800Y29003400D01*
X23483100Y29012800D01*
X23483600Y29022000D01*
X23483400Y29030600D01*
X23482600Y29037500D01*
X23479600Y29046600D01*
X23475800Y29053700D01*
X23470900Y29060400D01*
X23464800Y29066400D01*
X23458200Y29072000D01*
X23450600Y29077400D01*
X23442500Y29082400D01*
X23433600Y29087300D01*
X23424400Y29091800D01*
X23415000Y29096200D01*
X23405100Y29100700D01*
X23395200Y29104800D01*
X23378000D01*
Y29185100D01*
X23395800Y29202800D01*
Y29272400D01*
X23477000D01*
X23486700Y29219600D01*
X23463100D01*
X23468900Y29186100D01*
X23490700D01*
X23504200Y29115500D01*
X23486900Y29115700D01*
Y29087500D01*
G03X23494000Y29078100I8045J-1305D01*
G01X23549700D01*
G03X23565900Y29091100I866J15514D01*
G01Y29099000D01*
X23550400Y29186100D01*
X23573600D01*
X23566400Y29219600D01*
X23541500D01*
X23532900Y29272400D01*
G37*
G36*
G01X22934200Y28947600D02*
Y28940200D01*
X22974900D01*
Y28947600D01*
X22970300D01*
G02X22966500Y28951400I39J3839D01*
G01Y29041800D01*
G02X22970300Y29045600I3811J-11D01*
G01X22993400D01*
G02X22996200Y29044600I192J-3882D01*
G01X23006400Y29034200D01*
X23002600Y29058600D01*
X22906300D01*
X22902500Y29034200D01*
X22912900Y29044600D01*
G02X22915700Y29045600I2597J-2851D01*
G01X22938800D01*
G02X22942600Y29041800I-58J-3858D01*
G01Y28951400D01*
G02X22938800Y28947600I-3882J82D01*
G01X22934200D01*
G37*
G36*
G01X22886000Y28951400D02*
Y29047600D01*
G02X22890000Y29051700I4006J93D01*
G01X22897400D01*
Y29058300D01*
X22823500D01*
X22821200Y29058100D01*
X22818700Y29057600D01*
X22817600Y29057300D01*
X22816400Y29057000D01*
X22814800Y29056500D01*
X22814100Y29056300D01*
X22812800Y29056000D01*
X22811800Y29055500D01*
X22810500Y29055000D01*
X22809500Y29054500D01*
X22808500Y29054000D01*
X22807500Y29053200D01*
X22806500Y29052700D01*
X22805400Y29052000D01*
X22804400Y29051200D01*
X22803400Y29050400D01*
X22802700Y29049400D01*
X22801900Y29048900D01*
X22800900Y29047600D01*
X22800100Y29046900D01*
X22799400Y29045900D01*
X22798600Y29044800D01*
X22797800Y29043800D01*
X22797300Y29042600D01*
X22796800Y29041600D01*
X22796300Y29040500D01*
X22795800Y29039300D01*
X22795500Y29038200D01*
X22795000Y29036700D01*
Y29035700D01*
X22794800Y29034700D01*
Y29033400D01*
X22794500Y29032200D01*
Y29030900D01*
Y29026100D01*
Y29025000D01*
X22794300Y29023500D01*
Y29021200D01*
X22794000Y29020000D01*
Y29018700D01*
Y29017400D01*
X22794300Y29016400D01*
Y29015100D01*
X22794500Y29014600D01*
Y29013900D01*
X22794800Y29013600D01*
X22795000Y29012800D01*
Y29012100D01*
X22795300Y29011600D01*
X22795500Y29011100D01*
X22796000Y29010600D01*
X22796600Y29009600D01*
X22797300Y29008500D01*
X22798100Y29007500D01*
X22798800Y29006500D01*
X22799900Y29005700D01*
X22800600Y29004700D01*
X22801600Y29004000D01*
X22802400Y29003400D01*
X22803700Y29002700D01*
X22804400Y29002200D01*
X22805400Y29001700D01*
X22806500Y29001200D01*
X22807500Y29000700D01*
X22809800Y28999600D01*
X22810800Y28999100D01*
X22811800Y28998600D01*
X22812800Y28998100D01*
X22814100Y28997600D01*
X22815100Y28997100D01*
X22816400Y28996300D01*
X22817400Y28995600D01*
X22818700Y28994800D01*
X22819200Y28994300D01*
X22819400Y28994000D01*
X22819700Y28993800D01*
X22819900Y28993500D01*
X22820200D01*
X22820400Y28993300D01*
Y28993000D01*
Y28992800D01*
Y28992500D01*
X22820200Y28992300D01*
X22819900D01*
X22819700Y28992000D01*
X22819400Y28991800D01*
X22818900Y28991500D01*
X22817900Y28990800D01*
X22816900Y28990200D01*
X22816400Y28990000D01*
X22815900Y28989500D01*
X22815400Y28989200D01*
X22814800Y28988700D01*
X22814300Y28988500D01*
X22813300Y28987700D01*
X22812600Y28986900D01*
X22811800Y28986200D01*
X22811000Y28985400D01*
X22810000Y28984400D01*
X22809500Y28983600D01*
X22808800Y28982600D01*
X22808000Y28981900D01*
X22807200Y28980800D01*
X22806500Y28979800D01*
X22804900Y28977800D01*
X22804400Y28976800D01*
X22803700Y28975800D01*
X22802900Y28974800D01*
X22802700Y28974000D01*
X22801100Y28971400D01*
X22800100Y28969400D01*
X22798800Y28967100D01*
X22797800Y28965100D01*
X22797100Y28964100D01*
X22796600Y28963100D01*
X22796000Y28962300D01*
X22795300Y28961000D01*
X22794500Y28960000D01*
X22793800Y28959200D01*
X22792800Y28958200D01*
X22792000Y28957200D01*
X22790500Y28955400D01*
X22788200Y28953400D01*
X22786900Y28952100D01*
X22785100Y28950600D01*
X22782600Y28948300D01*
G02X22779800Y28947300I-2651J3003D01*
G01X22775000D01*
Y28940000D01*
X22802400D01*
G03X22805400Y28941200I157J3956D01*
G01X22810800Y28947300D01*
X22811800Y28948300D01*
X22812600Y28949400D01*
X22813600Y28950400D01*
X22814600Y28951400D01*
X22815400Y28952400D01*
X22816100Y28953400D01*
X22817100Y28954700D01*
X22817900Y28955700D01*
X22818700Y28956700D01*
X22819400Y28957700D01*
X22820200Y28959000D01*
X22820900Y28960300D01*
X22821400Y28961300D01*
X22822200Y28962600D01*
X22822700Y28963800D01*
X22823500Y28965100D01*
X22824000Y28966100D01*
X22824500Y28967600D01*
X22824800Y28968900D01*
X22825300Y28970200D01*
X22825800Y28971400D01*
X22826300Y28972700D01*
X22826800Y28974000D01*
X22827300Y28975000D01*
X22827600Y28975800D01*
X22828600Y28977500D01*
X22829300Y28978600D01*
X22829800Y28979800D01*
X22830600Y28980800D01*
X22831400Y28982100D01*
X22831900Y28982900D01*
X22832900Y28984400D01*
X22833600Y28985700D01*
X22834400Y28986700D01*
X22835200Y28987700D01*
X22836200Y28988700D01*
X22837000Y28989500D01*
X22838200Y28990500D01*
X22839500Y28991000D01*
X22840800Y28991800D01*
X22842000Y28992300D01*
X22862400D01*
Y29003400D01*
X22839000D01*
X22837400D01*
X22836200Y29003700D01*
X22835200D01*
X22833400Y29004000D01*
X22832100Y29004200D01*
X22830600Y29004500D01*
X22830100Y29004700D01*
X22828100Y29005500D01*
X22826800Y29006200D01*
X22825500Y29007000D01*
X22824500Y29007800D01*
X22823500Y29008800D01*
X22822500Y29009800D01*
X22821400Y29010800D01*
X22820700Y29012100D01*
X22819900Y29013100D01*
X22819400Y29014400D01*
X22818900Y29015600D01*
X22818400Y29016900D01*
X22818200Y29018400D01*
Y29019700D01*
X22817900Y29021200D01*
Y29022500D01*
Y29024000D01*
X22818200Y29025600D01*
Y29026800D01*
Y29028100D01*
X22818400Y29029600D01*
Y29030900D01*
X22818700Y29032400D01*
X22818900Y29033700D01*
X22819400Y29035000D01*
X22819900Y29036200D01*
X22820400Y29037500D01*
X22820700Y29038200D01*
X22822000Y29040000D01*
X22822700Y29041000D01*
X22823700Y29042100D01*
X22824800Y29043100D01*
X22826000Y29043800D01*
X22827000Y29044600D01*
X22828100Y29044800D01*
X22829600Y29045400D01*
X22831100Y29045900D01*
X22832400Y29046100D01*
X22833600D01*
X22835200Y29046400D01*
X22862800D01*
Y28951400D01*
G02X22858800Y28947300I-3975J-123D01*
G01X22849900D01*
Y28940000D01*
X22897400D01*
Y28947300D01*
X22890000D01*
G02X22886000Y28951400I-12J3989D01*
G37*
G36*
G01X22745800Y28940200D02*
X22691400D01*
G02X22671300Y28962300I2185J22178D01*
G01Y29047600D01*
G03X22667300Y29051700I-3986J113D01*
G01X22661400D01*
Y29058800D01*
X22700000D01*
Y29051700D01*
X22691700D01*
G03X22687800Y29047600I98J-3998D01*
G01Y28968400D01*
G03X22706600Y28953900I17948J3833D01*
G01X22728500D01*
G03X22745500Y28968400I-581J17897D01*
G01Y29047600D01*
G03X22741700Y29051700I-3985J118D01*
G01X22733100D01*
Y29058800D01*
X22785100D01*
Y29051700D01*
X22775000D01*
G03X22771200Y29047600I140J-3941D01*
G01Y28971400D01*
G02X22745800Y28940200I-32275J336D01*
G37*
G36*
G01X22655600Y28940000D02*
X22618000D01*
Y28949100D01*
X22626100D01*
G03X22630200Y28953200I101J3999D01*
G01Y29028800D01*
X22586200Y28940000D01*
X22544300Y29027300D01*
Y28953200D01*
G03X22548400Y28949100I4015J-85D01*
G01X22553000D01*
Y28940200D01*
X22507500D01*
Y28949100D01*
X22509300D01*
G03X22513400Y28953200I70J4030D01*
G01Y29048200D01*
G03X22509300Y29052200I-4026J-26D01*
G01X22505200D01*
Y29058800D01*
X22544300D01*
G02X22547900Y29056500I18J-3940D01*
G01X22578400Y28986200D01*
X22610900Y29056500D01*
G02X22614400Y29058800I3568J-1617D01*
G01X22655600D01*
Y29051700D01*
X22646200D01*
G03X22642400Y29047600I158J-3957D01*
G01Y28953200D01*
G03X22646200Y28949100I3961J-140D01*
G01X22655600D01*
Y28940000D01*
G37*
G36*
G01X23246100Y28957200D02*
G02X23238300Y28949100I-7926J-173D01*
G01X23234000D01*
Y28940200D01*
X23286300Y28940000D01*
Y28949100D01*
X23282000D01*
G02X23274100Y28957200I39J7941D01*
G01Y29079900D01*
G02X23282000Y29087800I7892J8D01*
G01X23286300D01*
Y29094600D01*
X23234700D01*
Y29087800D01*
X23238300D01*
G02X23246100Y29079900I-79J-7879D01*
G01Y28957200D01*
G37*
G36*
G01X23227100Y28949100D02*
X23219700D01*
G02X23215700Y28953200I-22J3980D01*
G01Y29046100D01*
G02X23219700Y29050200I3969J129D01*
G01X23227600D01*
Y29058800D01*
X23191300D01*
G03X23188200Y29057600I-260J-3933D01*
G01X23131300Y28991800D01*
Y29045400D01*
G02X23135400Y29049400I4025J-25D01*
G01X23145000D01*
Y29058800D01*
X23105200D01*
Y29049400D01*
X23113600D01*
G02X23117600Y29045400I-9J-4009D01*
G01Y28940200D01*
X23123700D01*
G03X23126800Y28941500I158J3970D01*
G01X23195300Y29021000D01*
Y28953200D01*
G02X23191300Y28949100I-3990J-109D01*
G01X23185400D01*
Y28940200D01*
X23227100D01*
Y28949100D01*
G37*
G36*
G01X23092700Y28941200D02*
X23102900Y28978000D01*
X23098300Y28979100D01*
X23096300Y28976500D01*
X23094200Y28974000D01*
X23092200Y28971400D01*
X23090200Y28968900D01*
X23088200Y28966600D01*
X23085900Y28964600D01*
X23083600Y28962600D01*
X23081000Y28960800D01*
X23078500Y28959200D01*
X23075700Y28958200D01*
X23072900Y28957200D01*
X23069900Y28956500D01*
X23066000Y28955700D01*
X23063500Y28955200D01*
X23060500Y28954700D01*
X23057200Y28954200D01*
X23054100Y28953900D01*
X23050800D01*
X23047800D01*
X23044700Y28954400D01*
X23041700Y28955200D01*
X23038600Y28956500D01*
X23036100Y28958000D01*
X23033500Y28960000D01*
X23031500Y28962300D01*
X23029500Y28966100D01*
X23029200Y28967900D01*
Y28971200D01*
X23030000Y28974200D01*
X23031500Y28977300D01*
X23034000Y28980800D01*
X23035600Y28982100D01*
X23038100Y28983900D01*
X23041200Y28985200D01*
X23044000Y28986200D01*
X23048300Y28987200D01*
X23050300Y28987400D01*
X23053400Y28988200D01*
X23056400Y28988500D01*
X23059400Y28989000D01*
X23062200Y28989500D01*
X23065300Y28990000D01*
X23068300Y28990500D01*
X23071400Y28991000D01*
X23074400Y28991500D01*
X23076500Y28992000D01*
X23080800Y28993300D01*
X23083600Y28994300D01*
X23086600Y28995600D01*
X23089400Y28997100D01*
X23092000Y28998900D01*
X23094000Y29000700D01*
X23096000Y29003200D01*
X23097600Y29005700D01*
X23098800Y29008500D01*
X23099600Y29011600D01*
X23100300Y29014900D01*
X23100800Y29017900D01*
X23101100Y29022800D01*
Y29024500D01*
X23100800Y29027800D01*
X23100600Y29031100D01*
X23099800Y29034200D01*
X23099100Y29037200D01*
X23097800Y29040000D01*
X23096500Y29042800D01*
X23094800Y29045400D01*
X23092700Y29047600D01*
X23090400Y29049700D01*
X23087900Y29051500D01*
X23085400Y29053200D01*
X23082600Y29054500D01*
X23079500Y29055800D01*
X23075200Y29057600D01*
X23073700Y29057800D01*
X23070600Y29058600D01*
X23067600Y29059300D01*
X23064500Y29059600D01*
X23061500Y29059800D01*
X23058400Y29060100D01*
X23055100D01*
X23052100Y29059800D01*
X23049000Y29059300D01*
X23046000Y29058800D01*
X23042900Y29058100D01*
X23040600Y29057000D01*
X23037100Y29055500D01*
X23034600Y29054000D01*
X23031800Y29052500D01*
Y29060100D01*
X23023100D01*
X23015200Y29026600D01*
X23018300Y29023800D01*
X23020600Y29025600D01*
X23022900Y29027600D01*
X23025400Y29029400D01*
X23028000Y29030900D01*
X23030200Y29032700D01*
X23033000Y29034200D01*
X23035600Y29035400D01*
X23038400Y29036500D01*
X23041200Y29037500D01*
X23044200Y29038500D01*
X23047000Y29039000D01*
X23050000Y29039800D01*
X23051800Y29040000D01*
X23055900Y29040300D01*
X23058900D01*
X23062000D01*
X23064500Y29040000D01*
X23068100Y29039300D01*
X23070900Y29038200D01*
X23073700Y29036700D01*
X23074900Y29035400D01*
X23077000Y29031600D01*
X23077700Y29028600D01*
X23077500Y29025300D01*
X23076700Y29022800D01*
X23074900Y29020200D01*
X23072700Y29018200D01*
X23069900Y29016900D01*
X23066800Y29015900D01*
X23063800Y29015100D01*
X23060500Y29014400D01*
X23057400Y29013900D01*
X23054600Y29013400D01*
X23051600Y29013100D01*
X23048800Y29012600D01*
X23045700Y29012100D01*
X23042900Y29011600D01*
X23040200Y29010800D01*
X23037100Y29010300D01*
X23034300Y29009300D01*
X23031500Y29008500D01*
X23028500Y29007500D01*
X23025400Y29006500D01*
X23022900Y29005200D01*
X23020100Y29003700D01*
X23017500Y29002200D01*
X23015500Y29000400D01*
X23013200Y28998100D01*
X23011400Y28995600D01*
X23009900Y28993000D01*
X23008600Y28990200D01*
X23007600Y28987200D01*
X23006900Y28984400D01*
X23006400Y28981400D01*
X23005900Y28978300D01*
Y28975300D01*
Y28972200D01*
X23006400Y28969400D01*
X23006900Y28966100D01*
X23007600Y28963300D01*
X23008600Y28960500D01*
X23009900Y28957700D01*
X23011200Y28955200D01*
X23013000Y28952400D01*
X23014800Y28950100D01*
X23017000Y28947800D01*
X23019100Y28945800D01*
X23021400Y28944000D01*
X23023900Y28942500D01*
X23026700Y28941000D01*
X23029500Y28939700D01*
X23032500Y28938700D01*
X23035300Y28937900D01*
X23038400Y28937200D01*
X23041400Y28936600D01*
X23044500Y28936400D01*
X23048000D01*
X23050600D01*
X23053600Y28936600D01*
X23056700Y28937200D01*
X23059400Y28937900D01*
X23062500Y28938400D01*
X23065300Y28939400D01*
X23068100Y28940200D01*
X23071100Y28941200D01*
X23073900Y28942200D01*
X23076700Y28943500D01*
X23079500Y28944500D01*
X23082300Y28945800D01*
Y28941200D01*
X23092700D01*
G37*
G36*
G01X23532900Y29272400D02*
X23555800D01*
Y29340000D01*
X23650000D01*
Y29198800D01*
X23750300D01*
X23749300Y29195200D01*
X23748600Y29191700D01*
X23747500Y29188400D01*
X23746500Y29184800D01*
X23745500Y29181500D01*
X23744200Y29178200D01*
X23742700Y29175200D01*
X23740900Y29172400D01*
X23739200Y29169600D01*
X23738100Y29168300D01*
X23734600Y29164500D01*
X23731800Y29162200D01*
X23729200Y29160200D01*
X23726400Y29158100D01*
X23723700Y29155800D01*
X23720600Y29153300D01*
X23718300Y29151300D01*
X23715800Y29148700D01*
X23713500Y29146200D01*
X23711200Y29143700D01*
X23708900Y29140900D01*
X23706900Y29138300D01*
X23704600Y29135500D01*
X23703600Y29132000D01*
X23702600Y29128400D01*
X23701600Y29124900D01*
X23700600Y29121300D01*
X23699500Y29117800D01*
X23698300Y29114200D01*
X23697000Y29110600D01*
X23695700Y29107300D01*
X23694400Y29103800D01*
X23692900Y29100500D01*
X23690900Y29095900D01*
X23689600Y29093600D01*
X23687800Y29090300D01*
X23685600Y29087300D01*
X23683300Y29084500D01*
X23680200Y29081900D01*
X23677200Y29079900D01*
X23673400Y29078600D01*
X23669600Y29077600D01*
X23666000D01*
X23663000Y29078100D01*
X23659100Y29079900D01*
X23656400Y29082200D01*
X23653600Y29085000D01*
X23651300Y29088000D01*
X23648700Y29091100D01*
X23646400Y29094100D01*
X23643900Y29096900D01*
X23641400Y29099700D01*
X23638600Y29102000D01*
X23635300Y29103800D01*
X23632000Y29105000D01*
X23627400Y29105800D01*
X23624600Y29105600D01*
X23621000Y29104500D01*
X23617500Y29102800D01*
X23613400Y29099700D01*
X23611600Y29098200D01*
X23609100Y29095400D01*
X23606800Y29092400D01*
X23604800Y29089300D01*
X23602800Y29086000D01*
X23601700Y29084000D01*
X23599200Y29079600D01*
X23597700Y29076400D01*
X23595900Y29073000D01*
X23594100Y29069700D01*
X23592600Y29066400D01*
X23591100Y29062900D01*
X23589800Y29060400D01*
X23588000Y29056300D01*
X23586500Y29053000D01*
X23585000Y29049400D01*
X23583400Y29046100D01*
X23581900Y29042800D01*
X23580400Y29039500D01*
X23577900Y29034400D01*
X23577100Y29032700D01*
X23575300Y29029600D01*
X23573600Y29026300D01*
X23571800Y29023000D01*
X23569700Y29020000D01*
X23568000Y29016700D01*
X23565700Y29013600D01*
X23563600Y29010600D01*
X23562100Y29008800D01*
X23558800Y29004700D01*
X23556300Y29001900D01*
X23553500Y28999400D01*
X23550900Y28996600D01*
X23547900Y28994300D01*
X23545100Y28991800D01*
X23542300Y28989700D01*
X23538200Y28986900D01*
X23536500Y28985700D01*
X23533400Y28984200D01*
X23530400Y28982600D01*
X23527300Y28981100D01*
X23524000Y28980100D01*
X23520700Y28979100D01*
X23516900Y28978300D01*
X23513400Y28977800D01*
X23509300Y28977300D01*
X23505000Y28977000D01*
X23498600D01*
X23495600Y28977300D01*
X23490700Y28977500D01*
X23485900Y28978300D01*
X23481600Y28979100D01*
X23478000Y28980600D01*
X23475800Y28982400D01*
X23475000Y28984900D01*
X23475800Y28987400D01*
X23477800Y28990500D01*
X23480600Y28994000D01*
X23481800Y29003400D01*
X23483100Y29012800D01*
X23483600Y29022000D01*
X23483400Y29030600D01*
X23482600Y29037500D01*
X23479600Y29046600D01*
X23475800Y29053700D01*
X23470900Y29060400D01*
X23464800Y29066400D01*
X23458200Y29072000D01*
X23450600Y29077400D01*
X23442500Y29082400D01*
X23433600Y29087300D01*
X23424400Y29091800D01*
X23415000Y29096200D01*
X23405100Y29100700D01*
X23395200Y29104800D01*
X23378000D01*
Y29185100D01*
X23395800Y29202800D01*
Y29272400D01*
X23477000D01*
X23486700Y29219600D01*
X23463100D01*
X23468900Y29186100D01*
X23490700D01*
X23504200Y29115500D01*
X23486900Y29115700D01*
Y29087500D01*
G03X23494000Y29078100I8045J-1305D01*
G01X23549700D01*
G03X23565900Y29091100I866J15514D01*
G01Y29099000D01*
X23550400Y29186100D01*
X23573600D01*
X23566400Y29219600D01*
X23541500D01*
X23532900Y29272400D01*
G37*
G36*
G01X23234700Y29125600D02*
Y29116200D01*
X23286300D01*
Y29125600D01*
X23280400D01*
G02X23275600Y29130400I125J4925D01*
G01Y29245000D01*
G02X23280400Y29249800I4901J-101D01*
G01X23309600D01*
G02X23313200Y29248300I78J-4883D01*
G01X23326400Y29235400D01*
X23321600Y29266100D01*
X23199700D01*
X23194800Y29235400D01*
X23207800Y29248300D01*
G02X23211300Y29249800I3526J-3394D01*
G01X23240600D01*
G02X23245400Y29245000I-85J-4885D01*
G01Y29130400D01*
G02X23240600Y29125600I-4909J109D01*
G01X23234700D01*
G37*
G36*
G01X23100300Y29220600D02*
X23069600Y29177200D01*
G03Y29172600I3249J-2300D01*
G01X23100100Y29128700D01*
G03X23103400Y29126900I3316J2154D01*
G01X23111000D01*
Y29116200D01*
X23074900D01*
Y29126900D01*
X23081800D01*
X23058700Y29161700D01*
X23034000Y29126900D01*
X23041400D01*
Y29116200D01*
X23000300D01*
Y29126900D01*
X23001500D01*
G03X23004800Y29128700I-20J3962D01*
G01X23035600Y29172600D01*
G03Y29177200I-3283J2300D01*
G01X23007900Y29220600D01*
G03X23004600Y29222400I-3332J-2184D01*
G01X22995700D01*
Y29235400D01*
X23038400D01*
Y29226000D01*
Y29222400D01*
X23026900D01*
X23047500Y29191200D01*
X23068100Y29222400D01*
X23055400D01*
Y29235400D01*
X23111300D01*
Y29222400D01*
X23103600D01*
G03X23100300Y29220600I32J-3984D01*
G37*
G36*
G01X22923600Y29116200D02*
Y29126900D01*
X22920300D01*
G02X22916400Y29132200I-111J4003D01*
G01X22944400Y29210500D01*
X22963400Y29161700D01*
X22927600D01*
X22923600Y29150300D01*
X22967800D01*
X22974900Y29132200D01*
G02X22971100Y29126900I-3767J-1312D01*
G01X22970300D01*
Y29116200D01*
X22997700D01*
Y29126900D01*
X22997200D01*
G02X22993400Y29129400I-87J4006D01*
G01X22952800Y29235400D01*
X22925800D01*
X22887000Y29129400D01*
G02X22883400Y29126900I-3684J1463D01*
G01X22879100D01*
Y29116200D01*
X22923600D01*
G37*
G36*
G01X23135600Y29191400D02*
X23132600D01*
Y29162000D01*
X23135600D01*
X23139500Y29167000D01*
G02X23142800Y29168600I3220J-2439D01*
G01X23183200D01*
Y29130200D01*
X23132100D01*
G02X23129300Y29131500I99J3879D01*
G01X23116800Y29144200D01*
X23113600D01*
X23122200Y29119000D01*
G03X23126000Y29116200I3791J1167D01*
G01X23216700D01*
Y29120500D01*
X23205500Y29126400D01*
G02X23203200Y29129900I1680J3609D01*
G01Y29218300D01*
G02X23205200Y29221600I4006J-172D01*
G01X23216700Y29228200D01*
Y29235100D01*
X23130800D01*
G03X23127000Y29232600I-109J-3972D01*
G01X23116400Y29206600D01*
X23122200Y29204100D01*
X23132600Y29215800D01*
G02X23135600Y29217100I2975J-2753D01*
G01X23183200D01*
Y29186600D01*
X23142200D01*
G02X23139500Y29187600I-79J3932D01*
G01X23135600Y29191400D01*
G37*
G36*
G01X22870700Y29117500D02*
X22880600Y29154100D01*
X22876100Y29155300D01*
X22874300Y29152800D01*
X22872200Y29150000D01*
X22870200Y29147500D01*
X22868200Y29145200D01*
X22866200Y29142900D01*
X22863900Y29140600D01*
X22861600Y29138800D01*
X22859000Y29137000D01*
X22856500Y29135500D01*
X22853700Y29134500D01*
X22850900Y29133500D01*
X22847900Y29132700D01*
X22844100Y29132000D01*
X22841500Y29131500D01*
X22838500Y29131000D01*
X22835200Y29130400D01*
X22832100Y29130200D01*
X22828800Y29129900D01*
X22825800Y29130200D01*
X22822700Y29130700D01*
X22819700Y29131500D01*
X22816600Y29132700D01*
X22814100Y29134300D01*
X22811600Y29136000D01*
X22809300Y29138600D01*
X22807500Y29142400D01*
X22807200Y29144200D01*
Y29147500D01*
X22808000Y29150500D01*
X22809500Y29153600D01*
X22812000Y29156900D01*
X22813600Y29158400D01*
X22816100Y29160200D01*
X22818900Y29161400D01*
X22822000Y29162400D01*
X22826300Y29163500D01*
X22828100Y29163700D01*
X22831100Y29164200D01*
X22834200Y29164700D01*
X22837200Y29165200D01*
X22840200Y29165800D01*
X22843300Y29166000D01*
X22846300Y29166500D01*
X22849400Y29167300D01*
X22852400Y29167800D01*
X22854500Y29168300D01*
X22858500Y29169600D01*
X22861600Y29170600D01*
X22864600Y29171800D01*
X22867400Y29173400D01*
X22869700Y29175200D01*
X22872000Y29176900D01*
X22873800Y29179500D01*
X22875600Y29182000D01*
X22876600Y29184800D01*
X22877600Y29187800D01*
X22878400Y29190900D01*
X22878900Y29194200D01*
X22879100Y29199000D01*
Y29200800D01*
X22878900Y29204100D01*
X22878600Y29207400D01*
X22877800Y29210500D01*
X22877100Y29213500D01*
X22875800Y29216300D01*
X22874500Y29219100D01*
X22872500Y29221600D01*
X22870700Y29223700D01*
X22868400Y29226000D01*
X22865900Y29227700D01*
X22863400Y29229300D01*
X22860600Y29230800D01*
X22857500Y29232000D01*
X22853200Y29233600D01*
X22851400Y29234100D01*
X22848400Y29234800D01*
X22845600Y29235400D01*
X22842500Y29235900D01*
X22839200Y29236100D01*
X22836400D01*
X22833100D01*
X22830100D01*
X22826800Y29235600D01*
X22823700Y29235100D01*
X22820900Y29234100D01*
X22818400Y29233300D01*
X22815100Y29231800D01*
X22812600Y29230300D01*
X22809800Y29228800D01*
Y29236400D01*
X22801100D01*
X22793300Y29202800D01*
X22796000Y29200000D01*
X22798600Y29201800D01*
X22800900Y29203600D01*
X22803400Y29205400D01*
X22805700Y29207200D01*
X22808200Y29208700D01*
X22811000Y29210500D01*
X22813600Y29211500D01*
X22816400Y29212800D01*
X22819200Y29213800D01*
X22822200Y29214500D01*
X22825000Y29215300D01*
X22828100Y29215800D01*
X22829800Y29216000D01*
X22833900Y29216600D01*
X22837000D01*
X22840000D01*
X22842500Y29216000D01*
X22846100Y29215500D01*
X22848900Y29214500D01*
X22851400Y29213000D01*
X22853000Y29211700D01*
X22855000Y29207900D01*
X22855500Y29204600D01*
Y29201600D01*
X22854700Y29199000D01*
X22853000Y29196200D01*
X22850700Y29194500D01*
X22847900Y29193200D01*
X22844600Y29191900D01*
X22841800Y29191200D01*
X22838500Y29190600D01*
X22835400Y29190100D01*
X22832400Y29189600D01*
X22829600Y29189100D01*
X22826800Y29188900D01*
X22823700Y29188400D01*
X22820900Y29187800D01*
X22817900Y29187100D01*
X22815100Y29186300D01*
X22812000Y29185600D01*
X22809500Y29184800D01*
X22806500Y29183800D01*
X22803400Y29182800D01*
X22800600Y29181500D01*
X22798100Y29180000D01*
X22795500Y29178500D01*
X22793500Y29176700D01*
X22791200Y29174400D01*
X22789400Y29171800D01*
X22787900Y29169300D01*
X22786600Y29166500D01*
X22785600Y29163500D01*
X22784900Y29160400D01*
X22784400Y29157600D01*
X22783900Y29154600D01*
Y29151500D01*
Y29148500D01*
X22784100Y29145400D01*
X22784900Y29142400D01*
X22785600Y29139600D01*
X22786600Y29136800D01*
X22787700Y29134000D01*
X22789200Y29131200D01*
X22790700Y29128700D01*
X22792800Y29126400D01*
X22794800Y29123800D01*
X22796800Y29122100D01*
X22799400Y29120300D01*
X22801900Y29118500D01*
X22804700Y29117200D01*
X22807500Y29116000D01*
X22810300Y29115000D01*
X22813300Y29113900D01*
X22816400Y29113400D01*
X22819400Y29112900D01*
X22822500Y29112700D01*
X22826000D01*
X22828600D01*
X22831600Y29112900D01*
X22834700Y29113400D01*
X22837400Y29113900D01*
X22840500Y29114700D01*
X22843300Y29115500D01*
X22846100Y29116500D01*
X22848900Y29117500D01*
X22851900Y29118500D01*
X22854700Y29119800D01*
X22857500Y29120800D01*
X22860300Y29122100D01*
Y29117500D01*
X22870700D01*
G37*
G36*
G01X23524500Y29278000D02*
X23515400Y29317900D01*
X23473700D01*
X23482900Y29278000D01*
X23524500D01*
G37*
G36*
G01Y29272400D02*
X23556000Y29115700D01*
X23514600D01*
X23482900Y29272400D01*
X23524500D01*
G37*
G36*
G01X23234700Y29125600D02*
Y29116200D01*
X23286300D01*
Y29125600D01*
X23280400D01*
G02X23275600Y29130400I125J4925D01*
G01Y29245000D01*
G02X23280400Y29249800I4901J-101D01*
G01X23309600D01*
G02X23313200Y29248300I78J-4883D01*
G01X23326400Y29235400D01*
X23321600Y29266100D01*
X23199700D01*
X23194800Y29235400D01*
X23207800Y29248300D01*
G02X23211300Y29249800I3526J-3394D01*
G01X23240600D01*
G02X23245400Y29245000I-85J-4885D01*
G01Y29130400D01*
G02X23240600Y29125600I-4909J109D01*
G01X23234700D01*
G37*
G36*
G01X23100300Y29220600D02*
X23069600Y29177200D01*
G03Y29172600I3249J-2300D01*
G01X23100100Y29128700D01*
G03X23103400Y29126900I3316J2154D01*
G01X23111000D01*
Y29116200D01*
X23074900D01*
Y29126900D01*
X23081800D01*
X23058700Y29161700D01*
X23034000Y29126900D01*
X23041400D01*
Y29116200D01*
X23000300D01*
Y29126900D01*
X23001500D01*
G03X23004800Y29128700I-20J3962D01*
G01X23035600Y29172600D01*
G03Y29177200I-3283J2300D01*
G01X23007900Y29220600D01*
G03X23004600Y29222400I-3332J-2184D01*
G01X22995700D01*
Y29235400D01*
X23038400D01*
Y29226000D01*
Y29222400D01*
X23026900D01*
X23047500Y29191200D01*
X23068100Y29222400D01*
X23055400D01*
Y29235400D01*
X23111300D01*
Y29222400D01*
X23103600D01*
G03X23100300Y29220600I32J-3984D01*
G37*
G36*
G01X22923600Y29116200D02*
Y29126900D01*
X22920300D01*
G02X22916400Y29132200I-111J4003D01*
G01X22944400Y29210500D01*
X22963400Y29161700D01*
X22927600D01*
X22923600Y29150300D01*
X22967800D01*
X22974900Y29132200D01*
G02X22971100Y29126900I-3767J-1312D01*
G01X22970300D01*
Y29116200D01*
X22997700D01*
Y29126900D01*
X22997200D01*
G02X22993400Y29129400I-87J4006D01*
G01X22952800Y29235400D01*
X22925800D01*
X22887000Y29129400D01*
G02X22883400Y29126900I-3684J1463D01*
G01X22879100D01*
Y29116200D01*
X22923600D01*
G37*
G36*
G01X23135600Y29191400D02*
X23132600D01*
Y29162000D01*
X23135600D01*
X23139500Y29167000D01*
G02X23142800Y29168600I3220J-2439D01*
G01X23183200D01*
Y29130200D01*
X23132100D01*
G02X23129300Y29131500I99J3879D01*
G01X23116800Y29144200D01*
X23113600D01*
X23122200Y29119000D01*
G03X23126000Y29116200I3791J1167D01*
G01X23216700D01*
Y29120500D01*
X23205500Y29126400D01*
G02X23203200Y29129900I1680J3609D01*
G01Y29218300D01*
G02X23205200Y29221600I4006J-172D01*
G01X23216700Y29228200D01*
Y29235100D01*
X23130800D01*
G03X23127000Y29232600I-109J-3972D01*
G01X23116400Y29206600D01*
X23122200Y29204100D01*
X23132600Y29215800D01*
G02X23135600Y29217100I2975J-2753D01*
G01X23183200D01*
Y29186600D01*
X23142200D01*
G02X23139500Y29187600I-79J3932D01*
G01X23135600Y29191400D01*
G37*
G36*
G01X22870700Y29117500D02*
X22880600Y29154100D01*
X22876100Y29155300D01*
X22874300Y29152800D01*
X22872200Y29150000D01*
X22870200Y29147500D01*
X22868200Y29145200D01*
X22866200Y29142900D01*
X22863900Y29140600D01*
X22861600Y29138800D01*
X22859000Y29137000D01*
X22856500Y29135500D01*
X22853700Y29134500D01*
X22850900Y29133500D01*
X22847900Y29132700D01*
X22844100Y29132000D01*
X22841500Y29131500D01*
X22838500Y29131000D01*
X22835200Y29130400D01*
X22832100Y29130200D01*
X22828800Y29129900D01*
X22825800Y29130200D01*
X22822700Y29130700D01*
X22819700Y29131500D01*
X22816600Y29132700D01*
X22814100Y29134300D01*
X22811600Y29136000D01*
X22809300Y29138600D01*
X22807500Y29142400D01*
X22807200Y29144200D01*
Y29147500D01*
X22808000Y29150500D01*
X22809500Y29153600D01*
X22812000Y29156900D01*
X22813600Y29158400D01*
X22816100Y29160200D01*
X22818900Y29161400D01*
X22822000Y29162400D01*
X22826300Y29163500D01*
X22828100Y29163700D01*
X22831100Y29164200D01*
X22834200Y29164700D01*
X22837200Y29165200D01*
X22840200Y29165800D01*
X22843300Y29166000D01*
X22846300Y29166500D01*
X22849400Y29167300D01*
X22852400Y29167800D01*
X22854500Y29168300D01*
X22858500Y29169600D01*
X22861600Y29170600D01*
X22864600Y29171800D01*
X22867400Y29173400D01*
X22869700Y29175200D01*
X22872000Y29176900D01*
X22873800Y29179500D01*
X22875600Y29182000D01*
X22876600Y29184800D01*
X22877600Y29187800D01*
X22878400Y29190900D01*
X22878900Y29194200D01*
X22879100Y29199000D01*
Y29200800D01*
X22878900Y29204100D01*
X22878600Y29207400D01*
X22877800Y29210500D01*
X22877100Y29213500D01*
X22875800Y29216300D01*
X22874500Y29219100D01*
X22872500Y29221600D01*
X22870700Y29223700D01*
X22868400Y29226000D01*
X22865900Y29227700D01*
X22863400Y29229300D01*
X22860600Y29230800D01*
X22857500Y29232000D01*
X22853200Y29233600D01*
X22851400Y29234100D01*
X22848400Y29234800D01*
X22845600Y29235400D01*
X22842500Y29235900D01*
X22839200Y29236100D01*
X22836400D01*
X22833100D01*
X22830100D01*
X22826800Y29235600D01*
X22823700Y29235100D01*
X22820900Y29234100D01*
X22818400Y29233300D01*
X22815100Y29231800D01*
X22812600Y29230300D01*
X22809800Y29228800D01*
Y29236400D01*
X22801100D01*
X22793300Y29202800D01*
X22796000Y29200000D01*
X22798600Y29201800D01*
X22800900Y29203600D01*
X22803400Y29205400D01*
X22805700Y29207200D01*
X22808200Y29208700D01*
X22811000Y29210500D01*
X22813600Y29211500D01*
X22816400Y29212800D01*
X22819200Y29213800D01*
X22822200Y29214500D01*
X22825000Y29215300D01*
X22828100Y29215800D01*
X22829800Y29216000D01*
X22833900Y29216600D01*
X22837000D01*
X22840000D01*
X22842500Y29216000D01*
X22846100Y29215500D01*
X22848900Y29214500D01*
X22851400Y29213000D01*
X22853000Y29211700D01*
X22855000Y29207900D01*
X22855500Y29204600D01*
Y29201600D01*
X22854700Y29199000D01*
X22853000Y29196200D01*
X22850700Y29194500D01*
X22847900Y29193200D01*
X22844600Y29191900D01*
X22841800Y29191200D01*
X22838500Y29190600D01*
X22835400Y29190100D01*
X22832400Y29189600D01*
X22829600Y29189100D01*
X22826800Y29188900D01*
X22823700Y29188400D01*
X22820900Y29187800D01*
X22817900Y29187100D01*
X22815100Y29186300D01*
X22812000Y29185600D01*
X22809500Y29184800D01*
X22806500Y29183800D01*
X22803400Y29182800D01*
X22800600Y29181500D01*
X22798100Y29180000D01*
X22795500Y29178500D01*
X22793500Y29176700D01*
X22791200Y29174400D01*
X22789400Y29171800D01*
X22787900Y29169300D01*
X22786600Y29166500D01*
X22785600Y29163500D01*
X22784900Y29160400D01*
X22784400Y29157600D01*
X22783900Y29154600D01*
Y29151500D01*
Y29148500D01*
X22784100Y29145400D01*
X22784900Y29142400D01*
X22785600Y29139600D01*
X22786600Y29136800D01*
X22787700Y29134000D01*
X22789200Y29131200D01*
X22790700Y29128700D01*
X22792800Y29126400D01*
X22794800Y29123800D01*
X22796800Y29122100D01*
X22799400Y29120300D01*
X22801900Y29118500D01*
X22804700Y29117200D01*
X22807500Y29116000D01*
X22810300Y29115000D01*
X22813300Y29113900D01*
X22816400Y29113400D01*
X22819400Y29112900D01*
X22822500Y29112700D01*
X22826000D01*
X22828600D01*
X22831600Y29112900D01*
X22834700Y29113400D01*
X22837400Y29113900D01*
X22840500Y29114700D01*
X22843300Y29115500D01*
X22846100Y29116500D01*
X22848900Y29117500D01*
X22851900Y29118500D01*
X22854700Y29119800D01*
X22857500Y29120800D01*
X22860300Y29122100D01*
Y29117500D01*
X22870700D01*
G37*
G36*
G01X23524500Y29278000D02*
X23515400Y29317900D01*
X23473700D01*
X23482900Y29278000D01*
X23524500D01*
G37*
G36*
G01Y29272400D02*
X23556000Y29115700D01*
X23514600D01*
X23482900Y29272400D01*
X23524500D01*
G37*
G36*
G01X25433000Y21246900D02*
X25793700D01*
Y21017100D01*
X25433000D01*
X25375500Y21074500D01*
X25318100Y21132000D01*
X25375500Y21189400D01*
X25433000Y21246900D01*
G37*
G36*
G01X25798600Y21532500D02*
X25437900D01*
X25321700Y21648700D01*
X25379200Y21706100D01*
X25436600Y21763600D01*
X25798600D01*
Y21648000D01*
Y21532500D01*
G37*
G36*
G01Y21282500D02*
X25437900D01*
X25321700Y21398700D01*
X25379200Y21456100D01*
X25436600Y21513600D01*
X25798600D01*
Y21398000D01*
Y21282500D01*
G37*
G36*
G01Y24332500D02*
X25437900D01*
X25321700Y24448700D01*
X25379200Y24506100D01*
X25436600Y24563600D01*
X25798600D01*
Y24448000D01*
Y24332500D01*
G37*
%LPC*%
G75*
G36*
G01X23358300Y20586800D02*
G03X23355000Y20581500I101616J-66948D01*
G03X23348300Y20586900I-55068J-61468D01*
G03X23350600Y20591300I-38393J22870D01*
G03X23358300Y20586800I39452J58668D01*
G37*
G36*
G01X20342200Y21192900D02*
X20310100Y21192500D01*
X20278000Y21192200D01*
Y21173000D01*
X20301800Y21172700D01*
X20325600Y21172300D01*
X20327700Y21161000D01*
X20329400Y21151300D01*
X20329600Y21148300D01*
G02X20328900Y21147800I-585J79D01*
G02X20327500Y21148400I355J2763D01*
G01X20323500Y21151300D01*
X20319000Y21153300D01*
G03X20313900Y21154500I-9093J-27209D01*
G01X20308000Y21154900D01*
X20300500Y21154500D01*
G03X20294400Y21153000I3406J-27005D01*
G03X20289000Y21150200I8792J-23563D01*
G03X20283600Y21145900I24853J-36751D01*
G03X20278500Y21140000I25151J-26895D01*
G03X20274900Y21133300I26957J-18801D01*
G03X20272800Y21125700I33929J-13465D01*
G03X20272100Y21116900I55131J-8813D01*
G03X20274300Y21102600I47491J-13D01*
G03X20280600Y21090600I36257J11381D01*
G03X20290800Y21081500I30212J23598D01*
G01X20304200Y21075900D01*
X20308900Y21074800D01*
X20312700Y21074400D01*
G03X20316500Y21074500I1163J28038D01*
G01X20321700Y21075200D01*
X20335300Y21078900D01*
G03X20345800Y21085400I-13776J33984D01*
G01X20353100Y21094600D01*
G03X20357100Y21106300I-35429J18646D01*
G01X20357900Y21111100D01*
X20345700D01*
X20338700Y21111000D01*
G03X20335600Y21110700I297J-19231D01*
G03X20334100Y21110000I631J-3309D01*
G03X20333600Y21108900I986J-1112D01*
G02X20332900Y21105800I-7241J6D01*
G01X20330600Y21102100D01*
X20327700Y21098600D01*
X20324500Y21096400D01*
X20320100Y21094800D01*
X20314700Y21094400D01*
G02X20309500Y21095000I386J26178D01*
G01X20305200Y21096600D01*
X20301500Y21099800D01*
X20298200Y21104700D01*
X20296000Y21110400D01*
X20295300Y21115800D01*
G02X20298400Y21127800I24412J94D01*
G02X20306900Y21135800I16887J-9427D01*
G01X20318400Y21137300D01*
G02X20329500Y21132100I-4126J-23254D01*
G01X20332000Y21130400D01*
G03X20334400Y21129500I4285J7776D01*
G01X20337600Y21129100D01*
X20343500Y21129000D01*
X20353700D01*
X20350700Y21145900D01*
X20349300Y21153500D01*
X20347800Y21162300D01*
X20346200Y21170900D01*
X20345000Y21177800D01*
X20342200Y21192900D01*
G37*
G36*
G01X20269500Y21194100D02*
X20243000D01*
X20234800Y21168200D01*
X20231300Y21157200D01*
X20227500Y21145500D01*
X20224100Y21134800D01*
X20221700Y21127300D01*
G02X20219700Y21121300I-205064J65021D01*
G02X20218000Y21116900I-68915J24098D01*
G01X20216600Y21113900D01*
G02X20216000I-300J144D01*
G01X20215500Y21115200D01*
X20211700Y21126600D01*
X20207500Y21139700D01*
X20202600Y21154800D01*
X20190100Y21194100D01*
X20176900D01*
X20171900Y21194000D01*
X20167600Y21193800D01*
X20164100Y21193500D01*
G03X20163700Y21193100I-5J-395D01*
G01X20163900Y21192400D01*
X20169400Y21175500D01*
X20175600Y21156600D01*
X20183000Y21134400D01*
X20202300Y21076500D01*
X20216900Y21076900D01*
X20231600Y21077300D01*
X20247500Y21125800D01*
X20253800Y21145100D01*
X20259600Y21163000D01*
X20264400Y21178000D01*
X20266400Y21184200D01*
X20269500Y21194100D01*
G37*
G36*
G01X20405600Y21748400D02*
X20070500D01*
Y21555600D01*
X20405700D01*
X20453300Y21603100D01*
G03X20471500Y21621400I-3551391J3550184D01*
G01X20486800Y21637100D01*
X20500500Y21651100D01*
G03X20500800Y21652000I-987J829D01*
G01X20500500Y21652900D01*
X20486800Y21666900D01*
G03X20471500Y21682500I-1868318J-1817086D01*
G01X20405600Y21748400D01*
G37*
G36*
G01Y21498400D02*
X20070500D01*
Y21305600D01*
X20405700D01*
X20453300Y21353100D01*
G03X20471500Y21371400I-3551391J3550184D01*
G01X20486800Y21387100D01*
X20500500Y21401100D01*
G03X20500800Y21402000I-987J829D01*
G01X20500500Y21402900D01*
X20486800Y21416900D01*
G03X20471500Y21432500I-1868318J-1817086D01*
G01X20405600Y21498400D01*
G37*
G36*
G01X20334900Y24496900D02*
X20325900Y24496500D01*
X20316800Y24495400D01*
X20310900Y24493600D01*
X20305300Y24490500D01*
X20300100Y24486500D01*
G03X20295800Y24481900I26281J-28877D01*
G03X20293000Y24477300I17334J-13704D01*
G01X20290600Y24468100D01*
X20291500Y24458200D01*
G03X20295300Y24449600I27046J6811D01*
G03X20301400Y24443900I14884J9815D01*
G01X20306200Y24441200D01*
X20301600Y24439700D01*
G03X20294400Y24435200I5638J-17030D01*
G01X20289000Y24427300D01*
X20286200Y24417500D01*
G03X20286700Y24407500I30736J-3476D01*
G03X20288400Y24401700I40104J8606D01*
G01X20290800Y24396700D01*
X20294300Y24392200D01*
X20299000Y24387400D01*
X20312700Y24379800D01*
X20329600Y24377300D01*
G03X20346500Y24380300I-869J53999D01*
G03X20360000Y24388400I-12408J35980D01*
G03X20363800Y24392900I-17094J18289D01*
G01X20367100Y24398800D01*
X20369500Y24405400D01*
G03X20370700Y24411800I-33412J9577D01*
G01X20371400Y24419200D01*
X20349600D01*
X20348700Y24414500D01*
X20345100Y24405000D01*
X20338600Y24398800D01*
X20330200Y24396500D01*
G02X20320800Y24398500I65J23395D01*
G01X20316400Y24401300D01*
G02X20313200Y24404900I9110J11320D01*
G02X20311300Y24409500I13109J8107D01*
G01X20310600Y24415100D01*
X20311700Y24422000D01*
X20314700Y24426800D01*
X20320300Y24429800D01*
G02X20328900Y24431500I13756J-46985D01*
G01X20336600Y24432300D01*
Y24448600D01*
X20330800D01*
G02X20325200Y24449100I-45J31107D01*
G01X20320400Y24450600D01*
X20316700Y24453100D01*
G02X20314200Y24456300I7642J8547D01*
G02X20312700Y24463600I12100J6290D01*
G02X20315200Y24470800I14685J-1065D01*
G01X20321100Y24476100D01*
X20328900Y24477900D01*
X20334600Y24477000D01*
X20339500Y24474100D01*
G02X20343300Y24469600I-11233J-13340D01*
G02X20345700Y24463700I-19850J-11513D01*
G01X20347300Y24457500D01*
X20368800D01*
X20368000Y24463400D01*
G03X20365000Y24474200I-41075J-5593D01*
G03X20359200Y24483600I-34603J-14862D01*
G03X20350800Y24491000I-29366J-24867D01*
G03X20340400Y24496000I-24556J-37761D01*
G03X20334900Y24496900I-5537J-16583D01*
G37*
G36*
G01X20284000Y24497100D02*
X20257500D01*
X20249700Y24472500D01*
X20246300Y24461900D01*
X20242600Y24450400D01*
X20239200Y24439600D01*
X20236700Y24431600D01*
X20234600Y24425400D01*
X20232700Y24420500D01*
G02X20231100Y24416700I-126235J50915D01*
G02X20230600Y24416600I-276J82D01*
G02X20230100Y24417700I4502J2710D01*
G01X20226300Y24429200D01*
X20222000Y24442300D01*
G02X20217100Y24457500I4412284J1430771D01*
G01X20204500Y24497100D01*
X20191400D01*
X20186300Y24497000D01*
X20182100Y24496800D01*
X20178600Y24496500D01*
G03X20178200Y24496100I-8J-392D01*
G01X20178400Y24495400D01*
X20183900Y24478500D01*
X20190100Y24459600D01*
X20197500Y24437400D01*
X20216800Y24379500D01*
X20246200Y24380300D01*
X20259500Y24421100D01*
X20270500Y24455100D01*
X20275300Y24470100D01*
X20278300Y24479500D01*
X20284000Y24497100D01*
G37*
G36*
G01X20130700Y24496600D02*
G03X20122100Y24495600I4083J-72590D01*
G01X20115600Y24493700D01*
X20106800Y24488500D01*
G03X20100400Y24481900I17624J-23493D01*
G03X20096600Y24474000I21697J-15300D01*
G03X20095300Y24464900I30870J-9053D01*
G01X20095900Y24458000D01*
G03X20097900Y24452200I22283J4439D01*
G01X20101200Y24447600D01*
X20105800Y24444100D01*
X20110500Y24441400D01*
X20106200Y24439800D01*
X20104200Y24438900D01*
X20101800Y24437300D01*
X20099400Y24435300D01*
X20097300Y24433300D01*
G03X20090900Y24420000I19645J-17643D01*
G03X20092000Y24404300I32638J-5602D01*
G03X20100500Y24390000I35847J11632D01*
G03X20114300Y24380700I27835J26415D01*
G03X20123300Y24378300I14709J37082D01*
G03X20134000Y24377600I9953J70009D01*
G03X20144500Y24378500I-593J68624D01*
G01X20152700Y24381000D01*
X20155700Y24382500D01*
X20158900Y24384400D01*
X20161700Y24386200D01*
X20163800Y24387800D01*
G03X20167700Y24392100I-13793J16428D01*
G01X20171300Y24398300D01*
X20173900Y24405300D01*
X20175300Y24412000D01*
X20176000Y24419200D01*
X20154200D01*
X20152700Y24412700D01*
G02X20149000Y24404400I-24087J5763D01*
G01X20142700Y24398800D01*
X20134800Y24396600D01*
X20126200Y24398200D01*
G02X20120300Y24402000I6755J16968D01*
G01X20116300Y24407700D01*
G02X20114800Y24414600I16626J7227D01*
G02X20116000Y24421700I20113J252D01*
G02X20118200Y24425500I11248J-3975D01*
G02X20121700Y24428400I10211J-8761D01*
G02X20126700Y24430400I9812J-17279D01*
G01X20133300Y24431500D01*
X20141200Y24432300D01*
Y24448600D01*
X20135400D01*
X20127800Y24449500D01*
G02X20122000Y24452300I4197J16100D01*
G02X20118300Y24456700I7404J9982D01*
G01X20117000Y24462400D01*
X20119200Y24470300D01*
G02X20125500Y24476000I13588J-8686D01*
G02X20133900Y24477900I7846J-15171D01*
G02X20142200Y24475400I-617J-17078D01*
G02X20145000Y24473100I-7091J-11487D01*
G02X20147500Y24469800I-13852J-13091D01*
G02X20149400Y24465800I-20355J-12120D01*
G01X20150700Y24461000D01*
G03X20151500Y24458900I7097J1501D01*
G01X20152800Y24458000D01*
X20155200Y24457600D01*
X20162400Y24457500D01*
X20173400D01*
X20172500Y24463400D01*
X20169500Y24474400D01*
X20163900Y24483500D01*
G03X20156000Y24490500I-27029J-22547D01*
G03X20145900Y24495300I-23564J-36557D01*
G01X20130700Y24496600D01*
G37*
G36*
G01X21124400Y24091600D02*
X21459500D01*
Y24284400D01*
X21124300D01*
X21076700Y24236900D01*
G03X21058500Y24218600I3551391J-3550184D01*
G01X21043200Y24202900D01*
X21029500Y24188900D01*
G03X21029200Y24188000I987J-829D01*
G01X21029500Y24187100D01*
X21043200Y24173100D01*
G03X21058500Y24157500I1868318J1817086D01*
G01X21124400Y24091600D01*
G37*
G36*
G01X21362200Y24502900D02*
X21330100Y24502500D01*
X21298000Y24502200D01*
Y24483000D01*
X21321800Y24482700D01*
X21345600Y24482300D01*
X21347700Y24471000D01*
X21349400Y24461300D01*
X21349600Y24458300D01*
G02X21348900Y24457800I-585J79D01*
G02X21347500Y24458400I355J2763D01*
G01X21343500Y24461300D01*
X21339000Y24463300D01*
G03X21333900Y24464500I-9093J-27209D01*
G01X21328000Y24464900D01*
X21320500Y24464500D01*
G03X21314400Y24463000I3406J-27005D01*
G03X21309000Y24460200I8792J-23563D01*
G03X21303600Y24455900I24853J-36751D01*
G03X21298500Y24450000I25151J-26895D01*
G03X21294900Y24443300I26957J-18801D01*
G03X21292800Y24435700I33929J-13465D01*
G03X21292100Y24426900I55131J-8813D01*
G03X21294300Y24412600I47491J-13D01*
G03X21300600Y24400600I36257J11381D01*
G03X21310800Y24391500I30212J23598D01*
G01X21324200Y24385900D01*
X21328900Y24384800D01*
X21332700Y24384400D01*
G03X21336500Y24384500I1163J28038D01*
G01X21341700Y24385200D01*
X21355300Y24388900D01*
G03X21365800Y24395400I-13776J33984D01*
G01X21373100Y24404600D01*
G03X21377100Y24416300I-35429J18646D01*
G01X21377900Y24421100D01*
X21365700D01*
X21358700Y24421000D01*
G03X21355600Y24420700I297J-19231D01*
G03X21354100Y24420000I631J-3309D01*
G03X21353600Y24418900I986J-1112D01*
G02X21352900Y24415800I-7241J6D01*
G01X21350600Y24412100D01*
X21347700Y24408600D01*
X21344500Y24406400D01*
X21340100Y24404800D01*
X21334700Y24404400D01*
G02X21329500Y24405000I386J26178D01*
G01X21325200Y24406600D01*
X21321500Y24409800D01*
X21318200Y24414700D01*
X21316000Y24420400D01*
X21315300Y24425800D01*
G02X21318400Y24437800I24412J94D01*
G02X21326900Y24445800I16887J-9427D01*
G01X21338400Y24447300D01*
G02X21349500Y24442100I-4126J-23254D01*
G01X21352000Y24440400D01*
G03X21354400Y24439500I4285J7776D01*
G01X21357600Y24439100D01*
X21363500Y24439000D01*
X21373700D01*
X21370700Y24455900D01*
X21369300Y24463500D01*
X21367800Y24472300D01*
X21366200Y24480900D01*
X21365000Y24487800D01*
X21362200Y24502900D01*
G37*
G36*
G01X21289500Y24504100D02*
X21263000D01*
X21254800Y24478200D01*
X21251300Y24467200D01*
X21247500Y24455500D01*
X21244100Y24444800D01*
X21241700Y24437300D01*
G02X21239700Y24431300I-205064J65021D01*
G02X21238000Y24426900I-68915J24098D01*
G01X21236600Y24423900D01*
G02X21236000I-300J144D01*
G01X21235500Y24425200D01*
X21231700Y24436600D01*
X21227500Y24449700D01*
X21222600Y24464800D01*
X21210100Y24504100D01*
X21196900D01*
X21191900Y24504000D01*
X21187600Y24503800D01*
X21184100Y24503500D01*
G03X21183700Y24503100I-5J-395D01*
G01X21183900Y24502400D01*
X21189400Y24485500D01*
X21195600Y24466600D01*
X21203000Y24444400D01*
X21222300Y24386500D01*
X21236900Y24386900D01*
X21251600Y24387300D01*
X21267500Y24435800D01*
X21273800Y24455100D01*
X21279600Y24473000D01*
X21284400Y24488000D01*
X21286400Y24494200D01*
X21289500Y24504100D01*
G37*
G36*
G01X25695000Y21191800D02*
X25686000Y21191400D01*
X25676900Y21190300D01*
X25671000Y21188500D01*
X25665400Y21185400D01*
X25660200Y21181400D01*
G03X25655900Y21176800I26281J-28877D01*
G03X25653100Y21172200I17334J-13704D01*
G01X25650700Y21163000D01*
X25651600Y21153100D01*
G03X25655400Y21144500I27046J6811D01*
G03X25661500Y21138800I14884J9815D01*
G01X25666300Y21136100D01*
X25661700Y21134600D01*
G03X25654500Y21130100I5638J-17030D01*
G01X25649100Y21122200D01*
X25646300Y21112400D01*
G03X25646800Y21102400I30736J-3476D01*
G03X25648500Y21096600I40104J8606D01*
G01X25650900Y21091600D01*
X25654400Y21087100D01*
X25659100Y21082300D01*
X25672800Y21074700D01*
X25689700Y21072200D01*
G03X25706600Y21075200I-869J53999D01*
G03X25720100Y21083300I-12408J35980D01*
G03X25723900Y21087800I-17094J18289D01*
G01X25727200Y21093700D01*
X25729600Y21100300D01*
G03X25730800Y21106700I-33412J9577D01*
G01X25731500Y21114100D01*
X25709700D01*
X25708800Y21109400D01*
X25705200Y21099900D01*
X25698700Y21093700D01*
X25690300Y21091400D01*
G02X25680900Y21093400I65J23395D01*
G01X25676500Y21096200D01*
G02X25673300Y21099800I9110J11320D01*
G02X25671400Y21104400I13109J8107D01*
G01X25670700Y21110000D01*
X25671800Y21116900D01*
X25674800Y21121700D01*
X25680400Y21124700D01*
G02X25689000Y21126400I13756J-46985D01*
G01X25696700Y21127200D01*
Y21143500D01*
X25690900D01*
G02X25685300Y21144000I-45J31107D01*
G01X25680500Y21145500D01*
X25676800Y21148000D01*
G02X25674300Y21151200I7642J8547D01*
G02X25672800Y21158500I12100J6290D01*
G02X25675300Y21165700I14685J-1065D01*
G01X25681200Y21171000D01*
X25689000Y21172800D01*
X25694700Y21171900D01*
X25699600Y21169000D01*
G02X25703400Y21164500I-11233J-13340D01*
G02X25705800Y21158600I-19850J-11513D01*
G01X25707400Y21152400D01*
X25728900D01*
X25728100Y21158300D01*
G03X25725100Y21169100I-41075J-5593D01*
G03X25719300Y21178500I-34603J-14862D01*
G03X25710900Y21185900I-29366J-24867D01*
G03X25700500Y21190900I-24556J-37761D01*
G03X25695000Y21191800I-5537J-16583D01*
G37*
G36*
G01X25644100Y21192000D02*
X25617600D01*
X25609800Y21167400D01*
X25606400Y21156800D01*
X25602700Y21145300D01*
X25599300Y21134500D01*
X25596800Y21126500D01*
X25594700Y21120300D01*
X25592800Y21115400D01*
G02X25591200Y21111600I-126235J50915D01*
G02X25590700Y21111500I-276J82D01*
G02X25590200Y21112600I4502J2710D01*
G01X25586400Y21124100D01*
X25582100Y21137200D01*
G02X25577200Y21152400I4412284J1430771D01*
G01X25564600Y21192000D01*
X25551500D01*
X25546400Y21191900D01*
X25542200Y21191700D01*
X25538700Y21191400D01*
G03X25538300Y21191000I-8J-392D01*
G01X25538500Y21190300D01*
X25544000Y21173400D01*
X25550200Y21154500D01*
X25557600Y21132300D01*
X25576900Y21074400D01*
X25606300Y21075200D01*
X25619600Y21116000D01*
X25630600Y21150000D01*
X25635400Y21165000D01*
X25638400Y21174400D01*
X25644100Y21192000D01*
G37*
G36*
G01X25490800Y21191500D02*
G03X25482200Y21190500I4083J-72590D01*
G01X25475700Y21188600D01*
X25466900Y21183400D01*
G03X25460500Y21176800I17624J-23493D01*
G03X25456700Y21168900I21697J-15300D01*
G03X25455400Y21159800I30870J-9053D01*
G01X25456000Y21152900D01*
G03X25458000Y21147100I22283J4439D01*
G01X25461300Y21142500D01*
X25465900Y21139000D01*
X25470600Y21136300D01*
X25466300Y21134700D01*
X25464300Y21133800D01*
X25461900Y21132200D01*
X25459500Y21130200D01*
X25457400Y21128200D01*
G03X25451000Y21114900I19645J-17643D01*
G03X25452100Y21099200I32638J-5602D01*
G03X25460600Y21084900I35847J11632D01*
G03X25474400Y21075600I27835J26415D01*
G03X25483400Y21073200I14709J37082D01*
G03X25494100Y21072500I9953J70009D01*
G03X25504600Y21073400I-593J68624D01*
G01X25512800Y21075900D01*
X25515800Y21077400D01*
X25519000Y21079300D01*
X25521800Y21081100D01*
X25523900Y21082700D01*
G03X25527800Y21087000I-13793J16428D01*
G01X25531400Y21093200D01*
X25534000Y21100200D01*
X25535400Y21106900D01*
X25536100Y21114100D01*
X25514300D01*
X25512800Y21107600D01*
G02X25509100Y21099300I-24087J5763D01*
G01X25502800Y21093700D01*
X25494900Y21091500D01*
X25486300Y21093100D01*
G02X25480400Y21096900I6755J16968D01*
G01X25476400Y21102600D01*
G02X25474900Y21109500I16626J7227D01*
G02X25476100Y21116600I20113J252D01*
G02X25478300Y21120400I11248J-3975D01*
G02X25481800Y21123300I10211J-8761D01*
G02X25486800Y21125300I9812J-17279D01*
G01X25493400Y21126400D01*
X25501300Y21127200D01*
Y21143500D01*
X25495500D01*
X25487900Y21144400D01*
G02X25482100Y21147200I4197J16100D01*
G02X25478400Y21151600I7404J9982D01*
G01X25477100Y21157300D01*
X25479300Y21165200D01*
G02X25485600Y21170900I13588J-8686D01*
G02X25494000Y21172800I7846J-15171D01*
G02X25502300Y21170300I-617J-17078D01*
G02X25505100Y21168000I-7091J-11487D01*
G02X25507600Y21164700I-13852J-13091D01*
G02X25509500Y21160700I-20355J-12120D01*
G01X25510800Y21155900D01*
G03X25511600Y21153800I7097J1501D01*
G01X25512900Y21152900D01*
X25515300Y21152500D01*
X25522500Y21152400D01*
X25533500D01*
X25532600Y21158300D01*
X25529600Y21169300D01*
X25524000Y21178400D01*
G03X25516100Y21185400I-27029J-22547D01*
G03X25506000Y21190200I-23564J-36557D01*
G01X25490800Y21191500D01*
G37*
G36*
G01X25444400Y21551600D02*
X25779500D01*
Y21744400D01*
X25444300D01*
X25396700Y21696900D01*
G03X25378500Y21678600I3551391J-3550184D01*
G01X25363200Y21662900D01*
X25349500Y21648900D01*
G03X25349200Y21648000I987J-829D01*
G01X25349500Y21647100D01*
X25363200Y21633100D01*
G03X25378500Y21617500I1868318J1817086D01*
G01X25444400Y21551600D01*
G37*
G36*
G01Y21301600D02*
X25779500D01*
Y21494400D01*
X25444300D01*
X25396700Y21446900D01*
G03X25378500Y21428600I3551391J-3550184D01*
G01X25363200Y21412900D01*
X25349500Y21398900D01*
G03X25349200Y21398000I987J-829D01*
G01X25349500Y21397100D01*
X25363200Y21383100D01*
G03X25378500Y21367500I1868318J1817086D01*
G01X25444400Y21301600D01*
G37*
G36*
G01Y24351600D02*
X25779500D01*
Y24544400D01*
X25444300D01*
X25396700Y24496900D01*
G03X25378500Y24478600I3551391J-3550184D01*
G01X25363200Y24462900D01*
X25349500Y24448900D01*
G03X25349200Y24448000I987J-829D01*
G01X25349500Y24447100D01*
X25363200Y24433100D01*
G03X25378500Y24417500I1868318J1817086D01*
G01X25444400Y24351600D01*
G37*
%LPD*%
G75*
G36*
G01X20132800Y21705200D02*
X20140500Y21705600D01*
X20160900Y21706000D01*
X20191800Y21706400D01*
Y21596200D01*
X20161500Y21596600D01*
X20141600Y21597000D01*
X20134000Y21597500D01*
X20128900Y21598600D01*
X20123200Y21600700D01*
G02X20112900Y21607300I18814J40698D01*
G01X20104800Y21616500D01*
X20099000Y21628100D01*
X20095800Y21641800D01*
X20095500Y21661400D01*
X20100200Y21678700D01*
X20109300Y21692600D01*
G02X20122200Y21702000I30877J-28822D01*
G01X20132800Y21705200D01*
G37*
G36*
G01X20280800Y21705600D02*
X20293100Y21705900D01*
X20305500Y21706300D01*
Y21596400D01*
X20282500D01*
X20282200Y21632800D01*
X20281800Y21669100D01*
X20259500Y21632800D01*
X20237200Y21596400D01*
X20225000Y21596700D01*
X20212900Y21597100D01*
X20212600Y21651600D01*
X20212200Y21706200D01*
X20235200D01*
X20235500Y21669500D01*
X20235900Y21632900D01*
X20258300Y21669200D01*
X20280800Y21705600D01*
G37*
G36*
G01X20372600Y21708700D02*
X20381900Y21708400D01*
G02X20389400Y21706900I-3160J-35301D01*
G02X20398500Y21702900I-13272J-42546D01*
G01X20407300Y21696600D01*
G02X20414800Y21688900I-38705J-45202D01*
G01X20420200Y21680500D01*
G02X20422600Y21674400I-39086J-18900D01*
G01X20424700Y21666300D01*
X20426200Y21658100D01*
G02X20426700Y21651300I-46142J-6811D01*
G02X20424700Y21635500I-63461J6D01*
G02X20418900Y21620800I-61479J15763D01*
G01X20409900Y21608500D01*
G02X20398700Y21600200I-29984J28754D01*
G01X20384700Y21595200D01*
X20370900Y21594200D01*
X20358200Y21597200D01*
G02X20347100Y21604100I15515J37337D01*
G01X20342700Y21608000D01*
X20341600Y21602500D01*
X20340500Y21597100D01*
X20332600Y21596700D01*
X20324600Y21596300D01*
Y21656400D01*
X20370600D01*
Y21638500D01*
X20354900D01*
X20351100Y21638300D01*
X20347900Y21638100D01*
G03X20347300Y21637800I141J-1032D01*
G03X20346800Y21635800I1389J-1410D01*
G01X20348500Y21630600D01*
X20351000Y21625300D01*
G03X20353500Y21621800I13849J7250D01*
G03X20360200Y21617100I15230J14586D01*
G03X20368800Y21614700I12474J28091D01*
G01X20378100Y21614900D01*
G03X20386700Y21617700I-4472J28343D01*
G01X20391400Y21621100D01*
X20395700Y21626400D01*
X20399200Y21632800D01*
G03X20401300Y21639500I-32656J13915D01*
G03X20402400Y21650700I-51067J10670D01*
G03X20401200Y21662400I-63779J-630D01*
G01X20398000Y21672900D01*
G03X20393200Y21680500I-23605J-9593D01*
G03X20387200Y21684900I-14361J-13292D01*
G01X20378900Y21687700D01*
X20370100Y21688300D01*
G03X20362500Y21686600I1073J-22634D01*
G03X20358900Y21684500I5857J-14175D01*
G01X20355200Y21681000D01*
G03X20352200Y21677100I22355J-20300D01*
G03X20350700Y21673600I10006J-6360D01*
G02X20349800Y21671800I-4617J1184D01*
G02X20348400Y21670900I-2001J1574D01*
G01X20345700Y21670500D01*
X20338500D01*
G02X20330000Y21670700I170J187931D01*
G02X20327700Y21671800I146J3260D01*
G02X20327100Y21674200I1995J1774D01*
G01X20329300Y21681400D01*
G02X20333100Y21688700I25645J-8710D01*
G02X20339500Y21696000I43425J-31616D01*
G01X20347300Y21702100D01*
X20355200Y21706000D01*
G02X20372600Y21708700I21320J-79977D01*
G37*
G36*
G01Y21458700D02*
X20381900Y21458400D01*
G02X20389400Y21456900I-3160J-35301D01*
G02X20398500Y21452900I-13272J-42546D01*
G01X20407300Y21446600D01*
G02X20414800Y21438900I-38705J-45202D01*
G01X20420200Y21430500D01*
G02X20422600Y21424400I-39086J-18900D01*
G01X20424700Y21416300D01*
X20426200Y21408100D01*
G02X20426700Y21401300I-46142J-6811D01*
G02X20424700Y21385500I-63461J6D01*
G02X20418900Y21370800I-61479J15763D01*
G01X20409900Y21358500D01*
G02X20398700Y21350200I-29984J28754D01*
G01X20384700Y21345200D01*
X20370900Y21344200D01*
X20358200Y21347200D01*
G02X20347100Y21354100I15515J37337D01*
G01X20342700Y21358000D01*
X20341600Y21352500D01*
X20340500Y21347100D01*
X20332600Y21346700D01*
X20324600Y21346300D01*
Y21406400D01*
X20370600D01*
Y21388500D01*
X20354900D01*
X20351100Y21388300D01*
X20347900Y21388100D01*
G03X20347300Y21387800I141J-1032D01*
G03X20346800Y21385800I1389J-1410D01*
G01X20348500Y21380600D01*
X20351000Y21375300D01*
G03X20353500Y21371800I13849J7250D01*
G03X20360200Y21367100I15230J14586D01*
G03X20368800Y21364700I12474J28091D01*
G01X20378100Y21364900D01*
G03X20386700Y21367700I-4472J28343D01*
G01X20391400Y21371100D01*
X20395700Y21376400D01*
X20399200Y21382800D01*
G03X20401300Y21389500I-32656J13915D01*
G03X20402400Y21400700I-51067J10670D01*
G03X20401200Y21412400I-63779J-630D01*
G01X20398000Y21422900D01*
G03X20393200Y21430500I-23605J-9593D01*
G03X20387200Y21434900I-14361J-13292D01*
G01X20378900Y21437700D01*
X20370100Y21438300D01*
G03X20362500Y21436600I1073J-22634D01*
G03X20358900Y21434500I5857J-14175D01*
G01X20355200Y21431000D01*
G03X20352200Y21427100I22355J-20300D01*
G03X20350700Y21423600I10006J-6360D01*
G02X20349800Y21421800I-4617J1184D01*
G02X20348400Y21420900I-2001J1574D01*
G01X20345700Y21420500D01*
X20338500D01*
G02X20330000Y21420700I170J187931D01*
G02X20327700Y21421800I146J3260D01*
G02X20327100Y21424200I1995J1774D01*
G01X20329300Y21431400D01*
G02X20333100Y21438700I25645J-8710D01*
G02X20339500Y21446000I43425J-31616D01*
G01X20347300Y21452100D01*
X20355200Y21456000D01*
G02X20372600Y21458700I21320J-79977D01*
G37*
G36*
G01X20280800Y21455600D02*
X20293100Y21455900D01*
X20305500Y21456300D01*
Y21346400D01*
X20282500D01*
X20282200Y21382800D01*
X20281800Y21419100D01*
X20259500Y21382800D01*
X20237200Y21346400D01*
X20225000Y21346700D01*
X20212900Y21347100D01*
X20212600Y21401600D01*
X20212200Y21456200D01*
X20235200D01*
X20235500Y21419500D01*
X20235900Y21382900D01*
X20258300Y21419200D01*
X20280800Y21455600D01*
G37*
G36*
G01X20132800Y21455200D02*
X20140500Y21455600D01*
X20160900Y21456000D01*
X20191800Y21456400D01*
Y21346200D01*
X20161500Y21346600D01*
X20141600Y21347000D01*
X20134000Y21347500D01*
X20128900Y21348600D01*
X20123200Y21350700D01*
G02X20112900Y21357300I18814J40698D01*
G01X20104800Y21366500D01*
X20099000Y21378100D01*
X20095800Y21391800D01*
X20095500Y21411400D01*
X20100200Y21428700D01*
X20109300Y21442600D01*
G02X20122200Y21452000I30877J-28822D01*
G01X20132800Y21455200D01*
G37*
G36*
G01X21142800Y24245200D02*
X21150500Y24245600D01*
X21170900Y24246000D01*
X21201800Y24246400D01*
Y24136200D01*
X21171500Y24136600D01*
X21151600Y24137000D01*
X21144000Y24137500D01*
X21138900Y24138600D01*
X21133200Y24140700D01*
G02X21122900Y24147300I18814J40698D01*
G01X21114800Y24156500D01*
X21109000Y24168100D01*
X21105800Y24181800D01*
X21105500Y24201400D01*
X21110200Y24218700D01*
X21119300Y24232600D01*
G02X21132200Y24242000I30877J-28822D01*
G01X21142800Y24245200D01*
G37*
G36*
G01X21290800Y24245600D02*
X21303100Y24245900D01*
X21315500Y24246300D01*
Y24136400D01*
X21292500D01*
X21292200Y24172800D01*
X21291800Y24209100D01*
X21269500Y24172800D01*
X21247200Y24136400D01*
X21235000Y24136700D01*
X21222900Y24137100D01*
X21222600Y24191600D01*
X21222200Y24246200D01*
X21245200D01*
X21245500Y24209500D01*
X21245900Y24172900D01*
X21268300Y24209200D01*
X21290800Y24245600D01*
G37*
G36*
G01X21382600Y24248700D02*
X21391900Y24248400D01*
G02X21399400Y24246900I-3160J-35301D01*
G02X21408500Y24242900I-13272J-42546D01*
G01X21417300Y24236600D01*
G02X21424800Y24228900I-38705J-45202D01*
G01X21430200Y24220500D01*
G02X21432600Y24214400I-39086J-18900D01*
G01X21434700Y24206300D01*
X21436200Y24198100D01*
G02X21436700Y24191300I-46142J-6811D01*
G02X21434700Y24175500I-63461J6D01*
G02X21428900Y24160800I-61479J15763D01*
G01X21419900Y24148500D01*
G02X21408700Y24140200I-29984J28754D01*
G01X21394700Y24135200D01*
X21380900Y24134200D01*
X21368200Y24137200D01*
G02X21357100Y24144100I15515J37337D01*
G01X21352700Y24148000D01*
X21351600Y24142500D01*
X21350500Y24137100D01*
X21342600Y24136700D01*
X21334600Y24136300D01*
Y24196400D01*
X21380600D01*
Y24178500D01*
X21364900D01*
X21361100Y24178300D01*
X21357900Y24178100D01*
G03X21357300Y24177800I141J-1032D01*
G03X21356800Y24175800I1389J-1410D01*
G01X21358500Y24170600D01*
X21361000Y24165300D01*
G03X21363500Y24161800I13849J7250D01*
G03X21370200Y24157100I15230J14586D01*
G03X21378800Y24154700I12474J28091D01*
G01X21388100Y24154900D01*
G03X21396700Y24157700I-4472J28343D01*
G01X21401400Y24161100D01*
X21405700Y24166400D01*
X21409200Y24172800D01*
G03X21411300Y24179500I-32656J13915D01*
G03X21412400Y24190700I-51067J10670D01*
G03X21411200Y24202400I-63779J-630D01*
G01X21408000Y24212900D01*
G03X21403200Y24220500I-23605J-9593D01*
G03X21397200Y24224900I-14361J-13292D01*
G01X21388900Y24227700D01*
X21380100Y24228300D01*
G03X21372500Y24226600I1073J-22634D01*
G03X21368900Y24224500I5857J-14175D01*
G01X21365200Y24221000D01*
G03X21362200Y24217100I22355J-20300D01*
G03X21360700Y24213600I10006J-6360D01*
G02X21359800Y24211800I-4617J1184D01*
G02X21358400Y24210900I-2001J1574D01*
G01X21355700Y24210500D01*
X21348500D01*
G02X21340000Y24210700I170J187931D01*
G02X21337700Y24211800I146J3260D01*
G02X21337100Y24214200I1995J1774D01*
G01X21339300Y24221400D01*
G02X21343100Y24228700I25645J-8710D01*
G02X21349500Y24236000I43425J-31616D01*
G01X21357300Y24242100D01*
X21365200Y24246000D01*
G02X21382600Y24248700I21320J-79977D01*
G37*
G36*
G01X25462800Y21705200D02*
X25470500Y21705600D01*
X25490900Y21706000D01*
X25521800Y21706400D01*
Y21596200D01*
X25491500Y21596600D01*
X25471600Y21597000D01*
X25464000Y21597500D01*
X25458900Y21598600D01*
X25453200Y21600700D01*
G02X25442900Y21607300I18814J40698D01*
G01X25434800Y21616500D01*
X25429000Y21628100D01*
X25425800Y21641800D01*
X25425500Y21661400D01*
X25430200Y21678700D01*
X25439300Y21692600D01*
G02X25452200Y21702000I30877J-28822D01*
G01X25462800Y21705200D01*
G37*
G36*
G01X25610800Y21705600D02*
X25623100Y21705900D01*
X25635500Y21706300D01*
Y21596400D01*
X25612500D01*
X25612200Y21632800D01*
X25611800Y21669100D01*
X25589500Y21632800D01*
X25567200Y21596400D01*
X25555000Y21596700D01*
X25542900Y21597100D01*
X25542600Y21651600D01*
X25542200Y21706200D01*
X25565200D01*
X25565500Y21669500D01*
X25565900Y21632900D01*
X25588300Y21669200D01*
X25610800Y21705600D01*
G37*
G36*
G01X25702600Y21708700D02*
X25711900Y21708400D01*
G02X25719400Y21706900I-3160J-35301D01*
G02X25728500Y21702900I-13272J-42546D01*
G01X25737300Y21696600D01*
G02X25744800Y21688900I-38705J-45202D01*
G01X25750200Y21680500D01*
G02X25752600Y21674400I-39086J-18900D01*
G01X25754700Y21666300D01*
X25756200Y21658100D01*
G02X25756700Y21651300I-46142J-6811D01*
G02X25754700Y21635500I-63461J6D01*
G02X25748900Y21620800I-61479J15763D01*
G01X25739900Y21608500D01*
G02X25728700Y21600200I-29984J28754D01*
G01X25714700Y21595200D01*
X25700900Y21594200D01*
X25688200Y21597200D01*
G02X25677100Y21604100I15515J37337D01*
G01X25672700Y21608000D01*
X25671600Y21602500D01*
X25670500Y21597100D01*
X25662600Y21596700D01*
X25654600Y21596300D01*
Y21656400D01*
X25700600D01*
Y21638500D01*
X25684900D01*
X25681100Y21638300D01*
X25677900Y21638100D01*
G03X25677300Y21637800I141J-1032D01*
G03X25676800Y21635800I1389J-1410D01*
G01X25678500Y21630600D01*
X25681000Y21625300D01*
G03X25683500Y21621800I13849J7250D01*
G03X25690200Y21617100I15230J14586D01*
G03X25698800Y21614700I12474J28091D01*
G01X25708100Y21614900D01*
G03X25716700Y21617700I-4472J28343D01*
G01X25721400Y21621100D01*
X25725700Y21626400D01*
X25729200Y21632800D01*
G03X25731300Y21639500I-32656J13915D01*
G03X25732400Y21650700I-51067J10670D01*
G03X25731200Y21662400I-63779J-630D01*
G01X25728000Y21672900D01*
G03X25723200Y21680500I-23605J-9593D01*
G03X25717200Y21684900I-14361J-13292D01*
G01X25708900Y21687700D01*
X25700100Y21688300D01*
G03X25692500Y21686600I1073J-22634D01*
G03X25688900Y21684500I5857J-14175D01*
G01X25685200Y21681000D01*
G03X25682200Y21677100I22355J-20300D01*
G03X25680700Y21673600I10006J-6360D01*
G02X25679800Y21671800I-4617J1184D01*
G02X25678400Y21670900I-2001J1574D01*
G01X25675700Y21670500D01*
X25668500D01*
G02X25660000Y21670700I170J187931D01*
G02X25657700Y21671800I146J3260D01*
G02X25657100Y21674200I1995J1774D01*
G01X25659300Y21681400D01*
G02X25663100Y21688700I25645J-8710D01*
G02X25669500Y21696000I43425J-31616D01*
G01X25677300Y21702100D01*
X25685200Y21706000D01*
G02X25702600Y21708700I21320J-79977D01*
G37*
G36*
G01X25462800Y21455200D02*
X25470500Y21455600D01*
X25490900Y21456000D01*
X25521800Y21456400D01*
Y21346200D01*
X25491500Y21346600D01*
X25471600Y21347000D01*
X25464000Y21347500D01*
X25458900Y21348600D01*
X25453200Y21350700D01*
G02X25442900Y21357300I18814J40698D01*
G01X25434800Y21366500D01*
X25429000Y21378100D01*
X25425800Y21391800D01*
X25425500Y21411400D01*
X25430200Y21428700D01*
X25439300Y21442600D01*
G02X25452200Y21452000I30877J-28822D01*
G01X25462800Y21455200D01*
G37*
G36*
G01X25610800Y21455600D02*
X25623100Y21455900D01*
X25635500Y21456300D01*
Y21346400D01*
X25612500D01*
X25612200Y21382800D01*
X25611800Y21419100D01*
X25589500Y21382800D01*
X25567200Y21346400D01*
X25555000Y21346700D01*
X25542900Y21347100D01*
X25542600Y21401600D01*
X25542200Y21456200D01*
X25565200D01*
X25565500Y21419500D01*
X25565900Y21382900D01*
X25588300Y21419200D01*
X25610800Y21455600D01*
G37*
G36*
G01X25702600Y21458700D02*
X25711900Y21458400D01*
G02X25719400Y21456900I-3160J-35301D01*
G02X25728500Y21452900I-13272J-42546D01*
G01X25737300Y21446600D01*
G02X25744800Y21438900I-38705J-45202D01*
G01X25750200Y21430500D01*
G02X25752600Y21424400I-39086J-18900D01*
G01X25754700Y21416300D01*
X25756200Y21408100D01*
G02X25756700Y21401300I-46142J-6811D01*
G02X25754700Y21385500I-63461J6D01*
G02X25748900Y21370800I-61479J15763D01*
G01X25739900Y21358500D01*
G02X25728700Y21350200I-29984J28754D01*
G01X25714700Y21345200D01*
X25700900Y21344200D01*
X25688200Y21347200D01*
G02X25677100Y21354100I15515J37337D01*
G01X25672700Y21358000D01*
X25671600Y21352500D01*
X25670500Y21347100D01*
X25662600Y21346700D01*
X25654600Y21346300D01*
Y21406400D01*
X25700600D01*
Y21388500D01*
X25684900D01*
X25681100Y21388300D01*
X25677900Y21388100D01*
G03X25677300Y21387800I141J-1032D01*
G03X25676800Y21385800I1389J-1410D01*
G01X25678500Y21380600D01*
X25681000Y21375300D01*
G03X25683500Y21371800I13849J7250D01*
G03X25690200Y21367100I15230J14586D01*
G03X25698800Y21364700I12474J28091D01*
G01X25708100Y21364900D01*
G03X25716700Y21367700I-4472J28343D01*
G01X25721400Y21371100D01*
X25725700Y21376400D01*
X25729200Y21382800D01*
G03X25731300Y21389500I-32656J13915D01*
G03X25732400Y21400700I-51067J10670D01*
G03X25731200Y21412400I-63779J-630D01*
G01X25728000Y21422900D01*
G03X25723200Y21430500I-23605J-9593D01*
G03X25717200Y21434900I-14361J-13292D01*
G01X25708900Y21437700D01*
X25700100Y21438300D01*
G03X25692500Y21436600I1073J-22634D01*
G03X25688900Y21434500I5857J-14175D01*
G01X25685200Y21431000D01*
G03X25682200Y21427100I22355J-20300D01*
G03X25680700Y21423600I10006J-6360D01*
G02X25679800Y21421800I-4617J1184D01*
G02X25678400Y21420900I-2001J1574D01*
G01X25675700Y21420500D01*
X25668500D01*
G02X25660000Y21420700I170J187931D01*
G02X25657700Y21421800I146J3260D01*
G02X25657100Y21424200I1995J1774D01*
G01X25659300Y21431400D01*
G02X25663100Y21438700I25645J-8710D01*
G02X25669500Y21446000I43425J-31616D01*
G01X25677300Y21452100D01*
X25685200Y21456000D01*
G02X25702600Y21458700I21320J-79977D01*
G37*
G36*
G01Y24508700D02*
X25711900Y24508400D01*
G02X25719400Y24506900I-3160J-35301D01*
G02X25728500Y24502900I-13272J-42546D01*
G01X25737300Y24496600D01*
G02X25744800Y24488900I-38705J-45202D01*
G01X25750200Y24480500D01*
G02X25752600Y24474400I-39086J-18900D01*
G01X25754700Y24466300D01*
X25756200Y24458100D01*
G02X25756700Y24451300I-46142J-6811D01*
G02X25754700Y24435500I-63461J6D01*
G02X25748900Y24420800I-61479J15763D01*
G01X25739900Y24408500D01*
G02X25728700Y24400200I-29984J28754D01*
G01X25714700Y24395200D01*
X25700900Y24394200D01*
X25688200Y24397200D01*
G02X25677100Y24404100I15515J37337D01*
G01X25672700Y24408000D01*
X25671600Y24402500D01*
X25670500Y24397100D01*
X25662600Y24396700D01*
X25654600Y24396300D01*
Y24456400D01*
X25700600D01*
Y24438500D01*
X25684900D01*
X25681100Y24438300D01*
X25677900Y24438100D01*
G03X25677300Y24437800I141J-1032D01*
G03X25676800Y24435800I1389J-1410D01*
G01X25678500Y24430600D01*
X25681000Y24425300D01*
G03X25683500Y24421800I13849J7250D01*
G03X25690200Y24417100I15230J14586D01*
G03X25698800Y24414700I12474J28091D01*
G01X25708100Y24414900D01*
G03X25716700Y24417700I-4472J28343D01*
G01X25721400Y24421100D01*
X25725700Y24426400D01*
X25729200Y24432800D01*
G03X25731300Y24439500I-32656J13915D01*
G03X25732400Y24450700I-51067J10670D01*
G03X25731200Y24462400I-63779J-630D01*
G01X25728000Y24472900D01*
G03X25723200Y24480500I-23605J-9593D01*
G03X25717200Y24484900I-14361J-13292D01*
G01X25708900Y24487700D01*
X25700100Y24488300D01*
G03X25692500Y24486600I1073J-22634D01*
G03X25688900Y24484500I5857J-14175D01*
G01X25685200Y24481000D01*
G03X25682200Y24477100I22355J-20300D01*
G03X25680700Y24473600I10006J-6360D01*
G02X25679800Y24471800I-4617J1184D01*
G02X25678400Y24470900I-2001J1574D01*
G01X25675700Y24470500D01*
X25668500D01*
G02X25660000Y24470700I170J187931D01*
G02X25657700Y24471800I146J3260D01*
G02X25657100Y24474200I1995J1774D01*
G01X25659300Y24481400D01*
G02X25663100Y24488700I25645J-8710D01*
G02X25669500Y24496000I43425J-31616D01*
G01X25677300Y24502100D01*
X25685200Y24506000D01*
G02X25702600Y24508700I21320J-79977D01*
G37*
G36*
G01X25610800Y24505600D02*
X25623100Y24505900D01*
X25635500Y24506300D01*
Y24396400D01*
X25612500D01*
X25612200Y24432800D01*
X25611800Y24469100D01*
X25589500Y24432800D01*
X25567200Y24396400D01*
X25555000Y24396700D01*
X25542900Y24397100D01*
X25542600Y24451600D01*
X25542200Y24506200D01*
X25565200D01*
X25565500Y24469500D01*
X25565900Y24432900D01*
X25588300Y24469200D01*
X25610800Y24505600D01*
G37*
G36*
G01X25462800Y24505200D02*
X25470500Y24505600D01*
X25490900Y24506000D01*
X25521800Y24506400D01*
Y24396200D01*
X25491500Y24396600D01*
X25471600Y24397000D01*
X25464000Y24397500D01*
X25458900Y24398600D01*
X25453200Y24400700D01*
G02X25442900Y24407300I18814J40698D01*
G01X25434800Y24416500D01*
X25429000Y24428100D01*
X25425800Y24441800D01*
X25425500Y24461400D01*
X25430200Y24478700D01*
X25439300Y24492600D01*
G02X25452200Y24502000I30877J-28822D01*
G01X25462800Y24505200D01*
G37*
%LPC*%
G75*
G36*
G01X20167600Y21686100D02*
X20152400Y21685600D01*
X20142900Y21685200D01*
X20138500Y21684700D01*
X20135400Y21683500D01*
X20131700Y21681300D01*
X20126500Y21676600D01*
X20122900Y21670900D01*
G03X20120600Y21663800I28730J-13229D01*
G01X20119400Y21654800D01*
Y21645000D01*
G03X20120800Y21636800I40908J2765D01*
G03X20123600Y21630000I30070J8405D01*
G03X20127800Y21624400I22066J12174D01*
G01X20132600Y21620700D01*
X20137800Y21618400D01*
G03X20144800Y21617200I9431J33996D01*
G01X20155100Y21616800D01*
X20167600D01*
Y21686100D01*
G37*
G36*
G01Y21436100D02*
X20152400Y21435600D01*
X20142900Y21435200D01*
X20138500Y21434700D01*
X20135400Y21433500D01*
X20131700Y21431300D01*
X20126500Y21426600D01*
X20122900Y21420900D01*
G03X20120600Y21413800I28730J-13229D01*
G01X20119400Y21404800D01*
Y21395000D01*
G03X20120800Y21386800I40908J2765D01*
G03X20123600Y21380000I30070J8405D01*
G03X20127800Y21374400I22066J12174D01*
G01X20132600Y21370700D01*
X20137800Y21368400D01*
G03X20144800Y21367200I9431J33996D01*
G01X20155100Y21366800D01*
X20167600D01*
Y21436100D01*
G37*
G36*
G01X21177600Y24226100D02*
X21162400Y24225600D01*
X21152900Y24225200D01*
X21148500Y24224700D01*
X21145400Y24223500D01*
X21141700Y24221300D01*
X21136500Y24216600D01*
X21132900Y24210900D01*
G03X21130600Y24203800I28730J-13229D01*
G01X21129400Y24194800D01*
Y24185000D01*
G03X21130800Y24176800I40908J2765D01*
G03X21133600Y24170000I30070J8405D01*
G03X21137800Y24164400I22066J12174D01*
G01X21142600Y24160700D01*
X21147800Y24158400D01*
G03X21154800Y24157200I9431J33996D01*
G01X21165100Y24156800D01*
X21177600D01*
Y24226100D01*
G37*
G36*
G01X25497600Y21686100D02*
X25482400Y21685600D01*
X25472900Y21685200D01*
X25468500Y21684700D01*
X25465400Y21683500D01*
X25461700Y21681300D01*
X25456500Y21676600D01*
X25452900Y21670900D01*
G03X25450600Y21663800I28730J-13229D01*
G01X25449400Y21654800D01*
Y21645000D01*
G03X25450800Y21636800I40908J2765D01*
G03X25453600Y21630000I30070J8405D01*
G03X25457800Y21624400I22066J12174D01*
G01X25462600Y21620700D01*
X25467800Y21618400D01*
G03X25474800Y21617200I9431J33996D01*
G01X25485100Y21616800D01*
X25497600D01*
Y21686100D01*
G37*
G36*
G01Y21436100D02*
X25482400Y21435600D01*
X25472900Y21435200D01*
X25468500Y21434700D01*
X25465400Y21433500D01*
X25461700Y21431300D01*
X25456500Y21426600D01*
X25452900Y21420900D01*
G03X25450600Y21413800I28730J-13229D01*
G01X25449400Y21404800D01*
Y21395000D01*
G03X25450800Y21386800I40908J2765D01*
G03X25453600Y21380000I30070J8405D01*
G03X25457800Y21374400I22066J12174D01*
G01X25462600Y21370700D01*
X25467800Y21368400D01*
G03X25474800Y21367200I9431J33996D01*
G01X25485100Y21366800D01*
X25497600D01*
Y21436100D01*
G37*
G36*
G01Y24486100D02*
X25482400Y24485600D01*
X25472900Y24485200D01*
X25468500Y24484700D01*
X25465400Y24483500D01*
X25461700Y24481300D01*
X25456500Y24476600D01*
X25452900Y24470900D01*
G03X25450600Y24463800I28730J-13229D01*
G01X25449400Y24454800D01*
Y24445000D01*
G03X25450800Y24436800I40908J2765D01*
G03X25453600Y24430000I30070J8405D01*
G03X25457800Y24424400I22066J12174D01*
G01X25462600Y24420700D01*
X25467800Y24418400D01*
G03X25474800Y24417200I9431J33996D01*
G01X25485100Y24416800D01*
X25497600D01*
Y24486100D01*
G37*
%LPD*%
G75*
G54D10*
G01X20975900Y21907800D02*
X20970100Y21897400D01*
X20962300Y21891500D01*
X20953600Y21890000D01*
X20945900Y21891500D01*
X20938200Y21898900D01*
X20933300Y21907800D01*
X20932400Y21916700D01*
X20934300Y21927100D01*
X20941100Y21934500D01*
X20947800Y21937500D01*
X20956500D01*
G01X20947800D02*
X20942000Y21941900D01*
X20937200Y21949300D01*
X20935300Y21958200D01*
X20937200Y21967100D01*
X20942000Y21974500D01*
X20950700Y21979000D01*
X20959400Y21977500D01*
X20968100Y21971600D01*
G01X20888600Y21979000D02*
X20896300Y21976000D01*
X20902100Y21968600D01*
X20906000Y21959700D01*
X20908900Y21947800D01*
X20909900Y21934500D01*
X20908900Y21921100D01*
X20906000Y21909300D01*
X20902100Y21900400D01*
X20896300Y21893000D01*
X20888600Y21890000D01*
X20880900Y21893000D01*
X20875100Y21900400D01*
X20871200Y21909300D01*
X20868300Y21921100D01*
X20867300Y21934500D01*
X20868300Y21947800D01*
X20871200Y21959700D01*
X20875100Y21968600D01*
X20880900Y21976000D01*
X20888600Y21979000D01*
G01X20656400Y21890000D02*
Y21979000D01*
X20668000Y21961200D01*
G01Y21890000D02*
X20644800D01*
G01X20590400Y21979000D02*
X20598100Y21976000D01*
X20603900Y21968600D01*
X20607800Y21959700D01*
X20610700Y21947800D01*
X20611700Y21934500D01*
X20610700Y21921100D01*
X20607800Y21909300D01*
X20603900Y21900400D01*
X20598100Y21893000D01*
X20590400Y21890000D01*
X20582700Y21893000D01*
X20576900Y21900400D01*
X20573000Y21909300D01*
X20570100Y21921100D01*
X20569100Y21934500D01*
X20570100Y21947800D01*
X20573000Y21959700D01*
X20576900Y21968600D01*
X20582700Y21976000D01*
X20590400Y21979000D01*
G01X20635400Y24630000D02*
Y24719000D01*
X20647000Y24701200D01*
G01Y24630000D02*
X20623800D01*
G01X20936400Y24704200D02*
X20930600Y24713100D01*
X20923800Y24717500D01*
X20916100Y24719000D01*
X20906400Y24716000D01*
X20899600Y24708600D01*
X20897700Y24699700D01*
X20898700Y24690800D01*
X20902500Y24683400D01*
X20921900Y24668600D01*
X20930600Y24658200D01*
X20936400Y24643300D01*
X20938300Y24630000D01*
X20897700D01*
G01X20852000D02*
Y24719000D01*
X20863600Y24701200D01*
G01Y24630000D02*
X20840400D01*
G01X20500300Y24637800D02*
X20495500Y24628900D01*
X20489700Y24623000D01*
X20482900Y24620000D01*
X20475200Y24623000D01*
X20469400Y24628900D01*
X20463600Y24637800D01*
X20461700Y24649700D01*
Y24709000D01*
G01X20415000Y24620000D02*
Y24709000D01*
X20426600Y24691200D01*
G01Y24620000D02*
X20403400D01*
G01X21140300Y24637800D02*
X21135500Y24628900D01*
X21129700Y24623000D01*
X21122900Y24620000D01*
X21115200Y24623000D01*
X21109400Y24628900D01*
X21103600Y24637800D01*
X21101700Y24649700D01*
Y24709000D01*
G01X21076300Y24637800D02*
X21070500Y24627400D01*
X21062700Y24621500D01*
X21054000Y24620000D01*
X21046300Y24621500D01*
X21038600Y24628900D01*
X21033700Y24637800D01*
X21032800Y24646700D01*
X21034700Y24657100D01*
X21041500Y24664500D01*
X21048200Y24667500D01*
X21056900D01*
G01X21048200D02*
X21042400Y24671900D01*
X21037600Y24679300D01*
X21035700Y24688200D01*
X21037600Y24697100D01*
X21042400Y24704500D01*
X21051100Y24709000D01*
X21059800Y24707500D01*
X21068500Y24701600D01*
G01X25012300Y21907800D02*
X25006500Y21897400D01*
X24998700Y21891500D01*
X24990000Y21890000D01*
X24982300Y21891500D01*
X24974600Y21898900D01*
X24969700Y21907800D01*
X24968800Y21916700D01*
X24970700Y21927100D01*
X24977500Y21934500D01*
X24984200Y21937500D01*
X24992900D01*
G01X24984200D02*
X24978400Y21941900D01*
X24973600Y21949300D01*
X24971700Y21958200D01*
X24973600Y21967100D01*
X24978400Y21974500D01*
X24987100Y21979000D01*
X24995800Y21977500D01*
X25004500Y21971600D01*
G01X24925000Y21890000D02*
Y21979000D01*
X24936600Y21961200D01*
G01Y21890000D02*
X24913400D01*
G01X25240200D02*
Y21979000D01*
X25251800Y21961200D01*
G01Y21890000D02*
X25228600D01*
G01X25174200D02*
Y21979000D01*
X25185800Y21961200D01*
G01Y21890000D02*
X25162600D01*
G01X25500300Y24637800D02*
X25495500Y24628900D01*
X25489700Y24623000D01*
X25482900Y24620000D01*
X25475200Y24623000D01*
X25469400Y24628900D01*
X25463600Y24637800D01*
X25461700Y24649700D01*
Y24709000D01*
G01X25433400Y24694200D02*
X25427600Y24703100D01*
X25420800Y24707500D01*
X25413100Y24709000D01*
X25403400Y24706000D01*
X25396600Y24698600D01*
X25394700Y24689700D01*
X25395700Y24680800D01*
X25399500Y24673400D01*
X25418900Y24658600D01*
X25427600Y24648200D01*
X25433400Y24633300D01*
X25435300Y24620000D01*
X25394700D01*
G01X25269400Y24704200D02*
X25263600Y24713100D01*
X25256800Y24717500D01*
X25249100Y24719000D01*
X25239400Y24716000D01*
X25232600Y24708600D01*
X25230700Y24699700D01*
X25231700Y24690800D01*
X25235500Y24683400D01*
X25254900Y24668600D01*
X25263600Y24658200D01*
X25269400Y24643300D01*
X25271300Y24630000D01*
X25230700D01*
G01X25185000Y24719000D02*
X25192700Y24716000D01*
X25198500Y24708600D01*
X25202400Y24699700D01*
X25205300Y24687800D01*
X25206300Y24674500D01*
X25205300Y24661100D01*
X25202400Y24649300D01*
X25198500Y24640400D01*
X25192700Y24633000D01*
X25185000Y24630000D01*
X25177300Y24633000D01*
X25171500Y24640400D01*
X25167600Y24649300D01*
X25164700Y24661100D01*
X25163700Y24674500D01*
X25164700Y24687800D01*
X25167600Y24699700D01*
X25171500Y24708600D01*
X25177300Y24716000D01*
X25185000Y24719000D01*
G01X24989400Y24630000D02*
Y24719000D01*
X25025200Y24655200D01*
X24976800D01*
G01X24935000Y24719000D02*
X24942700Y24716000D01*
X24948500Y24708600D01*
X24952400Y24699700D01*
X24955300Y24687800D01*
X24956300Y24674500D01*
X24955300Y24661100D01*
X24952400Y24649300D01*
X24948500Y24640400D01*
X24942700Y24633000D01*
X24935000Y24630000D01*
X24927300Y24633000D01*
X24921500Y24640400D01*
X24917600Y24649300D01*
X24914700Y24661100D01*
X24913700Y24674500D01*
X24914700Y24687800D01*
X24917600Y24699700D01*
X24921500Y24708600D01*
X24927300Y24716000D01*
X24935000Y24719000D01*
G01X24800300Y24637800D02*
X24795500Y24628900D01*
X24789700Y24623000D01*
X24782900Y24620000D01*
X24775200Y24623000D01*
X24769400Y24628900D01*
X24763600Y24637800D01*
X24761700Y24649700D01*
Y24709000D01*
G01X24703400Y24620000D02*
Y24709000D01*
X24739200Y24645200D01*
X24690800D01*
G54D11*
G01X22492400Y23643500D02*
X22499800Y23688300D01*
X22505800Y23733400D01*
X22510700Y23778600D01*
X22514100Y23823900D01*
X22515900Y23869400D01*
X22515700Y23914800D01*
X22513600Y23960300D01*
X22509400Y24005500D01*
X22503000Y24050400D01*
X22494500Y24095100D01*
X22483900Y24139100D01*
X22467400Y24134300D01*
X22477700Y24090900D01*
X22486100Y24047000D01*
X22492400Y24002800D01*
X22496500Y23958300D01*
X22498600Y23913600D01*
Y23868900D01*
X22496900Y23824100D01*
X22493600Y23779600D01*
X22488800Y23735100D01*
X22482700Y23690800D01*
X22475500Y23646700D01*
X22492400Y23643500D01*
G01X22500900Y24264700D02*
X22514500Y24220900D01*
X22526900Y24176800D01*
X22538000Y24132300D01*
X22547700Y24087500D01*
X22555700Y24042200D01*
X22562100Y23996700D01*
X22566500Y23951000D01*
X22569000Y23905000D01*
X22569700Y23859000D01*
X22568300Y23813100D01*
X22565100Y23767100D01*
X22560100Y23721500D01*
X22553500Y23675900D01*
X22545300Y23630700D01*
X22535900Y23585800D01*
X22525100Y23541200D01*
X22513500Y23496800D01*
X22500700Y23452800D01*
X22482000Y23477200D01*
X22467400Y23504500D01*
X22455100Y23533200D01*
X22438600Y23530300D01*
X22433800Y23486800D01*
X22425700Y23443800D01*
X22415200Y23401400D01*
X22402900Y23359600D01*
X22389100Y23318300D01*
X22374000Y23277500D01*
X22357800Y23237200D01*
X22341300Y23278000D01*
X22326200Y23319500D01*
X22312500Y23361400D01*
X22300100Y23403800D01*
X22289000Y23446700D01*
X22279100Y23489800D01*
X22270500Y23533300D01*
X22263200Y23577000D01*
X22257100Y23620900D01*
X22252100Y23665000D01*
X22248400Y23709200D01*
X22246000Y23753500D01*
X22244800Y23796500D01*
X22244900Y23839400D01*
X22246200Y23882300D01*
X22248900Y23925200D01*
X22253100Y23967900D01*
X22258900Y24010400D01*
X22266600Y24052600D01*
X22276400Y24094300D01*
X22288900Y24135200D01*
X22304500Y24174900D01*
X22289100Y24182700D01*
X22273000Y24142100D01*
X22260200Y24100500D01*
X22250200Y24057900D01*
X22242300Y24014900D01*
X22236300Y23971500D01*
X22231900Y23927900D01*
X22229200Y23884200D01*
X22227700Y23840400D01*
Y23796500D01*
X22228900Y23752700D01*
X22231400Y23706100D01*
X22235400Y23659700D01*
X22240700Y23613400D01*
X22247400Y23567300D01*
X22255300Y23521400D01*
X22264600Y23475800D01*
X22275300Y23430500D01*
X22287300Y23385700D01*
X22300700Y23341300D01*
X22315700Y23297300D01*
X22332100Y23254100D01*
X22350100Y23211500D01*
X22358000Y23193800D01*
X22365700Y23211600D01*
X22382000Y23250700D01*
X22397300Y23290300D01*
X22411500Y23330400D01*
X22424400Y23370900D01*
X22435700Y23411900D01*
X22445300Y23453500D01*
X22452400Y23495500D01*
X22472500Y23459800D01*
X22500000Y23429900D01*
X22509600Y23422400D01*
X22513200Y23434400D01*
X22525900Y23477600D01*
X22537800Y23521100D01*
X22548700Y23564800D01*
X22558500Y23608900D01*
X22567100Y23653200D01*
X22574300Y23697700D01*
X22580000Y23742500D01*
X22584200Y23787500D01*
X22586600Y23832700D01*
X22587300Y23877900D01*
X22586000Y23922500D01*
X22583000Y23966900D01*
X22578100Y24011200D01*
X22571600Y24055200D01*
X22563300Y24098900D01*
X22553600Y24142300D01*
X22542600Y24185400D01*
X22530400Y24228100D01*
X22517200Y24270500D01*
X22500900Y24264700D01*
G01X22408400Y24250000D02*
X22391600Y24254000D01*
X22391400Y24252800D01*
X22381900Y24208700D01*
X22372900Y24164500D01*
X22364500Y24120100D01*
X22357100Y24075600D01*
X22350800Y24030900D01*
X22345400Y23986100D01*
X22341200Y23941000D01*
X22338300Y23895900D01*
X22336600Y23850700D01*
X22336100Y23805600D01*
X22336800Y23760300D01*
X22338900Y23715200D01*
X22342200Y23670200D01*
X22346700Y23625200D01*
X22352500Y23580400D01*
X22359400Y23535800D01*
X22367500Y23491400D01*
X22376900Y23447400D01*
X22393600Y23451500D01*
X22384400Y23495200D01*
X22376300Y23539100D01*
X22369300Y23583200D01*
X22363700Y23627600D01*
X22359200Y23672100D01*
X22356100Y23716700D01*
X22354000Y23761300D01*
X22353200Y23806100D01*
X22353800Y23850800D01*
X22355500Y23895500D01*
X22358400Y23940200D01*
X22362600Y23984700D01*
X22367800Y24029200D01*
X22374200Y24073400D01*
X22381500Y24117400D01*
X22389800Y24161400D01*
X22398700Y24205200D01*
X22408100Y24248800D01*
X22408400Y24250000D01*
G01X22318200Y24576300D02*
X22293200Y24548200D01*
X22269400Y24511500D01*
X22254000Y24473300D01*
X22244000Y24440000D01*
X22238900Y24403100D01*
X22236500Y24369100D01*
X22236100Y24328600D01*
X22240600Y24275600D01*
X22248200Y24215500D01*
X22250600Y24215300D01*
X22281300Y24289000D01*
X22303600Y24327200D01*
X22327800Y24341500D01*
X22364400Y24346300D01*
X22383100Y24346100D01*
G01X22448100Y24345700D02*
X22350800Y24346400D01*
X22332800Y24413200D01*
X22320900Y24484000D01*
X22314700Y24559900D01*
X22312900Y24672500D01*
X22318700Y24787200D01*
X22333400Y24900800D01*
X22355800Y25010100D01*
X22381800Y25090800D01*
X22407600Y25141800D01*
X22430300Y25169300D01*
X22458600Y25181300D01*
G01X22447200Y24345700D02*
X22538700Y24344800D01*
X22557900Y24411300D01*
X22571100Y24481800D01*
X22578700Y24557500D01*
X22582600Y24670200D01*
X22578800Y24784900D01*
X22566200Y24898700D01*
X22545700Y25008500D01*
X22521200Y25089600D01*
X22496200Y25141100D01*
X22474100Y25168900D01*
X22446000Y25181400D01*
G01X23542800Y23109000D02*
X23556400Y23065200D01*
X23568800Y23021100D01*
X23579900Y22976600D01*
X23589600Y22931800D01*
X23597600Y22886500D01*
X23604000Y22841000D01*
X23608400Y22795300D01*
X23610900Y22749300D01*
X23611600Y22703300D01*
X23610200Y22657400D01*
X23607000Y22611400D01*
X23602000Y22565800D01*
X23595400Y22520200D01*
X23587200Y22475000D01*
X23577800Y22430100D01*
X23567000Y22385500D01*
X23555400Y22341100D01*
X23542600Y22297100D01*
X23523900Y22321500D01*
X23509300Y22348800D01*
X23497000Y22377500D01*
X23480500Y22374600D01*
X23475700Y22331100D01*
X23467600Y22288100D01*
X23457100Y22245700D01*
X23444800Y22203900D01*
X23431000Y22162600D01*
X23415900Y22121800D01*
X23399700Y22081500D01*
X23383200Y22122300D01*
X23368100Y22163800D01*
X23354400Y22205700D01*
X23342000Y22248100D01*
X23330900Y22291000D01*
X23321000Y22334100D01*
X23312400Y22377600D01*
X23305100Y22421300D01*
X23299000Y22465200D01*
X23294000Y22509300D01*
X23290300Y22553500D01*
X23287900Y22597800D01*
X23286700Y22640800D01*
X23286800Y22683700D01*
X23288100Y22726600D01*
X23290800Y22769500D01*
X23295000Y22812200D01*
X23300800Y22854700D01*
X23308500Y22896900D01*
X23318300Y22938600D01*
X23330800Y22979500D01*
X23346400Y23019200D01*
X23331000Y23027000D01*
X23314900Y22986400D01*
X23302100Y22944800D01*
X23292100Y22902200D01*
X23284200Y22859200D01*
X23278200Y22815800D01*
X23273800Y22772200D01*
X23271100Y22728500D01*
X23269600Y22684700D01*
Y22640800D01*
X23270800Y22597000D01*
X23273300Y22550400D01*
X23277300Y22504000D01*
X23282600Y22457700D01*
X23289300Y22411600D01*
X23297200Y22365700D01*
X23306500Y22320100D01*
X23317200Y22274800D01*
X23329200Y22230000D01*
X23342600Y22185600D01*
X23357600Y22141600D01*
X23374000Y22098400D01*
X23392000Y22055800D01*
X23399900Y22038100D01*
X23407600Y22055900D01*
X23423900Y22095000D01*
X23439200Y22134600D01*
X23453400Y22174700D01*
X23466300Y22215200D01*
X23477600Y22256200D01*
X23487200Y22297800D01*
X23494300Y22339800D01*
X23514400Y22304100D01*
X23541900Y22274200D01*
X23551500Y22266700D01*
X23555100Y22278700D01*
X23567800Y22321900D01*
X23579700Y22365400D01*
X23590600Y22409100D01*
X23600400Y22453200D01*
X23609000Y22497500D01*
X23616200Y22542000D01*
X23621900Y22586800D01*
X23626100Y22631800D01*
X23628500Y22677000D01*
X23629200Y22722200D01*
X23627900Y22766800D01*
X23624900Y22811200D01*
X23620000Y22855500D01*
X23613500Y22899500D01*
X23605200Y22943200D01*
X23595500Y22986600D01*
X23584500Y23029700D01*
X23572300Y23072400D01*
X23559100Y23114800D01*
X23542800Y23109000D01*
G01X23450300Y23094300D02*
X23433500Y23098300D01*
X23433300Y23097100D01*
X23423800Y23053000D01*
X23414800Y23008800D01*
X23406400Y22964400D01*
X23399000Y22919900D01*
X23392700Y22875200D01*
X23387300Y22830400D01*
X23383100Y22785300D01*
X23380200Y22740200D01*
X23378500Y22695000D01*
X23378000Y22649900D01*
X23378700Y22604600D01*
X23380800Y22559500D01*
X23384100Y22514500D01*
X23388600Y22469500D01*
X23394400Y22424700D01*
X23401300Y22380100D01*
X23409400Y22335700D01*
X23418800Y22291700D01*
X23435500Y22295800D01*
X23426300Y22339500D01*
X23418200Y22383400D01*
X23411200Y22427500D01*
X23405600Y22471900D01*
X23401100Y22516400D01*
X23398000Y22561000D01*
X23395900Y22605600D01*
X23395100Y22650400D01*
X23395700Y22695100D01*
X23397400Y22739800D01*
X23400300Y22784500D01*
X23404500Y22829000D01*
X23409700Y22873500D01*
X23416100Y22917700D01*
X23423400Y22961700D01*
X23431700Y23005700D01*
X23440600Y23049500D01*
X23450000Y23093100D01*
X23450300Y23094300D01*
G01X23534300Y22487800D02*
X23541700Y22532600D01*
X23547700Y22577700D01*
X23552600Y22622900D01*
X23556000Y22668200D01*
X23557800Y22713700D01*
X23557600Y22759100D01*
X23555500Y22804600D01*
X23551300Y22849800D01*
X23544900Y22894700D01*
X23536400Y22939400D01*
X23525800Y22983400D01*
X23509300Y22978600D01*
X23519600Y22935200D01*
X23528000Y22891300D01*
X23534300Y22847100D01*
X23538400Y22802600D01*
X23540500Y22757900D01*
Y22713200D01*
X23538800Y22668400D01*
X23535500Y22623900D01*
X23530700Y22579400D01*
X23524600Y22535100D01*
X23517400Y22491000D01*
X23534300Y22487800D01*
G01X23489100Y23190000D02*
X23580600Y23189100D01*
X23599800Y23255600D01*
X23613000Y23326100D01*
X23620600Y23401800D01*
X23624500Y23514500D01*
X23620700Y23629200D01*
X23608100Y23743000D01*
X23587600Y23852800D01*
X23563100Y23933900D01*
X23538100Y23985400D01*
X23516000Y24013200D01*
X23487900Y24025700D01*
G01X23490000Y23190000D02*
X23392700Y23190700D01*
X23374700Y23257500D01*
X23362800Y23328300D01*
X23356600Y23404200D01*
X23354800Y23516800D01*
X23360600Y23631500D01*
X23375300Y23745100D01*
X23397700Y23854400D01*
X23423700Y23935100D01*
X23449500Y23986100D01*
X23472200Y24013600D01*
X23500500Y24025600D01*
G01X23623600Y23418300D02*
X23648200Y23389800D01*
X23671200Y23352600D01*
X23686100Y23314100D01*
X23695300Y23280700D01*
X23699800Y23243800D01*
X23701600Y23209800D01*
X23701200Y23169100D01*
X23696000Y23116400D01*
X23687200Y23056300D01*
X23684800D01*
X23655400Y23130500D01*
X23633700Y23169000D01*
X23609800Y23183700D01*
X23573300Y23189200D01*
X23554700Y23189300D01*
G01X23360100Y23420600D02*
X23335100Y23392500D01*
X23311300Y23355800D01*
X23295900Y23317600D01*
X23285900Y23284300D01*
X23280800Y23247400D01*
X23278400Y23213400D01*
X23278000Y23172900D01*
X23282500Y23119900D01*
X23290100Y23059800D01*
X23292500Y23059600D01*
X23323200Y23133300D01*
X23345500Y23171500D01*
X23369700Y23185800D01*
X23406300Y23190600D01*
X23425000Y23190400D01*
G01X22581700Y24574000D02*
X22606300Y24545500D01*
X22629300Y24508300D01*
X22644200Y24469800D01*
X22653400Y24436400D01*
X22657900Y24399500D01*
X22659700Y24365500D01*
X22659300Y24324800D01*
X22654100Y24272100D01*
X22645300Y24212000D01*
X22642900D01*
X22613500Y24286200D01*
X22591800Y24324700D01*
X22567900Y24339400D01*
X22531400Y24344900D01*
X22512800Y24345000D01*
G54D12*
G01X25490000Y26920000D02*
X25466000Y26800000D01*
X25440000Y26920000D01*
X25414000Y26800000D01*
X25390000Y26920000D01*
G01X25320000D02*
X25296000Y26800000D01*
X25270000Y26920000D01*
X25244000Y26800000D01*
X25220000Y26920000D01*
G01X25150000D02*
X25126000Y26800000D01*
X25100000Y26920000D01*
X25074000Y26800000D01*
X25050000Y26920000D01*
G01X24930000Y26794000D02*
X24934000Y26797000D01*
Y26803000D01*
X24930000Y26806000D01*
X24926000Y26803000D01*
Y26797000D01*
X24930000Y26794000D01*
G01X24760000Y26980000D02*
Y26800000D01*
G01X24788000Y26920000D02*
X24732000D01*
G01X24590000D02*
Y26800000D01*
G01Y26968000D02*
X24594000Y26971000D01*
Y26977000D01*
X24590000Y26980000D01*
X24586000Y26977000D01*
Y26971000D01*
X24590000Y26968000D01*
G01X24420000Y26794000D02*
X24424000Y26797000D01*
Y26803000D01*
X24420000Y26806000D01*
X24416000Y26803000D01*
Y26797000D01*
X24420000Y26794000D01*
G01X24218000Y26905000D02*
X24232000Y26917000D01*
X24244000Y26920000D01*
X24260000Y26914000D01*
X24272000Y26902000D01*
X24280000Y26881000D01*
X24282000Y26860000D01*
X24280000Y26839000D01*
X24272000Y26821000D01*
X24260000Y26806000D01*
X24244000Y26800000D01*
X24230000Y26806000D01*
X24218000Y26818000D01*
G01X24080000Y26800000D02*
X24092000Y26803000D01*
X24104000Y26815000D01*
X24112000Y26836000D01*
X24116000Y26860000D01*
X24112000Y26884000D01*
X24104000Y26905000D01*
X24092000Y26917000D01*
X24080000Y26920000D01*
X24068000Y26917000D01*
X24056000Y26905000D01*
X24048000Y26884000D01*
X24046000Y26860000D01*
X24048000Y26836000D01*
X24056000Y26815000D01*
X24068000Y26803000D01*
X24080000Y26800000D01*
G01X23970000D02*
Y26920000D01*
G01Y26887000D02*
X23964000Y26902000D01*
X23954000Y26914000D01*
X23940000Y26920000D01*
X23926000Y26914000D01*
X23916000Y26902000D01*
X23910000Y26887000D01*
Y26800000D01*
G01Y26887000D02*
X23904000Y26902000D01*
X23894000Y26914000D01*
X23880000Y26920000D01*
X23866000Y26914000D01*
X23856000Y26902000D01*
X23850000Y26884000D01*
Y26800000D01*
G01X23776000Y26794000D02*
X23704000Y26980000D01*
G01X23570000Y26800000D02*
Y26980000D01*
G01X23364000Y26800000D02*
Y26920000D01*
G01Y26899000D02*
X23372000Y26911000D01*
X23384000Y26917000D01*
X23398000Y26920000D01*
X23412000Y26914000D01*
X23424000Y26902000D01*
X23432000Y26884000D01*
X23436000Y26860000D01*
X23432000Y26836000D01*
X23424000Y26818000D01*
X23412000Y26806000D01*
X23398000Y26800000D01*
X23384000Y26803000D01*
X23372000Y26812000D01*
X23364000Y26824000D01*
G01X23264000Y26920000D02*
Y26836000D01*
X23256000Y26815000D01*
X23244000Y26803000D01*
X23230000Y26800000D01*
X23216000Y26803000D01*
X23204000Y26815000D01*
X23196000Y26836000D01*
G01Y26800000D02*
Y26920000D01*
G01X23094000Y26800000D02*
Y26920000D01*
G01Y26890000D02*
X23086000Y26905000D01*
X23074000Y26917000D01*
X23058000Y26920000D01*
X23044000Y26917000D01*
X23032000Y26905000D01*
X23026000Y26884000D01*
Y26800000D01*
G01X22858000Y26905000D02*
X22872000Y26917000D01*
X22884000Y26920000D01*
X22900000Y26914000D01*
X22912000Y26902000D01*
X22920000Y26881000D01*
X22922000Y26860000D01*
X22920000Y26839000D01*
X22912000Y26821000D01*
X22900000Y26806000D01*
X22884000Y26800000D01*
X22870000Y26806000D01*
X22858000Y26818000D01*
G01X22754000Y26800000D02*
Y26980000D01*
G01Y26893000D02*
X22744000Y26908000D01*
X22734000Y26917000D01*
X22718000Y26920000D01*
X22706000Y26917000D01*
X22692000Y26905000D01*
X22686000Y26887000D01*
Y26800000D01*
G01X22586000Y26740000D02*
Y26920000D01*
G01Y26893000D02*
X22576000Y26908000D01*
X22566000Y26917000D01*
X22550000Y26920000D01*
X22536000Y26917000D01*
X22522000Y26902000D01*
X22516000Y26881000D01*
X22514000Y26860000D01*
X22516000Y26839000D01*
X22522000Y26818000D01*
X22534000Y26806000D01*
X22550000Y26800000D01*
X22564000Y26803000D01*
X22578000Y26812000D01*
X22586000Y26824000D01*
G01X22344000Y26800000D02*
Y26920000D01*
G01Y26899000D02*
X22352000Y26911000D01*
X22364000Y26917000D01*
X22378000Y26920000D01*
X22392000Y26914000D01*
X22404000Y26902000D01*
X22412000Y26884000D01*
X22416000Y26860000D01*
X22412000Y26836000D01*
X22404000Y26818000D01*
X22392000Y26806000D01*
X22378000Y26800000D01*
X22364000Y26803000D01*
X22352000Y26812000D01*
X22344000Y26824000D01*
G01X22174000Y26980000D02*
Y26800000D01*
G01Y26827000D02*
X22182000Y26812000D01*
X22194000Y26803000D01*
X22208000Y26800000D01*
X22224000Y26806000D01*
X22236000Y26821000D01*
X22244000Y26839000D01*
X22246000Y26860000D01*
X22244000Y26881000D01*
X22236000Y26899000D01*
X22224000Y26914000D01*
X22208000Y26920000D01*
X22194000Y26917000D01*
X22184000Y26911000D01*
X22174000Y26899000D01*
G01X25500000Y27180000D02*
X25420000Y27240000D01*
X25500000Y27300000D01*
G01X25330000Y27180000D02*
X25250000Y27240000D01*
X25330000Y27300000D01*
G01X25160000Y27360000D02*
Y27180000D01*
X25080000D01*
G01X25000000D02*
X24950000Y27360000D01*
X24900000Y27180000D01*
G01X24918000Y27243000D02*
X24982000D01*
G01X24824000Y27360000D02*
Y27231000D01*
X24816000Y27204000D01*
X24800000Y27186000D01*
X24780000Y27180000D01*
X24760000Y27186000D01*
X24744000Y27204000D01*
X24736000Y27231000D01*
Y27360000D01*
G01X24656000Y27180000D02*
Y27360000D01*
X24564000Y27180000D01*
Y27360000D01*
G01X24396000Y27345000D02*
X24408000Y27354000D01*
X24422000Y27360000D01*
X24438000D01*
X24456000Y27351000D01*
X24470000Y27336000D01*
X24480000Y27318000D01*
X24488000Y27288000D01*
X24490000Y27261000D01*
X24486000Y27234000D01*
X24480000Y27216000D01*
X24468000Y27198000D01*
X24454000Y27186000D01*
X24440000Y27180000D01*
X24426000D01*
X24412000Y27186000D01*
X24400000Y27195000D01*
X24390000Y27207000D01*
G01X24312000Y27180000D02*
Y27360000D01*
G01X24228000D02*
Y27180000D01*
G01Y27270000D02*
X24312000D01*
G01X24142000Y27180000D02*
X24058000Y27360000D01*
G01X24142000D02*
X24058000Y27180000D01*
G01X23970000Y27360000D02*
Y27180000D01*
X23890000D01*
G01X23786000Y27240000D02*
X23734000D01*
G01X23546000Y27345000D02*
X23558000Y27354000D01*
X23572000Y27360000D01*
X23588000D01*
X23606000Y27351000D01*
X23620000Y27336000D01*
X23630000Y27318000D01*
X23638000Y27288000D01*
X23640000Y27261000D01*
X23636000Y27234000D01*
X23630000Y27216000D01*
X23618000Y27198000D01*
X23604000Y27186000D01*
X23590000Y27180000D01*
X23576000D01*
X23562000Y27186000D01*
X23550000Y27195000D01*
X23540000Y27207000D01*
G01X23376000Y27345000D02*
X23388000Y27354000D01*
X23402000Y27360000D01*
X23418000D01*
X23436000Y27351000D01*
X23450000Y27336000D01*
X23460000Y27318000D01*
X23468000Y27288000D01*
X23470000Y27261000D01*
X23466000Y27234000D01*
X23460000Y27216000D01*
X23448000Y27198000D01*
X23434000Y27186000D01*
X23420000Y27180000D01*
X23406000D01*
X23392000Y27186000D01*
X23380000Y27195000D01*
X23370000Y27207000D01*
G01X23250000Y27180000D02*
Y27360000D01*
X23274000Y27324000D01*
G01Y27180000D02*
X23226000D01*
G01X23124000Y27216000D02*
X23112000Y27195000D01*
X23096000Y27183000D01*
X23078000Y27180000D01*
X23062000Y27183000D01*
X23046000Y27198000D01*
X23036000Y27216000D01*
X23034000Y27234000D01*
X23038000Y27255000D01*
X23052000Y27270000D01*
X23066000Y27276000D01*
X23084000D01*
G01X23066000D02*
X23054000Y27285000D01*
X23044000Y27300000D01*
X23040000Y27318000D01*
X23044000Y27336000D01*
X23054000Y27351000D01*
X23072000Y27360000D01*
X23090000Y27357000D01*
X23108000Y27345000D01*
G01X22910000Y27180000D02*
Y27360000D01*
X22934000Y27324000D01*
G01Y27180000D02*
X22886000D01*
G01X22740000Y27360000D02*
X22756000Y27354000D01*
X22768000Y27339000D01*
X22776000Y27321000D01*
X22782000Y27297000D01*
X22784000Y27270000D01*
X22782000Y27243000D01*
X22776000Y27219000D01*
X22768000Y27201000D01*
X22756000Y27186000D01*
X22740000Y27180000D01*
X22724000Y27186000D01*
X22712000Y27201000D01*
X22704000Y27219000D01*
X22698000Y27243000D01*
X22696000Y27270000D01*
X22698000Y27297000D01*
X22704000Y27321000D01*
X22712000Y27339000D01*
X22724000Y27354000D01*
X22740000Y27360000D01*
G54D13*
G01X25366700Y27885000D02*
X25386700Y27900000D01*
X25410000Y27910000D01*
X25436700D01*
X25466700Y27895000D01*
X25490000Y27870000D01*
X25506700Y27840000D01*
X25520000Y27790000D01*
X25523300Y27745000D01*
X25516700Y27700000D01*
X25506700Y27670000D01*
X25486700Y27640000D01*
X25463300Y27620000D01*
X25440000Y27610000D01*
X25416700D01*
X25393300Y27620000D01*
X25373300Y27635000D01*
X25356700Y27655000D01*
G01X25086700Y27885000D02*
X25106700Y27900000D01*
X25130000Y27910000D01*
X25156700D01*
X25186700Y27895000D01*
X25210000Y27870000D01*
X25226700Y27840000D01*
X25240000Y27790000D01*
X25243300Y27745000D01*
X25236700Y27700000D01*
X25226700Y27670000D01*
X25206700Y27640000D01*
X25183300Y27620000D01*
X25160000Y27610000D01*
X25136700D01*
X25113300Y27620000D01*
X25093300Y27635000D01*
X25076700Y27655000D01*
G01X24880000Y27610000D02*
Y27910000D01*
X24920000Y27850000D01*
G01Y27610000D02*
X24840000D01*
G01X24673300Y27670000D02*
X24653300Y27635000D01*
X24626700Y27615000D01*
X24596700Y27610000D01*
X24570000Y27615000D01*
X24543300Y27640000D01*
X24526700Y27670000D01*
X24523300Y27700000D01*
X24530000Y27735000D01*
X24553300Y27760000D01*
X24576700Y27770000D01*
X24606700D01*
G01X24576700D02*
X24556700Y27785000D01*
X24540000Y27810000D01*
X24533300Y27840000D01*
X24540000Y27870000D01*
X24556700Y27895000D01*
X24586700Y27910000D01*
X24616700Y27905000D01*
X24646700Y27885000D01*
G01X24320000Y27610000D02*
Y27910000D01*
X24360000Y27850000D01*
G01Y27610000D02*
X24280000D01*
G01X24040000Y27910000D02*
X24066700Y27900000D01*
X24086700Y27875000D01*
X24100000Y27845000D01*
X24110000Y27805000D01*
X24113300Y27760000D01*
X24110000Y27715000D01*
X24100000Y27675000D01*
X24086700Y27645000D01*
X24066700Y27620000D01*
X24040000Y27610000D01*
X24013300Y27620000D01*
X23993300Y27645000D01*
X23980000Y27675000D01*
X23970000Y27715000D01*
X23966700Y27760000D01*
X23970000Y27805000D01*
X23980000Y27845000D01*
X23993300Y27875000D01*
X24013300Y27900000D01*
X24040000Y27910000D01*
G01X23546700D02*
Y27610000D01*
X23413300D01*
G01X23140000D02*
Y27810000D01*
G01Y27775000D02*
X23153300Y27795000D01*
X23173300Y27805000D01*
X23196700Y27810000D01*
X23220000Y27800000D01*
X23240000Y27780000D01*
X23253300Y27750000D01*
X23260000Y27710000D01*
X23253300Y27670000D01*
X23240000Y27640000D01*
X23220000Y27620000D01*
X23196700Y27610000D01*
X23173300Y27615000D01*
X23153300Y27630000D01*
X23140000Y27650000D01*
G01X22976700Y27810000D02*
Y27670000D01*
X22963300Y27635000D01*
X22943300Y27615000D01*
X22920000Y27610000D01*
X22896700Y27615000D01*
X22876700Y27635000D01*
X22863300Y27670000D01*
G01Y27610000D02*
Y27810000D01*
G01X22696700Y27610000D02*
Y27810000D01*
G01Y27760000D02*
X22683300Y27785000D01*
X22663300Y27805000D01*
X22636700Y27810000D01*
X22613300Y27805000D01*
X22593300Y27785000D01*
X22583300Y27750000D01*
Y27610000D01*
G01X22306700Y27785000D02*
X22330000Y27805000D01*
X22350000Y27810000D01*
X22376700Y27800000D01*
X22396700Y27780000D01*
X22410000Y27745000D01*
X22413300Y27710000D01*
X22410000Y27675000D01*
X22396700Y27645000D01*
X22376700Y27620000D01*
X22350000Y27610000D01*
X22326700Y27620000D01*
X22306700Y27640000D01*
G01X22136700Y27610000D02*
Y27910000D01*
G01Y27765000D02*
X22120000Y27790000D01*
X22103300Y27805000D01*
X22076700Y27810000D01*
X22056700Y27805000D01*
X22033300Y27785000D01*
X22023300Y27755000D01*
Y27610000D01*
G01X21866700D02*
Y27910000D01*
X21786700D01*
X21760000Y27895000D01*
X21740000Y27860000D01*
X21733300Y27820000D01*
X21740000Y27780000D01*
X21756700Y27750000D01*
X21786700Y27735000D01*
X21866700D01*
G01X21460000Y27610000D02*
Y27810000D01*
G01Y27775000D02*
X21473300Y27795000D01*
X21493300Y27805000D01*
X21516700Y27810000D01*
X21540000Y27800000D01*
X21560000Y27780000D01*
X21573300Y27750000D01*
X21580000Y27710000D01*
X21573300Y27670000D01*
X21560000Y27640000D01*
X21540000Y27620000D01*
X21516700Y27610000D01*
X21493300Y27615000D01*
X21473300Y27630000D01*
X21460000Y27650000D01*
G01X21180000Y27910000D02*
Y27610000D01*
G01Y27655000D02*
X21193300Y27630000D01*
X21213300Y27615000D01*
X21236700Y27610000D01*
X21263300Y27620000D01*
X21283300Y27645000D01*
X21296700Y27675000D01*
X21300000Y27710000D01*
X21296700Y27745000D01*
X21283300Y27775000D01*
X21263300Y27800000D01*
X21236700Y27810000D01*
X21213300Y27805000D01*
X21196700Y27795000D01*
X21180000Y27775000D01*
G54D14*
G01X20146200Y20000000D02*
X25703800D01*
G03X25850000Y20146200I0J146200D01*
G01Y24450000D01*
G03X25740000Y24765000I-506023J0D01*
G02X25630000Y25080000I396023J315000D01*
G02X25740000Y25395000I506023J0D01*
G03X25850000Y25710000I-396023J315000D01*
G01Y29383800D01*
G03X25703800Y29530000I-146200J0D01*
G01X21580000D01*
Y29410000D01*
X21420000D01*
Y29200000D01*
X21330000D01*
Y29410000D01*
X20950000D01*
Y29200000D01*
X20860000D01*
Y29410000D01*
X20700000D01*
Y29530000D01*
X20146200D01*
G03X20000000Y29383800I0J-146200D01*
G01Y25710000D01*
G03X20110000Y25395000I506023J0D01*
G02X20220000Y25080000I-396023J-315000D01*
G02X20110000Y24765000I-506023J0D01*
G03X20000000Y24450000I396023J-315000D01*
G01Y20146200D01*
G03X20146200Y20000000I146200J0D01*
G54D15*
G01X23709700Y29154400D02*
X23709200Y29157100D01*
G01X23708600D02*
X23709200Y29154400D01*
G01X23709900Y29155400D02*
X23708400D01*
G01Y29156100D02*
X23709900D01*
G01X23708000Y29155100D02*
Y29157100D01*
X23707300D01*
X23707100Y29157000D01*
X23707000Y29156900D01*
X23706900Y29156600D01*
X23707000Y29156300D01*
X23707100Y29156200D01*
X23707300Y29156100D01*
X23708000D01*
G01X23707300D02*
X23706900Y29155100D01*
G01X23705200D02*
X23706300D01*
Y29157100D01*
X23705200D01*
G01X23705600Y29156100D02*
X23706300D01*
G01X23704500Y29155100D02*
Y29157100D01*
X23703600D01*
G01X23703900Y29156100D02*
X23704500D01*
G01X23702900Y29155100D02*
Y29157100D01*
X23702400D01*
X23702200Y29157000D01*
X23702000Y29156900D01*
X23701900Y29156700D01*
X23701800Y29156400D01*
Y29156100D01*
Y29155800D01*
X23701900Y29155500D01*
X23702000Y29155300D01*
X23702200Y29155200D01*
X23702400Y29155100D01*
X23702900D01*
G01X23700100D02*
X23701200D01*
Y29157100D01*
X23700100D01*
G01X23700500Y29156100D02*
X23701200D01*
G01X23699500Y29155400D02*
X23699300Y29155200D01*
X23699100Y29155100D01*
X23698800D01*
X23698600Y29155200D01*
X23698500Y29155400D01*
X23698400Y29155600D01*
X23698500Y29155800D01*
X23698600Y29156000D01*
X23698800Y29156200D01*
X23699100D01*
X23699300Y29156400D01*
X23699400Y29156600D01*
X23699300Y29156800D01*
X23699200Y29157000D01*
X23699000Y29157100D01*
X23698800D01*
X23698700Y29157000D01*
X23698500Y29156900D01*
G54D16*
G01X20464500Y22360100D02*
X20465100Y22465100D01*
X20441800Y22465200D01*
X20432400Y22460000D01*
X20425400Y22453100D01*
X20419500Y22442600D01*
X20414700Y22430400D01*
X20413500Y22412900D01*
X20414500Y22395400D01*
X20419100Y22383100D01*
X20424900Y22372600D01*
X20431800Y22365500D01*
X20441100Y22360200D01*
X20464500Y22360100D01*
G01X20373500Y22465600D02*
X20345500Y22465800D01*
G01X20359500Y22465700D02*
X20358800Y22360700D01*
G01X20372800Y22360600D02*
X20344800Y22360800D01*
G01X20278800Y22361200D02*
X20288100Y22362900D01*
X20296400Y22369900D01*
X20303400Y22380300D01*
X20308200Y22392500D01*
X20310600Y22406500D01*
X20310700Y22420500D01*
X20308400Y22434500D01*
X20303800Y22446800D01*
X20296900Y22457400D01*
X20288800Y22464400D01*
X20279500Y22466200D01*
X20270100Y22464500D01*
X20261900Y22457600D01*
X20254800Y22447100D01*
X20250100Y22434900D01*
X20247700Y22420900D01*
X20247600Y22406900D01*
X20249800Y22392900D01*
X20254400Y22380600D01*
X20261400Y22370100D01*
X20269500Y22363000D01*
X20278800Y22361200D01*
G01X20184800Y22361800D02*
X20185500Y22466800D01*
X20228200Y22391300D01*
X20169800Y22391700D01*
G01X20464500Y22110100D02*
X20465100Y22215100D01*
X20441800Y22215200D01*
X20432400Y22210000D01*
X20425400Y22203100D01*
X20419500Y22192600D01*
X20414700Y22180400D01*
X20413500Y22162900D01*
X20414500Y22145400D01*
X20419100Y22133100D01*
X20424900Y22122600D01*
X20431800Y22115500D01*
X20441100Y22110200D01*
X20464500Y22110100D01*
G01X20373500Y22215600D02*
X20345500Y22215800D01*
G01X20359500Y22215700D02*
X20358800Y22110700D01*
G01X20372800Y22110600D02*
X20344800Y22110800D01*
G01X20278800Y22111200D02*
X20288100Y22112900D01*
X20296400Y22119900D01*
X20303400Y22130300D01*
X20308200Y22142500D01*
X20310600Y22156500D01*
X20310700Y22170500D01*
X20308400Y22184500D01*
X20303800Y22196800D01*
X20296900Y22207400D01*
X20288800Y22214400D01*
X20279500Y22216200D01*
X20270100Y22214500D01*
X20261900Y22207600D01*
X20254800Y22197100D01*
X20250100Y22184900D01*
X20247700Y22170900D01*
X20247600Y22156900D01*
X20249800Y22142900D01*
X20254400Y22130600D01*
X20261400Y22120100D01*
X20269500Y22113000D01*
X20278800Y22111200D01*
G01X20224600Y22127300D02*
X20217500Y22118600D01*
X20209300Y22113400D01*
X20198800Y22111700D01*
X20188300Y22115300D01*
X20180200Y22122300D01*
X20174400Y22134600D01*
X20173400Y22148600D01*
X20175800Y22162600D01*
X20181700Y22171300D01*
X20189900Y22178300D01*
X20198100Y22180000D01*
X20206200Y22178200D01*
X20216700Y22171100D01*
X20213500Y22216600D01*
X20182000Y22216800D01*
G01X20464500Y22870100D02*
X20465100Y22975100D01*
X20441800Y22975200D01*
X20432400Y22970000D01*
X20425400Y22963100D01*
X20419500Y22952600D01*
X20414700Y22940400D01*
X20413500Y22922900D01*
X20414500Y22905400D01*
X20419100Y22893100D01*
X20424900Y22882600D01*
X20431800Y22875500D01*
X20441100Y22870200D01*
X20464500Y22870100D01*
G01X20373500Y22975600D02*
X20345500Y22975800D01*
G01X20359500Y22975700D02*
X20358800Y22870700D01*
G01X20372800Y22870600D02*
X20344800Y22870800D01*
G01X20278800Y22871200D02*
X20288100Y22872900D01*
X20296400Y22879900D01*
X20303400Y22890300D01*
X20308200Y22902500D01*
X20310600Y22916500D01*
X20310700Y22930500D01*
X20308400Y22944500D01*
X20303800Y22956800D01*
X20296900Y22967400D01*
X20288800Y22974400D01*
X20279500Y22976200D01*
X20270100Y22974500D01*
X20261900Y22967600D01*
X20254800Y22957100D01*
X20250100Y22944900D01*
X20247700Y22930900D01*
X20247600Y22916900D01*
X20249800Y22902900D01*
X20254400Y22890600D01*
X20261400Y22880100D01*
X20269500Y22873000D01*
X20278800Y22871200D01*
G01X20198800Y22871700D02*
X20199500Y22976700D01*
X20213300Y22955600D01*
G01X20212800Y22871600D02*
X20184800Y22871800D01*
G01X20119500Y22977200D02*
X20128800Y22973700D01*
X20135700Y22964900D01*
X20140300Y22954300D01*
X20143700Y22940300D01*
X20144800Y22924600D01*
X20143500Y22908800D01*
X20139900Y22894800D01*
X20135200Y22884400D01*
X20128200Y22875700D01*
X20118800Y22872200D01*
X20109500Y22875800D01*
X20102500Y22884600D01*
X20097900Y22895100D01*
X20094500Y22909100D01*
X20093500Y22924900D01*
X20094700Y22940600D01*
X20098300Y22954600D01*
X20103100Y22965100D01*
X20110100Y22973800D01*
X20119500Y22977200D01*
G01X20464500Y22620100D02*
X20465100Y22725100D01*
X20441800Y22725200D01*
X20432400Y22720000D01*
X20425400Y22713100D01*
X20419500Y22702600D01*
X20414700Y22690400D01*
X20413500Y22672900D01*
X20414500Y22655400D01*
X20419100Y22643100D01*
X20424900Y22632600D01*
X20431800Y22625500D01*
X20441100Y22620200D01*
X20464500Y22620100D01*
G01X20373500Y22725600D02*
X20345500Y22725800D01*
G01X20359500Y22725700D02*
X20358800Y22620700D01*
G01X20372800Y22620600D02*
X20344800Y22620800D01*
G01X20278800Y22621200D02*
X20288100Y22622900D01*
X20296400Y22629900D01*
X20303400Y22640300D01*
X20308200Y22652500D01*
X20310600Y22666500D01*
X20310700Y22680500D01*
X20308400Y22694500D01*
X20303800Y22706800D01*
X20296900Y22717400D01*
X20288800Y22724400D01*
X20279500Y22726200D01*
X20270100Y22724500D01*
X20261900Y22717600D01*
X20254800Y22707100D01*
X20250100Y22694900D01*
X20247700Y22680900D01*
X20247600Y22666900D01*
X20249800Y22652900D01*
X20254400Y22640600D01*
X20261400Y22630100D01*
X20269500Y22623000D01*
X20278800Y22621200D01*
G01X20221500Y22709100D02*
X20214600Y22719600D01*
X20206500Y22724900D01*
X20197100Y22726700D01*
X20185400Y22723300D01*
X20177200Y22714600D01*
X20174800Y22704100D01*
X20175900Y22693600D01*
X20180500Y22684800D01*
X20203800Y22667200D01*
X20214200Y22654900D01*
X20221100Y22637300D01*
X20223300Y22621600D01*
X20174300Y22621900D01*
G01X20118800Y22622200D02*
X20119500Y22727200D01*
X20133300Y22706100D01*
G01X20132800Y22622100D02*
X20104800Y22622300D01*
G01X20459500Y24140000D02*
Y24245000D01*
X20436100D01*
X20426800Y24239700D01*
X20419800Y24232700D01*
X20414000Y24222300D01*
X20409300Y24210000D01*
X20408100Y24192500D01*
X20409300Y24175000D01*
X20414000Y24162700D01*
X20419800Y24152200D01*
X20426800Y24145200D01*
X20436100Y24140000D01*
X20459500D01*
G01X20367800Y24245000D02*
X20339800D01*
G01X20353800D02*
Y24140000D01*
G01X20367800D02*
X20339800D01*
G01X20273800D02*
X20283100Y24141700D01*
X20291300Y24148700D01*
X20298300Y24159200D01*
X20303000Y24171500D01*
X20305300Y24185500D01*
Y24199500D01*
X20303000Y24213500D01*
X20298300Y24225800D01*
X20291300Y24236200D01*
X20283100Y24243300D01*
X20273800Y24245000D01*
X20264500Y24243300D01*
X20256300Y24236200D01*
X20249300Y24225800D01*
X20244600Y24213500D01*
X20242300Y24199500D01*
Y24185500D01*
X20244600Y24171500D01*
X20249300Y24159200D01*
X20256300Y24148700D01*
X20264500Y24141700D01*
X20273800Y24140000D01*
G01X20216000Y24227500D02*
X20209000Y24238000D01*
X20200800Y24243300D01*
X20191500Y24245000D01*
X20179800Y24241500D01*
X20171600Y24232700D01*
X20169300Y24222300D01*
X20170500Y24211700D01*
X20175100Y24203000D01*
X20198500Y24185500D01*
X20209000Y24173200D01*
X20216000Y24155700D01*
X20218300Y24140000D01*
X20169300D01*
G01X20139500Y24161000D02*
X20132500Y24148700D01*
X20123100Y24141700D01*
X20112600Y24140000D01*
X20103300Y24141700D01*
X20094000Y24150500D01*
X20088100Y24161000D01*
X20087000Y24171500D01*
X20089300Y24183700D01*
X20097500Y24192500D01*
X20105600Y24196000D01*
X20116100D01*
G01X20105600D02*
X20098600Y24201200D01*
X20092800Y24210000D01*
X20090500Y24220500D01*
X20092800Y24231000D01*
X20098600Y24239700D01*
X20109100Y24245000D01*
X20119600Y24243300D01*
X20130100Y24236200D01*
G01X20459500Y23890000D02*
Y23995000D01*
X20436100D01*
X20426800Y23989700D01*
X20419800Y23982700D01*
X20414000Y23972300D01*
X20409300Y23960000D01*
X20408100Y23942500D01*
X20409300Y23925000D01*
X20414000Y23912700D01*
X20419800Y23902200D01*
X20426800Y23895200D01*
X20436100Y23890000D01*
X20459500D01*
G01X20367800Y23995000D02*
X20339800D01*
G01X20353800D02*
Y23890000D01*
G01X20367800D02*
X20339800D01*
G01X20273800D02*
X20283100Y23891700D01*
X20291300Y23898700D01*
X20298300Y23909200D01*
X20303000Y23921500D01*
X20305300Y23935500D01*
Y23949500D01*
X20303000Y23963500D01*
X20298300Y23975800D01*
X20291300Y23986200D01*
X20283100Y23993300D01*
X20273800Y23995000D01*
X20264500Y23993300D01*
X20256300Y23986200D01*
X20249300Y23975800D01*
X20244600Y23963500D01*
X20242300Y23949500D01*
Y23935500D01*
X20244600Y23921500D01*
X20249300Y23909200D01*
X20256300Y23898700D01*
X20264500Y23891700D01*
X20273800Y23890000D01*
G01X20216000Y23977500D02*
X20209000Y23988000D01*
X20200800Y23993300D01*
X20191500Y23995000D01*
X20179800Y23991500D01*
X20171600Y23982700D01*
X20169300Y23972300D01*
X20170500Y23961700D01*
X20175100Y23953000D01*
X20198500Y23935500D01*
X20209000Y23923200D01*
X20216000Y23905700D01*
X20218300Y23890000D01*
X20169300D01*
G01X20459500Y23635000D02*
Y23740000D01*
X20436100D01*
X20426800Y23734700D01*
X20419800Y23727700D01*
X20414000Y23717300D01*
X20409300Y23705000D01*
X20408100Y23687500D01*
X20409300Y23670000D01*
X20414000Y23657700D01*
X20419800Y23647200D01*
X20426800Y23640200D01*
X20436100Y23635000D01*
X20459500D01*
G01X20367800Y23740000D02*
X20339800D01*
G01X20353800D02*
Y23635000D01*
G01X20367800D02*
X20339800D01*
G01X20273800D02*
X20283100Y23636700D01*
X20291300Y23643700D01*
X20298300Y23654200D01*
X20303000Y23666500D01*
X20305300Y23680500D01*
Y23694500D01*
X20303000Y23708500D01*
X20298300Y23720800D01*
X20291300Y23731200D01*
X20283100Y23738300D01*
X20273800Y23740000D01*
X20264500Y23738300D01*
X20256300Y23731200D01*
X20249300Y23720800D01*
X20244600Y23708500D01*
X20242300Y23694500D01*
Y23680500D01*
X20244600Y23666500D01*
X20249300Y23654200D01*
X20256300Y23643700D01*
X20264500Y23636700D01*
X20273800Y23635000D01*
G01X20219500Y23656000D02*
X20212500Y23643700D01*
X20203100Y23636700D01*
X20192600Y23635000D01*
X20183300Y23636700D01*
X20174000Y23645500D01*
X20168100Y23656000D01*
X20167000Y23666500D01*
X20169300Y23678700D01*
X20177500Y23687500D01*
X20185600Y23691000D01*
X20196100D01*
G01X20185600D02*
X20178600Y23696200D01*
X20172800Y23705000D01*
X20170500Y23715500D01*
X20172800Y23726000D01*
X20178600Y23734700D01*
X20189100Y23740000D01*
X20199600Y23738300D01*
X20210100Y23731200D01*
G01X20459500Y23380000D02*
Y23485000D01*
X20436100D01*
X20426800Y23479700D01*
X20419800Y23472700D01*
X20414000Y23462300D01*
X20409300Y23450000D01*
X20408100Y23432500D01*
X20409300Y23415000D01*
X20414000Y23402700D01*
X20419800Y23392200D01*
X20426800Y23385200D01*
X20436100Y23380000D01*
X20459500D01*
G01X20367800Y23485000D02*
X20339800D01*
G01X20353800D02*
Y23380000D01*
G01X20367800D02*
X20339800D01*
G01X20273800D02*
X20283100Y23381700D01*
X20291300Y23388700D01*
X20298300Y23399200D01*
X20303000Y23411500D01*
X20305300Y23425500D01*
Y23439500D01*
X20303000Y23453500D01*
X20298300Y23465800D01*
X20291300Y23476200D01*
X20283100Y23483300D01*
X20273800Y23485000D01*
X20264500Y23483300D01*
X20256300Y23476200D01*
X20249300Y23465800D01*
X20244600Y23453500D01*
X20242300Y23439500D01*
Y23425500D01*
X20244600Y23411500D01*
X20249300Y23399200D01*
X20256300Y23388700D01*
X20264500Y23381700D01*
X20273800Y23380000D01*
G01X20216000Y23467500D02*
X20209000Y23478000D01*
X20200800Y23483300D01*
X20191500Y23485000D01*
X20179800Y23481500D01*
X20171600Y23472700D01*
X20169300Y23462300D01*
X20170500Y23451700D01*
X20175100Y23443000D01*
X20198500Y23425500D01*
X20209000Y23413200D01*
X20216000Y23395700D01*
X20218300Y23380000D01*
X20169300D01*
G01X20136000Y23467500D02*
X20129000Y23478000D01*
X20120800Y23483300D01*
X20111500Y23485000D01*
X20099800Y23481500D01*
X20091600Y23472700D01*
X20089300Y23462300D01*
X20090500Y23451700D01*
X20095100Y23443000D01*
X20118500Y23425500D01*
X20129000Y23413200D01*
X20136000Y23395700D01*
X20138300Y23380000D01*
X20089300D01*
G01X20459500Y23125000D02*
Y23230000D01*
X20436100D01*
X20426800Y23224700D01*
X20419800Y23217700D01*
X20414000Y23207300D01*
X20409300Y23195000D01*
X20408100Y23177500D01*
X20409300Y23160000D01*
X20414000Y23147700D01*
X20419800Y23137200D01*
X20426800Y23130200D01*
X20436100Y23125000D01*
X20459500D01*
G01X20367800Y23230000D02*
X20339800D01*
G01X20353800D02*
Y23125000D01*
G01X20367800D02*
X20339800D01*
G01X20273800D02*
X20283100Y23126700D01*
X20291300Y23133700D01*
X20298300Y23144200D01*
X20303000Y23156500D01*
X20305300Y23170500D01*
Y23184500D01*
X20303000Y23198500D01*
X20298300Y23210800D01*
X20291300Y23221200D01*
X20283100Y23228300D01*
X20273800Y23230000D01*
X20264500Y23228300D01*
X20256300Y23221200D01*
X20249300Y23210800D01*
X20244600Y23198500D01*
X20242300Y23184500D01*
Y23170500D01*
X20244600Y23156500D01*
X20249300Y23144200D01*
X20256300Y23133700D01*
X20264500Y23126700D01*
X20273800Y23125000D01*
G01X20216000Y23212500D02*
X20209000Y23223000D01*
X20200800Y23228300D01*
X20191500Y23230000D01*
X20179800Y23226500D01*
X20171600Y23217700D01*
X20169300Y23207300D01*
X20170500Y23196700D01*
X20175100Y23188000D01*
X20198500Y23170500D01*
X20209000Y23158200D01*
X20216000Y23140700D01*
X20218300Y23125000D01*
X20169300D01*
G01X20099800D02*
Y23230000D01*
X20143000Y23154800D01*
X20084600D01*
G01X20188300Y28020000D02*
Y28125000D01*
X20160300D01*
X20151000Y28119700D01*
X20144000Y28107500D01*
X20141700Y28093500D01*
X20144000Y28079500D01*
X20149800Y28069000D01*
X20160300Y28063700D01*
X20188300D01*
G01X20085000Y28020000D02*
X20076800Y28021700D01*
X20067500Y28027000D01*
X20061700Y28035700D01*
X20059300Y28048000D01*
X20061700Y28060200D01*
X20068700Y28070700D01*
X20079200Y28076000D01*
X20090800D01*
X20097800Y28079500D01*
X20103700Y28088200D01*
X20106000Y28100500D01*
X20102500Y28112700D01*
X20094300Y28121500D01*
X20085000Y28125000D01*
X20075700Y28121500D01*
X20067500Y28112700D01*
X20064000Y28100500D01*
X20066300Y28088200D01*
X20072200Y28079500D01*
X20079200Y28076000D01*
X20090800D01*
X20101300Y28070700D01*
X20108300Y28060200D01*
X20110700Y28048000D01*
X20108300Y28035700D01*
X20102500Y28027000D01*
X20093200Y28021700D01*
X20085000Y28020000D01*
G01X21340700Y22110000D02*
Y22215000D01*
X21317300D01*
X21308000Y22209700D01*
X21301000Y22202700D01*
X21295200Y22192300D01*
X21290500Y22180000D01*
X21289300Y22162500D01*
X21290500Y22145000D01*
X21295200Y22132700D01*
X21301000Y22122200D01*
X21308000Y22115200D01*
X21317300Y22110000D01*
X21340700D01*
G01X21249000Y22215000D02*
X21221000D01*
G01X21235000D02*
Y22110000D01*
G01X21249000D02*
X21221000D01*
G01X21155000D02*
X21164300Y22111700D01*
X21172500Y22118700D01*
X21179500Y22129200D01*
X21184200Y22141500D01*
X21186500Y22155500D01*
Y22169500D01*
X21184200Y22183500D01*
X21179500Y22195800D01*
X21172500Y22206200D01*
X21164300Y22213300D01*
X21155000Y22215000D01*
X21145700Y22213300D01*
X21137500Y22206200D01*
X21130500Y22195800D01*
X21125800Y22183500D01*
X21123500Y22169500D01*
Y22155500D01*
X21125800Y22141500D01*
X21130500Y22129200D01*
X21137500Y22118700D01*
X21145700Y22111700D01*
X21155000Y22110000D01*
G01X21075000D02*
Y22215000D01*
X21089000Y22194000D01*
G01Y22110000D02*
X21061000D01*
G01X21336300Y22365000D02*
Y22470000D01*
X21312900D01*
X21303600Y22464700D01*
X21296600Y22457700D01*
X21290800Y22447300D01*
X21286100Y22435000D01*
X21284900Y22417500D01*
X21286100Y22400000D01*
X21290800Y22387700D01*
X21296600Y22377200D01*
X21303600Y22370200D01*
X21312900Y22365000D01*
X21336300D01*
G01X21244600Y22470000D02*
X21216600D01*
G01X21230600D02*
Y22365000D01*
G01X21244600D02*
X21216600D01*
G01X21150600D02*
X21159900Y22366700D01*
X21168100Y22373700D01*
X21175100Y22384200D01*
X21179800Y22396500D01*
X21182100Y22410500D01*
Y22424500D01*
X21179800Y22438500D01*
X21175100Y22450800D01*
X21168100Y22461200D01*
X21159900Y22468300D01*
X21150600Y22470000D01*
X21141300Y22468300D01*
X21133100Y22461200D01*
X21126100Y22450800D01*
X21121400Y22438500D01*
X21119100Y22424500D01*
Y22410500D01*
X21121400Y22396500D01*
X21126100Y22384200D01*
X21133100Y22373700D01*
X21141300Y22366700D01*
X21150600Y22365000D01*
G01X21070600Y22470000D02*
X21079900Y22466500D01*
X21086900Y22457700D01*
X21091600Y22447300D01*
X21095100Y22433200D01*
X21096300Y22417500D01*
X21095100Y22401700D01*
X21091600Y22387700D01*
X21086900Y22377200D01*
X21079900Y22368500D01*
X21070600Y22365000D01*
X21061300Y22368500D01*
X21054300Y22377200D01*
X21049600Y22387700D01*
X21046100Y22401700D01*
X21044900Y22417500D01*
X21046100Y22433200D01*
X21049600Y22447300D01*
X21054300Y22457700D01*
X21061300Y22466500D01*
X21070600Y22470000D01*
G01X21416300Y22620000D02*
Y22725000D01*
X21392900D01*
X21383600Y22719700D01*
X21376600Y22712700D01*
X21370800Y22702300D01*
X21366100Y22690000D01*
X21364900Y22672500D01*
X21366100Y22655000D01*
X21370800Y22642700D01*
X21376600Y22632200D01*
X21383600Y22625200D01*
X21392900Y22620000D01*
X21416300D01*
G01X21324600Y22725000D02*
X21296600D01*
G01X21310600D02*
Y22620000D01*
G01X21324600D02*
X21296600D01*
G01X21230600D02*
X21239900Y22621700D01*
X21248100Y22628700D01*
X21255100Y22639200D01*
X21259800Y22651500D01*
X21262100Y22665500D01*
Y22679500D01*
X21259800Y22693500D01*
X21255100Y22705800D01*
X21248100Y22716200D01*
X21239900Y22723300D01*
X21230600Y22725000D01*
X21221300Y22723300D01*
X21213100Y22716200D01*
X21206100Y22705800D01*
X21201400Y22693500D01*
X21199100Y22679500D01*
Y22665500D01*
X21201400Y22651500D01*
X21206100Y22639200D01*
X21213100Y22628700D01*
X21221300Y22621700D01*
X21230600Y22620000D01*
G01X21176300Y22641000D02*
X21169300Y22628700D01*
X21159900Y22621700D01*
X21149400Y22620000D01*
X21140100Y22621700D01*
X21130800Y22630500D01*
X21124900Y22641000D01*
X21123800Y22651500D01*
X21126100Y22663700D01*
X21134300Y22672500D01*
X21142400Y22676000D01*
X21152900D01*
G01X21142400D02*
X21135400Y22681200D01*
X21129600Y22690000D01*
X21127300Y22700500D01*
X21129600Y22711000D01*
X21135400Y22719700D01*
X21145900Y22725000D01*
X21156400Y22723300D01*
X21166900Y22716200D01*
G01X21070600Y22725000D02*
X21079900Y22721500D01*
X21086900Y22712700D01*
X21091600Y22702300D01*
X21095100Y22688200D01*
X21096300Y22672500D01*
X21095100Y22656700D01*
X21091600Y22642700D01*
X21086900Y22632200D01*
X21079900Y22623500D01*
X21070600Y22620000D01*
X21061300Y22623500D01*
X21054300Y22632200D01*
X21049600Y22642700D01*
X21046100Y22656700D01*
X21044900Y22672500D01*
X21046100Y22688200D01*
X21049600Y22702300D01*
X21054300Y22712700D01*
X21061300Y22721500D01*
X21070600Y22725000D01*
G01X21416300Y22875000D02*
Y22980000D01*
X21392900D01*
X21383600Y22974700D01*
X21376600Y22967700D01*
X21370800Y22957300D01*
X21366100Y22945000D01*
X21364900Y22927500D01*
X21366100Y22910000D01*
X21370800Y22897700D01*
X21376600Y22887200D01*
X21383600Y22880200D01*
X21392900Y22875000D01*
X21416300D01*
G01X21324600Y22980000D02*
X21296600D01*
G01X21310600D02*
Y22875000D01*
G01X21324600D02*
X21296600D01*
G01X21230600D02*
X21239900Y22876700D01*
X21248100Y22883700D01*
X21255100Y22894200D01*
X21259800Y22906500D01*
X21262100Y22920500D01*
Y22934500D01*
X21259800Y22948500D01*
X21255100Y22960800D01*
X21248100Y22971200D01*
X21239900Y22978300D01*
X21230600Y22980000D01*
X21221300Y22978300D01*
X21213100Y22971200D01*
X21206100Y22960800D01*
X21201400Y22948500D01*
X21199100Y22934500D01*
Y22920500D01*
X21201400Y22906500D01*
X21206100Y22894200D01*
X21213100Y22883700D01*
X21221300Y22876700D01*
X21230600Y22875000D01*
G01X21172800Y22962500D02*
X21165800Y22973000D01*
X21157600Y22978300D01*
X21148300Y22980000D01*
X21136600Y22976500D01*
X21128400Y22967700D01*
X21126100Y22957300D01*
X21127300Y22946700D01*
X21131900Y22938000D01*
X21155300Y22920500D01*
X21165800Y22908200D01*
X21172800Y22890700D01*
X21175100Y22875000D01*
X21126100D01*
G01X21090400Y22887200D02*
X21082300Y22878500D01*
X21072900Y22875000D01*
X21063600Y22878500D01*
X21055400Y22889000D01*
X21049600Y22904800D01*
X21047300Y22920500D01*
Y22939700D01*
X21049600Y22955500D01*
X21055400Y22969500D01*
X21062400Y22976500D01*
X21070600Y22980000D01*
X21079900Y22976500D01*
X21086900Y22969500D01*
X21091600Y22959000D01*
X21093900Y22945000D01*
X21091600Y22932800D01*
X21085800Y22920500D01*
X21078800Y22913500D01*
X21070600Y22911700D01*
X21061300Y22915200D01*
X21054300Y22924000D01*
X21047300Y22939700D01*
G01X21416300Y23125000D02*
Y23230000D01*
X21392900D01*
X21383600Y23224700D01*
X21376600Y23217700D01*
X21370800Y23207300D01*
X21366100Y23195000D01*
X21364900Y23177500D01*
X21366100Y23160000D01*
X21370800Y23147700D01*
X21376600Y23137200D01*
X21383600Y23130200D01*
X21392900Y23125000D01*
X21416300D01*
G01X21324600Y23230000D02*
X21296600D01*
G01X21310600D02*
Y23125000D01*
G01X21324600D02*
X21296600D01*
G01X21230600D02*
X21239900Y23126700D01*
X21248100Y23133700D01*
X21255100Y23144200D01*
X21259800Y23156500D01*
X21262100Y23170500D01*
Y23184500D01*
X21259800Y23198500D01*
X21255100Y23210800D01*
X21248100Y23221200D01*
X21239900Y23228300D01*
X21230600Y23230000D01*
X21221300Y23228300D01*
X21213100Y23221200D01*
X21206100Y23210800D01*
X21201400Y23198500D01*
X21199100Y23184500D01*
Y23170500D01*
X21201400Y23156500D01*
X21206100Y23144200D01*
X21213100Y23133700D01*
X21221300Y23126700D01*
X21230600Y23125000D01*
G01X21172800Y23212500D02*
X21165800Y23223000D01*
X21157600Y23228300D01*
X21148300Y23230000D01*
X21136600Y23226500D01*
X21128400Y23217700D01*
X21126100Y23207300D01*
X21127300Y23196700D01*
X21131900Y23188000D01*
X21155300Y23170500D01*
X21165800Y23158200D01*
X21172800Y23140700D01*
X21175100Y23125000D01*
X21126100D01*
G01X21070600D02*
X21062400Y23126700D01*
X21053100Y23132000D01*
X21047300Y23140700D01*
X21044900Y23153000D01*
X21047300Y23165200D01*
X21054300Y23175700D01*
X21064800Y23181000D01*
X21076400D01*
X21083400Y23184500D01*
X21089300Y23193200D01*
X21091600Y23205500D01*
X21088100Y23217700D01*
X21079900Y23226500D01*
X21070600Y23230000D01*
X21061300Y23226500D01*
X21053100Y23217700D01*
X21049600Y23205500D01*
X21051900Y23193200D01*
X21057800Y23184500D01*
X21064800Y23181000D01*
X21076400D01*
X21086900Y23175700D01*
X21093900Y23165200D01*
X21096300Y23153000D01*
X21093900Y23140700D01*
X21088100Y23132000D01*
X21078800Y23126700D01*
X21070600Y23125000D01*
G01X21416300Y23380000D02*
Y23485000D01*
X21392900D01*
X21383600Y23479700D01*
X21376600Y23472700D01*
X21370800Y23462300D01*
X21366100Y23450000D01*
X21364900Y23432500D01*
X21366100Y23415000D01*
X21370800Y23402700D01*
X21376600Y23392200D01*
X21383600Y23385200D01*
X21392900Y23380000D01*
X21416300D01*
G01X21324600Y23485000D02*
X21296600D01*
G01X21310600D02*
Y23380000D01*
G01X21324600D02*
X21296600D01*
G01X21230600D02*
X21239900Y23381700D01*
X21248100Y23388700D01*
X21255100Y23399200D01*
X21259800Y23411500D01*
X21262100Y23425500D01*
Y23439500D01*
X21259800Y23453500D01*
X21255100Y23465800D01*
X21248100Y23476200D01*
X21239900Y23483300D01*
X21230600Y23485000D01*
X21221300Y23483300D01*
X21213100Y23476200D01*
X21206100Y23465800D01*
X21201400Y23453500D01*
X21199100Y23439500D01*
Y23425500D01*
X21201400Y23411500D01*
X21206100Y23399200D01*
X21213100Y23388700D01*
X21221300Y23381700D01*
X21230600Y23380000D01*
G01X21172800Y23467500D02*
X21165800Y23478000D01*
X21157600Y23483300D01*
X21148300Y23485000D01*
X21136600Y23481500D01*
X21128400Y23472700D01*
X21126100Y23462300D01*
X21127300Y23451700D01*
X21131900Y23443000D01*
X21155300Y23425500D01*
X21165800Y23413200D01*
X21172800Y23395700D01*
X21175100Y23380000D01*
X21126100D01*
G01X21072900D02*
X21070600Y23402700D01*
X21067100Y23422000D01*
X21062400Y23439500D01*
X21056600Y23458700D01*
X21047300Y23485000D01*
X21093900D01*
G01X21416300Y23890000D02*
Y23995000D01*
X21392900D01*
X21383600Y23989700D01*
X21376600Y23982700D01*
X21370800Y23972300D01*
X21366100Y23960000D01*
X21364900Y23942500D01*
X21366100Y23925000D01*
X21370800Y23912700D01*
X21376600Y23902200D01*
X21383600Y23895200D01*
X21392900Y23890000D01*
X21416300D01*
G01X21324600Y23995000D02*
X21296600D01*
G01X21310600D02*
Y23890000D01*
G01X21324600D02*
X21296600D01*
G01X21230600D02*
X21239900Y23891700D01*
X21248100Y23898700D01*
X21255100Y23909200D01*
X21259800Y23921500D01*
X21262100Y23935500D01*
Y23949500D01*
X21259800Y23963500D01*
X21255100Y23975800D01*
X21248100Y23986200D01*
X21239900Y23993300D01*
X21230600Y23995000D01*
X21221300Y23993300D01*
X21213100Y23986200D01*
X21206100Y23975800D01*
X21201400Y23963500D01*
X21199100Y23949500D01*
Y23935500D01*
X21201400Y23921500D01*
X21206100Y23909200D01*
X21213100Y23898700D01*
X21221300Y23891700D01*
X21230600Y23890000D01*
G01X21172800Y23977500D02*
X21165800Y23988000D01*
X21157600Y23993300D01*
X21148300Y23995000D01*
X21136600Y23991500D01*
X21128400Y23982700D01*
X21126100Y23972300D01*
X21127300Y23961700D01*
X21131900Y23953000D01*
X21155300Y23935500D01*
X21165800Y23923200D01*
X21172800Y23905700D01*
X21175100Y23890000D01*
X21126100D01*
G01X21096300Y23905700D02*
X21089300Y23897000D01*
X21081100Y23891700D01*
X21070600Y23890000D01*
X21060100Y23893500D01*
X21051900Y23900500D01*
X21046100Y23912700D01*
X21044900Y23926700D01*
X21047300Y23940700D01*
X21053100Y23949500D01*
X21061300Y23956500D01*
X21069400Y23958200D01*
X21077600Y23956500D01*
X21088100Y23949500D01*
X21084600Y23995000D01*
X21053100D01*
G01X21421300Y23640000D02*
Y23745000D01*
X21397900D01*
X21388600Y23739700D01*
X21381600Y23732700D01*
X21375800Y23722300D01*
X21371100Y23710000D01*
X21369900Y23692500D01*
X21371100Y23675000D01*
X21375800Y23662700D01*
X21381600Y23652200D01*
X21388600Y23645200D01*
X21397900Y23640000D01*
X21421300D01*
G01X21329600Y23745000D02*
X21301600D01*
G01X21315600D02*
Y23640000D01*
G01X21329600D02*
X21301600D01*
G01X21235600D02*
X21244900Y23641700D01*
X21253100Y23648700D01*
X21260100Y23659200D01*
X21264800Y23671500D01*
X21267100Y23685500D01*
Y23699500D01*
X21264800Y23713500D01*
X21260100Y23725800D01*
X21253100Y23736200D01*
X21244900Y23743300D01*
X21235600Y23745000D01*
X21226300Y23743300D01*
X21218100Y23736200D01*
X21211100Y23725800D01*
X21206400Y23713500D01*
X21204100Y23699500D01*
Y23685500D01*
X21206400Y23671500D01*
X21211100Y23659200D01*
X21218100Y23648700D01*
X21226300Y23641700D01*
X21235600Y23640000D01*
G01X21177800Y23727500D02*
X21170800Y23738000D01*
X21162600Y23743300D01*
X21153300Y23745000D01*
X21141600Y23741500D01*
X21133400Y23732700D01*
X21131100Y23722300D01*
X21132300Y23711700D01*
X21136900Y23703000D01*
X21160300Y23685500D01*
X21170800Y23673200D01*
X21177800Y23655700D01*
X21180100Y23640000D01*
X21131100D01*
G01X21097800Y23683700D02*
X21089600Y23696000D01*
X21082600Y23703000D01*
X21073300Y23706500D01*
X21065100Y23703000D01*
X21059300Y23696000D01*
X21054600Y23685500D01*
X21053400Y23673200D01*
X21054600Y23662700D01*
X21059300Y23652200D01*
X21066300Y23643500D01*
X21074400Y23640000D01*
X21083800Y23643500D01*
X21091900Y23654000D01*
X21096600Y23669800D01*
X21097800Y23687200D01*
X21095400Y23710000D01*
X21091900Y23722300D01*
X21086100Y23734500D01*
X21077900Y23743300D01*
X21069800Y23745000D01*
X21061600Y23741500D01*
X21055800Y23732700D01*
G01X24887200Y26370000D02*
Y26475000D01*
X24842800D01*
G01X24859200Y26424300D02*
X24887200D01*
G01X24785000Y26370000D02*
X24792000Y26371700D01*
X24799000Y26378700D01*
X24803700Y26391000D01*
X24806000Y26405000D01*
X24803700Y26419000D01*
X24799000Y26431200D01*
X24792000Y26438200D01*
X24785000Y26440000D01*
X24778000Y26438200D01*
X24771000Y26431200D01*
X24766300Y26419000D01*
X24765200Y26405000D01*
X24766300Y26391000D01*
X24771000Y26378700D01*
X24778000Y26371700D01*
X24785000Y26370000D01*
G01X24721300D02*
Y26440000D01*
G01Y26426000D02*
X24715500Y26433000D01*
X24709700Y26438200D01*
X24701500Y26440000D01*
X24695700Y26438200D01*
X24688700Y26433000D01*
G01X24562500Y26417200D02*
X24525200D01*
X24528700Y26429500D01*
X24534500Y26436500D01*
X24542700Y26440000D01*
X24550800Y26438200D01*
X24557800Y26433000D01*
X24562500Y26420700D01*
X24564800Y26410200D01*
Y26399800D01*
X24562500Y26389200D01*
X24556700Y26378700D01*
X24549700Y26371700D01*
X24541500Y26370000D01*
X24533300Y26373500D01*
X24525200Y26384000D01*
G01X24486000Y26440000D02*
X24465000Y26370000D01*
X24444000Y26440000D01*
G01X24364000Y26370000D02*
Y26440000D01*
G01Y26427800D02*
X24368700Y26434700D01*
X24375700Y26438200D01*
X24383800Y26440000D01*
X24392000Y26436500D01*
X24399000Y26429500D01*
X24403700Y26419000D01*
X24406000Y26405000D01*
X24403700Y26391000D01*
X24399000Y26380500D01*
X24392000Y26373500D01*
X24383800Y26370000D01*
X24375700Y26371700D01*
X24368700Y26377000D01*
X24364000Y26384000D01*
G01X24305000Y26370000D02*
Y26475000D01*
G01X24244800Y26440000D02*
Y26391000D01*
X24240200Y26378700D01*
X24233200Y26371700D01*
X24225000Y26370000D01*
X24216800Y26371700D01*
X24209800Y26378700D01*
X24205200Y26391000D01*
G01Y26370000D02*
Y26440000D01*
G01X24124000Y26370000D02*
Y26440000D01*
G01Y26427800D02*
X24128700Y26434700D01*
X24135700Y26438200D01*
X24143800Y26440000D01*
X24152000Y26436500D01*
X24159000Y26429500D01*
X24163700Y26419000D01*
X24166000Y26405000D01*
X24163700Y26391000D01*
X24159000Y26380500D01*
X24152000Y26373500D01*
X24143800Y26370000D01*
X24135700Y26371700D01*
X24128700Y26377000D01*
X24124000Y26384000D01*
G01X24065000Y26475000D02*
Y26370000D01*
G01X24081300Y26440000D02*
X24048700D01*
G01X23985000D02*
Y26370000D01*
G01Y26468000D02*
X23987300Y26469700D01*
Y26473300D01*
X23985000Y26475000D01*
X23982700Y26473300D01*
Y26469700D01*
X23985000Y26468000D01*
G01X23905000Y26370000D02*
X23912000Y26371700D01*
X23919000Y26378700D01*
X23923700Y26391000D01*
X23926000Y26405000D01*
X23923700Y26419000D01*
X23919000Y26431200D01*
X23912000Y26438200D01*
X23905000Y26440000D01*
X23898000Y26438200D01*
X23891000Y26431200D01*
X23886300Y26419000D01*
X23885200Y26405000D01*
X23886300Y26391000D01*
X23891000Y26378700D01*
X23898000Y26371700D01*
X23905000Y26370000D01*
G01X23844800D02*
Y26440000D01*
G01Y26422500D02*
X23840200Y26431200D01*
X23833200Y26438200D01*
X23823800Y26440000D01*
X23815700Y26438200D01*
X23808700Y26431200D01*
X23805200Y26419000D01*
Y26370000D01*
G01X23665000D02*
X23672000Y26371700D01*
X23679000Y26378700D01*
X23683700Y26391000D01*
X23686000Y26405000D01*
X23683700Y26419000D01*
X23679000Y26431200D01*
X23672000Y26438200D01*
X23665000Y26440000D01*
X23658000Y26438200D01*
X23651000Y26431200D01*
X23646300Y26419000D01*
X23645200Y26405000D01*
X23646300Y26391000D01*
X23651000Y26378700D01*
X23658000Y26371700D01*
X23665000Y26370000D01*
G01X23604800D02*
Y26440000D01*
G01Y26422500D02*
X23600200Y26431200D01*
X23593200Y26438200D01*
X23583800Y26440000D01*
X23575700Y26438200D01*
X23568700Y26431200D01*
X23565200Y26419000D01*
Y26370000D01*
G01X23505000D02*
Y26475000D01*
G01X23449500Y26338500D02*
X23442500Y26335000D01*
X23433200Y26338500D01*
X23427300Y26345500D01*
X23422700Y26354300D01*
X23415700Y26382200D01*
X23400500Y26440000D01*
G01X23437800D02*
X23415700Y26382200D01*
G01X23353200Y26338500D02*
X23336800Y26363000D01*
Y26387500D01*
X23353200D01*
Y26363000D01*
X23336800D01*
G01Y26405000D02*
Y26429500D01*
X23353200D01*
Y26405000D01*
X23336800D01*
G01X23204800Y26370000D02*
Y26440000D01*
G01Y26422500D02*
X23200200Y26431200D01*
X23193200Y26438200D01*
X23183800Y26440000D01*
X23175700Y26438200D01*
X23168700Y26431200D01*
X23165200Y26419000D01*
Y26370000D01*
G01X23105000D02*
X23112000Y26371700D01*
X23119000Y26378700D01*
X23123700Y26391000D01*
X23126000Y26405000D01*
X23123700Y26419000D01*
X23119000Y26431200D01*
X23112000Y26438200D01*
X23105000Y26440000D01*
X23098000Y26438200D01*
X23091000Y26431200D01*
X23086300Y26419000D01*
X23085200Y26405000D01*
X23086300Y26391000D01*
X23091000Y26378700D01*
X23098000Y26371700D01*
X23105000Y26370000D01*
G01X23025000Y26475000D02*
Y26370000D01*
G01X23041300Y26440000D02*
X23008700D01*
G01X22887200Y26370000D02*
Y26475000D01*
X22842800D01*
G01X22859200Y26424300D02*
X22887200D01*
G01X22759300Y26466200D02*
X22766300Y26471500D01*
X22774500Y26475000D01*
X22783800D01*
X22794300Y26469700D01*
X22802500Y26461000D01*
X22808300Y26450500D01*
X22813000Y26433000D01*
X22814200Y26417200D01*
X22811800Y26401500D01*
X22808300Y26391000D01*
X22801300Y26380500D01*
X22793200Y26373500D01*
X22785000Y26370000D01*
X22776800D01*
X22768700Y26373500D01*
X22761700Y26378700D01*
X22755800Y26385700D01*
G01X22679300Y26466200D02*
X22686300Y26471500D01*
X22694500Y26475000D01*
X22703800D01*
X22714300Y26469700D01*
X22722500Y26461000D01*
X22728300Y26450500D01*
X22733000Y26433000D01*
X22734200Y26417200D01*
X22731800Y26401500D01*
X22728300Y26391000D01*
X22721300Y26380500D01*
X22713200Y26373500D01*
X22705000Y26370000D01*
X22696800D01*
X22688700Y26373500D01*
X22681700Y26378700D01*
X22675800Y26385700D01*
G01X22524000Y26370000D02*
Y26440000D01*
G01Y26427800D02*
X22528700Y26434700D01*
X22535700Y26438200D01*
X22543800Y26440000D01*
X22552000Y26436500D01*
X22559000Y26429500D01*
X22563700Y26419000D01*
X22566000Y26405000D01*
X22563700Y26391000D01*
X22559000Y26380500D01*
X22552000Y26373500D01*
X22543800Y26370000D01*
X22535700Y26371700D01*
X22528700Y26377000D01*
X22524000Y26384000D01*
G01X22486000Y26335000D02*
Y26440000D01*
G01Y26424300D02*
X22480200Y26433000D01*
X22474300Y26438200D01*
X22465000Y26440000D01*
X22456800Y26438200D01*
X22448700Y26429500D01*
X22445200Y26417200D01*
X22444000Y26405000D01*
X22445200Y26392700D01*
X22448700Y26380500D01*
X22455700Y26373500D01*
X22465000Y26370000D01*
X22473200Y26371700D01*
X22481300Y26377000D01*
X22486000Y26384000D01*
G01X22406000Y26335000D02*
Y26440000D01*
G01Y26424300D02*
X22400200Y26433000D01*
X22394300Y26438200D01*
X22385000Y26440000D01*
X22376800Y26438200D01*
X22368700Y26429500D01*
X22365200Y26417200D01*
X22364000Y26405000D01*
X22365200Y26392700D01*
X22368700Y26380500D01*
X22375700Y26373500D01*
X22385000Y26370000D01*
X22393200Y26371700D01*
X22401300Y26377000D01*
X22406000Y26384000D01*
G01X22321300Y26370000D02*
Y26440000D01*
G01Y26426000D02*
X22315500Y26433000D01*
X22309700Y26438200D01*
X22301500Y26440000D01*
X22295700Y26438200D01*
X22288700Y26433000D01*
G01X22225000Y26370000D02*
X22232000Y26371700D01*
X22239000Y26378700D01*
X22243700Y26391000D01*
X22246000Y26405000D01*
X22243700Y26419000D01*
X22239000Y26431200D01*
X22232000Y26438200D01*
X22225000Y26440000D01*
X22218000Y26438200D01*
X22211000Y26431200D01*
X22206300Y26419000D01*
X22205200Y26405000D01*
X22206300Y26391000D01*
X22211000Y26378700D01*
X22218000Y26371700D01*
X22225000Y26370000D01*
G01X22166000Y26440000D02*
X22145000Y26370000D01*
X22124000Y26440000D01*
G01X22082500Y26417200D02*
X22045200D01*
X22048700Y26429500D01*
X22054500Y26436500D01*
X22062700Y26440000D01*
X22070800Y26438200D01*
X22077800Y26433000D01*
X22082500Y26420700D01*
X22084800Y26410200D01*
Y26399800D01*
X22082500Y26389200D01*
X22076700Y26378700D01*
X22069700Y26371700D01*
X22061500Y26370000D01*
X22053300Y26373500D01*
X22045200Y26384000D01*
G01X21964000Y26475000D02*
Y26370000D01*
G01Y26385700D02*
X21968700Y26377000D01*
X21975700Y26371700D01*
X21983800Y26370000D01*
X21993200Y26373500D01*
X22000200Y26382200D01*
X22004800Y26392700D01*
X22006000Y26405000D01*
X22004800Y26417200D01*
X22000200Y26427800D01*
X21993200Y26436500D01*
X21983800Y26440000D01*
X21975700Y26438200D01*
X21969800Y26434700D01*
X21964000Y26427800D01*
G01X21832000Y26370000D02*
Y26459300D01*
X21829700Y26468000D01*
X21825000Y26473300D01*
X21818000Y26475000D01*
X21811000Y26471500D01*
X21807500Y26462700D01*
G01X21821500Y26433000D02*
X21844800D01*
G01X21745000Y26370000D02*
X21752000Y26371700D01*
X21759000Y26378700D01*
X21763700Y26391000D01*
X21766000Y26405000D01*
X21763700Y26419000D01*
X21759000Y26431200D01*
X21752000Y26438200D01*
X21745000Y26440000D01*
X21738000Y26438200D01*
X21731000Y26431200D01*
X21726300Y26419000D01*
X21725200Y26405000D01*
X21726300Y26391000D01*
X21731000Y26378700D01*
X21738000Y26371700D01*
X21745000Y26370000D01*
G01X21681300D02*
Y26440000D01*
G01Y26426000D02*
X21675500Y26433000D01*
X21669700Y26438200D01*
X21661500Y26440000D01*
X21655700Y26438200D01*
X21648700Y26433000D01*
G01X21521300Y26370000D02*
Y26440000D01*
G01Y26426000D02*
X21515500Y26433000D01*
X21509700Y26438200D01*
X21501500Y26440000D01*
X21495700Y26438200D01*
X21488700Y26433000D01*
G01X21442500Y26417200D02*
X21405200D01*
X21408700Y26429500D01*
X21414500Y26436500D01*
X21422700Y26440000D01*
X21430800Y26438200D01*
X21437800Y26433000D01*
X21442500Y26420700D01*
X21444800Y26410200D01*
Y26399800D01*
X21442500Y26389200D01*
X21436700Y26378700D01*
X21429700Y26371700D01*
X21421500Y26370000D01*
X21413300Y26373500D01*
X21405200Y26384000D01*
G01X21362500Y26382200D02*
X21356700Y26375200D01*
X21348500Y26370000D01*
X21341500D01*
X21334500Y26373500D01*
X21329800Y26378700D01*
X21327500Y26385700D01*
X21328700Y26396300D01*
X21333300Y26401500D01*
X21354300Y26412000D01*
X21359000Y26424300D01*
X21356700Y26433000D01*
X21352000Y26438200D01*
X21345000Y26440000D01*
X21338000Y26438200D01*
X21331000Y26433000D01*
G01X21244000Y26370000D02*
Y26440000D01*
G01Y26427800D02*
X21248700Y26434700D01*
X21255700Y26438200D01*
X21263800Y26440000D01*
X21272000Y26436500D01*
X21279000Y26429500D01*
X21283700Y26419000D01*
X21286000Y26405000D01*
X21283700Y26391000D01*
X21279000Y26380500D01*
X21272000Y26373500D01*
X21263800Y26370000D01*
X21255700Y26371700D01*
X21248700Y26377000D01*
X21244000Y26384000D01*
G01X21185000Y26370000D02*
Y26475000D01*
G01X21122500Y26417200D02*
X21085200D01*
X21088700Y26429500D01*
X21094500Y26436500D01*
X21102700Y26440000D01*
X21110800Y26438200D01*
X21117800Y26433000D01*
X21122500Y26420700D01*
X21124800Y26410200D01*
Y26399800D01*
X21122500Y26389200D01*
X21116700Y26378700D01*
X21109700Y26371700D01*
X21101500Y26370000D01*
X21093300Y26373500D01*
X21085200Y26384000D01*
G01X24778100Y22360100D02*
X24778700Y22465100D01*
X24755400Y22465200D01*
X24746000Y22460000D01*
X24739000Y22453100D01*
X24733100Y22442600D01*
X24728300Y22430400D01*
X24727100Y22412900D01*
X24728100Y22395400D01*
X24732700Y22383100D01*
X24738500Y22372600D01*
X24745400Y22365500D01*
X24754700Y22360200D01*
X24778100Y22360100D01*
G01X24687100Y22465600D02*
X24659100Y22465800D01*
G01X24673100Y22465700D02*
X24672400Y22360700D01*
G01X24686400Y22360600D02*
X24658400Y22360800D01*
G01X24592400Y22361200D02*
X24601700Y22362900D01*
X24610000Y22369900D01*
X24617000Y22380300D01*
X24621800Y22392500D01*
X24624200Y22406500D01*
X24624300Y22420500D01*
X24622000Y22434500D01*
X24617400Y22446800D01*
X24610500Y22457400D01*
X24602400Y22464400D01*
X24593100Y22466200D01*
X24583700Y22464500D01*
X24575500Y22457600D01*
X24568400Y22447100D01*
X24563700Y22434900D01*
X24561300Y22420900D01*
X24561200Y22406900D01*
X24563400Y22392900D01*
X24568000Y22380600D01*
X24575000Y22370100D01*
X24583100Y22363000D01*
X24592400Y22361200D01*
G01X24512400Y22361700D02*
X24513100Y22466700D01*
X24526900Y22445600D01*
G01X24526400Y22361600D02*
X24498400Y22361800D01*
G01X24454800Y22405800D02*
X24446800Y22418100D01*
X24439800Y22425200D01*
X24430500Y22428700D01*
X24422300Y22425300D01*
X24416400Y22418300D01*
X24411700Y22407900D01*
X24410400Y22395600D01*
X24411500Y22385100D01*
X24416100Y22374600D01*
X24423100Y22365800D01*
X24431200Y22362200D01*
X24440600Y22365700D01*
X24448800Y22376100D01*
X24453600Y22391800D01*
X24454900Y22409300D01*
X24452700Y22432100D01*
X24449300Y22444400D01*
X24443500Y22456700D01*
X24435400Y22465500D01*
X24427200Y22467300D01*
X24419000Y22463800D01*
X24413200Y22455100D01*
G01X24778100Y22110100D02*
X24778700Y22215100D01*
X24755400Y22215200D01*
X24746000Y22210000D01*
X24739000Y22203100D01*
X24733100Y22192600D01*
X24728300Y22180400D01*
X24727100Y22162900D01*
X24728100Y22145400D01*
X24732700Y22133100D01*
X24738500Y22122600D01*
X24745400Y22115500D01*
X24754700Y22110200D01*
X24778100Y22110100D01*
G01X24687100Y22215600D02*
X24659100Y22215800D01*
G01X24673100Y22215700D02*
X24672400Y22110700D01*
G01X24686400Y22110600D02*
X24658400Y22110800D01*
G01X24592400Y22111200D02*
X24601700Y22112900D01*
X24610000Y22119900D01*
X24617000Y22130300D01*
X24621800Y22142500D01*
X24624200Y22156500D01*
X24624300Y22170500D01*
X24622000Y22184500D01*
X24617400Y22196800D01*
X24610500Y22207400D01*
X24602400Y22214400D01*
X24593100Y22216200D01*
X24583700Y22214500D01*
X24575500Y22207600D01*
X24568400Y22197100D01*
X24563700Y22184900D01*
X24561300Y22170900D01*
X24561200Y22156900D01*
X24563400Y22142900D01*
X24568000Y22130600D01*
X24575000Y22120100D01*
X24583100Y22113000D01*
X24592400Y22111200D01*
G01X24512400Y22111700D02*
X24513100Y22216700D01*
X24526900Y22195600D01*
G01X24526400Y22111600D02*
X24498400Y22111800D01*
G01X24434700Y22112200D02*
X24432500Y22135000D01*
X24429200Y22154200D01*
X24424600Y22171800D01*
X24418900Y22191100D01*
X24409700Y22217400D01*
X24456400Y22217100D01*
G01X25733900Y22110000D02*
Y22215000D01*
X25710500D01*
X25701200Y22209700D01*
X25694200Y22202700D01*
X25688400Y22192300D01*
X25683700Y22180000D01*
X25682500Y22162500D01*
X25683700Y22145000D01*
X25688400Y22132700D01*
X25694200Y22122200D01*
X25701200Y22115200D01*
X25710500Y22110000D01*
X25733900D01*
G01X25642200Y22215000D02*
X25614200D01*
G01X25628200D02*
Y22110000D01*
G01X25642200D02*
X25614200D01*
G01X25548200D02*
X25557500Y22111700D01*
X25565700Y22118700D01*
X25572700Y22129200D01*
X25577400Y22141500D01*
X25579700Y22155500D01*
Y22169500D01*
X25577400Y22183500D01*
X25572700Y22195800D01*
X25565700Y22206200D01*
X25557500Y22213300D01*
X25548200Y22215000D01*
X25538900Y22213300D01*
X25530700Y22206200D01*
X25523700Y22195800D01*
X25519000Y22183500D01*
X25516700Y22169500D01*
Y22155500D01*
X25519000Y22141500D01*
X25523700Y22129200D01*
X25530700Y22118700D01*
X25538900Y22111700D01*
X25548200Y22110000D01*
G01X25468200D02*
Y22215000D01*
X25482200Y22194000D01*
G01Y22110000D02*
X25454200D01*
G01X25413900Y22125700D02*
X25406900Y22117000D01*
X25398700Y22111700D01*
X25388200Y22110000D01*
X25377700Y22113500D01*
X25369500Y22120500D01*
X25363700Y22132700D01*
X25362500Y22146700D01*
X25364900Y22160700D01*
X25370700Y22169500D01*
X25378900Y22176500D01*
X25387000Y22178200D01*
X25395200Y22176500D01*
X25405700Y22169500D01*
X25402200Y22215000D01*
X25370700D01*
G01X25733900Y22365000D02*
Y22470000D01*
X25710500D01*
X25701200Y22464700D01*
X25694200Y22457700D01*
X25688400Y22447300D01*
X25683700Y22435000D01*
X25682500Y22417500D01*
X25683700Y22400000D01*
X25688400Y22387700D01*
X25694200Y22377200D01*
X25701200Y22370200D01*
X25710500Y22365000D01*
X25733900D01*
G01X25642200Y22470000D02*
X25614200D01*
G01X25628200D02*
Y22365000D01*
G01X25642200D02*
X25614200D01*
G01X25548200D02*
X25557500Y22366700D01*
X25565700Y22373700D01*
X25572700Y22384200D01*
X25577400Y22396500D01*
X25579700Y22410500D01*
Y22424500D01*
X25577400Y22438500D01*
X25572700Y22450800D01*
X25565700Y22461200D01*
X25557500Y22468300D01*
X25548200Y22470000D01*
X25538900Y22468300D01*
X25530700Y22461200D01*
X25523700Y22450800D01*
X25519000Y22438500D01*
X25516700Y22424500D01*
Y22410500D01*
X25519000Y22396500D01*
X25523700Y22384200D01*
X25530700Y22373700D01*
X25538900Y22366700D01*
X25548200Y22365000D01*
G01X25468200D02*
Y22470000D01*
X25482200Y22449000D01*
G01Y22365000D02*
X25454200D01*
G01X25374200D02*
Y22470000D01*
X25417400Y22394800D01*
X25359000D01*
G01X24743100Y22975200D02*
X24742400Y22870200D01*
G01X24769900Y22975000D02*
X24716200Y22975400D01*
G01X24692700Y22870500D02*
X24693400Y22975500D01*
X24662500Y22888200D01*
X24632700Y22975900D01*
X24632100Y22870900D01*
G01X24607000Y22885100D02*
X24597600Y22876400D01*
X24587100Y22871200D01*
X24577700Y22871300D01*
X24568400Y22876600D01*
X24561500Y22885400D01*
X24558100Y22897600D01*
X24560500Y22909900D01*
X24566400Y22920300D01*
X24576900Y22927300D01*
X24590900Y22930700D01*
X24599200Y22937600D01*
X24602700Y22949800D01*
X24600500Y22962100D01*
X24594700Y22970900D01*
X24586600Y22976200D01*
X24578400Y22976300D01*
X24570200Y22972800D01*
X24563200Y22964100D01*
G01X24743100Y22725200D02*
X24742400Y22620200D01*
G01X24769900Y22725000D02*
X24716200Y22725400D01*
G01X24637300Y22717100D02*
X24644400Y22722300D01*
X24652600Y22725800D01*
X24661900Y22725700D01*
X24672400Y22720400D01*
X24680500Y22711600D01*
X24686200Y22701100D01*
X24690800Y22683500D01*
X24691900Y22667800D01*
X24689400Y22652100D01*
X24685900Y22641600D01*
X24678800Y22631100D01*
X24670600Y22624200D01*
X24662400Y22620700D01*
X24654200Y22620800D01*
X24646100Y22624300D01*
X24639100Y22629600D01*
X24633300Y22636700D01*
G01X24608100Y22621100D02*
X24608700Y22726100D01*
G01X24564400Y22726300D02*
X24608300Y22661300D01*
G01X24556700Y22621400D02*
X24588700Y22691200D01*
G01X24748100Y23181000D02*
X24743400Y23186200D01*
X24739900Y23195000D01*
X24737600Y23207300D01*
X24739900Y23217700D01*
X24744600Y23224700D01*
X24752700Y23230000D01*
X24784200D01*
Y23125000D01*
X24745700D01*
X24737600Y23132000D01*
X24732900Y23142500D01*
X24730600Y23154800D01*
X24732900Y23167000D01*
X24739900Y23177500D01*
X24748100Y23181000D01*
X24784200D01*
G01X24700700Y23125000D02*
Y23230000D01*
X24672700D01*
X24663400Y23224700D01*
X24656400Y23212500D01*
X24654100Y23198500D01*
X24656400Y23184500D01*
X24662200Y23174000D01*
X24672700Y23168700D01*
X24700700D01*
G01X24620700Y23125000D02*
Y23230000D01*
X24591600D01*
X24582200Y23224700D01*
X24576400Y23217700D01*
X24574100Y23203700D01*
X24576400Y23189700D01*
X24583400Y23181000D01*
X24591600Y23175700D01*
X24620700D01*
G01X24591600D02*
X24574100Y23125000D01*
G01X24541900Y23139000D02*
X24532600Y23130200D01*
X24522100Y23125000D01*
X24512700D01*
X24503400Y23130200D01*
X24496400Y23139000D01*
X24492900Y23151300D01*
X24495200Y23163500D01*
X24501100Y23174000D01*
X24511600Y23181000D01*
X24525600Y23184500D01*
X24533700Y23191500D01*
X24537200Y23203700D01*
X24534900Y23216000D01*
X24529100Y23224700D01*
X24520900Y23230000D01*
X24512700D01*
X24504600Y23226500D01*
X24497600Y23217700D01*
G01X24437400Y23230000D02*
Y23125000D01*
G01X24464200Y23230000D02*
X24410600D01*
G01X24783100Y23380000D02*
Y23485000D01*
X24759700D01*
X24750400Y23479700D01*
X24743400Y23472700D01*
X24737600Y23462300D01*
X24732900Y23450000D01*
X24731700Y23432500D01*
X24732900Y23415000D01*
X24737600Y23402700D01*
X24743400Y23392200D01*
X24750400Y23385200D01*
X24759700Y23380000D01*
X24783100D01*
G01X24691400Y23485000D02*
X24663400D01*
G01X24677400D02*
Y23380000D01*
G01X24691400D02*
X24663400D01*
G01X24597400D02*
X24606700Y23381700D01*
X24614900Y23388700D01*
X24621900Y23399200D01*
X24626600Y23411500D01*
X24628900Y23425500D01*
Y23439500D01*
X24626600Y23453500D01*
X24621900Y23465800D01*
X24614900Y23476200D01*
X24606700Y23483300D01*
X24597400Y23485000D01*
X24588100Y23483300D01*
X24579900Y23476200D01*
X24572900Y23465800D01*
X24568200Y23453500D01*
X24565900Y23439500D01*
Y23425500D01*
X24568200Y23411500D01*
X24572900Y23399200D01*
X24579900Y23388700D01*
X24588100Y23381700D01*
X24597400Y23380000D01*
G01X24517400D02*
Y23485000D01*
X24531400Y23464000D01*
G01Y23380000D02*
X24503400D01*
G01X24437400D02*
X24429200Y23381700D01*
X24419900Y23387000D01*
X24414100Y23395700D01*
X24411700Y23408000D01*
X24414100Y23420200D01*
X24421100Y23430700D01*
X24431600Y23436000D01*
X24443200D01*
X24450200Y23439500D01*
X24456100Y23448200D01*
X24458400Y23460500D01*
X24454900Y23472700D01*
X24446700Y23481500D01*
X24437400Y23485000D01*
X24428100Y23481500D01*
X24419900Y23472700D01*
X24416400Y23460500D01*
X24418700Y23448200D01*
X24424600Y23439500D01*
X24431600Y23436000D01*
X24443200D01*
X24453700Y23430700D01*
X24460700Y23420200D01*
X24463100Y23408000D01*
X24460700Y23395700D01*
X24454900Y23387000D01*
X24445600Y23381700D01*
X24437400Y23380000D01*
G01X24783100Y23635000D02*
Y23740000D01*
X24759700D01*
X24750400Y23734700D01*
X24743400Y23727700D01*
X24737600Y23717300D01*
X24732900Y23705000D01*
X24731700Y23687500D01*
X24732900Y23670000D01*
X24737600Y23657700D01*
X24743400Y23647200D01*
X24750400Y23640200D01*
X24759700Y23635000D01*
X24783100D01*
G01X24691400Y23740000D02*
X24663400D01*
G01X24677400D02*
Y23635000D01*
G01X24691400D02*
X24663400D01*
G01X24597400D02*
X24606700Y23636700D01*
X24614900Y23643700D01*
X24621900Y23654200D01*
X24626600Y23666500D01*
X24628900Y23680500D01*
Y23694500D01*
X24626600Y23708500D01*
X24621900Y23720800D01*
X24614900Y23731200D01*
X24606700Y23738300D01*
X24597400Y23740000D01*
X24588100Y23738300D01*
X24579900Y23731200D01*
X24572900Y23720800D01*
X24568200Y23708500D01*
X24565900Y23694500D01*
Y23680500D01*
X24568200Y23666500D01*
X24572900Y23654200D01*
X24579900Y23643700D01*
X24588100Y23636700D01*
X24597400Y23635000D01*
G01X24517400D02*
Y23740000D01*
X24531400Y23719000D01*
G01Y23635000D02*
X24503400D01*
G01X24457200Y23647200D02*
X24449100Y23638500D01*
X24439700Y23635000D01*
X24430400Y23638500D01*
X24422200Y23649000D01*
X24416400Y23664800D01*
X24414100Y23680500D01*
Y23699700D01*
X24416400Y23715500D01*
X24422200Y23729500D01*
X24429200Y23736500D01*
X24437400Y23740000D01*
X24446700Y23736500D01*
X24453700Y23729500D01*
X24458400Y23719000D01*
X24460700Y23705000D01*
X24458400Y23692800D01*
X24452600Y23680500D01*
X24445600Y23673500D01*
X24437400Y23671700D01*
X24428100Y23675200D01*
X24421100Y23684000D01*
X24414100Y23699700D01*
G01X24783100Y23890000D02*
Y23995000D01*
X24759700D01*
X24750400Y23989700D01*
X24743400Y23982700D01*
X24737600Y23972300D01*
X24732900Y23960000D01*
X24731700Y23942500D01*
X24732900Y23925000D01*
X24737600Y23912700D01*
X24743400Y23902200D01*
X24750400Y23895200D01*
X24759700Y23890000D01*
X24783100D01*
G01X24691400Y23995000D02*
X24663400D01*
G01X24677400D02*
Y23890000D01*
G01X24691400D02*
X24663400D01*
G01X24597400D02*
X24606700Y23891700D01*
X24614900Y23898700D01*
X24621900Y23909200D01*
X24626600Y23921500D01*
X24628900Y23935500D01*
Y23949500D01*
X24626600Y23963500D01*
X24621900Y23975800D01*
X24614900Y23986200D01*
X24606700Y23993300D01*
X24597400Y23995000D01*
X24588100Y23993300D01*
X24579900Y23986200D01*
X24572900Y23975800D01*
X24568200Y23963500D01*
X24565900Y23949500D01*
Y23935500D01*
X24568200Y23921500D01*
X24572900Y23909200D01*
X24579900Y23898700D01*
X24588100Y23891700D01*
X24597400Y23890000D01*
G01X24539600Y23977500D02*
X24532600Y23988000D01*
X24524400Y23993300D01*
X24515100Y23995000D01*
X24503400Y23991500D01*
X24495200Y23982700D01*
X24492900Y23972300D01*
X24494100Y23961700D01*
X24498700Y23953000D01*
X24522100Y23935500D01*
X24532600Y23923200D01*
X24539600Y23905700D01*
X24541900Y23890000D01*
X24492900D01*
G01X24437400Y23995000D02*
X24446700Y23991500D01*
X24453700Y23982700D01*
X24458400Y23972300D01*
X24461900Y23958200D01*
X24463100Y23942500D01*
X24461900Y23926700D01*
X24458400Y23912700D01*
X24453700Y23902200D01*
X24446700Y23893500D01*
X24437400Y23890000D01*
X24428100Y23893500D01*
X24421100Y23902200D01*
X24416400Y23912700D01*
X24412900Y23926700D01*
X24411700Y23942500D01*
X24412900Y23958200D01*
X24416400Y23972300D01*
X24421100Y23982700D01*
X24428100Y23991500D01*
X24437400Y23995000D01*
G01X24783100Y24140000D02*
Y24245000D01*
X24759700D01*
X24750400Y24239700D01*
X24743400Y24232700D01*
X24737600Y24222300D01*
X24732900Y24210000D01*
X24731700Y24192500D01*
X24732900Y24175000D01*
X24737600Y24162700D01*
X24743400Y24152200D01*
X24750400Y24145200D01*
X24759700Y24140000D01*
X24783100D01*
G01X24691400Y24245000D02*
X24663400D01*
G01X24677400D02*
Y24140000D01*
G01X24691400D02*
X24663400D01*
G01X24597400D02*
X24606700Y24141700D01*
X24614900Y24148700D01*
X24621900Y24159200D01*
X24626600Y24171500D01*
X24628900Y24185500D01*
Y24199500D01*
X24626600Y24213500D01*
X24621900Y24225800D01*
X24614900Y24236200D01*
X24606700Y24243300D01*
X24597400Y24245000D01*
X24588100Y24243300D01*
X24579900Y24236200D01*
X24572900Y24225800D01*
X24568200Y24213500D01*
X24565900Y24199500D01*
Y24185500D01*
X24568200Y24171500D01*
X24572900Y24159200D01*
X24579900Y24148700D01*
X24588100Y24141700D01*
X24597400Y24140000D01*
G01X24539600Y24183700D02*
X24531400Y24196000D01*
X24524400Y24203000D01*
X24515100Y24206500D01*
X24506900Y24203000D01*
X24501100Y24196000D01*
X24496400Y24185500D01*
X24495200Y24173200D01*
X24496400Y24162700D01*
X24501100Y24152200D01*
X24508100Y24143500D01*
X24516200Y24140000D01*
X24525600Y24143500D01*
X24533700Y24154000D01*
X24538400Y24169800D01*
X24539600Y24187200D01*
X24537200Y24210000D01*
X24533700Y24222300D01*
X24527900Y24234500D01*
X24519700Y24243300D01*
X24511600Y24245000D01*
X24503400Y24241500D01*
X24497600Y24232700D01*
G01X25733900Y22620000D02*
Y22725000D01*
X25710500D01*
X25701200Y22719700D01*
X25694200Y22712700D01*
X25688400Y22702300D01*
X25683700Y22690000D01*
X25682500Y22672500D01*
X25683700Y22655000D01*
X25688400Y22642700D01*
X25694200Y22632200D01*
X25701200Y22625200D01*
X25710500Y22620000D01*
X25733900D01*
G01X25642200Y22725000D02*
X25614200D01*
G01X25628200D02*
Y22620000D01*
G01X25642200D02*
X25614200D01*
G01X25548200D02*
X25557500Y22621700D01*
X25565700Y22628700D01*
X25572700Y22639200D01*
X25577400Y22651500D01*
X25579700Y22665500D01*
Y22679500D01*
X25577400Y22693500D01*
X25572700Y22705800D01*
X25565700Y22716200D01*
X25557500Y22723300D01*
X25548200Y22725000D01*
X25538900Y22723300D01*
X25530700Y22716200D01*
X25523700Y22705800D01*
X25519000Y22693500D01*
X25516700Y22679500D01*
Y22665500D01*
X25519000Y22651500D01*
X25523700Y22639200D01*
X25530700Y22628700D01*
X25538900Y22621700D01*
X25548200Y22620000D01*
G01X25468200D02*
Y22725000D01*
X25482200Y22704000D01*
G01Y22620000D02*
X25454200D01*
G01X25413900Y22641000D02*
X25406900Y22628700D01*
X25397500Y22621700D01*
X25387000Y22620000D01*
X25377700Y22621700D01*
X25368400Y22630500D01*
X25362500Y22641000D01*
X25361400Y22651500D01*
X25363700Y22663700D01*
X25371900Y22672500D01*
X25380000Y22676000D01*
X25390500D01*
G01X25380000D02*
X25373000Y22681200D01*
X25367200Y22690000D01*
X25364900Y22700500D01*
X25367200Y22711000D01*
X25373000Y22719700D01*
X25383500Y22725000D01*
X25394000Y22723300D01*
X25404500Y22716200D01*
G01X25653900Y22875000D02*
Y22980000D01*
X25630500D01*
X25621200Y22974700D01*
X25614200Y22967700D01*
X25608400Y22957300D01*
X25603700Y22945000D01*
X25602500Y22927500D01*
X25603700Y22910000D01*
X25608400Y22897700D01*
X25614200Y22887200D01*
X25621200Y22880200D01*
X25630500Y22875000D01*
X25653900D01*
G01X25562200Y22980000D02*
X25534200D01*
G01X25548200D02*
Y22875000D01*
G01X25562200D02*
X25534200D01*
G01X25468200D02*
X25477500Y22876700D01*
X25485700Y22883700D01*
X25492700Y22894200D01*
X25497400Y22906500D01*
X25499700Y22920500D01*
Y22934500D01*
X25497400Y22948500D01*
X25492700Y22960800D01*
X25485700Y22971200D01*
X25477500Y22978300D01*
X25468200Y22980000D01*
X25458900Y22978300D01*
X25450700Y22971200D01*
X25443700Y22960800D01*
X25439000Y22948500D01*
X25436700Y22934500D01*
Y22920500D01*
X25439000Y22906500D01*
X25443700Y22894200D01*
X25450700Y22883700D01*
X25458900Y22876700D01*
X25468200Y22875000D01*
G01X25388200D02*
X25380000Y22876700D01*
X25370700Y22882000D01*
X25364900Y22890700D01*
X25362500Y22903000D01*
X25364900Y22915200D01*
X25371900Y22925700D01*
X25382400Y22931000D01*
X25394000D01*
X25401000Y22934500D01*
X25406900Y22943200D01*
X25409200Y22955500D01*
X25405700Y22967700D01*
X25397500Y22976500D01*
X25388200Y22980000D01*
X25378900Y22976500D01*
X25370700Y22967700D01*
X25367200Y22955500D01*
X25369500Y22943200D01*
X25375400Y22934500D01*
X25382400Y22931000D01*
X25394000D01*
X25404500Y22925700D01*
X25411500Y22915200D01*
X25413900Y22903000D01*
X25411500Y22890700D01*
X25405700Y22882000D01*
X25396400Y22876700D01*
X25388200Y22875000D01*
G01X25511800Y23640000D02*
Y23745000D01*
X25458200Y23640000D01*
Y23745000D01*
G01X25379300Y23736200D02*
X25386300Y23741500D01*
X25394500Y23745000D01*
X25403800D01*
X25414300Y23739700D01*
X25422500Y23731000D01*
X25428300Y23720500D01*
X25433000Y23703000D01*
X25434200Y23687200D01*
X25431800Y23671500D01*
X25428300Y23661000D01*
X25421300Y23650500D01*
X25413200Y23643500D01*
X25405000Y23640000D01*
X25396800D01*
X25388700Y23643500D01*
X25381700Y23648700D01*
X25375800Y23655700D01*
G01X25653900Y23125000D02*
Y23230000D01*
X25630500D01*
X25621200Y23224700D01*
X25614200Y23217700D01*
X25608400Y23207300D01*
X25603700Y23195000D01*
X25602500Y23177500D01*
X25603700Y23160000D01*
X25608400Y23147700D01*
X25614200Y23137200D01*
X25621200Y23130200D01*
X25630500Y23125000D01*
X25653900D01*
G01X25562200Y23230000D02*
X25534200D01*
G01X25548200D02*
Y23125000D01*
G01X25562200D02*
X25534200D01*
G01X25468200D02*
X25477500Y23126700D01*
X25485700Y23133700D01*
X25492700Y23144200D01*
X25497400Y23156500D01*
X25499700Y23170500D01*
Y23184500D01*
X25497400Y23198500D01*
X25492700Y23210800D01*
X25485700Y23221200D01*
X25477500Y23228300D01*
X25468200Y23230000D01*
X25458900Y23228300D01*
X25450700Y23221200D01*
X25443700Y23210800D01*
X25439000Y23198500D01*
X25436700Y23184500D01*
Y23170500D01*
X25439000Y23156500D01*
X25443700Y23144200D01*
X25450700Y23133700D01*
X25458900Y23126700D01*
X25468200Y23125000D01*
G01X25408000Y23137200D02*
X25399900Y23128500D01*
X25390500Y23125000D01*
X25381200Y23128500D01*
X25373000Y23139000D01*
X25367200Y23154800D01*
X25364900Y23170500D01*
Y23189700D01*
X25367200Y23205500D01*
X25373000Y23219500D01*
X25380000Y23226500D01*
X25388200Y23230000D01*
X25397500Y23226500D01*
X25404500Y23219500D01*
X25409200Y23209000D01*
X25411500Y23195000D01*
X25409200Y23182800D01*
X25403400Y23170500D01*
X25396400Y23163500D01*
X25388200Y23161700D01*
X25378900Y23165200D01*
X25371900Y23174000D01*
X25364900Y23189700D01*
G01X25731500Y23485000D02*
Y23380000D01*
X25684900D01*
G01X25651500D02*
Y23485000D01*
X25623500D01*
X25614200Y23479700D01*
X25607200Y23467500D01*
X25604900Y23453500D01*
X25607200Y23439500D01*
X25613000Y23429000D01*
X25623500Y23423700D01*
X25651500D01*
G01X25571500Y23380000D02*
Y23485000D01*
X25542400D01*
X25533000Y23479700D01*
X25527200Y23472700D01*
X25524900Y23458700D01*
X25527200Y23444700D01*
X25534200Y23436000D01*
X25542400Y23430700D01*
X25571500D01*
G01X25542400D02*
X25524900Y23380000D01*
G01X25492700Y23394000D02*
X25483400Y23385200D01*
X25472900Y23380000D01*
X25463500D01*
X25454200Y23385200D01*
X25447200Y23394000D01*
X25443700Y23406300D01*
X25446000Y23418500D01*
X25451900Y23429000D01*
X25462400Y23436000D01*
X25476400Y23439500D01*
X25484500Y23446500D01*
X25488000Y23458700D01*
X25485700Y23471000D01*
X25479900Y23479700D01*
X25471700Y23485000D01*
X25463500D01*
X25455400Y23481500D01*
X25448400Y23472700D01*
G01X25388200Y23485000D02*
Y23380000D01*
G01X25415000Y23485000D02*
X25361400D01*
G01X25733900Y23890000D02*
Y23995000D01*
X25710500D01*
X25701200Y23989700D01*
X25694200Y23982700D01*
X25688400Y23972300D01*
X25683700Y23960000D01*
X25682500Y23942500D01*
X25683700Y23925000D01*
X25688400Y23912700D01*
X25694200Y23902200D01*
X25701200Y23895200D01*
X25710500Y23890000D01*
X25733900D01*
G01X25642200Y23995000D02*
X25614200D01*
G01X25628200D02*
Y23890000D01*
G01X25642200D02*
X25614200D01*
G01X25548200D02*
X25557500Y23891700D01*
X25565700Y23898700D01*
X25572700Y23909200D01*
X25577400Y23921500D01*
X25579700Y23935500D01*
Y23949500D01*
X25577400Y23963500D01*
X25572700Y23975800D01*
X25565700Y23986200D01*
X25557500Y23993300D01*
X25548200Y23995000D01*
X25538900Y23993300D01*
X25530700Y23986200D01*
X25523700Y23975800D01*
X25519000Y23963500D01*
X25516700Y23949500D01*
Y23935500D01*
X25519000Y23921500D01*
X25523700Y23909200D01*
X25530700Y23898700D01*
X25538900Y23891700D01*
X25548200Y23890000D01*
G01X25468200D02*
Y23995000D01*
X25482200Y23974000D01*
G01Y23890000D02*
X25454200D01*
G01X25388200D02*
Y23995000D01*
X25402200Y23974000D01*
G01Y23890000D02*
X25374200D01*
G01X25733900Y24145000D02*
Y24250000D01*
X25710500D01*
X25701200Y24244700D01*
X25694200Y24237700D01*
X25688400Y24227300D01*
X25683700Y24215000D01*
X25682500Y24197500D01*
X25683700Y24180000D01*
X25688400Y24167700D01*
X25694200Y24157200D01*
X25701200Y24150200D01*
X25710500Y24145000D01*
X25733900D01*
G01X25642200Y24250000D02*
X25614200D01*
G01X25628200D02*
Y24145000D01*
G01X25642200D02*
X25614200D01*
G01X25548200D02*
X25557500Y24146700D01*
X25565700Y24153700D01*
X25572700Y24164200D01*
X25577400Y24176500D01*
X25579700Y24190500D01*
Y24204500D01*
X25577400Y24218500D01*
X25572700Y24230800D01*
X25565700Y24241200D01*
X25557500Y24248300D01*
X25548200Y24250000D01*
X25538900Y24248300D01*
X25530700Y24241200D01*
X25523700Y24230800D01*
X25519000Y24218500D01*
X25516700Y24204500D01*
Y24190500D01*
X25519000Y24176500D01*
X25523700Y24164200D01*
X25530700Y24153700D01*
X25538900Y24146700D01*
X25548200Y24145000D01*
G01X25468200D02*
Y24250000D01*
X25482200Y24229000D01*
G01Y24145000D02*
X25454200D01*
G01X25410400Y24232500D02*
X25403400Y24243000D01*
X25395200Y24248300D01*
X25385900Y24250000D01*
X25374200Y24246500D01*
X25366000Y24237700D01*
X25363700Y24227300D01*
X25364900Y24216700D01*
X25369500Y24208000D01*
X25392900Y24190500D01*
X25403400Y24178200D01*
X25410400Y24160700D01*
X25412700Y24145000D01*
X25363700D01*
G01X24778100Y24400000D02*
Y24505000D01*
X24754700D01*
X24745400Y24499700D01*
X24738400Y24492700D01*
X24732600Y24482300D01*
X24727900Y24470000D01*
X24726700Y24452500D01*
X24727900Y24435000D01*
X24732600Y24422700D01*
X24738400Y24412200D01*
X24745400Y24405200D01*
X24754700Y24400000D01*
X24778100D01*
G01X24686400Y24505000D02*
X24658400D01*
G01X24672400D02*
Y24400000D01*
G01X24686400D02*
X24658400D01*
G01X24592400D02*
X24601700Y24401700D01*
X24609900Y24408700D01*
X24616900Y24419200D01*
X24621600Y24431500D01*
X24623900Y24445500D01*
Y24459500D01*
X24621600Y24473500D01*
X24616900Y24485800D01*
X24609900Y24496200D01*
X24601700Y24503300D01*
X24592400Y24505000D01*
X24583100Y24503300D01*
X24574900Y24496200D01*
X24567900Y24485800D01*
X24563200Y24473500D01*
X24560900Y24459500D01*
Y24445500D01*
X24563200Y24431500D01*
X24567900Y24419200D01*
X24574900Y24408700D01*
X24583100Y24401700D01*
X24592400Y24400000D01*
G01X24514700D02*
X24512400Y24422700D01*
X24508900Y24442000D01*
X24504200Y24459500D01*
X24498400Y24478700D01*
X24489100Y24505000D01*
X24535700D01*
M02*
