G04 ================== begin FILE IDENTIFICATION RECORD ==================*
G04 Layout Name:  LAUNCHXL-CC1310.brd*
G04 Film Name:    LAUNCHXL-CC1310_Bottom*
G04 File Format:  Gerber RS274X*
G04 File Origin:  Cadence Allegro 16.6-S019*
G04 Origin Date:  Thu Jan 21 09:47:58 2016*
G04 *
G04 Layer:  BOARD GEOMETRY/OUTLINE*
G04 Layer:  VIA CLASS/BOTTOM*
G04 Layer:  PIN/BOTTOM*
G04 Layer:  ETCH/BOTTOM*
G04 *
G04 Offset:    (0.000 0.000)*
G04 Mirror:    No*
G04 Mode:      Positive*
G04 Rotation:  0*
G04 FullContactRelief:  No*
G04 UndefLineWidth:     0.099*
G04 ================== end FILE IDENTIFICATION RECORD ====================*
%FSLAX25Y25*MOMM*%
%IR0*IPPOS*OFA0.00000B0.00000*MIA0B0*SFA1.00000B1.00000*%
%ADD10C,1.27*%
%ADD16C,3.8*%
%ADD12C,1.65*%
%ADD11C,.099*%
%ADD14C,1.699*%
%ADD17O,1.4X2.1*%
%ADD13C,.4*%
%ADD18C,.5*%
%ADD15C,.8*%
%ADD19C,.15*%
%ADD22C,2.004*%
%ADD24C,1.204*%
%ADD23C,1.306*%
%ADD21C,1.954*%
%ADD20C,.704*%
G75*
%LPD*%
G75*
G36*
G01X25799900Y28870400D02*
X25800000Y26570000D01*
Y25710000D01*
X25799900Y25709200D01*
G02X25731700Y25470000I-455954J678D01*
G01X25731600D01*
G02X25700800Y25426200I-387693J239895D01*
G03X25613200Y25269500I435251J-346154D01*
G01X25612800Y25268400D01*
X25611700Y25266700D01*
G02X25603300Y25262100I-8417J5400D01*
G01X25601800D01*
X25600800Y25262300D01*
G03X25575000Y25144600I-11225J-59217D01*
G02X25582500Y25133900I-2449J-9695D01*
G03X25581300Y25041200I553526J-53523D01*
G02X25574000Y25030900I-9978J-665D01*
G03X25597000Y24913100I15937J-58034D01*
G02X25607700Y24906300I1202J-9928D01*
G03X25700800Y24733800I528292J173751D01*
G02X25799900Y24450100I-356829J-283803D01*
G01Y22600000D01*
G02X25789900Y22590000I-10000J0D01*
G01X25314900D01*
G02X25306200Y22595000I-40J10000D01*
G01X25298700Y22607900D01*
G02X25297400Y22612900I8712J4934D01*
G01Y22617200D01*
G02X25298600Y22622000I10000J50D01*
G03X25126000I-86300J46000D01*
G02X25127200Y22617200I-8800J-4750D01*
G01Y22612900D01*
G02X25125900Y22607900I-10012J-66D01*
G01X25118400Y22595000D01*
G02X25109700Y22590000I-8660J5000D01*
G01X25060900D01*
G02X25052200Y22595000I-40J10000D01*
G01X25044700Y22607900D01*
G02X25043400Y22612900I8712J4934D01*
G01Y22617200D01*
G02X25044600Y22622000I10000J50D01*
G03X24872000I-86300J46000D01*
G02X24873200Y22617200I-8800J-4750D01*
G01Y22612900D01*
G02X24871900Y22607900I-10012J-66D01*
G01X24864400Y22595000D01*
G02X24855700Y22590000I-8660J5000D01*
G01X21291500D01*
G02X21283200Y22594400I-15J10000D01*
G01X21274500Y22607200D01*
G02X21272800Y22612800I8300J5578D01*
G01Y22616300D01*
X21273000Y22618000D01*
X21273300Y22619000D01*
X21273700Y22620400D01*
G03X21206300Y22620300I-33714J9618D01*
G01X21206700Y22618900D01*
X21207200Y22617300D01*
Y22612800D01*
G02X21205500Y22607200I-10000J-22D01*
G01X21196800Y22594400D01*
G02X21188500Y22590000I-8285J5600D01*
G01X20994900D01*
G02X20986200Y22595000I-40J10000D01*
G01X20978700Y22607900D01*
G02X20977400Y22612900I8712J4934D01*
G01Y22617300D01*
G02X20978600Y22622000I10000J-50D01*
G03X20956100Y22742100I-86262J45997D01*
G02X20953200Y22753200I6475J7621D01*
G01X20959800Y22770800D01*
G02X20969200Y22777300I9368J-3500D01*
G01X20985300D01*
G03X20992300Y22780200I-42J9999D01*
G01X21119800Y22907700D01*
G03X21122700Y22914700I-7099J7042D01*
G01Y24416500D01*
G02X21125600Y24423500I10000J-42D01*
G01X21326500Y24624400D01*
G02X21333500Y24627300I7042J-7100D01*
G01X22557600D01*
G03X22564600Y24630200I-42J9999D01*
G01X22634000Y24699600D01*
G02X22640800Y24702500I7045J-7097D01*
G03X22673900Y24747300I-782J35205D01*
G01X22673400Y24749000D01*
G02X22674800Y24757400I9630J2712D01*
G01X22683900Y24770500D01*
G02X22691600Y24774800I8227J-5688D01*
G01X22691700D01*
G03X22725100Y24810300I-1778J35135D01*
G01Y24814100D01*
G02X22727400Y24820500I10000J20D01*
G01X22734400Y24828900D01*
G02X22741300Y24832500I7711J-6367D01*
G01X22741400D01*
G03X22744600Y24832900I-3038J37304D01*
G02X22751400Y24831600I1638J-9865D01*
G01X22753900Y24830100D01*
G02X22757900Y24825600I-5127J-8585D01*
G03X22789600Y24875100I32104J14341D01*
G01X22786500D01*
G02X22780000Y24877500I-1J10000D01*
G01X22778500Y24878800D01*
G02X22777000Y24880400I6501J7598D01*
G01X22775200Y24882800D01*
X22774700Y24884100D01*
G03X22702900Y24864700I-34692J-14170D01*
G02X22700500Y24856700I-9903J-1389D01*
G01X22693900Y24849200D01*
G02X22690100Y24846500I-7533J6577D01*
G01X22686900Y24845200D01*
X22685600Y24845000D01*
G03X22656100Y24800500I4408J-34950D01*
G01X22656600Y24798800D01*
G02X22655200Y24790300I-9605J-2783D01*
G01X22646100Y24777200D01*
G02X22638100Y24772900I-8218J5698D01*
G03X22632300Y24772300I720J-35289D01*
G02X22626900Y24772800I-1815J9808D01*
G01X22625000Y24773400D01*
G02X22622500Y24774900I3846J9243D01*
G01X22618600Y24777900D01*
X22617800Y24778900D01*
G03X22555300Y24757000I-27180J-22567D01*
G02X22552400Y24750100I-9999J143D01*
G01X22507900Y24705600D01*
G02X22500900Y24702700I-7042J7100D01*
G01X21479900D01*
G02X21471800Y24706800I-26J10000D01*
G01X21462200Y24720000D01*
G02X21460800Y24729000I8097J5868D01*
G03X21393800I-33500J11000D01*
G02X21392400Y24720000I-9497J-3132D01*
G01X21382800Y24706800D01*
G02X21374700Y24702700I-8074J5900D01*
G01X21302200D01*
G03X21295200Y24699800I42J-9999D01*
G01X21050200Y24454800D01*
G03X21047300Y24447800I7099J-7042D01*
G01Y23633500D01*
G02X21044400Y23626500I-10000J42D01*
G01X21013500Y23595600D01*
G02X21006500Y23592700I-7042J7100D01*
G01X20986100D01*
G02X20977100Y23598300I-20J10000D01*
G01X20969100Y23614400D01*
G02X20970100Y23624900I8958J4444D01*
G03X20814500I-77800J59100D01*
G02X20815500Y23614400I-7958J-6056D01*
G01X20807500Y23598300D01*
G02X20798500Y23592700I-8980J4400D01*
G01X20773000D01*
G03X20766000Y23589800I42J-9999D01*
G01X20695900Y23519700D01*
G02X20688900Y23516800I-7042J7100D01*
G01X20684300D01*
X20682000Y23517300D01*
G03X20725000Y23474800I-43760J-87278D01*
G02X20726800Y23486400I8901J4559D01*
G01X20784800Y23544400D01*
G02X20791800Y23547300I7042J-7100D01*
G01X20825700D01*
G02X20835300Y23540300I53J-10010D01*
G01X20841000Y23521800D01*
G02X20837100Y23510600I-9554J-2952D01*
G03X20947500I55200J-80600D01*
G02X20943600Y23521800I5654J8248D01*
G01X20949300Y23540300D01*
G02X20958900Y23547300I9547J-3010D01*
G01X21025300D01*
G03X21032300Y23550200I-42J9999D01*
G01X21060200Y23578100D01*
G02X21071100Y23580300I7097J-7059D01*
G02X21077300Y23571000I-3810J-9257D01*
G01Y22933500D01*
G02X21074400Y22926500I-10000J42D01*
G01X20973500Y22825600D01*
G02X20966500Y22822700I-7042J7100D01*
G01X20952600D01*
G02X20942600Y22832700I0J10000D01*
G01Y22832800D01*
G02X20947000Y22841100I10000J15D01*
G03X20819900Y22856400I-54731J80913D01*
G01X20820000Y22856300D01*
G02X20821700Y22845600I-7454J-6669D01*
G01X20814300Y22828700D01*
G02X20805100Y22822700I-9165J4000D01*
G01X20765000D01*
G03X20758000Y22819800I42J-9999D01*
G01X20695900Y22757700D01*
G02X20688900Y22754800I-7042J7100D01*
G01X20684300D01*
X20682000Y22755300D01*
G03X20552000Y22622000I-43769J-87355D01*
G02X20553200Y22617200I-8800J-4750D01*
G01Y22612500D01*
G02X20551800Y22607400I-10000J3D01*
G01X20544400Y22594900D01*
G02X20535800Y22590000I-8602J5100D01*
G01X20060100D01*
G02X20050100Y22600000I0J10000D01*
G01Y24450100D01*
G02X20149200Y24733800I455929J-103D01*
G03X20240500Y24900800I-435140J346351D01*
G02X20251400Y24907500I9475J-3198D01*
G03X20275600Y25025200I8434J59604D01*
G02X20268300Y25035600I2671J9637D01*
G03X20268000Y25128400I-554322J44608D01*
G02X20275400Y25138900I9965J835D01*
G03X20250200Y25256500I-15400J58200D01*
G02X20239100Y25263100I-1647J9863D01*
G03X20149200Y25426200I-525114J-183114D01*
G02X20118400Y25470000I356893J283695D01*
G01X20114300Y25476700D01*
X20114200Y25476800D01*
G02X20050100Y25709900I391848J233117D01*
G01Y25729000D01*
X20050000Y25730000D01*
X20050100Y29134300D01*
G02X20057100Y29143900I10010J53D01*
G01X20063400Y29145800D01*
G02X20066400Y29146300I3123J-9487D01*
G01X20081300D01*
G02X20088300Y29143400I-42J-10000D01*
G01X20089200Y29142500D01*
X20089600Y29142100D01*
G03X20454900Y29272100I160221J128025D01*
G01Y29281500D01*
G02X20460100Y29290300I10000J27D01*
G01X20472600Y29297100D01*
G02X20477300Y29298300I4750J-8800D01*
G01X20483600D01*
G02X20489200Y29296500I-119J-9980D01*
G01X20489300D01*
G03X20626300Y29293300I70952J103391D01*
G02X20631600Y29294800I5268J-8500D01*
G01X20637600D01*
G02X20642400Y29293600I47J-10013D01*
G01X20654600Y29286800D01*
G02X20659800Y29278100I-4784J-8763D01*
G01Y29230000D01*
G03X20663800Y29204300I85182J97D01*
G01X20664100Y29203600D01*
X20664500Y29201800D01*
G02X20664800Y29199500I-9690J-2433D01*
G01Y28884800D01*
G03X20674800Y28874800I10000J0D01*
G01X20972300D01*
G02X20979300Y28871900I-42J-10000D01*
G01X20980800Y28870400D01*
X20981300Y28869700D01*
G03X21030700Y28861500I28750J20297D01*
G02X21036600Y28863400I5864J-8100D01*
G01X21048400D01*
G02X21054300Y28861500I36J-10000D01*
G03X21095700I20700J28500D01*
G02X21101600Y28863400I5864J-8100D01*
G01X21113400D01*
G02X21119300Y28861500I36J-10000D01*
G03X21160700I20700J28500D01*
G02X21166600Y28863400I5864J-8100D01*
G01X21178400D01*
G02X21184300Y28861500I36J-10000D01*
G03X21233700Y28869700I20650J28497D01*
G01X21234200Y28870400D01*
X21235700Y28871900D01*
G02X21242700Y28874800I7042J-7100D01*
G01X21605200D01*
G03X21615200Y28884800I0J10000D01*
G01Y29199200D01*
G02X21615500Y29201600I10000J-31D01*
G01X21615800Y29202800D01*
X21616000Y29203300D01*
G03X21620300Y29229900I-80998J26741D01*
G01Y29300000D01*
G03X21617200Y29322500I-85200J-275D01*
G01X21616200Y29326100D01*
Y29326300D01*
G03X21616000Y29326900I-9578J-2859D01*
G01X21615200Y29329000D01*
Y29345800D01*
G02X21618100Y29352800I10000J-42D01*
G01X21627200Y29361900D01*
G03X21630100Y29368900I-7100J7042D01*
G01Y29469900D01*
G02X21640100Y29479900I10000J0D01*
G01X25458600D01*
G02X25468100Y29473100I26J-10000D01*
G01X25469000Y29470400D01*
G02X25469500Y29467300I-9500J-3123D01*
G01Y29448300D01*
G02X25465100Y29440000I-10000J-15D01*
G03X25760800Y29172800I114960J-169998D01*
G01X25760900Y29173000D01*
X25762000Y29174900D01*
G02X25763600Y29177000I8681J-4955D01*
G01X25764100Y29177500D01*
G02X25773500Y29180200I7108J-7034D01*
G01X25792200Y29175700D01*
G02X25799900Y29166000I-2300J-9732D01*
G01Y28870400D01*
G37*
G36*
G01X21239300Y28897800D02*
G03X21184300Y28918500I-34327J-7790D01*
G02X21178500Y28916600I-5858J8078D01*
G01X21166500D01*
G02X21160700Y28918500I58J9978D01*
G03X21119300I-20700J-28500D01*
G02X21113500Y28916600I-5858J8078D01*
G01X21101500D01*
G02X21095700Y28918500I58J9978D01*
G03X21054300I-20700J-28500D01*
G02X21048500Y28916600I-5858J8078D01*
G01X21036500D01*
G02X21030700Y28918500I58J9978D01*
G03X20975700Y28897800I-20673J-28490D01*
G02X20967300Y28890100I-9758J2213D01*
G02X20965900Y28890000I-1411J9898D01*
G01X20690000D01*
G02X20680000Y28900000I0J10000D01*
G01Y29349900D01*
G02X20690000Y29359900I10000J0D01*
G01X20799900D01*
G02X20809900Y29349900I0J-10000D01*
G01Y29159900D01*
G03X20819900Y29149900I10000J0D01*
G01X20990100D01*
G03X21000100Y29159900I0J10000D01*
G01Y29349900D01*
G02X21010100Y29359900I10000J0D01*
G01X21269900D01*
G02X21279900Y29349900I0J-10000D01*
G01Y29159900D01*
G03X21289900Y29149900I10000J0D01*
G01X21460100D01*
G03X21470100Y29159900I0J10000D01*
G01Y29349900D01*
G02X21480100Y29359900I10000J0D01*
G01X21590000D01*
G02X21600000Y29349900I0J-10000D01*
G01Y28900000D01*
G02X21590000Y28890000I-10000J0D01*
G01X21249100D01*
G02X21247700Y28890100I11J9998D01*
G02X21239300Y28897800I1358J9913D01*
G37*
G36*
G01X20050100Y29371400D02*
Y29383800D01*
G02X20146200Y29479900I96100J0D01*
G01X20170100D01*
G02X20180100Y29469900I0J-10000D01*
G01Y29469800D01*
G02X20173800Y29460500I-10007J-5D01*
G03X20069000Y29366700I76161J-190538D01*
G02X20060200Y29361400I-8821J4690D01*
G01X20060100D01*
G02X20050100Y29371400I-6J9994D01*
G37*
G36*
G01X20416800Y29389600D02*
G03X20360600Y29442900I-166791J-119587D01*
G01X20360500D01*
G02X20356300Y29454100I5409J8416D01*
G01X20361700Y29472700D01*
G02X20371300Y29479900I9611J-2814D01*
G01X20427400D01*
G02X20435800Y29475300I-9J-9987D01*
G01X20445000Y29461100D01*
G02X20445800Y29451600I-8360J-5488D01*
G01X20445700D01*
G03X20434900Y29400000I113736J-50735D01*
G03X20435000Y29395800I125389J884D01*
G02X20416800Y29389600I-10038J-347D01*
G37*
G36*
G01X20510600Y29278300D02*
Y29039400D01*
G02X20500600Y29029400I-10000J0D01*
G01X20060700D01*
G02X20050700Y29039400I0J10000D01*
G01Y29383200D01*
G02X20146800Y29479300I96100J0D01*
G01X20427200D01*
G02X20435500Y29474800I-49J-9996D01*
G01X20444800Y29460600D01*
G02X20445500Y29451100I-8420J-5396D01*
G03X20434900Y29400000I113929J-50282D01*
G03X20505000Y29287300I125420J-139D01*
G02X20510600Y29278300I-4394J-8976D01*
G37*
G36*
G01X23090000Y22470000D02*
X22890000D01*
Y21770000D01*
X21090000D01*
Y21070000D01*
X24690000D01*
Y20770000D01*
X21090000D01*
Y20070000D01*
X24890000D01*
Y20270000D01*
X21290000D01*
Y20570000D01*
X24890000D01*
Y21270000D01*
X21290000D01*
Y21570000D01*
X23090000D01*
Y22470000D01*
G37*
G36*
G01X25703800Y29479900D02*
G02X25799900Y29383800I0J-96100D01*
G01Y29317800D01*
G02X25789900Y29307800I-10015J15D01*
G01X25789800D01*
G02X25780100Y29315600I59J10005D01*
G01Y29315700D01*
G03X25690600Y29442900I-200082J-45694D01*
G01X25690500D01*
G02X25686300Y29454100I5409J8416D01*
G01X25691700Y29472700D01*
G02X25701300Y29479900I9611J-2814D01*
G01X25703800D01*
G37*
G36*
G01X25786800Y29021400D02*
X25336900D01*
G02X25326900Y29031400I0J10000D01*
G01Y29471300D01*
G02X25336900Y29481300I10000J0D01*
G01X25700800D01*
G02X25796800Y29385200I-100J-96100D01*
G01Y29031400D01*
G02X25786800Y29021400I-10000J0D01*
G37*
%LPC*%
G75*
G36*
G01X22194300Y26135500D02*
G02X22145700I-24300J-25500D01*
G03Y26164500I-13880J14500D01*
G02X22194300I24300J25500D01*
G03Y26135500I13880J-14500D01*
G37*
G36*
G01X20282000Y28195000D02*
X20265000D01*
G03X20256600Y28190400I17J-10000D01*
G02X20168800Y28256700I-46610J29561D01*
G03X20169900Y28258200I-7479J6638D01*
G02X20179300Y28268500I30192J-18114D01*
G01X20179400D01*
G03X20183500Y28276700I-5899J8074D01*
G01X20183300Y28293200D01*
G03X20178900Y28301400I-9999J-85D01*
G02X20239600Y28300400I31109J45599D01*
G03X20235000Y28292000I5400J-8417D01*
G01Y28275000D01*
G03X20239600Y28266600I10000J17D01*
G02X20256600Y28249600I-29600J-46600D01*
G03X20265000Y28245000I8417J5400D01*
G01X20282000D01*
G03X20290400Y28249600I-17J10000D01*
G02Y28190400I46600J-29600D01*
G03X20282000Y28195000I-8417J-5400D01*
G37*
G36*
G01X23703900Y25062200D02*
X23335000D01*
G03X23326100Y25056800I-21J-10000D01*
G01X23319800Y25044500D01*
G03X23318700Y25039900I8899J-4560D01*
G01Y25033400D01*
G03X23320100Y25028200I10011J-93D01*
G02X23272400Y24979600I-30136J-18131D01*
G03X23267400Y24980900I-4932J-8704D01*
G01X23257800D01*
G03X23255400Y24980600I31J-9996D01*
G01X23247700Y24978700D01*
G03X23241200Y24973600I2372J-9715D01*
G02X23229800Y25019100I-31181J16366D01*
G03X23237800Y25017700I5575J8302D01*
G01X23252300Y25021300D01*
G03X23255000Y25022400I-2383J9714D01*
G01X23255200Y25022500D01*
G03X23258900Y25026400I-5154J8595D01*
G02X23261300Y25030400I31308J-16065D01*
G01Y25030500D01*
G03X23262100Y25040800I-8114J5811D01*
G01X23253900Y25056800D01*
G03X23245000Y25062200I-8879J-4600D01*
G01X22292100D01*
G02X22285100Y25065100I44J10005D01*
G01X22155100Y25195100D01*
G02X22204900Y25244900I24900J24900D01*
G01X22314300Y25135500D01*
G03X22321300Y25132600I7040J7095D01*
G01X23401900D01*
G03X23410600Y25137600I40J10000D01*
G01X23419300Y25152700D01*
G03X23419400Y25162700I-8629J5087D01*
G02X23418800Y25196300I30608J17352D01*
G03X23419800Y25202500I-8873J4612D01*
G01X23418800Y25208800D01*
G03X23415800Y25214500I-9878J-1559D01*
G02X23406100Y25249400I24206J25526D01*
G03X23404400Y25258100I-9648J2631D01*
G01X23394600Y25270900D01*
G03X23386700Y25274800I-7921J-6094D01*
G01X23259400D01*
G03X23250900Y25270100I-10J-10018D01*
G01X23241900Y25255600D01*
G03X23241500Y25245800I8528J-5256D01*
G02X23181900Y25208800I-31444J-15852D01*
G01X23181500Y25209400D01*
X23180000Y25210900D01*
G03X23173000Y25213800I-7042J-7100D01*
G01X23157000D01*
G03X23150000Y25210900I42J-10000D01*
G01X23148500Y25209400D01*
X23148100Y25208800D01*
G02X23093400Y25253100I-28145J21169D01*
G03X23095300Y25263200I-7494J6639D01*
G01X23093400Y25268300D01*
G03X23084000Y25274800I-9376J-3512D01*
G01X23073900D01*
G03X23066100Y25271000I46J-10000D01*
G01X23056200Y25258500D01*
G03X23054300Y25250100I7867J-6194D01*
G02X22985700I-34300J-7600D01*
G03X22983800Y25258500I-9767J2206D01*
G01X22973900Y25271000D01*
G03X22966100Y25274800I-7846J-6200D01*
G01X22575500D01*
G02X22568500Y25277700I42J9999D01*
G01X22473900Y25372300D01*
G03X22466900Y25375200I-7042J-7100D01*
G01X22463500D01*
G03X22459100Y25374200I-41J-10000D01*
G02X22504100Y25419200I-42800J87800D01*
G03X22503100Y25414800I9000J-4359D01*
G01Y25411400D01*
G03X22506000Y25404400I10000J42D01*
G01X22587300Y25323100D01*
G03X22594300Y25320200I7042J7100D01*
G01X22814800D01*
G03X22821800Y25323100I-42J10000D01*
G01X22831800Y25333000D01*
G03X22834800Y25340100I-7000J7142D01*
G02X22848500Y25367900I35208J-75D01*
G03X22852400Y25375000I-6064J7952D01*
G01X22853700Y25389500D01*
G03X22851200Y25397100I-9956J936D01*
G02X23010000Y25415200I73035J64893D01*
G03X23008800Y25410500I8800J-4750D01*
G01Y25404500D01*
G03X23009500Y25400800I10000J-24D01*
G01X23013900Y25389600D01*
G03X23020300Y25383700I9302J3670D01*
G02X23044700Y25343700I-10269J-33706D01*
G03X23046900Y25335500I9845J-1754D01*
G01X23056700Y25323800D01*
G03X23064400Y25320200I7684J6400D01*
G01X23927800D01*
G02X23934800Y25317300I-42J-9999D01*
G01X24099800Y25152300D01*
G02X24102700Y25145300I-7099J-7042D01*
G01Y24781200D01*
G03X24105500Y24774300I10000J40D01*
G02X24054500I-25500J-24300D01*
G03X24057300Y24781200I-7200J6940D01*
G01Y25126500D01*
G03X24054400Y25133500I-10000J-42D01*
G01X23916000Y25271900D01*
G03X23909000Y25274800I-7042J-7100D01*
G01X23493300D01*
G03X23485400Y25270900I21J-9994D01*
G01X23476000Y25258600D01*
G03X23473900Y25252500I7895J-6130D01*
G01Y25249400D01*
X23474200Y25248200D01*
G02X23471200Y25223700I-34210J-8245D01*
G03X23470200Y25217500I8873J-4612D01*
G01X23471200Y25211200D01*
G03X23474200Y25205500I9878J1559D01*
G02X23480600Y25162700I-24220J-25500D01*
G03X23480700Y25152700I8729J-4913D01*
G01X23489400Y25137600D01*
G03X23498100Y25132600I8660J5000D01*
G01X23733100D01*
G02X23740100Y25129700I-44J-10005D01*
G01X23784900Y25084900D01*
G02X23735100Y25035100I-24900J-24900D01*
G01X23710900Y25059300D01*
G03X23703900Y25062200I-7040J-7095D01*
G37*
G36*
G01X20917700Y28662700D02*
G03X20892300I-12700J-15511D01*
G02Y28717300I-22300J27300D01*
G03X20917700I12700J15511D01*
G02Y28662700I22300J-27300D01*
G37*
G36*
G01X22386100Y26373200D02*
G03X22403900Y26355000I19999J1755D01*
G02X22364900Y26316800I-3925J-35001D01*
G03X22347100Y26335000I-19999J-1755D01*
G02X22386100Y26373200I3925J35001D01*
G37*
G36*
G01X21341500Y24250000D02*
G03X21317900Y24248200I-10567J-17069D01*
G02X21313600Y24304900I-22880J26778D01*
G03X21337200Y24306700I10567J17069D01*
G02X21341500Y24250000I22880J-26778D01*
G37*
G36*
G01X20366600Y28520600D02*
G02X20307400I-29600J-46600D01*
G03X20312000Y28529000I-5403J8418D01*
G01Y28546000D01*
G03X20307400Y28554400I-10003J-18D01*
G02X20290400Y28571400I29600J46600D01*
G03X20282000Y28576000I-8418J-5403D01*
G01X20265000D01*
G03X20256600Y28571400I18J-10003D01*
G02Y28630600I-46600J29600D01*
G03X20265000Y28626000I8418J5403D01*
G01X20282000D01*
G03X20290400Y28630600I-18J10003D01*
G02X20307400Y28647600I46600J-29600D01*
G03X20312000Y28656000I-5403J8418D01*
G01Y28673000D01*
G03X20307400Y28681400I-10003J-18D01*
G02X20317800Y28779800I29584J46623D01*
G01X20317900D01*
G03X20324100Y28786700I-3491J9372D01*
G01X20328200Y28802800D01*
G03X20326000Y28811900I-9720J2466D01*
G02X20392300Y28792000I49068J43082D01*
G03X20385500Y28785700I2612J-9639D01*
G01X20380000Y28770000D01*
G03X20381400Y28760800I9467J-3266D01*
G01Y28760700D01*
G02X20366600Y28681400I-44420J-32741D01*
G03X20362000Y28673000I5403J-8418D01*
G01Y28656000D01*
G03X20366600Y28647600I10003J18D01*
G02Y28554400I-29600J-46600D01*
G03X20362000Y28546000I5403J-8418D01*
G01Y28529000D01*
G03X20366600Y28520600I10003J18D01*
G37*
G36*
G01X22333200Y26555100D02*
G02X22294900Y26516800I-3200J-35100D01*
G03X22276800Y26534900I-19964J-1864D01*
G02X22315100Y26573200I3200J35100D01*
G03X22333200Y26555100I19964J1864D01*
G37*
G36*
G01X23014300Y26135500D02*
G02X22965700I-24300J-25500D01*
G03Y26164500I-13880J14500D01*
G02X23014300I24300J25500D01*
G03Y26135500I13880J-14500D01*
G37*
G36*
G01X22594300D02*
G02X22545700I-24300J-25500D01*
G03Y26164500I-13880J14500D01*
G02X22594300I24300J25500D01*
G03Y26135500I13880J-14500D01*
G37*
G36*
G01X22762900Y25747100D02*
G02X22714000Y25803400I-92629J-31067D01*
G03X22742600Y25816700I9044J17952D01*
G02X22780100Y25773500I34211J-8179D01*
G03X22762900Y25747100I1882J-20029D01*
G37*
G36*
G01X23445100Y24286800D02*
G02X23406800Y24325100I-35100J3200D01*
G03X23412900Y24327900I-872J9945D01*
G01X23422100Y24337100D01*
G03X23424900Y24343200I-7145J6972D01*
G02X23439500Y24368600I35060J-3257D01*
G01X23439600Y24368700D01*
G03X23443800Y24376800I-5812J8153D01*
G01Y24393200D01*
G03X23439600Y24401300I-10012J-53D01*
G01X23439500Y24401400D01*
G02X23480500I20500J28600D01*
G01X23480400Y24401300D01*
G03X23476200Y24393200I5812J-8153D01*
G01Y24376800D01*
G03X23480400Y24368700I10012J53D01*
G01X23480500Y24368600D01*
G02X23463200Y24304900I-20492J-28634D01*
G03X23457100Y24302100I872J-9945D01*
G01X23447900Y24292900D01*
G03X23445100Y24286800I7145J-6972D01*
G37*
G36*
G01X23436900Y24005100D02*
G02X23404900Y23966800I3081J-35092D01*
G03X23383100Y23984900I-19981J-1887D01*
G02X23415100Y24023200I-3081J35092D01*
G03X23436900Y24005100I19981J1887D01*
G37*
G36*
G01X24065100Y23776800D02*
G02X24026800Y23815100I-35100J3200D01*
G03X24044900Y23833200I-1864J19964D01*
G02X24083200Y23794900I35100J-3200D01*
G03X24065100Y23776800I1864J-19964D01*
G37*
G36*
G01X23698600Y25169500D02*
G02Y25210500I-28600J20500D01*
G03X23731400I16400J11636D01*
G02Y25169500I28600J-20500D01*
G03X23698600I-16400J-11636D01*
G37*
G36*
G01X23865000Y23263800D02*
G02X23837600Y23294400I-35008J-3780D01*
G03X23861900Y23316200I4334J19612D01*
G02X23889300Y23285600I35008J3780D01*
G03X23865000Y23263800I-4334J-19612D01*
G37*
G54D22*
X20300000Y25760000D03*
G54D24*
X21927100Y29280000D03*
X22157100D03*
G54D23*
X20273500Y28093000D03*
X20172000Y28855000D03*
G54D21*
X21908300Y25716000D03*
X21654300D03*
X21908300Y25462000D03*
X21654300D03*
X20892300Y23176000D03*
X20638300Y22922000D03*
Y23176000D03*
X20892300Y23938000D03*
Y24192000D03*
Y24446000D03*
X20638300Y23684000D03*
Y23938000D03*
Y24192000D03*
Y24446000D03*
X21146300Y25462000D03*
X21400300D03*
X21146300Y25716000D03*
X21400300D03*
X21994000Y23584000D03*
X21740000D03*
X21994000Y23330000D03*
X21740000D03*
X22162300Y25462000D03*
X22670300D03*
X23178300D03*
X22162300Y25716000D03*
X22416300D03*
X22924300D03*
X23178300D03*
X23432300Y25462000D03*
X23686300D03*
X23432300Y25716000D03*
X23686300D03*
X25212300Y22922000D03*
Y23176000D03*
X24958300Y22922000D03*
Y23176000D03*
X25212300Y23430000D03*
Y23684000D03*
Y23938000D03*
Y24192000D03*
Y24446000D03*
X24958300Y23430000D03*
Y23684000D03*
Y23938000D03*
Y24192000D03*
Y24446000D03*
X24990000Y25462000D03*
Y25716000D03*
Y25970000D03*
G54D20*
X21660000Y28550100D03*
X22160000Y24840000D03*
X21150000Y26280000D03*
X22261300Y27570000D03*
X22071300Y28090000D03*
X21300000Y22870000D03*
X21270000Y24870000D03*
X20460000Y26309600D03*
X20890000Y26109900D03*
X20260000Y27930000D03*
X20165300Y27150000D03*
X20175300Y27600000D03*
X21210000Y28036200D03*
X20273700Y26779900D03*
X20760000Y28040000D03*
X20530000Y28550000D03*
X20682500D03*
X21220000Y28790000D03*
X21170000Y28230400D03*
X21080000Y28700000D03*
X21470000Y24300000D03*
X23120000Y23980000D03*
X22160000Y24320000D03*
X22210000Y23880000D03*
X21560000Y25180000D03*
Y24810000D03*
X23010000Y24800000D03*
X21550000Y26160000D03*
X22670000Y24950000D03*
X22789300Y25569300D03*
X21780000Y26070000D03*
X22400000Y25900000D03*
X21860000Y26350000D03*
X22190000Y27899600D03*
X22229600Y27260000D03*
X22026100Y27099900D03*
X22070100Y26770100D03*
X22070000Y26520000D03*
X21470000Y28657700D03*
X21709900Y28264700D03*
X21699900Y29030000D03*
X23190000Y24520000D03*
X23500000Y24240000D03*
X24600000Y23440000D03*
X23850000Y24770000D03*
X23300000Y23960000D03*
X23680000Y24140000D03*
X23630000Y24320000D03*
X23720000Y23640000D03*
X24100000Y23260000D03*
X24660000Y23810000D03*
X23710000Y23440000D03*
X23460000Y24550000D03*
X23870000Y24970000D03*
X23860000Y25520000D03*
X23970000Y25040000D03*
X23395000Y24795000D03*
X24460000Y25600000D03*
X23250000Y26010000D03*
X23460000Y26060000D03*
X24010000Y26110000D03*
X23840000Y25640000D03*
X24010000Y26010000D03*
X25610000Y24230000D03*
X25130000Y24670000D03*
X24780000Y24090200D03*
X25063300Y24770000D03*
X21976100Y24247000D03*
X22400000Y24970000D03*
%LPD*%
G75*
G54D10*
X20180000Y20720000D03*
X20560000Y29400000D03*
X25640000Y20840000D03*
G54D11*
G01X20146200Y20000000D02*
X25703800D01*
G03X25850000Y20146200I0J146200D01*
G01Y24450000D01*
G03X25740000Y24765000I-506023J0D01*
G02X25630000Y25080000I396023J315000D01*
G02X25740000Y25395000I506023J0D01*
G03X25850000Y25710000I-396023J315000D01*
G01Y29383800D01*
G03X25703800Y29530000I-146200J0D01*
G01X21580000D01*
Y29410000D01*
X21420000D01*
Y29200000D01*
X21330000D01*
Y29410000D01*
X20950000D01*
Y29200000D01*
X20860000D01*
Y29410000D01*
X20700000D01*
Y29530000D01*
X20146200D01*
G03X20000000Y29383800I0J-146200D01*
G01Y25710000D01*
G03X20110000Y25395000I506023J0D01*
G02X20220000Y25080000I-396023J-315000D01*
G02X20110000Y24765000I-506023J0D01*
G03X20000000Y24450000I396023J-315000D01*
G01Y20146200D01*
G03X20146200Y20000000I146200J0D01*
X20250000Y20250000D03*
X20260000Y24967100D03*
Y25197100D03*
X20375000Y28855000D03*
X20172000D03*
X20273500Y28093000D03*
X22250000Y22280000D03*
X21927100Y29280000D03*
X22157100D03*
X23750000Y22280000D03*
X25580000Y20250000D03*
X25590000Y25202900D03*
Y24972900D03*
G54D12*
X20892300Y22160000D03*
Y22414000D03*
X20638300Y22160000D03*
Y22414000D03*
X20640000Y21650000D03*
Y21396000D03*
Y21142000D03*
X20892300Y22668000D03*
Y22922000D03*
Y23176000D03*
Y23430000D03*
Y23684000D03*
Y23938000D03*
Y24192000D03*
X20638300Y22668000D03*
Y22922000D03*
Y23176000D03*
Y23430000D03*
Y23684000D03*
Y23938000D03*
Y24192000D03*
X20892300Y24446000D03*
X20638300D03*
X21994000Y23584000D03*
X21740000D03*
X21994000Y23330000D03*
X21740000D03*
X21146300Y25462000D03*
X21400300D03*
X21654300D03*
X21908300D03*
X22162300D03*
X22416300D03*
X21146300Y25716000D03*
X21400300D03*
X21654300D03*
X21908300D03*
X22162300D03*
X22416300D03*
X22670300Y25462000D03*
X22924300D03*
X23178300D03*
X23432300D03*
X23686300D03*
X22670300Y25716000D03*
X22924300D03*
X23178300D03*
X23432300D03*
X23686300D03*
X25212300Y22160000D03*
Y22414000D03*
X24958300Y22160000D03*
Y22414000D03*
X25210000Y21650000D03*
Y21396000D03*
Y21142000D03*
X25212300Y22668000D03*
Y22922000D03*
Y23176000D03*
Y23430000D03*
Y23684000D03*
Y23938000D03*
Y24192000D03*
X24958300Y22668000D03*
Y22922000D03*
Y23176000D03*
Y23430000D03*
Y23684000D03*
Y23938000D03*
Y24192000D03*
X25212300Y24446000D03*
X24958300D03*
X24990000Y25462000D03*
Y25716000D03*
Y25970000D03*
G54D13*
G01X22180000Y25220000D02*
X22302600Y25097400D01*
X23722600D01*
X23760000Y25060000D01*
X20830000Y23050000D03*
X20500000Y22630000D03*
X20270000Y23380000D03*
X20480000Y23070000D03*
Y22760000D03*
X20440000Y23530000D03*
X20350000Y23770000D03*
X20170000Y24100000D03*
X20110000Y24390000D03*
X20480000Y24730000D03*
X20490000Y25160000D03*
X20330000Y24250000D03*
X20260000Y25320000D03*
X20140000Y24590000D03*
X20510000Y27130000D03*
X20160000Y27250000D03*
X20140000Y27100000D03*
X20160000Y26760000D03*
X20640000Y26200000D03*
X20360000Y26170000D03*
X20460000Y26309600D03*
X20165300Y27150000D03*
X20273700Y26779900D03*
X20520000Y27770000D03*
X20310000Y27860000D03*
X20400000Y28130000D03*
X20850000Y28830000D03*
X20530000Y28690000D03*
X20600000Y28790000D03*
X20337000Y28347000D03*
X20210000Y28474000D03*
Y28728000D03*
X20750000Y28260000D03*
X20230000Y27440000D03*
X20480000Y28230000D03*
X20340000Y28730000D03*
X20337500Y28470000D03*
X20210000Y28600000D03*
Y28350000D03*
X20350000Y28210000D03*
X20530000Y28550000D03*
X20682500D03*
X20260000Y27930000D03*
X20200000Y28240000D03*
X20175300Y27600000D03*
X20760000Y28040000D03*
X20870000Y28690000D03*
X20770000Y28930000D03*
X20730000Y29060000D03*
X22410000Y20250000D03*
X22000000Y20100000D03*
X21580000Y20240000D03*
X21250000Y20110000D03*
X21120000Y20270000D03*
X21250000Y20540000D03*
X21130000Y20740000D03*
X21550000D03*
X21710000Y20590000D03*
X22060000Y20740000D03*
X22330000Y20590000D03*
X22400000Y21100000D03*
X22120000Y21230000D03*
X21770000Y21090000D03*
X21500000Y21220000D03*
X21200000Y21090000D03*
X21250000Y21430000D03*
X21120000Y21270000D03*
Y21740000D03*
X21280000Y21600000D03*
X21400000Y21740000D03*
X21660000Y21600000D03*
X21790000Y21740000D03*
X22050000Y21600000D03*
X22330000Y21730000D03*
X22340000Y23120000D03*
X22350000Y22900000D03*
X22500000Y23380000D03*
X22300000Y23550000D03*
X21040000Y23330000D03*
X21030000Y22960000D03*
X21550000Y23180000D03*
X21440000Y23090000D03*
X21430000Y22640000D03*
X22040000Y24090000D03*
X21820000Y24120000D03*
X22240000Y23770000D03*
X22280000Y23630000D03*
X21630000Y23860000D03*
X22140000Y23870000D03*
X22120000Y24082500D03*
X22080000Y22910000D03*
X22360000Y22770000D03*
X22180000Y22950000D03*
X21900000Y22630000D03*
X22240000Y22650000D03*
X22180000Y23110000D03*
X21860000Y23750000D03*
X21430000Y24050000D03*
X21580000Y23990000D03*
X21610000Y23730000D03*
X21440000Y23690000D03*
X21600000Y23450000D03*
X21440000Y23380000D03*
X21580000Y22940000D03*
X22000000Y22740000D03*
X21740000D03*
X22270000Y23330000D03*
X22500000Y23050000D03*
X22270000Y23450000D03*
X22190000Y22750000D03*
X22460000Y22810000D03*
X22310000Y22990000D03*
X22190000Y23530000D03*
X22290000Y23880000D03*
X22340000Y23210000D03*
X22260000Y23390000D03*
X22280000Y23270000D03*
X22210000Y23710000D03*
X22232800Y23653600D03*
X22060000Y23870000D03*
X22050000Y23940000D03*
X21811500Y23950000D03*
X22210000Y23880000D03*
X21300000Y22870000D03*
X21240000Y22630000D03*
X22332300Y24879800D03*
X22280000Y24882500D03*
X22450000Y24920000D03*
X21770000Y25560000D03*
X21840000Y24760000D03*
X21660000D03*
X21770000Y24980000D03*
X22030000Y24310000D03*
Y24750000D03*
X22370000Y25230000D03*
X22440000D03*
X21860000Y24200000D03*
X22090000Y24320000D03*
X21830000Y24270000D03*
X21620000Y24300000D03*
X21230000Y25170000D03*
X21010000Y25280000D03*
X22090000Y24831300D03*
X22160000Y24840000D03*
Y24320000D03*
X21976100Y24247000D03*
X22400000Y24970000D03*
X21427300Y24740000D03*
X21360100Y24279900D03*
X21560000Y25180000D03*
X22180000Y25220000D03*
X21470000Y24300000D03*
X21560000Y24810000D03*
X21270000Y24870000D03*
X21295000Y24275000D03*
X22310000Y26120000D03*
X21930000Y26150000D03*
X22210000Y26000000D03*
X22310000Y26180000D03*
X22210000Y26250000D03*
X22440000Y26007500D03*
X22040000D03*
X22490000Y26350000D03*
X22170000Y25950000D03*
X22070000Y26390000D03*
X21180000Y26520000D03*
X22130000Y27110000D03*
X21790000Y27130000D03*
X22230000Y26920000D03*
X20900000Y26520000D03*
X21630000Y26180000D03*
X21130000Y26210000D03*
X21780000Y26170000D03*
X21930000Y26100000D03*
X21770000Y25900000D03*
X21410000Y25870000D03*
X21150000Y26280000D03*
X20890000Y26109900D03*
X22229600Y27260000D03*
X22026100Y27099900D03*
X22070100Y26770100D03*
X21550000Y26160000D03*
X22170000Y26190000D03*
X22351000Y26370000D03*
X22280000Y26570000D03*
X22070000Y26520000D03*
X22330000D03*
X21780000Y26070000D03*
X22400000Y25900000D03*
X22170000Y26110000D03*
X21860000Y26350000D03*
X22400000Y26320000D03*
X21360000Y28190000D03*
X21320000Y28280000D03*
X21570000Y28560000D03*
X21800000Y27540000D03*
X21230000Y28160000D03*
X21080000Y28120000D03*
X22260000Y28470000D03*
X22180000Y28780000D03*
X22080000Y28480000D03*
X21880000Y28610000D03*
X21430000Y28260000D03*
X21760000Y28140000D03*
X21840000Y28260000D03*
X21450000Y28830000D03*
X21580000Y28740000D03*
X21380000Y28730000D03*
X21350000Y28820000D03*
X21000000Y28430000D03*
X21070000Y28530000D03*
X22260000Y27670000D03*
X22270000Y27470000D03*
X21800000Y27420000D03*
X21180000Y27800000D03*
X21730000D03*
X21010000Y28890000D03*
X21470000Y28657700D03*
X21220000Y28790000D03*
X21709900Y28264700D03*
X22190000Y27899600D03*
X22071300Y28090000D03*
X21170000Y28230400D03*
X21210000Y28036200D03*
X22261300Y27570000D03*
X21660000Y28550100D03*
X21080000Y28700000D03*
X21205000Y28890000D03*
X21140000D03*
X20940000Y28690000D03*
X21075000Y28890000D03*
X21520000Y28960000D03*
X21560000Y29050000D03*
X21699900Y29030000D03*
X23960000Y20250000D03*
X23570000Y20090000D03*
X23230000Y20250000D03*
X22770000Y20090000D03*
X22690000Y20750000D03*
X23050000Y20600000D03*
X23230000Y20740000D03*
X23480000Y20590000D03*
X23640000Y20750000D03*
X23870000Y20590000D03*
X23880000Y21240000D03*
X23300000Y21090000D03*
X22890000Y21240000D03*
X22600000Y21600000D03*
X23060000Y22240000D03*
X22850000Y21740000D03*
X23060000Y21600000D03*
Y21840000D03*
X22920000Y22050000D03*
X23050000Y22430000D03*
X22930000Y22420000D03*
X22890000Y23520000D03*
X22790000Y23410000D03*
X22650000Y23700000D03*
X22560000Y23080000D03*
X22650000Y23560000D03*
X23700000Y22630000D03*
X23730000Y22980000D03*
X23380000Y23040000D03*
X23210000Y22890000D03*
X23200000Y22720000D03*
X23070000Y22710000D03*
X23120000Y22900000D03*
X23300000Y23260000D03*
X22790000Y23300000D03*
X24050000Y23980000D03*
X23060000Y23510000D03*
X23180000Y23520000D03*
X23090000Y23180000D03*
X23450000Y23640000D03*
X23280000Y23420000D03*
X23530000Y23140000D03*
X23890000Y22780000D03*
X24080000Y22740000D03*
X23790000Y22630000D03*
X23410000Y22620000D03*
X22660000Y22630000D03*
X22520000D03*
X24070000Y23490000D03*
Y23580000D03*
X23880000Y23567700D03*
X23200000Y23970000D03*
X23257400Y24000000D03*
X22770000Y22750000D03*
X22570000D03*
X23320000Y22900000D03*
X23530000D03*
X23520000Y22750000D03*
X23580000Y22970000D03*
X23440000Y22740000D03*
X22720000Y23050000D03*
X22610000Y23280000D03*
X22900000Y22710000D03*
X22750000Y22880000D03*
X22930000Y23020000D03*
X22850000Y23050000D03*
X22830000Y22630000D03*
X23120000Y22620000D03*
X23350000Y22710000D03*
Y22650000D03*
X22630000Y23480000D03*
X22565700Y22810000D03*
X22510000Y22790000D03*
X23440000Y22900000D03*
X23830000Y23460000D03*
X23710000Y23560000D03*
X23170000Y23050000D03*
X22880000Y22880000D03*
X22690000Y23170000D03*
X22560000Y23180000D03*
X22670000Y23410000D03*
X22580000Y23130000D03*
X22620000Y23050000D03*
X23490000Y22660000D03*
X23210000Y22620000D03*
X23580000Y22660000D03*
X23100000Y22980000D03*
X22880000Y22790000D03*
X22840000Y22690000D03*
X22890000Y23130000D03*
X22520000Y23290000D03*
X22710000Y23640000D03*
X22560000Y23400000D03*
X22580000Y23450000D03*
X22600000Y23770000D03*
X22760000Y23570000D03*
X22637200Y23611200D03*
X24080000Y22630000D03*
X23120000Y23980000D03*
X24080000Y23830000D03*
X23380000Y24020000D03*
X24030000Y23780000D03*
X23440000Y23970000D03*
X23896900Y23320000D03*
X23300000Y23960000D03*
X23720000Y23640000D03*
X23830000Y23260000D03*
X24100000D03*
X23710000Y23440000D03*
X24010000Y24750000D03*
X23580000Y25190000D03*
X24040000Y24250000D03*
X24030000Y24390000D03*
X22600000Y25230000D03*
X22730000Y25220000D03*
X23290000Y24639600D03*
X23300000Y24520000D03*
X22660000Y24880000D03*
X23060000Y24670000D03*
X23600000Y25380000D03*
X23310000Y24840000D03*
X23030000Y24930000D03*
X23410000Y24650000D03*
X23110200Y24757500D03*
X23170000Y24662500D03*
X24003700Y25134000D03*
X23300000Y25460000D03*
X23190000Y24520000D03*
X23410000Y24290000D03*
X24080000Y24750000D03*
X23870000Y24970000D03*
X23500000Y24240000D03*
X23020000Y25242500D03*
X23670000Y25190000D03*
X22670000Y24950000D03*
X23760000Y25190000D03*
X23010000Y24800000D03*
X22870000Y25340000D03*
X23860000Y25520000D03*
X23970000Y25040000D03*
X23850000Y24770000D03*
X23010000Y25350000D03*
X23450000Y25180000D03*
X23290000Y25010000D03*
X23680000Y24140000D03*
X23440000Y25240000D03*
X23210000Y24990000D03*
X23630000Y24320000D03*
X23760000Y25060000D03*
X22590500Y24756100D03*
X22640000Y24737700D03*
X22690000Y24810000D03*
X23460000Y24550000D03*
Y24430000D03*
Y24340000D03*
X23395000Y24795000D03*
X23210000Y25230000D03*
X23120000D03*
X22789300Y25569300D03*
X22790000Y24840000D03*
X22740000Y24870000D03*
X23840000Y25640000D03*
X22730000Y26120000D03*
X23330000Y25880000D03*
X23090000Y25950000D03*
X22970000Y26010000D03*
X22740000Y26820000D03*
X23920000Y26610000D03*
X22665100Y25942300D03*
X23180000Y26330000D03*
X23050000Y26410000D03*
X23960000Y26230000D03*
X22840000Y26007500D03*
X22730000Y26173800D03*
X22510000Y26590000D03*
X23560000Y26360000D03*
X22990000Y26190000D03*
X22570000D03*
X23250000Y26010000D03*
X23460000Y26060000D03*
X24010000Y26110000D03*
Y26010000D03*
X22776800Y25808500D03*
X22990000Y26110000D03*
X22570000D03*
X23650000Y27960000D03*
X22570000Y27890000D03*
Y27390000D03*
X22530000Y28780000D03*
X22550000Y28320000D03*
X24110000Y29400000D03*
X23420000Y29420000D03*
X22560000Y29340000D03*
X24810000Y20110000D03*
X24660000Y20240000D03*
X24360000Y20100000D03*
X24160000Y20750000D03*
X24420000Y20600000D03*
X24790000Y20590000D03*
X24700000Y20750000D03*
X24860000Y20760000D03*
X24710000Y21030000D03*
X24860000Y21240000D03*
X24550000Y21250000D03*
X24290000Y21100000D03*
X25690000Y23520000D03*
Y23000000D03*
X25430000Y24040000D03*
X25080000Y22630000D03*
X25490000Y22620000D03*
X25390000D03*
X24350000Y23710000D03*
X25690000Y22800000D03*
X24600000Y22620000D03*
X24430000D03*
X24760000Y23620000D03*
X24750000Y23370000D03*
X24400000Y23990000D03*
X25710000Y23920000D03*
X24680000Y22770000D03*
X25400000Y22850000D03*
X25390000Y23500000D03*
X24520000Y23120000D03*
X24600000Y23440000D03*
X24660000Y23810000D03*
X24780000Y24090200D03*
X24770000Y25730000D03*
X24530000Y24770000D03*
X24178900Y25642200D03*
X24710000Y24520000D03*
X25430000Y24310000D03*
X24230000Y24760000D03*
X24660000Y24980000D03*
X25150000Y24930000D03*
X25690000Y24410000D03*
X24900000Y25110000D03*
X24720000Y25610000D03*
X25370000Y25700000D03*
X24350000Y25040000D03*
X25280000Y25180000D03*
X25610000Y25540000D03*
X25330000Y25060000D03*
X25610000Y24230000D03*
X25130000Y24670000D03*
X25063300Y24770000D03*
X24460000Y25600000D03*
X24490000Y26650000D03*
X25380000Y26100000D03*
X25690000Y26130000D03*
Y27060000D03*
X25510000Y26550000D03*
X25080000Y26470000D03*
X24260000Y25930000D03*
X24760000Y26330000D03*
X24620000Y26100000D03*
X25710000Y27720000D03*
X25720000Y28170000D03*
X25730000Y28820000D03*
X24800000Y29360000D03*
X25760000Y24550000D03*
G54D14*
X20300000Y25760000D03*
G54D15*
X20337000Y28728000D03*
Y28601000D03*
Y28474000D03*
Y28347000D03*
Y28220000D03*
X20210000Y28728000D03*
Y28601000D03*
Y28474000D03*
Y28347000D03*
Y28220000D03*
G54D16*
X20250000Y29270000D03*
X25580000D03*
G54D17*
X20745000Y29265000D03*
X21535000D03*
G54D18*
X22460000Y24120000D03*
Y24220000D03*
Y24320000D03*
Y24420000D03*
Y24520000D03*
X21320000Y28510000D03*
Y28600000D03*
Y28420000D03*
X22560000Y24120000D03*
X22660000D03*
X22760000D03*
X22860000D03*
Y24220000D03*
X22760000D03*
X22660000D03*
X22560000D03*
X22860000Y24320000D03*
X22760000D03*
X22660000D03*
X22560000D03*
X22860000Y24420000D03*
X22760000D03*
X22660000D03*
X22560000D03*
X22860000Y24520000D03*
X22760000D03*
X22660000D03*
X22560000D03*
G54D19*
G01X22590500Y24756100D02*
X22514400Y24680000D01*
X21307500D01*
X21070000Y24442500D01*
Y23620000D01*
X21020000Y23570000D01*
X20778300D01*
X20638300Y23430000D01*
G01Y22668000D02*
X20770300Y22800000D01*
X20980000D01*
X21100000Y22920000D01*
Y24430000D01*
X21320000Y24650000D01*
X22552300D01*
X22640000Y24737700D01*
G01X20300000Y25649800D02*
Y25760000D01*
G01X20784600Y24192000D02*
X20892300D01*
G01X20300000Y25760000D02*
Y25870200D01*
G01X20189800Y25760000D02*
X20300000D01*
G01D02*
X20410200D01*
G01X20892300Y24084300D02*
Y24192000D01*
G01X21146300Y25608300D02*
Y25716000D01*
G01D02*
Y25823700D01*
G01X21038600Y25716000D02*
X21146300D01*
G01D02*
X21254000D01*
G01X21146300Y25354300D02*
Y25462000D01*
G01D02*
Y25569700D01*
G01X21038600Y25462000D02*
X21146300D01*
G01D02*
X21254000D01*
G01X20892300Y24192000D02*
Y24299700D01*
G01Y24192000D02*
X21000000D01*
G01X24080000Y24750000D02*
Y25140000D01*
X23922500Y25297500D01*
X22580800D01*
X22416300Y25462000D01*
G01X25212300Y24338300D02*
Y24446000D01*
G01D02*
Y24553700D01*
G01X25104600Y24446000D02*
X25212300D01*
G01D02*
X25320000D01*
M02*
