G04 CAM350 V10.0.1 (Build 312) Date:  Fri Jul 29 09:56:09 2016 *
G04 Database: C:\arctmp\odbjob_v7\odbjob_v7.cam *
G04 Layer 12: cc1310launchpad1-1-2.drl *
%FSLAX23Y23*%
%MOIN*%
%SFA1.000B1.000*%

%MIA0B0*%
%IPPOS*%
%LNcc1310launchpad1-1-2.drl*%
%LPD*%
G54D30*
X56299Y56299D03*
Y56299D03*
Y56299D03*
Y56299D03*
Y56299D03*
Y56299D03*
Y56299D03*
Y56299D03*
Y56299D03*
Y56299D03*
Y56299D03*
Y56299D03*
Y56299D03*
Y56299D03*
Y56299D03*
Y56299D03*
Y56299D03*
Y56299D03*
Y56299D03*
Y56299D03*
Y56299D03*
Y56299D03*
Y56299D03*
Y56299D03*
Y56299D03*
Y56299D03*
Y56299D03*
Y56299D03*
Y56299D03*
Y56299D03*
G54D22*
Y56299D03*
X55299D03*
X54299D03*
X53299D03*
X56299D03*
X55299D03*
X54299D03*
X53299D03*
X56299D03*
Y56299D03*
Y56299D03*
Y56299D03*
Y56299D03*
Y55299D03*
Y54299D03*
Y53299D03*
Y52299D03*
Y56299D03*
Y56299D03*
Y56299D03*
Y56299D03*
Y56299D03*
Y56299D03*
Y56299D03*
Y56299D03*
X56299D03*
Y56299D03*
X56299D03*
X55299D03*
X54299D03*
X56299D03*
X55499D03*
X54699D03*
X53899D03*
X56299D03*
Y55299D03*
Y54299D03*
Y53299D03*
Y52299D03*
Y51299D03*
Y50299D03*
Y49299D03*
Y48299D03*
Y47299D03*
Y56299D03*
Y56299D03*
Y56299D03*
Y56299D03*
Y56299D03*
Y56299D03*
Y56299D03*
Y56299D03*
Y56299D03*
Y56299D03*
Y56299D03*
Y55299D03*
Y54299D03*
Y53299D03*
Y52299D03*
Y51299D03*
Y50299D03*
Y49299D03*
Y48299D03*
Y47299D03*
Y56299D03*
Y56299D03*
Y56299D03*
Y56299D03*
Y56299D03*
Y56299D03*
Y56299D03*
Y56299D03*
Y56299D03*
Y56299D03*
Y56299D03*
X54309D03*
X52319D03*
X56299D03*
Y55299D03*
Y54299D03*
Y56299D03*
Y56299D03*
Y56299D03*
Y56299D03*
Y56299D03*
Y56299D03*
X56299D03*
Y56299D03*
X56299D03*
Y56299D03*
Y56299D03*
Y56299D03*
Y56299D03*
Y56299D03*
Y56299D03*
Y56299D03*
Y56299D03*
Y56299D03*
Y56299D03*
Y54309D03*
Y52319D03*
Y56299D03*
Y56299D03*
Y56299D03*
Y56299D03*
Y56299D03*
Y56299D03*
Y56299D03*
Y56299D03*
Y56299D03*
Y56299D03*
Y56299D03*
Y54309D03*
Y52319D03*
Y56299D03*
Y56299D03*
Y56299D03*
Y56299D03*
Y56299D03*
Y56299D03*
Y54309D03*
Y52319D03*
Y56299D03*
Y56299D03*
Y56299D03*
Y56299D03*
Y56299D03*
Y56299D03*
Y54309D03*
Y52319D03*
Y56299D03*
Y54309D03*
Y52319D03*
Y56299D03*
Y54309D03*
Y52319D03*
G54D73*
Y56299D03*
Y56299D03*
Y56299D03*
Y56299D03*
Y56299D03*
M02*
